<svg xmlns="http://www.w3.org/2000/svg" fill="none" viewBox="0 0 84 84">
  <defs/>
  <path fill="url(#paint0_linear)" d="M1.7 39.5c-.4-.8 0-1.8.8-2.2 4.2-2 9.6-3.6 16-4.8 1-.2 1.9.4 2 1.3.2 1-.4 1.8-1.3 2a66.5 66.5 0 00-16 4.7c-.7 0-1.3-.4-1.5-1zM3.2 54c.2 0 .5 0 .7-.2C7 52.3 11 51 15.9 50a1.7 1.7 0 00-.8-3.3 63 63 0 00-12.6 4 1.7 1.7 0 00.7 3.3zm54.1-26.1h.3c8-1.1 17.2-2.7 24-6 .8-.4 1.1-1.4.7-2.3a1.7 1.7 0 00-2.2-.8c-6.3 3.1-15.2 4.6-23 5.7-.9.1-1.5 1-1.4 2 0 .8.8 1.4 1.6 1.4zM80.1 32a51 51 0 01-11.3 3.7 1.7 1.7 0 00.7 3.3c5-1 8.9-2.4 12-4 .9-.3 1.2-1.3.8-2.2a1.7 1.7 0 00-2.2-.8zm0 13.4a59.4 59.4 0 01-15 4.4 1.7 1.7 0 00.7 3.3 61.6 61.6 0 0015.7-4.6c.9-.5 1.2-1.5.8-2.3a1.7 1.7 0 00-2.2-.8zM47.9 31.9c-6 0-10.8 5-10.8 11a11 11 0 004 8.6c.8.6 1.8.5 2.4-.3.6-.7.5-1.8-.3-2.4a7.6 7.6 0 01-2.8-5.9c0-4.2 3.4-7.6 7.5-7.6 4.2 0 7.6 3.4 7.6 7.6 0 7.5-6 13.6-13.5 13.6a13.6 13.6 0 01-10-22.7c2.4-2.7 5.3-4.6 8.2-6.5 5.2-3.4 10.6-7 11-14.9.2-2.3-.7-4.6-2.3-6.4a9.3 9.3 0 00-16.1 6.3v9c0 .9.7 1.6 1.6 1.6 1 0 1.7-.7 1.7-1.7v-8.9a6 6 0 0110.3-4c1 1.1 1.6 2.5 1.5 4-.4 6.1-4.4 8.8-9.6 12.2-3 2-6.1 4-8.8 7A17 17 0 0042 60a17 17 0 0016.8-17c0-6-4.9-11-10.9-11zm-2 34.4c-3 0-5.3 2.4-5.3 5.4 0 .9.7 1.7 1.6 1.7 1 0 1.7-.8 1.7-1.7 0-1.1 1-2 2-2a2 2 0 012 2c0 1.5-.5 2.9-1.5 4a6 6 0 01-10.3-4v-9c0-.9-.7-1.6-1.7-1.6-.9 0-1.7.7-1.7 1.7v8.9A9.3 9.3 0 0049 78c1.6-1.8 2.5-4 2.4-6.4 0-3-2.5-5.3-5.4-5.3zm-25.2-7.4C12.9 60.2 7 61.9 2.5 64a1.7 1.7 0 00.7 3.3c.2 0 .5 0 .7-.2 4.4-2 9.9-3.6 17.4-4.9a1.7 1.7 0 00-.6-3.3z"/>
  <defs>
    <linearGradient id="paint0_linear" x1="66" x2="13.4" y1="31.6" y2="31.6" gradientUnits="userSpaceOnUse">
      <stop stop-color="#0DA6F2"/>
      <stop offset="1" stop-color="#F2390B"/>
    </linearGradient>
  </defs>
</svg>