<svg width="103" height="70" viewBox="0 0 103 70" fill="none" xmlns="http://www.w3.org/2000/svg">
<path fill-rule="evenodd" clip-rule="evenodd" d="M90.1739 11.965L89.6556 10.5986C88.6724 9.75314 88.5063 9.79027 87.6945 9.9717C87.6046 9.99178 87.5069 10.0136 87.3993 10.0362C87.1851 10.0218 86.9796 10.0672 86.7742 10.1125C86.6715 10.1352 86.5687 10.1579 86.4649 10.1731C85.9038 10.324 85.2907 10.4825 84.7197 10.5661C83.7124 10.748 82.7027 10.9131 81.6929 11.0782C80.6831 11.2433 79.6734 11.4084 78.6661 11.5903C78.309 11.6427 77.9441 11.7293 77.5729 11.8174C77.1887 11.9086 76.7978 12.0014 76.4018 12.0594C76.064 12.1545 75.6948 12.1937 75.3178 12.2337C75.1264 12.2541 74.933 12.2746 74.7407 12.3028L74.7406 12.3028C73.2872 12.5157 71.7818 12.7362 70.3185 12.8819C70.1109 12.9123 69.7475 12.9656 69.6142 12.779C69.3134 12.3997 69.0095 12.4286 68.6914 12.459C68.5967 12.468 68.5007 12.4771 68.4032 12.4757C66.5082 12.5701 64.6307 12.7841 62.7533 12.9981C61.8145 13.1051 60.8758 13.2121 59.9348 13.3041C57.4431 13.4974 54.9909 13.8191 52.5336 14.1415C51.0615 14.3346 49.5876 14.528 48.1022 14.6942C44.9778 15.0832 41.8436 15.405 38.7093 15.7268C38.2575 15.7755 37.8085 15.8193 37.3611 15.863C36.0509 15.9909 34.7551 16.1175 33.4468 16.3603C32.4185 16.5797 31.3704 16.6645 30.3125 16.6821L29.8973 16.743C28.1401 17.1148 26.3488 17.2533 24.5574 17.3917C24.1992 17.4194 23.8409 17.447 23.4829 17.4766C23.0367 17.5076 22.5752 17.5237 22.1136 17.5398C21.652 17.5559 21.1904 17.572 20.7442 17.6031C19.5405 17.7107 18.3367 17.8184 17.1231 17.8588L17.1231 17.8588C15.9614 17.8916 14.7997 17.9244 13.6281 17.89C13.0992 17.8988 12.632 17.9673 12.1425 18.245C12.5774 18.3187 13.0124 18.3923 13.4895 18.3911C14.5992 18.3659 15.7708 18.4003 16.8878 18.7862C17.2189 18.875 17.5402 18.8966 17.8517 18.851C18.4701 18.7604 19.1039 18.7745 19.7422 18.7888C20.5506 18.8068 21.3662 18.825 22.1674 18.6309C22.3731 18.5539 22.5971 18.6021 22.8733 18.6614C23.002 18.6891 23.1421 18.7192 23.2968 18.7402C22.9841 18.9332 22.6935 18.9652 22.4238 18.9949C22.1902 19.0206 21.9722 19.0446 21.7691 19.17C21.7778 19.229 21.8101 19.3109 21.8394 19.3849C21.8769 19.4797 21.9093 19.5616 21.8801 19.5659C21.6501 19.8056 21.7415 20.067 21.8748 20.2535C23.1091 20.7561 24.3071 20.652 25.4537 20.5524L25.4709 20.5509C25.9808 20.5019 26.4947 20.4814 27.0087 20.4608C27.8653 20.4265 28.7219 20.3923 29.5593 20.2267C29.715 20.2039 29.7964 20.398 29.7741 20.6073C29.6132 20.7168 29.4171 20.712 29.2218 20.7072C28.9489 20.7005 28.6775 20.6938 28.5059 20.9991C28.5552 21.3354 28.7727 21.3722 28.9284 21.3494C29.0864 21.349 29.2423 21.3338 29.3962 21.3188C29.707 21.2886 30.0101 21.2592 30.3076 21.3534C30.8562 21.479 31.3332 21.4778 31.8004 21.4094C32.2985 21.3708 32.7941 21.3154 33.2897 21.2599C33.7853 21.2045 34.2809 21.1491 34.7789 21.1104C34.9347 21.0876 35.1423 21.0572 35.2014 21.4606C33.4856 21.712 31.8095 21.8926 30.0869 22.0783L29.9389 22.0942C27.2056 22.364 24.5104 22.5662 21.7724 22.7715C21.6307 22.7821 21.4889 22.7928 21.347 22.8034C20.9289 22.8305 20.5053 22.9094 20.0752 22.9895C19.6408 23.0704 19.1999 23.1525 18.7515 23.1837C16.5615 23.4358 14.4359 23.4038 12.2288 23.1776C12.1608 23.2563 12.0952 23.3517 12.0297 23.4472C11.9641 23.5427 11.8986 23.6381 11.8306 23.7168C11.6426 23.8817 11.393 23.9869 11.1433 24.0922L11.1433 24.0922C11.6695 24.4272 12.186 24.695 12.8286 24.7382L12.8286 24.7382C14.2695 24.8018 15.7105 24.8655 17.1738 24.7198C17.641 24.6513 18.0661 24.6578 18.6246 24.8507C18.4143 25.2249 18.1547 25.2629 17.9373 25.2261C16.5062 25.2297 15.127 25.2257 13.686 25.162C12.6183 25.1124 11.6419 25.3241 10.9394 26.3199C10.9913 26.3123 11.3815 26.8046 11.3914 26.8719C11.1337 26.9738 10.8738 27.0611 10.6192 27.1467C10.329 27.2441 10.0455 27.3393 9.77956 27.4514C9.72856 27.5794 9.68753 27.7058 9.65045 27.8201C9.60296 27.9665 9.56194 28.093 9.5147 28.1771C9.21514 28.2545 8.92562 28.3141 8.64238 28.3724C8.34597 28.4334 8.05644 28.4929 7.76949 28.5701C7.73788 28.8005 7.66455 28.9907 7.59459 29.1721C7.49432 29.4321 7.40099 29.6741 7.44741 29.991C7.72666 30.0874 8.00591 30.1839 8.295 30.3476C8.52234 30.4517 8.65571 30.6382 8.65305 30.982C8.6504 31.3258 8.6898 31.5948 8.73905 31.931C8.81786 32.4689 8.66932 32.9028 8.27375 33.0981C8.14891 33.1507 8.03457 33.1846 7.92024 33.2185C7.80591 33.2525 7.69157 33.2864 7.56673 33.339C7.46869 33.3534 7.36129 33.3844 7.24789 33.4172C7.12111 33.4538 6.98685 33.4927 6.84985 33.5127C7.13895 33.6764 7.35643 33.7132 7.61598 33.6752C8.14492 33.6664 8.55754 33.9494 8.80192 34.5317C9.0463 35.1141 8.7841 35.4959 8.46999 35.8854C8.64934 36.091 8.79267 36.2802 8.92953 36.4609C9.03582 36.6012 9.1382 36.7363 9.25051 36.87C9.22898 37.0086 9.21401 37.1356 9.1998 37.2559C9.178 37.4408 9.15803 37.61 9.11902 37.7821C8.26612 38.1131 8.12024 38.2032 7.952 38.5026C7.98156 38.7043 8.08272 39.0329 8.17403 39.2942C8.11573 39.3028 8.06364 39.3537 8.00334 39.4127C7.95626 39.4588 7.90418 39.5097 7.84022 39.5492C7.86408 39.6061 7.88179 39.652 7.89647 39.6901C7.9319 39.7821 7.94962 39.828 7.99329 39.8702C8.354 40.1608 8.45516 40.4894 8.25472 40.9308C8.24183 40.9877 8.21234 41.047 8.18284 41.1062C8.1386 41.1951 8.09436 41.284 8.10618 41.3647C8.10786 41.3762 8.10932 41.3873 8.11057 41.3981L91.443 29.1903C91.211 28.8196 91.0861 28.4233 90.9835 27.9872C90.6031 27.8131 90.2572 27.8742 89.9416 27.9301C89.8799 27.941 89.8194 27.9517 89.76 27.9604C89.1371 28.0516 88.5037 28.1616 87.8702 28.2715C87.2368 28.3815 86.6034 28.4915 85.9805 28.5827C85.8346 28.6728 85.6171 28.636 85.4515 28.5915C85.3996 28.5991 85.328 28.4723 85.3182 28.405C85.3504 28.2629 85.3826 28.1208 85.4247 28.046C85.5705 27.9559 85.7683 27.8583 85.924 27.8355L88.208 27.5009C88.7271 27.4248 89.2462 27.3488 89.6543 26.8769C89.7796 26.767 89.9598 26.71 90.14 26.6531C90.2301 26.6247 90.3202 26.5962 90.4034 26.5611C90.6531 26.4558 90.9645 26.4102 91.2241 26.3722C91.3279 26.357 91.4219 26.2745 91.5158 26.1921C91.3404 26.0804 91.2787 26.0208 91.2787 26.0208L89.1576 26.7436C88.9369 26.803 88.7112 26.8843 88.4838 26.9662C88.1331 27.0926 87.7785 27.2204 87.4321 27.2711C87.0164 27.332 86.6015 27.3983 86.187 27.4645C84.5311 27.7291 82.8819 27.9926 81.2155 27.9071C81.1411 27.918 81.0832 27.856 80.9882 27.7541C80.9507 27.7138 80.9073 27.6672 80.8548 27.6165C82.1552 27.0826 83.443 26.8253 84.7408 26.6351C85.0003 26.5971 85.2609 26.5666 85.5216 26.536C86.0429 26.4749 86.5641 26.4138 87.0767 26.2929C87.1783 26.2709 87.2802 26.2503 87.3818 26.2298C88.2559 26.0531 89.1085 25.8809 89.6183 24.8216C89.6413 24.7204 89.7269 24.6798 89.8269 24.6322C89.8674 24.613 89.9102 24.5926 89.9521 24.5667C90.266 24.3585 90.5583 24.1296 90.8438 23.906C91.0419 23.7508 91.2368 23.5982 91.4333 23.4568C91.6311 23.3592 91.7769 23.2691 91.7375 23.0001C91.7203 22.9589 91.7021 22.9117 91.6831 22.8623C91.6126 22.679 91.5308 22.4664 91.4412 22.4254C91.0443 22.3582 90.7106 22.0529 90.3799 21.7504C90.1671 21.5557 89.9554 21.3621 89.729 21.2339C89.6675 21.2057 89.6306 21.1336 89.5901 21.0546C89.5558 20.9876 89.5189 20.9155 89.4623 20.8608C89.9518 20.5831 90.3375 20.3205 90.7233 20.0579C90.7233 20.0579 90.7036 19.9235 90.7358 19.7814C90.3057 19.7413 89.8885 19.6994 89.4714 19.6575C89.0544 19.6156 88.6374 19.5736 88.2074 19.5336C87.8861 19.512 87.5746 19.5576 87.2632 19.6033C86.5364 19.7097 85.8251 19.8311 85.1139 19.9525C84.4026 20.0738 83.6913 20.1952 82.9646 20.3017C82.7925 20.3269 82.5781 20.3111 82.327 20.2927C82.2749 20.2889 82.2213 20.285 82.1662 20.2813C82.3345 19.9819 82.4803 19.8918 82.6361 19.869L84.7124 19.5648C86.4254 19.3139 88.1089 18.8612 89.7404 18.4161C89.9409 17.9747 90.1413 17.5332 90.2997 17.1666C90.1046 16.9205 89.9811 16.8012 89.8576 16.6819L89.8575 16.6819C89.9574 16.5042 90.0634 16.3686 90.1915 16.2048C90.2253 16.1616 90.2606 16.1164 90.2978 16.0679C90.0508 15.8294 89.8753 15.7177 89.5245 15.4944C90.0256 15.3762 90.1194 14.9382 90.2172 14.4818C90.2694 14.238 90.3228 13.989 90.4399 13.7805C90.1088 13.6917 89.7776 13.6028 89.4885 13.4391C89.4267 13.3795 89.3032 13.2602 89.1699 13.0737C89.435 12.9833 89.6125 12.9058 89.7901 12.8283C89.8492 12.8024 89.9084 12.7766 89.9709 12.7503C90.2107 12.5778 90.2751 12.2936 90.1739 11.965ZM33.1471 17.5719L33.77 17.4806C31.3264 18.1627 28.8479 18.3826 26.3764 18.6019C25.705 18.6615 25.0341 18.7211 24.3646 18.7898C24.2536 18.3939 24.4612 18.3635 24.6169 18.3407C25.639 18.2597 26.6635 18.1954 27.6881 18.1312C28.7126 18.067 29.7372 18.0027 30.7593 17.9217C31.2868 17.8903 31.8288 17.7954 32.363 17.7018C32.6272 17.6556 32.8894 17.6096 33.1471 17.5719ZM81.6381 28.9496C81.6356 28.9655 81.6381 28.9821 81.6425 29.0122L79.9814 29.2555L79.9617 29.121L81.6747 28.8701C81.6514 28.9115 81.641 28.93 81.6381 28.9496ZM35.4928 17.2969L35.5125 17.4314L34.9934 17.5074L34.9737 17.373L35.4928 17.2969ZM83.9166 28.6103L83.9068 28.5431L84.0625 28.5203L84.0724 28.5875L83.9166 28.6103ZM78.002 28.4122C77.9866 28.3973 77.9712 28.3824 77.9452 28.3862L78.049 28.371L78.0589 28.4382C78.0329 28.442 78.0175 28.4271 78.002 28.4122ZM81.1911 20.3211C81.2146 20.3005 81.2381 20.2799 81.2641 20.2761L81.3258 20.3357C81.2838 20.4105 81.2319 20.4181 81.1799 20.4257L81.1182 20.3661C81.1441 20.3623 81.1676 20.3417 81.1911 20.3211ZM78.9834 28.2341L78.9932 28.3013C78.9932 28.3013 78.9413 28.3089 78.8993 28.3838L78.8796 28.2493L78.9834 28.2341ZM82.5151 28.8157L82.4211 28.8981L82.4014 28.7636L82.5151 28.8157ZM83.138 28.7244L83.0342 28.7396L83.0243 28.6724L83.1281 28.6572L83.138 28.7244ZM12.2045 15.5916C12.2705 15.7708 12.3365 15.95 12.418 16.1441C13.0087 16.195 13.5994 16.2458 14.2098 16.4311C14.3338 16.4479 14.4599 16.4556 14.5869 16.4632C14.9582 16.4856 15.3366 16.5084 15.6901 16.7637C16.0416 16.5306 16.4135 16.5947 16.7931 16.6602C16.9875 16.6938 17.184 16.7277 17.3808 16.7221C18.4045 16.6185 19.4135 16.5798 20.4148 16.5414C20.8954 16.523 21.3743 16.5046 21.8521 16.4792C22.7704 16.4133 23.6911 16.3643 24.6119 16.3153C25.5326 16.2663 26.4533 16.2172 27.3715 16.1514C27.8029 16.1579 28.2426 16.1278 28.6889 16.0973C29.1223 16.0676 29.562 16.0376 30.0064 16.0401C30.7009 16.0758 31.3757 15.9769 32.0013 15.5418C32.4291 15.2044 32.9705 14.9191 33.504 15.6651C33.5756 15.792 33.7833 15.7616 33.939 15.7388C34.6756 15.6995 35.4023 15.5931 36.129 15.4866C36.3886 15.4486 36.7 15.403 36.9497 15.2977C37.0144 15.2578 37.0631 15.1797 37.1108 15.1032C37.1707 15.007 37.2291 14.9134 37.3157 14.9007C37.4024 14.888 37.4852 14.961 37.5702 15.0358C37.6379 15.0955 37.7069 15.1563 37.7803 15.176C37.8939 15.2281 38.0497 15.2052 38.2054 15.1824C39.0878 15.0532 40.0222 14.9163 40.9145 14.8542C41.8798 14.7472 42.8475 14.6569 43.8152 14.5667C44.7829 14.4764 45.7506 14.3862 46.7158 14.2791C48.231 14.1258 49.7364 13.9053 51.2417 13.6848L51.2418 13.6848L51.3904 13.6681C53.3207 13.4523 55.204 13.2417 57.1272 12.9599L57.1273 12.9599C61.0303 12.4568 64.9333 11.9537 68.8265 11.3834C69.4494 11.2921 70.0723 11.2009 70.552 10.8559C70.8858 10.6009 71.2294 10.4132 71.583 10.2927C71.6316 10.2627 71.6813 10.2402 71.731 10.2176C71.8305 10.1725 71.9299 10.1274 72.0206 10.0226C72.4287 9.55069 72.9478 9.47464 73.4669 9.3986C73.5874 9.38094 73.7052 9.37525 73.8211 9.36965C74.1047 9.35596 74.3771 9.34281 74.6509 9.15645C74.4974 8.7519 74.3243 8.78371 74.142 8.8172C74.119 8.82141 74.0959 8.82565 74.0727 8.82905C73.5295 8.94492 72.9995 8.848 72.4749 8.75209C72.0065 8.66643 71.5424 8.58158 71.0771 8.64973C70.9978 8.66135 70.8767 8.59893 70.7733 8.54561C70.7414 8.52914 70.7111 8.51353 70.6842 8.50124C70.629 8.48643 70.5728 8.46415 70.5165 8.44187C70.4039 8.39731 70.2913 8.35275 70.1875 8.36796C69.5225 8.53406 69.2459 8.09379 69.0857 7.36174C69.0706 7.25901 68.9892 7.12592 68.9197 7.01224C68.8983 6.97711 68.8779 6.94383 68.861 6.91387C68.6435 6.87705 68.4359 6.90746 68.2801 6.93028C67.7611 7.00632 67.2321 7.01513 66.738 6.53803C66.5527 6.35913 66.1795 6.34512 65.92 6.38314C62.8896 6.68972 59.911 6.98869 56.9325 7.28766C56.7562 7.2906 56.5821 7.30848 56.408 7.32635C56.0597 7.36211 55.7115 7.39786 55.3457 7.31408C54.7971 7.1884 54.278 7.26444 53.7687 7.40773C52.7502 7.6943 51.7219 7.91363 50.6739 7.99848C50.5008 8.02383 50.3267 8.04171 50.1526 8.05958C49.8043 8.09534 49.4561 8.13109 49.1166 8.22662C48.0935 8.46791 47.0759 8.58674 46.0506 8.70647C45.5351 8.76666 45.0177 8.82709 44.4967 8.90342C43.3277 9.07467 42.1728 9.18359 41.0105 9.29321C40.418 9.34909 39.8235 9.40515 39.2243 9.46975C38.8231 9.50563 38.4207 9.53405 38.0184 9.56247C37.2137 9.6193 36.409 9.67613 35.613 9.79273C35.394 9.82482 35.1706 9.84909 34.9455 9.87353C34.2638 9.94758 33.5673 10.0232 32.9335 10.3226C32.528 10.4507 32.0707 10.5864 31.6876 10.5052C30.9215 10.3427 30.2145 10.5836 29.5075 10.8245C29.2578 10.9298 29.0501 10.9602 28.7906 10.9983C27.457 11.1249 26.1211 11.2348 24.7851 11.3447C23.4491 11.4545 22.1131 11.5644 20.7795 11.6911C20.688 11.6953 20.5968 11.6995 20.5057 11.7036C19.234 11.7621 18.0019 11.8186 16.7333 11.9404C16.2442 11.9664 15.7867 12.0484 15.3217 12.1317C15.0864 12.1739 14.8492 12.2164 14.605 12.2522C15.1768 12.3938 15.7436 12.3924 16.3261 12.3909C16.8086 12.3896 17.3019 12.3884 17.8181 12.4683C17.6298 12.8033 17.366 12.8484 17.115 12.8913C16.9173 12.9251 16.7277 12.9575 16.5893 13.1291C16.562 13.1776 16.5519 13.267 16.5419 13.3551C16.521 13.5389 16.5007 13.7176 16.3271 13.5109C15.9664 13.2204 15.7292 13.0491 15.4052 13.3713C15.0444 13.7206 14.6709 13.7135 14.2686 13.7057C14.2049 13.7045 14.1405 13.7033 14.0753 13.7035C13.8887 13.6965 13.6891 13.6914 13.4895 13.6862C13.2899 13.6811 13.0903 13.676 12.9037 13.669C12.7901 13.617 12.5923 13.7147 12.5082 13.8644C12.4773 14.2949 12.303 14.315 12.0832 14.3405C12.0549 14.3438 12.0259 14.3471 11.9963 14.3514C11.8772 14.3689 11.7515 14.3704 11.6202 14.3719C11.2934 14.3758 10.9319 14.3801 10.5527 14.6316C11.0331 14.7261 11.3807 14.84 11.7282 14.9539C11.8151 14.9824 11.902 15.0109 11.991 15.0391C12.0724 15.2332 12.1384 15.4124 12.2045 15.5916ZM39.0278 14.6171C38.7378 14.6069 38.4516 14.5969 38.1785 14.6369L40.774 14.2567C40.228 14.6593 39.6198 14.638 39.0278 14.6171ZM33.9296 10.2454C33.9815 10.2378 34.0334 10.2302 34.0952 10.2898C34.0952 10.2898 34.0531 10.3647 33.9591 10.4471C33.9332 10.4509 33.9048 10.4379 33.8763 10.4249C33.8479 10.4119 33.8195 10.3989 33.7936 10.4027C33.8356 10.3279 33.8777 10.253 33.9296 10.2454ZM35.3767 14.8756C35.4051 14.8886 35.4336 14.9016 35.4595 14.8978C35.4595 14.8978 35.4694 14.9651 35.4175 14.9727C35.3915 14.9765 35.3631 14.9635 35.3347 14.9505C35.3063 14.9375 35.2778 14.9245 35.2519 14.9283C35.3038 14.9207 35.2939 14.8534 35.2939 14.8534C35.3199 14.8496 35.3483 14.8626 35.3767 14.8756ZM19.3321 19.1836L19.955 19.0924C19.7473 19.1228 19.5397 19.1532 19.3419 19.2509L19.3321 19.1836ZM13.6706 12.2581C13.6299 12.2445 13.5947 12.2327 13.5892 12.1949C13.6411 12.1873 13.693 12.1797 13.8067 12.2318L13.7646 12.3066C13.7375 12.2805 13.7024 12.2687 13.6706 12.2581Z" fill="#2760AB"/>
<path fill-rule="evenodd" clip-rule="evenodd" d="M5.99325 41.7094C6.03027 42.0319 5.883 42.0979 5.71773 42.1719C5.69286 42.183 5.66758 42.1943 5.64246 42.2067C5.54849 42.2892 5.50643 42.364 5.43216 42.5809C5.61948 42.6266 5.80546 42.6632 5.98934 42.6993C6.66907 42.8328 7.32 42.9607 7.90333 43.5239C7.79601 43.8374 7.61016 43.8038 7.43697 43.7725C7.37046 43.7605 7.30582 43.7488 7.24821 43.7573L6.52148 43.8637L5.79475 43.9702C5.88606 44.2316 5.96753 44.4257 6.04899 44.6198C6.11075 44.6794 6.28618 44.7911 6.28618 44.7911C6.32823 44.7163 6.36783 44.6246 6.40743 44.5329C6.44702 44.4413 6.48662 44.3496 6.52868 44.2748C7.03792 44.1315 7.56686 44.1227 8.08329 44.3905C8.19691 44.4628 8.32403 44.4755 8.4445 44.4876C8.51003 44.4941 8.57359 44.5005 8.63194 44.5161C9.17922 44.5281 9.72598 44.6089 10.2764 44.6903C10.9565 44.7908 11.6423 44.8921 12.3417 44.8656C12.9314 44.8577 13.5227 44.8608 14.114 44.8638C15.5922 44.8716 17.0704 44.8793 18.5234 44.7155L18.5235 44.7155C18.8868 44.6622 19.3021 44.6014 19.6753 44.6154C19.7581 44.6376 19.8304 44.6786 19.9026 44.7195C19.9749 44.7604 20.0472 44.8013 20.13 44.8236C19.9487 44.954 19.7208 44.9734 19.5083 44.9916C19.4396 44.9975 19.3726 45.0032 19.3093 45.0125C18.9843 45.0335 18.6486 45.0356 18.308 45.0377C17.7679 45.041 17.2156 45.0444 16.6744 45.1237C15.0678 45.3591 13.4631 45.3539 11.8644 45.3487C11.5519 45.3477 11.2397 45.3467 10.9277 45.3474C9.60039 45.3358 8.2212 45.3318 6.90377 45.3875C6.69614 45.4179 6.66393 45.56 6.75524 45.8213C7.1025 45.8391 7.43432 45.842 7.76614 45.8449C8.09796 45.8478 8.42978 45.8507 8.77704 45.8686C9.00959 45.8721 9.22955 45.898 9.4422 45.923C9.6183 45.9437 9.78938 45.9639 9.95844 45.9702C11.5551 46.0111 13.1419 45.9846 14.7288 45.9582C14.8603 45.939 14.9788 45.9767 15.1033 46.0163C15.1754 46.0392 15.2496 46.0628 15.3293 46.0763C15.0376 46.2564 14.736 46.3693 14.4147 46.3477C13.7201 46.312 13.0281 46.2932 12.336 46.2744C11.644 46.2556 10.9519 46.2368 10.2574 46.2012C9.71187 46.1542 9.13048 46.1711 8.58723 46.1869C8.54224 46.1882 8.49751 46.1895 8.45308 46.1908C8.19353 46.2288 8.01545 46.4609 8.13631 46.924L11.2133 47.2974C11.6532 47.3571 12.0956 47.3603 12.5439 47.3636C13.0881 47.3676 13.6411 47.3716 14.2089 47.4768C13.3855 48.0095 12.555 48.1311 11.6528 48.1259C11.0411 48.1125 10.4189 48.1178 9.79663 48.1231C9.17438 48.1284 8.55214 48.1337 7.9404 48.1203C7.78468 48.1431 7.62895 48.166 7.6782 48.5022C8.24347 48.7995 8.8341 48.8593 9.44825 48.9216C9.83278 48.9605 10.2265 49.0004 10.6291 49.1001C10.4345 49.2064 10.2764 49.3293 10.1229 49.4486C10.0052 49.5401 9.89026 49.6295 9.76364 49.7077C9.81315 49.7435 9.85996 49.7766 9.90473 49.8083C10.0745 49.9285 10.2149 50.028 10.3615 50.1696C10.2514 50.2662 10.1558 50.3371 10.0765 50.3958C10.0205 50.4374 9.97268 50.4728 9.93376 50.507C9.42186 50.9941 8.94217 51.3391 8.41854 50.6603C8.1196 50.4293 7.75623 50.4826 7.50388 50.9316C7.42202 51.0263 7.29186 51.0534 7.15807 51.0813C7.06954 51.0997 6.97943 51.1185 6.90067 51.1574C7.1076 51.9745 7.63419 52.2801 8.20507 52.6114C8.32825 52.6828 8.4535 52.7555 8.57804 52.8348C8.27646 52.9477 8.07869 53.0453 7.88093 53.143L7.88086 53.143C7.96312 53.4767 7.82134 53.5713 7.67593 53.6682C7.59029 53.7254 7.50339 53.7833 7.46027 53.8914C7.3987 54.001 7.39275 54.1025 7.38522 54.2311C7.38246 54.2781 7.37949 54.3289 7.3735 54.3849C7.62212 54.427 7.86684 54.3899 8.1076 54.3534C8.49869 54.2941 8.87936 54.2364 9.24942 54.5222C9.17996 54.6458 9.10752 54.7491 9.04239 54.8419C8.98921 54.9177 8.94091 54.9865 8.9031 55.0538C8.97471 55.1806 9.04632 55.3075 9.10808 55.3672C9.42673 55.7326 9.87156 55.8735 10.3065 55.9471C10.3924 55.9564 10.4773 55.9589 10.5605 55.9613C10.7382 55.9665 10.908 55.9715 11.0628 56.0424C11.1179 56.0517 11.1777 56.0471 11.24 56.0423C11.4238 56.0282 11.629 56.0125 11.7967 56.347L10.3433 56.5599C10.362 56.6878 10.3678 56.8728 10.372 57.0082C10.3745 57.0864 10.3764 57.148 10.38 57.1727C10.2216 57.5393 10.125 57.9655 10.3497 58.4134C10.4831 58.5999 10.5645 58.794 10.646 58.9882C10.5791 59.0711 10.5038 59.1459 10.4294 59.2198C10.1543 59.4933 9.89081 59.7551 10.1064 60.3722C10.1987 60.3878 10.2928 60.4156 10.3911 60.4446C10.5245 60.4839 10.6656 60.5255 10.8206 60.5423C11.2467 60.5517 11.6677 60.5701 12.0868 60.5884C12.8709 60.6227 13.6482 60.6567 14.4391 60.6304C15.2276 60.5835 16.0266 60.518 16.8256 60.4525C17.6246 60.3869 18.4236 60.3214 19.2121 60.2746C21.0066 60.2177 22.7393 60.1013 24.5239 59.9772C24.6219 59.9838 24.7142 59.9848 24.803 59.9858C25.0054 59.9881 25.1899 59.9902 25.384 60.0573C26.3873 60.3911 27.3512 60.4559 28.3473 60.3787C28.4962 60.3681 28.6449 60.3576 28.7935 60.347C31.3682 60.1644 33.8986 59.985 36.4201 59.7455C36.8966 59.6953 37.3715 59.6341 37.8452 59.5731C39.0326 59.4202 40.2124 59.2683 41.3909 59.292C43.5421 59.2966 45.69 59.1194 47.8304 58.9428C48.9092 58.8538 49.986 58.765 51.0604 58.6997C51.9008 58.6453 52.7257 58.5759 53.5507 58.5066C54.3757 58.4372 55.2006 58.3679 56.041 58.3135C58.624 58.2098 61.1872 57.9717 63.7406 57.6663C64.3353 57.5988 64.9241 57.5209 65.5112 57.4433C66.9836 57.2487 68.4445 57.0555 69.9572 57.0303C70.8593 57.0355 71.7418 56.9063 72.6242 56.777L72.6243 56.777C72.8974 56.737 73.175 56.6889 73.4564 56.6401C74.0308 56.5406 74.6208 56.4384 75.2197 56.3968C75.8351 56.3514 76.4571 56.3123 77.0811 56.2731C78.3717 56.1921 79.6706 56.1105 80.9369 55.9713C81.0856 55.9617 81.2329 55.9544 81.3788 55.9472C82.0582 55.9136 82.7081 55.8814 83.3247 55.6215C83.3123 55.5364 83.2965 55.4517 83.2809 55.3682C83.2349 55.1217 83.1906 54.8848 83.2387 54.6725C83.3452 54.3135 83.6271 54.0662 83.9386 54.0205L84.5615 53.9293C84.9557 53.9059 85.3605 53.8637 85.7652 53.8216C86.17 53.7795 86.5747 53.7374 86.969 53.714C87.6018 53.6899 88.2148 53.5314 88.7983 53.1712C89.3299 52.8186 89.9233 52.5256 90.556 52.5016C90.556 52.5016 90.5883 52.3595 90.6822 52.2771C89.1572 52.3631 87.6321 52.4492 86.1169 52.6025C83.5536 52.8406 81.0423 53.0712 78.4692 53.242C77.7116 53.3187 76.949 53.3617 76.1865 53.4047C75.424 53.4478 74.6614 53.4908 73.9038 53.5674C71.6619 53.8272 69.4423 53.8776 67.203 53.7936C67.1183 53.806 67.0269 53.7736 66.8443 53.7087C66.8032 53.6942 66.7575 53.678 66.7063 53.6603C66.7979 53.5944 66.8758 53.5405 66.9424 53.4945C67.05 53.4201 67.1279 53.3662 67.186 53.3153C67.5967 53.0988 68.0713 53.1101 68.53 53.121C68.676 53.1245 68.8205 53.1279 68.9607 53.1239L74.1588 52.7745C74.4493 52.7663 74.7218 52.7264 74.9943 52.6865C75.2668 52.6466 75.5394 52.6067 75.8298 52.5984C76.722 52.5364 77.6272 52.4725 78.5325 52.4086C79.4378 52.3446 80.3432 52.2807 81.2355 52.2186C82.3874 52.1186 83.4775 51.9589 84.6195 51.7916C84.9569 51.7422 85.2788 51.6778 85.6008 51.6135C85.9228 51.5491 86.2448 51.4848 86.5822 51.4354C90.0699 50.9931 93.6194 50.6105 97.1171 50.2355C97.2104 50.2218 97.3122 50.193 97.4243 50.1613C97.5617 50.1225 97.7144 50.0793 97.8859 50.0542C97.8248 49.9459 97.7808 49.8226 97.7416 49.7128C97.6889 49.5653 97.6449 49.442 97.5797 49.4122C97.2387 49.2561 96.9595 49.1596 96.6283 49.0708C96.5588 49.056 96.4862 49.044 96.4117 49.0316C96.0753 48.9759 95.6992 48.9136 95.3878 48.5656L95.3878 48.5655C95.3582 48.3638 95.3188 48.0949 95.2275 47.8336C95.1819 47.7029 95.1387 47.589 95.0955 47.4751C95.0523 47.3612 95.0091 47.2474 94.9634 47.1168C95.3308 46.7944 95.7403 46.7598 96.1248 46.7274C96.2321 46.7183 96.3374 46.7094 96.4393 46.6945C96.8447 46.5664 97.3119 46.498 97.7791 46.4295C98.6615 46.3003 98.6615 46.3003 99.1832 45.8804C99.1002 45.8663 99.0322 45.8501 98.9742 45.8362C98.8804 45.8137 98.8124 45.7974 98.7483 45.8068C98.6248 45.8021 98.4978 45.813 98.3727 45.8238C98.1195 45.8456 97.874 45.8667 97.6805 45.7571C97.1808 45.4549 96.6914 45.4443 96.1949 45.4336C96.0557 45.4306 95.9158 45.4276 95.7751 45.4181C95.4538 45.3965 95.1325 45.3749 94.8013 45.286C94.7253 45.2972 94.6666 45.2322 94.5921 45.1497C94.5648 45.1196 94.5354 45.0871 94.5024 45.0551C94.5221 44.8698 94.5318 44.686 94.5411 44.5082C94.5528 44.2843 94.564 44.0699 94.5944 43.874C95.2807 43.4353 96.0266 43.4041 96.7725 43.3728C97.2387 43.3533 97.7048 43.3338 98.1565 43.2148C98.1368 43.0803 98.13 42.9439 98.1233 42.8075C98.1166 42.6712 98.1099 42.5348 98.0902 42.4003C98.2101 42.314 98.3276 42.211 98.445 42.1079C98.5625 42.0048 98.6799 41.9018 98.7999 41.8155C98.8806 41.7575 98.9717 41.729 99.0647 41.7C99.2479 41.6428 99.4383 41.5833 99.5713 41.2904C99.4497 41.3082 99.3425 41.3004 99.2537 41.2939C99.1909 41.2892 99.1373 41.2853 99.0943 41.2916C98.9179 41.2945 98.738 41.3133 98.5582 41.332C98.1984 41.3694 97.8386 41.4069 97.5074 41.318C97.2359 41.2534 96.9751 41.1573 96.7151 41.0616C96.2912 40.9055 95.8695 40.7502 95.4068 40.7329C95.1374 40.7036 95.0461 40.4423 95.0389 40.0312C95.057 39.9515 95.0587 39.8741 95.0607 39.7845C95.0623 39.7145 95.064 39.6371 95.0738 39.5453C94.97 39.5605 94.8637 39.5589 94.7574 39.5573C94.6511 39.5557 94.5448 39.5541 94.441 39.5694C93.5586 39.6986 92.6663 39.7607 91.774 39.8227C91.6425 39.842 91.5239 39.8042 91.3994 39.7646C91.3273 39.7417 91.2532 39.7181 91.1734 39.7046C91.1215 39.7122 91.0499 39.5854 91.04 39.5181C91.0481 39.4826 91.0555 39.4429 91.063 39.4032C91.0853 39.284 91.1076 39.1648 91.1465 39.1591C91.3443 39.0614 91.5421 38.9638 91.7497 38.9334C92.1552 38.8053 92.6223 38.7368 93.0895 38.6684C93.2434 38.6459 93.4018 38.6152 93.5621 38.5842C93.8886 38.521 94.223 38.4563 94.543 38.4555C95.2795 38.4163 96.0063 38.3098 96.8789 38.1133C96.3951 37.8153 95.9506 37.8717 95.5301 37.9251C95.0893 37.9811 94.6749 38.0337 94.269 37.6714C94.2196 37.1256 94.4259 36.7695 94.6291 36.419C94.7791 36.16 94.9275 35.9041 94.9696 35.5769L94.9302 35.308C94.7207 34.2397 94.837 33.9479 95.5342 33.6397C96.5232 33.1514 97.5318 32.7976 98.5897 32.78C98.8039 32.7944 99.0093 32.7491 99.2148 32.7037C99.3175 32.681 99.4202 32.6584 99.524 32.6431C99.0174 32.4426 98.5306 32.3766 98.0634 32.445C97.5025 32.5689 96.928 32.4671 96.3614 32.3668C95.9942 32.3018 95.6303 32.2373 95.2755 32.2353C95.1618 32.1832 95.0481 32.1312 94.9864 32.0716C94.6677 31.7062 94.3044 31.7594 93.941 31.8126C92.935 31.8226 91.9389 31.8999 90.9427 31.9771C90.2581 32.0087 89.5636 31.9731 88.9013 31.7954C90.6044 31.4772 92.3076 31.159 94.0206 30.9081C94.0465 30.9043 94.057 30.8856 94.0675 30.8668C94.0781 30.8481 94.0886 30.8294 94.1145 30.8256C94.1047 30.7584 94.1078 30.6892 94.1109 30.6201C94.1141 30.551 94.1172 30.4818 94.1073 30.4146C94.1345 30.3662 94.1143 30.2962 94.0912 30.2164C94.0786 30.1727 94.0651 30.126 94.0581 30.0784C93.0469 29.6781 92.0596 29.7609 91.0875 29.8423C90.5986 29.8833 90.1136 29.9239 89.6314 29.9026C89.5122 29.7719 89.4118 29.6384 89.326 29.5014L5.99325 41.7094ZM21.9017 57.0988C21.6089 57.0902 21.316 57.0816 21.0206 57.0562C21.6757 56.8229 22.3926 56.6492 23.344 56.9906C23.0424 57.1035 22.8867 57.1263 22.7829 57.1415C22.4875 57.1161 22.1946 57.1075 21.9017 57.0988ZM18.0855 57.1084C18.109 57.0878 18.1325 57.0672 18.1584 57.0634C18.1683 57.1307 18.1781 57.1979 18.2819 57.1827L18.0743 57.2131L18.0125 57.1535C18.0385 57.1497 18.062 57.1291 18.0855 57.1084ZM18.8529 57.099L18.9049 57.0914C18.9049 57.0914 18.9147 57.1587 18.9765 57.2183L18.8726 57.2335L18.8529 57.099ZM63.4651 59.7672C63.3488 60.059 63.2226 60.2835 63.0445 60.5156C62.9604 60.6653 62.8145 60.7554 62.4932 60.7338C62.7478 61.1848 63.046 61.1713 63.3347 61.1583C63.5332 61.1494 63.7272 61.1406 63.8993 61.2833C63.9387 61.5523 63.8448 61.6347 63.689 61.6575C62.7757 61.757 61.8648 61.8733 60.954 61.9895C60.0431 62.1058 59.1322 62.2221 58.2189 62.3215C57.9418 62.3621 57.6575 62.3856 57.37 62.4094C56.688 62.4659 55.9879 62.5238 55.3218 62.8146C54.8415 62.9944 54.3033 63.0084 53.7583 63.0226C53.6189 63.0263 53.4789 63.0299 53.3394 63.0363C52.4988 63.0908 51.6712 63.1433 50.8436 63.1959C50.0164 63.2484 49.1892 63.3009 48.3489 63.3553C45.8797 63.511 43.3585 63.6743 40.8373 63.8376C39.6821 63.9152 38.5183 63.9331 37.3544 63.951C36.7724 63.9599 36.1905 63.9689 35.6096 63.9853C34.5047 64.0441 33.3844 64.088 32.2641 64.132C31.1438 64.1759 30.0235 64.2198 28.9187 64.2786C28.0523 64.3369 27.1909 64.4287 26.3295 64.5206C25.468 64.6124 24.6066 64.7043 23.7403 64.7625C20.7519 64.9943 17.7018 65.1664 14.6516 65.3384C13.344 65.4613 12.0785 65.5093 10.813 65.5574C10.4496 65.6106 10.0666 65.5294 9.73542 65.4405C9.61312 65.4077 9.5084 65.2974 9.38734 65.1698C9.34451 65.1247 9.29962 65.0774 9.25119 65.0306C9.36994 64.7461 9.48266 64.488 9.59117 64.2396C9.7337 63.9133 9.86897 63.6037 10.0011 63.2724C10.0852 63.1227 10.0977 62.8461 9.96696 62.3158C10.0659 62.267 10.1802 62.233 10.2945 62.1991C10.4089 62.1652 10.5232 62.1313 10.6221 62.0824C10.8199 61.9848 10.946 61.7603 11.0722 61.5357C11.155 61.5579 11.2483 61.5614 11.3416 61.5649C11.4349 61.5684 11.5282 61.5719 11.611 61.5942C12.864 61.8227 14.0973 61.9168 15.353 61.8015C16.7247 61.6649 18.0594 61.5941 19.4345 61.5212C19.5264 61.5163 19.6185 61.5114 19.7107 61.5065C21.0022 61.4547 22.2912 61.3861 23.5803 61.3174C24.8693 61.2488 26.1583 61.1801 27.4497 61.1283C29.5037 61.0335 31.5577 60.9386 33.6216 60.911C33.8133 60.9098 34.0045 60.9086 34.1953 60.9075C35.9548 60.897 37.6754 60.8868 39.388 60.8218C40.0035 60.8003 40.62 60.7863 41.2366 60.7723C42.4697 60.7443 43.7028 60.7162 44.9271 60.6285C49.2669 60.3836 53.6446 60.0714 57.9798 59.7622C58.215 59.7454 58.45 59.7287 58.6849 59.7119C59.3647 59.6467 60.0599 59.5964 60.7551 59.546C61.4502 59.4957 62.1454 59.4454 62.8252 59.3801C62.9809 59.3573 63.1366 59.3345 63.2503 59.3866C63.364 59.4386 63.5072 59.6923 63.4651 59.7672ZM4.84412 42.1863C4.84412 42.1863 4.78236 42.1267 4.73045 42.1343C4.78236 42.1267 4.78236 42.1267 4.77251 42.0594C4.79846 42.0556 4.8139 42.0705 4.82934 42.0854C4.84478 42.1004 4.86022 42.1153 4.88618 42.1115L4.84412 42.1863Z" fill="#FAD431"/>
</svg>
