<svg xmlns="http://www.w3.org/2000/svg" fill="none" viewBox="0 0 343 343"><path fill="url(#a)" d="m273.866 101.134-9.273 18.858-.001.002-34.071 71.457-8.94 18.843h-29.355l-.042.088-24.537 51.471-.001.003-.501 1.102-.001.003-10.146 21.297-87.264-183.223 20.982.049 66.143 138.307.139.292.14-.292 13.799-28.824 9.04-18.944h29.304l.043-.088 34.171-71.457.106-.221-.244-.002-7.979-.05h-21.031l8.884-18.77 21.228.049 29.407.05Z"/><path fill="#fff" d="m66.031 41.948 4.75 5.79 2.88-2.387c.394-.327.705-.709.931-1.145.221-.443.354-.904.4-1.382.046-.479 0-.954-.14-1.425a3.641 3.641 0 0 0-.696-1.321 3.525 3.525 0 0 0-1.15-.928 3.635 3.635 0 0 0-2.79-.28 3.52 3.52 0 0 0-1.305.691l-2.88 2.387Zm9.49 11.569-2.88 2.386L60.777 41.44l5.76-4.773a7.13 7.13 0 0 1 1.699-1.053 6.943 6.943 0 0 1 1.844-.545 6.997 6.997 0 0 1 1.909-.057 7 7 0 0 1 1.863.421c.607.22 1.179.52 1.715.9a7.136 7.136 0 0 1 1.469 1.358 7.338 7.338 0 0 1 1.393 2.623c.272.95.363 1.902.272 2.859a7.582 7.582 0 0 1-.82 2.762 7.225 7.225 0 0 1-1.854 2.3l-2.88 2.387 2.374 2.895ZM5.427 209.18l-.906-3.639 18.09-4.553.908 3.639-7.242 1.823 1.81 7.266 7.242-1.822.906 3.639-18.091 4.553-.907-3.64 7.23-1.819-1.81-7.266-7.23 1.819Zm20.898 36.668 3.37-1.614a3.54 3.54 0 0 0 1.174-.896c.333-.372.579-.784.739-1.237.16-.453.226-.929.2-1.429a3.564 3.564 0 0 0-.35-1.439 3.63 3.63 0 0 0-.897-1.192 3.685 3.685 0 0 0-1.225-.731 3.798 3.798 0 0 0-1.427-.214 3.64 3.64 0 0 0-1.427.365l-3.37 1.614 3.213 6.773Zm-5.12 6.61-1.607-3.387 3.37-1.614-3.213-6.774-3.369 1.615-1.6-3.375 10.096-4.837a7.181 7.181 0 0 1 2.87-.724 7.592 7.592 0 0 1 2.83.411 7.535 7.535 0 0 1 2.463 1.456 7.34 7.34 0 0 1 1.782 2.39 7.29 7.29 0 0 1 .72 2.884 7.59 7.59 0 0 1-.42 2.851 7.557 7.557 0 0 1-1.46 2.481 7.224 7.224 0 0 1-2.367 1.785l-10.096 4.838ZM3.5 185.444a9.556 9.556 0 0 1-1.842-2.85 9.624 9.624 0 0 1-.743-3.33 9.42 9.42 0 0 1 .238-2.588 9.89 9.89 0 0 1 .861-2.355c.394-.732.872-1.407 1.435-2.025a10.032 10.032 0 0 1 1.883-1.614c.7-.449 1.453-.81 2.257-1.08a9.565 9.565 0 0 1 2.545-.452 9.574 9.574 0 0 1 2.574.227 9.799 9.799 0 0 1 2.342.878 9.845 9.845 0 0 1 2.029 1.441 9.715 9.715 0 0 1 2.667 4.162c.27.817.424 1.669.463 2.557a9.63 9.63 0 0 1-.451 3.383 9.24 9.24 0 0 1-1.588 3.001l-3.335-1.843a5.534 5.534 0 0 0 1.267-2.005 5.92 5.92 0 0 0 .378-2.372 5.808 5.808 0 0 0-.569-2.304 6.074 6.074 0 0 0-1.356-1.838 5.854 5.854 0 0 0-1.94-1.197 5.723 5.723 0 0 0-2.32-.369 5.703 5.703 0 0 0-2.279.572 6.059 6.059 0 0 0-3.006 3.312 5.809 5.809 0 0 0-.366 2.345 6.06 6.06 0 0 0 .57 2.33 5.698 5.698 0 0 0 1.449 1.886L3.5 185.444Zm36.855 95.689-2.39-3.215 5.531-13.177-9.835 7.386-2.234-3.006 14.94-11.219 2.39 3.215-5.541 13.185 9.846-7.394 2.234 3.006-14.941 11.219Zm26.74 23.441a9.65 9.65 0 0 1-3.321-.538 9.615 9.615 0 0 1-2.94-1.678 9.37 9.37 0 0 1-1.75-1.914 9.588 9.588 0 0 1-1.152-2.211 10.378 10.378 0 0 1-.542-2.418 9.727 9.727 0 0 1 .08-2.477c.138-.824.379-1.63.723-2.418a9.705 9.705 0 0 1 1.372-2.202 9.531 9.531 0 0 1 1.884-1.758 9.899 9.899 0 0 1 2.21-1.149 9.111 9.111 0 0 1 2.406-.545 9.49 9.49 0 0 1 4.842.801 9.286 9.286 0 0 1 2.199 1.368 9.439 9.439 0 0 1 2.185 2.596c.573.985.96 2.04 1.158 3.166l-3.575 1.27a6.228 6.228 0 0 0-.65-2.287 5.652 5.652 0 0 0-1.48-1.873 5.712 5.712 0 0 0-2.072-1.112 6.062 6.062 0 0 0-2.256-.212 5.86 5.86 0 0 0-2.175.635c-.694.351-1.3.842-1.82 1.474a5.793 5.793 0 0 0-1.113 2.093 6.093 6.093 0 0 0 .412 4.464 5.742 5.742 0 0 0 1.476 1.837 5.54 5.54 0 0 0 1.16.743c.413.196.837.344 1.27.445l3.382-4.111 2.776 2.307-4.69 5.704Zm25.81 19.366-11.043-6.475 9.398-16.191 11.043 6.475-1.881 3.241-7.819-4.585-1.88 3.24 5.29 3.104-1.88 3.241-5.291-3.104-1.875 3.231 7.819 4.583-1.88 3.24Zm47.157 16.2-3.647-.737 2.94-14.7-5.496-1.111.736-3.677 14.625 2.955-.736 3.676-5.483-1.105-2.939 14.699Zm29.472 2.802-3.732.034-.18-18.743 3.732-.038.072 7.503 7.452-.072-.072-7.502 3.732-.037.18 18.746-3.732.034-.072-7.49-7.452.075.072 7.49Zm43.692-4.726-12.514 2.628-3.813-18.351 12.514-2.628.763 3.674-8.861 1.861.764 3.67 5.996-1.257.763 3.673-5.996 1.258.761 3.661 8.86-1.862.763 3.673Zm33.404-29.156 3.676 6.531 3.249-1.849a3.665 3.665 0 0 0 1.115-.965c.295-.398.505-.828.633-1.292.128-.461.164-.937.108-1.426a3.654 3.654 0 0 0-.457-1.422 3.524 3.524 0 0 0-.971-1.115 3.61 3.61 0 0 0-1.28-.653 3.628 3.628 0 0 0-1.421-.109c-.49.046-.958.199-1.403.451l-3.249 1.849Zm7.345 13.05-3.248 1.846-9.183-16.315 6.497-3.696a7.01 7.01 0 0 1 1.855-.737 6.878 6.878 0 0 1 1.911-.215 6.81 6.81 0 0 1 1.889.277 7.051 7.051 0 0 1 1.762.738c.56.323 1.071.719 1.534 1.186.47.464.874.996 1.211 1.594.316.563.551 1.148.707 1.762.163.607.247 1.226.252 1.855a7.189 7.189 0 0 1-.208 1.858 7.549 7.549 0 0 1-.679 1.769l4.201 3.243-3.452 1.965-3.266-2.485-3.621 2.089 1.838 3.266Zm34.852-25.491-9.6 8.484-12.315-14.075 9.6-8.486 2.465 2.818-6.798 6.008 2.465 2.817 4.6-4.066 2.465 2.818-4.6 4.065 2.456 2.808 6.798-6.008 2.464 2.817Zm21.494-27.497a9.588 9.588 0 0 1-.359 3.38 9.57 9.57 0 0 1-1.511 3.055 9.35 9.35 0 0 1-1.809 1.857 9.836 9.836 0 0 1-2.146 1.281 10.02 10.02 0 0 1-4.859.721 10.128 10.128 0 0 1-2.429-.592 9.652 9.652 0 0 1-2.259-1.262 9.701 9.701 0 0 1-1.855-1.808 9.962 9.962 0 0 1-1.267-2.167 9.961 9.961 0 0 1-.669-2.405 9.705 9.705 0 0 1-.048-2.478 9.568 9.568 0 0 1 .589-2.442 9.382 9.382 0 0 1 1.246-2.278 9.55 9.55 0 0 1 2.473-2.339 9.146 9.146 0 0 1 3.115-1.322l1.432 3.544a5.489 5.489 0 0 0-2.242.753 5.85 5.85 0 0 0-1.781 1.601 5.79 5.79 0 0 0-1.005 2.148 6.11 6.11 0 0 0-.101 2.286c.104.751.355 1.47.754 2.158a5.761 5.761 0 0 0 1.569 1.758 5.711 5.711 0 0 0 2.127 1.001 6.002 6.002 0 0 0 4.411-.664 5.738 5.738 0 0 0 1.756-1.588 6.001 6.001 0 0 0 1.019-2.169 5.73 5.73 0 0 0 .062-2.382l3.787.353Zm11.932-35.935c.78.421 1.477.932 2.09 1.532a9.828 9.828 0 0 1 1.571 1.948c.43.707.765 1.462 1.003 2.265.239.803.378 1.62.415 2.451a9.521 9.521 0 0 1-.245 2.496 9.36 9.36 0 0 1-.904 2.435 9.273 9.273 0 0 1-1.524 2.1 9.774 9.774 0 0 1-1.938 1.579 9.905 9.905 0 0 1-2.264 1.001c-.8.241-1.611.381-2.438.418a10.176 10.176 0 0 1-2.49-.234 9.622 9.622 0 0 1-2.416-.921 9.635 9.635 0 0 1-2.096-1.52 9.883 9.883 0 0 1-1.564-1.96 10.048 10.048 0 0 1-.998-2.276 9.734 9.734 0 0 1-.402-2.445 9.987 9.987 0 0 1 .241-2.496 9.407 9.407 0 0 1 .908-2.435 9.273 9.273 0 0 1 1.524-2.1 9.398 9.398 0 0 1 1.938-1.579 9.583 9.583 0 0 1 2.252-1.008 9.456 9.456 0 0 1 4.915-.161 9.327 9.327 0 0 1 2.422.91Zm-1.756 3.281a5.707 5.707 0 0 0-2.249-.683 5.804 5.804 0 0 0-2.264.23 5.83 5.83 0 0 0-2.016 1.062 5.758 5.758 0 0 0-1.505 1.814 5.857 5.857 0 0 0-.685 2.272c-.065.785.01 1.544.23 2.276.21.728.563 1.403 1.056 2.027a5.752 5.752 0 0 0 1.805 1.511 5.722 5.722 0 0 0 2.249.682 6.067 6.067 0 0 0 2.255-.236 6.037 6.037 0 0 0 2.016-1.062 5.8 5.8 0 0 0 1.508-1.825 5.744 5.744 0 0 0 .678-2.261 5.861 5.861 0 0 0-.229-2.276 6.107 6.107 0 0 0-1.044-2.02 5.726 5.726 0 0 0-1.805-1.511Zm2.07-25.316 7.247 1.806.898-3.642a3.66 3.66 0 0 0 .068-1.477 3.912 3.912 0 0 0-.495-1.35 3.7 3.7 0 0 0-.96-1.06 3.613 3.613 0 0 0-1.341-.645 3.539 3.539 0 0 0-1.475-.057 3.63 3.63 0 0 0-1.35.485 3.718 3.718 0 0 0-1.056.962c-.3.392-.514.837-.638 1.336l-.898 3.642Zm14.479 3.608-.898 3.642-18.103-4.512 1.8-7.283a7.172 7.172 0 0 1 .74-1.862 6.918 6.918 0 0 1 1.158-1.543c.443-.464.945-.86 1.499-1.189a7.056 7.056 0 0 1 1.744-.777 7.191 7.191 0 0 1 1.911-.305 7.082 7.082 0 0 1 1.985.212 7.11 7.11 0 0 1 1.759.694 7.231 7.231 0 0 1 1.511 1.091c.462.42.861.897 1.202 1.431.344.534.613 1.104.811 1.71l5.231-.837-.954 3.87-4.038.676-.982 4.079 3.624.903Zm-3.584-45.731a9.038 9.038 0 0 1 2.469.435 9.09 9.09 0 0 1 2.186 1.026 9.965 9.965 0 0 1 1.831 1.535 9.424 9.424 0 0 1 2.245 4.233c.189.801.266 1.633.232 2.495l-.214 5.643-18.635-.715.214-5.643a9.025 9.025 0 0 1 .43-2.469 9.161 9.161 0 0 1 2.562-4.048 9.34 9.34 0 0 1 1.942-1.391 8.887 8.887 0 0 1 2.257-.856 8.935 8.935 0 0 1 2.481-.245Zm-.142 3.749a5.35 5.35 0 0 0-2.187.362 5.371 5.371 0 0 0-1.812 1.134 5.56 5.56 0 0 0-1.279 1.743 5.421 5.421 0 0 0-.523 2.164l-.071 1.868 11.177.429.071-1.868a5.58 5.58 0 0 0-1.474-4.033 5.595 5.595 0 0 0-1.734-1.271 5.473 5.473 0 0 0-2.168-.528ZM93.41 23.462l3.386 6.687 3.327-1.701a3.673 3.673 0 0 0 1.156-.915 3.88 3.88 0 0 0 .689-1.261c.148-.457.205-.931.171-1.422a3.657 3.657 0 0 0-.394-1.441 3.543 3.543 0 0 0-.921-1.157 3.653 3.653 0 0 0-1.25-.71 3.675 3.675 0 0 0-1.415-.172 3.515 3.515 0 0 0-1.422.39l-3.326 1.702Zm6.766 13.363-3.327 1.701L88.39 21.82l6.654-3.402a7.089 7.089 0 0 1 1.885-.657 6.944 6.944 0 0 1 1.919-.13c.64.034 1.265.154 1.875.36.614.195 1.19.468 1.727.818a7.208 7.208 0 0 1 1.481 1.253 7.14 7.14 0 0 1 1.139 1.646c.292.575.501 1.172.63 1.79.136.615.192 1.236.17 1.864a7.188 7.188 0 0 1-.29 1.85 7.496 7.496 0 0 1-.756 1.736l4.055 3.426-3.535 1.808-3.153-2.626-3.71 1.926 1.694 3.344Zm40.082-22.448a9.385 9.385 0 0 1-.309 2.58 9.84 9.84 0 0 1-.924 2.33 9.648 9.648 0 0 1-1.476 1.986 10.03 10.03 0 0 1-1.925 1.562 9.48 9.48 0 0 1-2.286 1.005 9.28 9.28 0 0 1-2.556.396 9.275 9.275 0 0 1-2.567-.31 9.773 9.773 0 0 1-2.318-.93 10.037 10.037 0 0 1-1.976-1.496 10.041 10.041 0 0 1-1.553-1.935 10.312 10.312 0 0 1-1.014-2.297 9.733 9.733 0 0 1-.38-2.57 9.735 9.735 0 0 1 .295-2.58 9.963 9.963 0 0 1 .938-2.33 10.01 10.01 0 0 1 1.489-1.986 9.612 9.612 0 0 1 1.925-1.548 9.779 9.779 0 0 1 2.286-1.006 9.28 9.28 0 0 1 2.556-.396 9.278 9.278 0 0 1 2.567.31 9.48 9.48 0 0 1 4.293 2.413 9.647 9.647 0 0 1 1.541 1.936 9.605 9.605 0 0 1 1.001 2.297 9.46 9.46 0 0 1 .393 2.569Zm-3.706.062a5.768 5.768 0 0 0-.506-2.306 5.873 5.873 0 0 0-1.306-1.874 5.842 5.842 0 0 0-1.906-1.25 5.7 5.7 0 0 0-2.31-.432 5.735 5.735 0 0 0-2.307.51 6.03 6.03 0 0 0-1.864 1.312 5.87 5.87 0 0 0-1.243 1.916 5.772 5.772 0 0 0-.43 2.322c.013.819.182 1.587.506 2.305a6.037 6.037 0 0 0 3.212 3.11 5.73 5.73 0 0 0 2.322.433 5.697 5.697 0 0 0 2.294-.51 5.846 5.846 0 0 0 1.865-1.312 6.116 6.116 0 0 0 1.243-1.903 5.77 5.77 0 0 0 .43-2.321Zm35.234-5.719a9.21 9.21 0 0 1-.126 2.516 9.248 9.248 0 0 1-.744 2.307 9.934 9.934 0 0 1-1.291 2.013 9.407 9.407 0 0 1-3.903 2.762 9.257 9.257 0 0 1-2.435.537l-5.598.48L156.104.657l5.598-.48a8.91 8.91 0 0 1 2.491.128 9.08 9.08 0 0 1 4.312 2.057 9.442 9.442 0 0 1 1.612 1.764 8.92 8.92 0 0 1 1.121 2.148c.292.77.475 1.586.548 2.445Zm-3.72.318a5.4 5.4 0 0 0-.625-2.137 5.426 5.426 0 0 0-1.342-1.67 5.543 5.543 0 0 0-1.878-1.058 5.351 5.351 0 0 0-2.202-.257l-1.853.158.951 11.202 1.853-.16a5.5 5.5 0 0 0 2.128-.614 5.655 5.655 0 0 0 1.673-1.351 5.604 5.604 0 0 0 1.041-1.887c.235-.71.32-1.453.254-2.226Zm35.003 5.159a7.379 7.379 0 0 1-.991 2.815 7.588 7.588 0 0 1-1.919 2.128 7.614 7.614 0 0 1-2.58 1.24 7.19 7.19 0 0 1-2.954.17 7.288 7.288 0 0 1-2.801-.997 7.677 7.677 0 0 1-2.119-1.915 7.736 7.736 0 0 1-1.236-2.581 7.398 7.398 0 0 1-.167-2.982L189.887.933l3.682.53-1.585 11.141a3.711 3.711 0 0 0 .079 1.477 3.878 3.878 0 0 0 1.688 2.263c.428.255.896.42 1.402.492.506.073.996.046 1.469-.08a3.81 3.81 0 0 0 1.299-.632 3.7 3.7 0 0 0 .953-1.064c.261-.42.428-.885.5-1.394l1.585-11.142 3.695.53-1.585 11.143Zm28.841 14.537a9.452 9.452 0 0 1-3.336.556 9.485 9.485 0 0 1-3.333-.648 9.307 9.307 0 0 1-2.264-1.256 9.806 9.806 0 0 1-1.802-1.735 10.09 10.09 0 0 1-1.272-2.133 10.07 10.07 0 0 1-.717-2.38 10.273 10.273 0 0 1-.082-2.512 9.759 9.759 0 0 1 .606-2.525 9.753 9.753 0 0 1 1.238-2.28 9.923 9.923 0 0 1 1.739-1.806 9.825 9.825 0 0 1 2.126-1.29 9.59 9.59 0 0 1 2.363-.71 9.43 9.43 0 0 1 2.499-.082 9.284 9.284 0 0 1 2.517.598 9.529 9.529 0 0 1 2.903 1.77 9.21 9.21 0 0 1 2.1 2.664l-3.015 2.334a5.527 5.527 0 0 0-1.321-1.97 5.851 5.851 0 0 0-2.011-1.298 5.723 5.723 0 0 0-2.328-.398 6.005 6.005 0 0 0-2.218.513 5.836 5.836 0 0 0-1.868 1.307 5.752 5.752 0 0 0-1.265 1.99 5.77 5.77 0 0 0-.392 2.327 6.07 6.07 0 0 0 1.816 4.095 5.754 5.754 0 0 0 1.991 1.277c.76.295 1.545.43 2.353.407a5.639 5.639 0 0 0 2.299-.579l.674 3.764Zm20.821 13.474-3.177-1.945 7.757-12.807-4.788-2.93 1.941-3.204 12.742 7.797-1.941 3.205-4.777-2.923-7.757 12.807Zm19.511 14.509-2.847-2.426 12.059-14.3 2.847 2.426-12.059 14.3Zm28.548 21.381a9.302 9.302 0 0 1-2.513.616 9.74 9.74 0 0 1-2.494-.051 9.61 9.61 0 0 1-2.369-.692 10.007 10.007 0 0 1-2.13-1.264 9.53 9.53 0 0 1-1.74-1.797 9.403 9.403 0 0 1-1.266-2.267 9.45 9.45 0 0 1-.613-2.525 9.866 9.866 0 0 1 .052-2.508 10.135 10.135 0 0 1 1.957-4.527 10.254 10.254 0 0 1 1.784-1.76 9.647 9.647 0 0 1 2.26-1.26 9.622 9.622 0 0 1 2.507-.629 9.843 9.843 0 0 1 2.5.064c.817.136 1.607.37 2.372.704a9.598 9.598 0 0 1 2.118 1.269 9.719 9.719 0 0 1 1.741 1.797 9.41 9.41 0 0 1 1.266 2.267c.326.827.527 1.669.614 2.525.089.853.074 1.69-.053 2.507a9.748 9.748 0 0 1-.688 2.38 9.562 9.562 0 0 1-3.05 3.879 9.378 9.378 0 0 1-2.255 1.272Zm-1.359-3.466a5.706 5.706 0 0 0 1.969-1.286 5.907 5.907 0 0 0 1.289-1.887 5.87 5.87 0 0 0 .492-2.233 5.716 5.716 0 0 0-.409-2.325 5.755 5.755 0 0 0-1.282-1.992 6.03 6.03 0 0 0-1.878-1.294 5.824 5.824 0 0 0-2.222-.497 5.691 5.691 0 0 0-2.313.41 5.724 5.724 0 0 0-1.97 1.287 6.081 6.081 0 0 0-1.769 4.115 5.802 5.802 0 0 0 .413 2.337 5.758 5.758 0 0 0 1.279 1.98 5.85 5.85 0 0 0 1.878 1.294 6.043 6.043 0 0 0 2.209.502 5.698 5.698 0 0 0 2.314-.41Zm11.4 34.61-1.787-3.588 7.752-11.992-10.976 5.53-1.673-3.353 16.672-8.402 1.79 3.588-7.764 11.998 10.985-5.536 1.672 3.354-16.671 8.401ZM34.466 76.28l6.112 4.307 2.143-3.072a3.69 3.69 0 0 0 .594-1.353c.096-.487.102-.966.02-1.44a3.718 3.718 0 0 0-.514-1.335A3.635 3.635 0 0 0 41.8 72.3a3.525 3.525 0 0 0-1.354-.587 3.637 3.637 0 0 0-2.764.479 3.53 3.53 0 0 0-1.073 1.016l-2.143 3.072Zm12.214 8.607-2.142 3.072-15.271-10.761 4.285-6.144a7.149 7.149 0 0 1 1.358-1.47 7.02 7.02 0 0 1 1.634-1.02 7.015 7.015 0 0 1 1.824-.566 7.002 7.002 0 0 1 1.907-.093 7.155 7.155 0 0 1 1.892.407c.623.215 1.215.52 1.776.916a7.306 7.306 0 0 1 2.038 2.155 7.616 7.616 0 0 1 1.02 2.682 7.587 7.587 0 0 1-.056 2.882 7.25 7.25 0 0 1-1.178 2.714l-2.143 3.072 3.056 2.154Zm-26.396 7.739L34.621 106.1l-1.571 3.403-19.485-2.329 1.785-3.865 12.855 1.874-9.718-8.669 1.796-3.89Zm309.914 50.504c2.752 0 4.982-2.242 4.982-5.008s-2.23-5.008-4.982-5.008c-2.751 0-4.982 2.242-4.982 5.008s2.231 5.008 4.982 5.008Zm-316.291.166c2.752 0 4.982-2.242 4.982-5.008s-2.23-5.008-4.982-5.008c-2.752 0-4.982 2.242-4.982 5.008s2.23 5.008 4.982 5.008Z"/><defs><linearGradient id="a" x1="242.496" x2="69.37" y1="192.712" y2="192.712" gradientUnits="userSpaceOnUse"><stop stop-color="#0DA6F2"/><stop offset=".385" stop-color="#209DDF"/><stop offset=".542" stop-color="#F3461B"/><stop offset="1" stop-color="#F2390B"/></linearGradient></defs></svg>