<svg xmlns="http://www.w3.org/2000/svg" fill="none" viewBox="0 0 84 84">
  <defs/>
  <path fill="url(#paint0_linear)" d="M80.8 45.7a32.5 32.5 0 00-8.9-19.3 30.2 30.2 0 00-15-8.6v-4c2.3-.6 4-2.7 4-5.2 0-3-2.4-5.4-5.2-5.4h-11a5.3 5.3 0 00-5.2 5.4c0 2.5 1.7 4.6 4 5.2v4a30.2 30.2 0 00-17.6 11.6H15c-.9 0-1.6.7-1.6 1.6 0 .8.7 1.6 1.6 1.6h8.8c-1 1.9-2 4-2.7 6H4.6c-.8 0-1.5.7-1.5 1.6 0 .9.7 1.6 1.5 1.6h15.7c-.5 2-.7 4-.8 6h-6.7c-.8 0-1.5.7-1.5 1.6 0 .9.7 1.6 1.5 1.6h6.8c.1 2 .4 4 1 6h-10c-.8 0-1.4.8-1.4 1.6 0 1 .6 1.6 1.5 1.6h10.8c1.5 4.1 3.8 8 7 11.2a30.3 30.3 0 0021.7 9.4A30 30 0 0067 75.6c.7-.4.9-1.4.4-2.1-.5-.8-1.4-1-2.1-.5a27 27 0 01-34.7-3.8 29.5 29.5 0 010-40.6 27 27 0 0139.2 0 29.7 29.7 0 013.6 36c-.4.7-.2 1.6.5 2.1s1.6.3 2-.5a33 33 0 004.9-20.5zM42.6 8.6c0-1.2 1-2.2 2.1-2.2h11c1.1 0 2 1 2 2.2 0 1.2-.9 2.2-2 2.2H44.7c-1.2 0-2.1-1-2.1-2.2zm4 8.7v-3.4h7.3v3.4c-2.5-.3-5-.3-7.4 0z"/>
  <path fill="url(#paint1_linear)" d="M70.9 68.8c-.4 0-.8.1-1.1.4a1.6 1.6 0 000 2.2c.3.3.7.5 1 .5.5 0 .8-.2 1.1-.5a1.6 1.6 0 000-2.2c-.3-.3-.6-.4-1-.4z"/>
  <path fill="url(#paint2_linear)" d="M50.2 24.4A24 24 0 0026.6 49a24 24 0 0023.6 24.5 24 24 0 0023.6-24.5 24 24 0 00-23.6-24.5zm0 45.8A21 21 0 0129.7 49a21 21 0 0120.5-21.3 21 21 0 0120.6 21.3 21 21 0 01-20.6 21.3z"/>
  <path fill="url(#paint3_linear)" d="M59.8 36.7l-7.5 7.8a4.6 4.6 0 00-4.2 0L44.8 41c-.6-.6-1.6-.6-2.2 0-.6.6-.6 1.6 0 2.2l3.4 3.5a5 5 0 00-.5 2.2c0 2.7 2.1 5 4.7 5s4.7-2.3 4.7-5a5 5 0 00-.5-2.2l7.4-7.6.2-.2c.6-.6.6-1.6 0-2.2-.6-.6-1.6-.6-2.2 0zm-9.6 14c-1 0-1.7-.8-1.7-1.8s.8-1.7 1.7-1.7c1 0 1.7.7 1.7 1.7s-.8 1.8-1.7 1.8z"/>
  <path fill="url(#paint4_linear)" d="M66.5 47.3H65c-.9 0-1.6.8-1.6 1.6 0 .9.7 1.6 1.6 1.6h1.4c.8 0 1.5-.7 1.5-1.6 0-.8-.7-1.6-1.5-1.6z"/>
  <path fill="url(#paint5_linear)" d="M35.4 47.3H34c-.9 0-1.6.7-1.6 1.6 0 .9.7 1.6 1.6 1.6h1.4c.8 0 1.5-.7 1.5-1.6 0-.9-.7-1.6-1.5-1.6z"/>
  <path fill="url(#paint6_linear)" d="M50.2 35c.9 0 1.6-.6 1.6-1.5V32c0-.8-.7-1.6-1.6-1.6-.8 0-1.5.8-1.5 1.6v1.5c0 .9.7 1.6 1.5 1.6z"/>
  <path fill="url(#paint7_linear)" d="M50.2 62.7c-.8 0-1.5.7-1.5 1.6v1.5c0 .9.7 1.6 1.5 1.6s1.5-.7 1.5-1.6v-1.5c0-.9-.7-1.6-1.5-1.6z"/>
  <path fill="url(#paint8_linear)" d="M4.6 57c-.4 0-.8.2-1 .5a1.6 1.6 0 000 2.3c.2.3.6.4 1 .4s.8-.1 1-.4a1.6 1.6 0 000-2.3c-.2-.3-.6-.4-1-.4z"/>
  <defs>
    <linearGradient id="paint0_linear" x1="65.1" x2="14.5" y1="31.6" y2="31.6" gradientUnits="userSpaceOnUse">
      <stop stop-color="#0DA6F2"/>
      <stop offset="1" stop-color="#F2390B"/>
    </linearGradient>
    <linearGradient id="paint1_linear" x1="71.8" x2="69.8" y1="69.9" y2="69.9" gradientUnits="userSpaceOnUse">
      <stop stop-color="#0DA6F2"/>
      <stop offset="1" stop-color="#F2390B"/>
    </linearGradient>
    <linearGradient id="paint2_linear" x1="64.2" x2="33.5" y1="42.4" y2="42.4" gradientUnits="userSpaceOnUse">
      <stop stop-color="#0DA6F2"/>
      <stop offset="1" stop-color="#F2390B"/>
    </linearGradient>
    <linearGradient id="paint3_linear" x1="58.3" x2="45.1" y1="42.7" y2="42.7" gradientUnits="userSpaceOnUse">
      <stop stop-color="#0DA6F2"/>
      <stop offset="1" stop-color="#F2390B"/>
    </linearGradient>
    <linearGradient id="paint4_linear" x1="67.1" x2="64.2" y1="48.5" y2="48.5" gradientUnits="userSpaceOnUse">
      <stop stop-color="#0DA6F2"/>
      <stop offset="1" stop-color="#F2390B"/>
    </linearGradient>
    <linearGradient id="paint5_linear" x1="36" x2="33.1" y1="48.5" y2="48.5" gradientUnits="userSpaceOnUse">
      <stop stop-color="#0DA6F2"/>
      <stop offset="1" stop-color="#F2390B"/>
    </linearGradient>
    <linearGradient id="paint6_linear" x1="51.1" x2="49.2" y1="32.1" y2="32.1" gradientUnits="userSpaceOnUse">
      <stop stop-color="#0DA6F2"/>
      <stop offset="1" stop-color="#F2390B"/>
    </linearGradient>
    <linearGradient id="paint7_linear" x1="51.1" x2="49.1" y1="64.4" y2="64.4" gradientUnits="userSpaceOnUse">
      <stop stop-color="#0DA6F2"/>
      <stop offset="1" stop-color="#F2390B"/>
    </linearGradient>
    <linearGradient id="paint8_linear" x1="5.5" x2="3.5" y1="58.2" y2="58.2" gradientUnits="userSpaceOnUse">
      <stop stop-color="#0DA6F2"/>
      <stop offset="1" stop-color="#F2390B"/>
    </linearGradient>
  </defs>
</svg>