<svg width="70" height="70" viewBox="0 0 127 89" fill="none" xmlns="http://www.w3.org/2000/svg">
<path d="M81.1622 0.0786451C80.5669 -0.131075 79.7731 0.0786455 79.5747 0.707807C79.3763 0.917527 64.8907 24.1965 32.7445 27.7617V55.6545C64.8907 59.2198 79.3763 82.4987 79.3763 82.7085C80.17 83.9668 82.1544 83.5473 82.1544 81.8696V1.54669C82.1544 0.917526 81.7575 0.288365 81.1622 0.0786451Z" fill="url(#paint0_linear_484_250)"/>
<path d="M94.8553 41.8129C94.8553 35.3116 90.6882 29.6491 85.1321 27.5519V55.8642C90.6882 53.9767 94.8553 48.3142 94.8553 41.8129Z" fill="url(#paint1_linear_484_250)"/>
<path d="M95.8479 71.803C96.0464 72.4321 96.6417 72.8516 97.237 72.8516C97.4354 72.8516 97.4354 72.8516 97.6339 72.8516C126.208 63.8336 126.208 19.5826 97.6339 10.5646C96.8401 10.3549 96.0464 10.7744 95.8479 11.6132C95.6495 12.4521 96.0464 13.291 96.8401 13.5007C122.636 21.6798 122.636 61.5267 96.8401 69.7058C96.0464 70.1252 95.6495 70.9641 95.8479 71.803Z" fill="url(#paint2_linear_484_250)"/>
<path d="M97.8304 0.49801C97.0366 0.28829 96.2429 0.70773 96.0445 1.54661C95.846 2.38549 96.2429 3.22437 97.0366 3.43409C132.953 13.7104 132.953 69.7057 97.0366 79.982C96.2429 80.1917 95.846 81.0306 96.0445 81.8695C96.2429 82.7084 97.0366 83.1278 97.8304 82.9181C136.723 72.0126 136.723 11.4035 97.8304 0.49801Z" fill="url(#paint3_linear_484_250)"/>
<path d="M97.0369 59.6392C96.2432 59.8489 95.8463 60.8975 96.2432 61.7364C96.4416 62.3656 97.0369 62.785 97.6322 62.785C97.8307 62.785 98.0291 62.785 98.2275 62.785C116.285 55.8642 116.285 27.9714 98.2275 21.0506C97.4338 20.8409 96.6401 21.2604 96.2432 21.8895C96.0448 22.7284 96.4416 23.5673 97.0369 23.9867C112.316 29.8589 112.316 53.767 97.0369 59.6392Z" fill="url(#paint4_linear_484_250)"/>
<path d="M29.769 52.2989V27.9714C28.1815 28.1811 26.3956 28.1811 24.6097 28.1811C18.8552 28.1811 12.9022 27.5519 6.94921 26.2936C6.94921 26.2936 6.55234 26.2936 6.15548 26.2936C2.78212 26.2936 0.00405877 28.8102 0.00405877 35.1019V48.3142C-0.194374 58.1711 6.94921 57.3322 6.94921 57.1225C8.53667 56.9128 10.1241 56.4933 11.7116 56.2836C11.7116 58.3808 11.5132 59.01 11.91 59.4294C15.6803 65.3016 18.4583 76.8362 18.8552 78.0945C19.0536 81.4501 20.2442 86.2736 23.0223 87.532C25.6019 88.5806 28.1815 89 30.5627 89C36.5157 89 39.4922 85.8542 39.6906 85.8542C39.6906 85.6445 39.8891 85.6445 39.8891 85.6445C43.6593 79.1431 35.1267 72.2224 34.7298 72.0126C29.3721 66.9794 28.38 58.8003 28.1815 55.235C28.5784 55.235 29.1737 55.235 29.5706 55.235V52.2989H29.769ZM14.4897 48.1045C11.1163 48.1045 8.53667 45.3782 8.53667 41.8129C8.53667 38.2477 11.1163 35.5213 14.4897 35.5213C17.863 35.5213 20.4426 38.2477 20.4426 41.8129C20.4426 45.3782 17.863 48.1045 14.4897 48.1045Z" fill="url(#paint5_linear_484_250)"/>
<path d="M14.4903 38.6671C12.9028 38.6671 11.5138 40.1352 11.5138 41.8129C11.5138 43.4907 12.9028 44.9587 14.4903 44.9587C16.0777 44.9587 17.4668 43.4907 17.4668 41.8129C17.4668 39.9254 16.2762 38.6671 14.4903 38.6671Z" fill="url(#paint6_linear_484_250)"/>
<defs>
<linearGradient id="paint0_linear_484_250" x1="0.623555" y1="40.8545" x2="85.6217" y2="40.8545" gradientUnits="userSpaceOnUse">
<stop stop-color="#F3461B"/>
<stop offset="1" stop-color="#0DA6F2"/>
</linearGradient>
<linearGradient id="paint1_linear_484_250" x1="0.623555" y1="40.8545" x2="85.6217" y2="40.8545" gradientUnits="userSpaceOnUse">
<stop stop-color="#F3461B"/>
<stop offset="1" stop-color="#0DA6F2"/>
</linearGradient>
<linearGradient id="paint2_linear_484_250" x1="0.623555" y1="40.8545" x2="85.6217" y2="40.8545" gradientUnits="userSpaceOnUse">
<stop stop-color="#F3461B"/>
<stop offset="1" stop-color="#0DA6F2"/>
</linearGradient>
<linearGradient id="paint3_linear_484_250" x1="0.623555" y1="40.8545" x2="85.6217" y2="40.8545" gradientUnits="userSpaceOnUse">
<stop stop-color="#F3461B"/>
<stop offset="1" stop-color="#0DA6F2"/>
</linearGradient>
<linearGradient id="paint4_linear_484_250" x1="0.623555" y1="40.8545" x2="85.6217" y2="40.8545" gradientUnits="userSpaceOnUse">
<stop stop-color="#F3461B"/>
<stop offset="1" stop-color="#0DA6F2"/>
</linearGradient>
<linearGradient id="paint5_linear_484_250" x1="0.623555" y1="40.8545" x2="85.6217" y2="40.8545" gradientUnits="userSpaceOnUse">
<stop stop-color="#F3461B"/>
<stop offset="1" stop-color="#0DA6F2"/>
</linearGradient>
<linearGradient id="paint6_linear_484_250" x1="0.623555" y1="40.8545" x2="85.6217" y2="40.8545" gradientUnits="userSpaceOnUse">
<stop stop-color="#F3461B"/>
<stop offset="1" stop-color="#0DA6F2"/>
</linearGradient>
</defs>
</svg>
