<svg width="70" height="70" viewBox="0 0 86 109" fill="none" xmlns="http://www.w3.org/2000/svg">
<path d="M85.9788 27.1479C85.9689 26.9773 85.9339 26.809 85.8749 26.648C85.8577 26.6007 85.8493 26.5519 85.828 26.5064C85.7473 26.3259 85.6367 26.1593 85.5007 26.0135L61.1963 0.580134C61.1868 0.57027 61.1742 0.565165 61.1645 0.555519C61.1317 0.522582 61.0905 0.5014 61.0552 0.470916C60.9262 0.35796 60.7816 0.263222 60.6254 0.189497C60.5669 0.16371 60.507 0.141017 60.446 0.121517C60.2815 0.0645803 60.1094 0.0308235 59.9349 0.0212732C59.8969 0.019075 59.8648 0 59.8261 0H5.6087C4.12168 0.00157722 2.69602 0.576279 1.64454 1.59801C0.593059 2.61974 0.00162315 4.00505 0 5.45V103.55C0.00162315 104.995 0.593059 106.38 1.64454 107.402C2.69602 108.424 4.12168 108.998 5.6087 109H80.3913C81.8783 108.998 83.304 108.424 84.3555 107.402C85.4069 106.38 85.9984 104.995 86 103.55V27.25C86 27.2137 85.9809 27.1836 85.9788 27.1479ZM9.36609 101.733C9.12058 101.735 8.87723 101.689 8.64995 101.598C8.42266 101.508 8.21589 101.375 8.04143 101.208C7.86698 101.04 7.72826 100.84 7.6332 100.62C7.53814 100.4 7.48859 100.164 7.48739 99.9255C7.48619 99.687 7.53336 99.4505 7.62621 99.2297C7.71906 99.0088 7.85576 98.8079 8.02852 98.6384C8.20128 98.4688 8.4067 98.3341 8.63307 98.2417C8.85944 98.1493 9.10231 98.1012 9.34783 98.1H9.36609C9.86193 98.1 10.3375 98.2914 10.6881 98.6321C11.0387 98.9728 11.2357 99.4349 11.2357 99.9167C11.2357 100.398 11.0387 100.861 10.6881 101.201C10.3375 101.542 9.86193 101.733 9.36609 101.733ZM9.36609 94.4667C9.12058 94.4678 8.87723 94.422 8.64995 94.3318C8.42266 94.2416 8.21589 94.1087 8.04143 93.9409C7.86698 93.773 7.72826 93.5734 7.6332 93.3534C7.53814 93.1334 7.48859 92.8974 7.48739 92.6589C7.48619 92.4203 7.53336 92.1838 7.62621 91.963C7.71906 91.7421 7.85576 91.5412 8.02852 91.3717C8.20128 91.2022 8.4067 91.0674 8.63307 90.975C8.85944 90.8826 9.10231 90.8345 9.34783 90.8333H9.36609C9.86193 90.8333 10.3375 91.0247 10.6881 91.3654C11.0387 91.7061 11.2357 92.1682 11.2357 92.65C11.2357 93.1318 11.0387 93.5939 10.6881 93.9346C10.3375 94.2753 9.86193 94.4667 9.36609 94.4667ZM9.36609 87.2C9.12058 87.2012 8.87723 87.1553 8.64995 87.0651C8.42266 86.9749 8.21589 86.8421 8.04143 86.6742C7.86698 86.5063 7.72826 86.3067 7.6332 86.0867C7.53814 85.8668 7.48859 85.6308 7.48739 85.3922C7.48619 85.1536 7.53336 84.9172 7.62621 84.6963C7.71906 84.4755 7.85576 84.2746 8.02852 84.105C8.20128 83.9355 8.4067 83.8007 8.63307 83.7084C8.85944 83.616 9.10231 83.5678 9.34783 83.5667H9.36609C9.86193 83.5667 10.3375 83.7581 10.6881 84.0988C11.0387 84.4394 11.2357 84.9015 11.2357 85.3833C11.2357 85.8651 11.0387 86.3272 10.6881 86.6679C10.3375 87.0086 9.86193 87.2 9.36609 87.2ZM9.36609 79.9333C9.12058 79.9345 8.87723 79.8887 8.64995 79.7984C8.42266 79.7082 8.21589 79.5754 8.04143 79.4075C7.86698 79.2396 7.72826 79.04 7.6332 78.8201C7.53814 78.6001 7.48859 78.3641 7.48739 78.1255C7.48619 77.887 7.53336 77.6505 7.62621 77.4297C7.71906 77.2088 7.85576 77.0079 8.02852 76.8384C8.20128 76.6689 8.4067 76.5341 8.63307 76.4417C8.85944 76.3493 9.10231 76.3012 9.34783 76.3H9.36609C9.86193 76.3 10.3375 76.4914 10.6881 76.8321C11.0387 77.1728 11.2357 77.6349 11.2357 78.1167C11.2357 78.5985 11.0387 79.0606 10.6881 79.4012C10.3375 79.7419 9.86193 79.9333 9.36609 79.9333ZM9.36609 72.6667C9.12058 72.6678 8.87723 72.622 8.64995 72.5318C8.42266 72.4416 8.21589 72.3087 8.04143 72.1409C7.86698 71.973 7.72826 71.7734 7.6332 71.5534C7.53814 71.3334 7.48859 71.0975 7.48739 70.8589C7.48619 70.6203 7.53336 70.3839 7.62621 70.163C7.71906 69.9421 7.85576 69.7412 8.02852 69.5717C8.20128 69.4022 8.4067 69.2674 8.63307 69.175C8.85944 69.0826 9.10231 69.0345 9.34783 69.0333H9.36609C9.86193 69.0333 10.3375 69.2247 10.6881 69.5654C11.0387 69.9061 11.2357 70.3682 11.2357 70.85C11.2357 71.3318 11.0387 71.7939 10.6881 72.1346C10.3375 72.4753 9.86193 72.6667 9.36609 72.6667ZM9.36609 65.4C9.12058 65.4012 8.87723 65.3553 8.64995 65.2651C8.42266 65.1749 8.21589 65.0421 8.04143 64.8742C7.86698 64.7063 7.72826 64.5067 7.6332 64.2867C7.53814 64.0668 7.48859 63.8308 7.48739 63.5922C7.48619 63.3536 7.53336 63.1172 7.62621 62.8963C7.71906 62.6755 7.85576 62.4746 8.02852 62.305C8.20128 62.1355 8.4067 62.0007 8.63307 61.9084C8.85944 61.816 9.10231 61.7678 9.34783 61.7667H9.36609C9.86193 61.7667 10.3375 61.9581 10.6881 62.2988C11.0387 62.6394 11.2357 63.1015 11.2357 63.5833C11.2357 64.0651 11.0387 64.5272 10.6881 64.8679C10.3375 65.2086 9.86193 65.4 9.36609 65.4ZM9.36609 58.1333C9.12058 58.1345 8.87723 58.0887 8.64995 57.9984C8.42266 57.9082 8.21589 57.7754 8.04143 57.6075C7.86698 57.4397 7.72826 57.24 7.6332 57.0201C7.53814 56.8001 7.48859 56.5641 7.48739 56.3255C7.48619 56.087 7.53336 55.8505 7.62621 55.6297C7.71906 55.4088 7.85576 55.2079 8.02852 55.0384C8.20128 54.8688 8.4067 54.7341 8.63307 54.6417C8.85944 54.5493 9.10231 54.5012 9.34783 54.5H9.36609C9.86193 54.5 10.3375 54.6914 10.6881 55.0321C11.0387 55.3728 11.2357 55.8349 11.2357 56.3167C11.2357 56.7985 11.0387 57.2606 10.6881 57.6012C10.3375 57.9419 9.86193 58.1333 9.36609 58.1333ZM9.36609 50.8667C9.12058 50.8678 8.87723 50.822 8.64995 50.7318C8.42266 50.6416 8.21589 50.5087 8.04143 50.3409C7.86698 50.173 7.72826 49.9734 7.6332 49.7534C7.53814 49.5334 7.48859 49.2974 7.48739 49.0589C7.48619 48.8203 7.53336 48.5838 7.62621 48.363C7.71906 48.1421 7.85576 47.9412 8.02852 47.7717C8.20128 47.6022 8.4067 47.4674 8.63307 47.375C8.85944 47.2826 9.10231 47.2345 9.34783 47.2333H9.36609C9.86193 47.2333 10.3375 47.4247 10.6881 47.7654C11.0387 48.1061 11.2357 48.5682 11.2357 49.05C11.2357 49.5318 11.0387 49.9939 10.6881 50.3346C10.3375 50.6753 9.86193 50.8667 9.36609 50.8667ZM9.36609 43.6C8.87025 43.6024 8.39376 43.4132 8.04143 43.0742C7.68911 42.7352 7.48982 42.274 7.48739 41.7922C7.48497 41.3104 7.67962 40.8474 8.02852 40.505C8.37742 40.1627 8.85199 39.969 9.34783 39.9667H9.36609C9.86193 39.9667 10.3375 40.1581 10.6881 40.4988C11.0387 40.8394 11.2357 41.3015 11.2357 41.7833C11.2357 42.2651 11.0387 42.7272 10.6881 43.0679C10.3375 43.4086 9.86193 43.6 9.36609 43.6ZM9.36609 36.3333C9.12058 36.3345 8.87723 36.2887 8.64995 36.1984C8.42266 36.1082 8.21589 35.9754 8.04143 35.8075C7.86698 35.6397 7.72826 35.44 7.6332 35.2201C7.53814 35.0001 7.48859 34.7641 7.48739 34.5255C7.48619 34.287 7.53336 34.0505 7.62621 33.8297C7.71906 33.6088 7.85576 33.4079 8.02852 33.2384C8.20128 33.0688 8.4067 32.9341 8.63307 32.8417C8.85944 32.7493 9.10231 32.7012 9.34783 32.7H9.36609C9.86193 32.7 10.3375 32.8914 10.6881 33.2321C11.0387 33.5728 11.2357 34.0349 11.2357 34.5167C11.2357 34.9985 11.0387 35.4606 10.6881 35.8012C10.3375 36.1419 9.86193 36.3333 9.36609 36.3333ZM9.36609 29.0667C8.87025 29.069 8.39376 28.8799 8.04143 28.5409C7.68911 28.2018 7.48982 27.7407 7.48739 27.2589C7.48497 26.7771 7.67962 26.3141 8.02852 25.9717C8.37742 25.6293 8.85199 25.4357 9.34783 25.4333H9.36609C9.86193 25.4333 10.3375 25.6247 10.6881 25.9654C11.0387 26.3061 11.2357 26.7682 11.2357 27.25C11.2357 27.7318 11.0387 28.1939 10.6881 28.5346C10.3375 28.8753 9.86193 29.0667 9.36609 29.0667ZM9.36609 21.8C8.87025 21.8024 8.39376 21.6132 8.04143 21.2742C7.68911 20.9352 7.48982 20.474 7.48739 19.9922C7.48497 19.5104 7.67962 19.0474 8.02852 18.705C8.37742 18.3627 8.85199 18.169 9.34783 18.1667H9.36609C9.86193 18.1667 10.3375 18.3581 10.6881 18.6988C11.0387 19.0394 11.2357 19.5015 11.2357 19.9833C11.2357 20.4651 11.0387 20.9272 10.6881 21.2679C10.3375 21.6086 9.86193 21.8 9.36609 21.8ZM60.8284 78.051C60.8288 79.5013 60.3865 80.9191 59.5576 82.1251C58.7287 83.3311 57.5503 84.2712 56.1715 84.8265C54.7927 85.3817 53.2755 85.5271 51.8116 85.2444C50.3477 84.9617 49.003 84.2635 47.9476 83.2381C46.8921 82.2128 46.1732 80.9063 45.8819 79.4839C45.5906 78.0615 45.7399 76.5872 46.311 75.2473C46.8821 73.9073 47.8493 72.7621 49.0902 71.9563C50.3311 71.1506 51.7901 70.7205 53.2826 70.7205C54.624 70.7275 55.9386 71.0857 57.0881 71.7576L57.0856 58.9955C55.8557 58.3787 54.4745 58.1038 53.094 58.2012C51.7136 58.2985 50.3877 58.7643 49.2623 59.5472C48.0213 60.5327 46.5708 61.2384 45.0153 61.6136C43.4598 61.9888 41.8381 62.0241 40.2669 61.7169V82H40.244C40.2051 83.4403 39.7299 84.8374 38.8778 86.0165C38.0258 87.1956 36.8348 88.1043 35.4539 88.629C34.073 89.1536 32.5635 89.2709 31.1144 88.966C29.6652 88.6612 28.3408 87.9479 27.3068 86.9152C26.2728 85.8826 25.5752 84.5766 25.3013 83.1607C25.0274 81.7447 25.1893 80.2817 25.7669 78.9548C26.3444 77.6278 27.3118 76.4958 28.5481 75.7005C29.7844 74.9051 31.2347 74.4818 32.7174 74.4833C34.0603 74.4903 35.3763 74.8493 36.5267 75.5225L36.5241 59.2155C36.5229 58.9048 36.6038 58.5989 36.759 58.3272C36.9142 58.0555 37.1385 57.8271 37.4105 57.6637C37.6825 57.5003 37.9931 57.4074 38.3126 57.394C38.6321 57.3805 38.9498 57.447 39.2353 57.5869C40.4381 58.1268 41.7674 58.3448 43.0859 58.2185C44.4045 58.0922 45.6644 57.6261 46.7355 56.8684C48.6345 55.2899 51.0654 54.4467 53.5638 54.5C55.9574 54.4592 58.291 55.2295 60.1638 56.6786C60.3696 56.8489 60.535 57.0604 60.6487 57.2987C60.7625 57.5369 60.8219 57.7962 60.8229 58.0588L60.8284 77.588H60.7803C60.7905 77.7441 60.8284 77.8925 60.8284 78.051ZM76.6522 101.733C76.4067 101.735 76.1633 101.689 75.936 101.598C75.7087 101.508 75.502 101.375 75.3275 101.208C75.1531 101.04 75.0143 100.84 74.9193 100.62C74.8242 100.4 74.7747 100.164 74.7735 99.9255C74.7723 99.687 74.8195 99.4505 74.9123 99.2297C75.0051 99.0088 75.1418 98.8079 75.3146 98.6384C75.4874 98.4688 75.6928 98.3341 75.9192 98.2417C76.1455 98.1493 76.3884 98.1012 76.6339 98.1H76.6522C77.148 98.1 77.6236 98.2914 77.9742 98.6321C78.3248 98.9728 78.5217 99.4349 78.5217 99.9167C78.5217 100.398 78.3248 100.861 77.9742 101.201C77.6236 101.542 77.148 101.733 76.6522 101.733ZM76.6522 94.4667C76.4067 94.4678 76.1633 94.422 75.936 94.3318C75.7087 94.2416 75.502 94.1087 75.3275 93.9409C75.1531 93.773 75.0143 93.5734 74.9193 93.3534C74.8242 93.1334 74.7747 92.8974 74.7735 92.6589C74.7723 92.4203 74.8195 92.1838 74.9123 91.963C75.0051 91.7421 75.1418 91.5412 75.3146 91.3717C75.4874 91.2022 75.6928 91.0674 75.9192 90.975C76.1455 90.8826 76.3884 90.8345 76.6339 90.8333H76.6522C77.148 90.8333 77.6236 91.0247 77.9742 91.3654C78.3248 91.7061 78.5217 92.1682 78.5217 92.65C78.5217 93.1318 78.3248 93.5939 77.9742 93.9346C77.6236 94.2753 77.148 94.4667 76.6522 94.4667ZM76.6522 87.2C76.4067 87.2012 76.1633 87.1553 75.936 87.0651C75.7087 86.9749 75.502 86.8421 75.3275 86.6742C75.1531 86.5063 75.0143 86.3067 74.9193 86.0867C74.8242 85.8668 74.7747 85.6308 74.7735 85.3922C74.7723 85.1536 74.8195 84.9172 74.9123 84.6963C75.0051 84.4755 75.1418 84.2746 75.3146 84.105C75.4874 83.9355 75.6928 83.8007 75.9192 83.7084C76.1455 83.616 76.3884 83.5678 76.6339 83.5667H76.6522C77.148 83.5667 77.6236 83.7581 77.9742 84.0988C78.3248 84.4394 78.5217 84.9015 78.5217 85.3833C78.5217 85.8651 78.3248 86.3272 77.9742 86.6679C77.6236 87.0086 77.148 87.2 76.6522 87.2ZM76.6522 79.9333C76.4067 79.9345 76.1633 79.8887 75.936 79.7984C75.7087 79.7082 75.502 79.5754 75.3275 79.4075C75.1531 79.2396 75.0143 79.04 74.9193 78.8201C74.8242 78.6001 74.7747 78.3641 74.7735 78.1255C74.7723 77.887 74.8195 77.6505 74.9123 77.4297C75.0051 77.2088 75.1418 77.0079 75.3146 76.8384C75.4874 76.6689 75.6928 76.5341 75.9192 76.4417C76.1455 76.3493 76.3884 76.3012 76.6339 76.3H76.6522C77.148 76.3 77.6236 76.4914 77.9742 76.8321C78.3248 77.1728 78.5217 77.6349 78.5217 78.1167C78.5217 78.5985 78.3248 79.0606 77.9742 79.4012C77.6236 79.7419 77.148 79.9333 76.6522 79.9333ZM76.6522 72.6667C76.4067 72.6678 76.1633 72.622 75.936 72.5318C75.7087 72.4416 75.502 72.3087 75.3275 72.1409C75.1531 71.973 75.0143 71.7734 74.9193 71.5534C74.8242 71.3334 74.7747 71.0975 74.7735 70.8589C74.7723 70.6203 74.8195 70.3839 74.9123 70.163C75.0051 69.9421 75.1418 69.7412 75.3146 69.5717C75.4874 69.4022 75.6928 69.2674 75.9192 69.175C76.1455 69.0826 76.3884 69.0345 76.6339 69.0333H76.6522C77.148 69.0333 77.6236 69.2247 77.9742 69.5654C78.3248 69.9061 78.5217 70.3682 78.5217 70.85C78.5217 71.3318 78.3248 71.7939 77.9742 72.1346C77.6236 72.4753 77.148 72.6667 76.6522 72.6667ZM76.6522 65.4C76.4067 65.4012 76.1633 65.3553 75.936 65.2651C75.7087 65.1749 75.502 65.0421 75.3275 64.8742C75.1531 64.7063 75.0143 64.5067 74.9193 64.2867C74.8242 64.0668 74.7747 63.8308 74.7735 63.5922C74.7723 63.3536 74.8195 63.1172 74.9123 62.8963C75.0051 62.6755 75.1418 62.4746 75.3146 62.305C75.4874 62.1355 75.6928 62.0007 75.9192 61.9084C76.1455 61.816 76.3884 61.7678 76.6339 61.7667H76.6522C77.148 61.7667 77.6236 61.9581 77.9742 62.2988C78.3248 62.6394 78.5217 63.1015 78.5217 63.5833C78.5217 64.0651 78.3248 64.5272 77.9742 64.8679C77.6236 65.2086 77.148 65.4 76.6522 65.4ZM76.6522 58.1333C76.4067 58.1345 76.1633 58.0887 75.936 57.9984C75.7087 57.9082 75.502 57.7754 75.3275 57.6075C75.1531 57.4397 75.0143 57.24 74.9193 57.0201C74.8242 56.8001 74.7747 56.5641 74.7735 56.3255C74.7723 56.087 74.8195 55.8505 74.9123 55.6297C75.0051 55.4088 75.1418 55.2079 75.3146 55.0384C75.4874 54.8688 75.6928 54.7341 75.9192 54.6417C76.1455 54.5493 76.3884 54.5012 76.6339 54.5H76.6522C77.148 54.5 77.6236 54.6914 77.9742 55.0321C78.3248 55.3728 78.5217 55.8349 78.5217 56.3167C78.5217 56.7985 78.3248 57.2606 77.9742 57.6012C77.6236 57.9419 77.148 58.1333 76.6522 58.1333ZM76.6522 50.8667C76.4067 50.8678 76.1633 50.822 75.936 50.7318C75.7087 50.6416 75.502 50.5087 75.3275 50.3409C75.1531 50.173 75.0143 49.9734 74.9193 49.7534C74.8242 49.5334 74.7747 49.2974 74.7735 49.0589C74.7723 48.8203 74.8195 48.5838 74.9123 48.363C75.0051 48.1421 75.1418 47.9412 75.3146 47.7717C75.4874 47.6022 75.6928 47.4674 75.9192 47.375C76.1455 47.2826 76.3884 47.2345 76.6339 47.2333H76.6522C77.148 47.2333 77.6236 47.4247 77.9742 47.7654C78.3248 48.1061 78.5217 48.5682 78.5217 49.05C78.5217 49.5318 78.3248 49.9939 77.9742 50.3346C77.6236 50.6753 77.148 50.8667 76.6522 50.8667ZM76.6522 43.6C76.1563 43.6024 75.6798 43.4132 75.3275 43.0742C74.9752 42.7352 74.7759 42.274 74.7735 41.7922C74.771 41.3104 74.9657 40.8474 75.3146 40.505C75.6635 40.1627 76.1381 39.969 76.6339 39.9667H76.6522C77.148 39.9667 77.6236 40.1581 77.9742 40.4988C78.3248 40.8394 78.5217 41.3015 78.5217 41.7833C78.5217 42.2651 78.3248 42.7272 77.9742 43.0679C77.6236 43.4086 77.148 43.6 76.6522 43.6ZM63.5652 25.4333C63.0695 25.4329 62.5943 25.2413 62.2438 24.9007C61.8933 24.5601 61.6961 24.0983 61.6957 23.6167V6.4435L79.8435 25.4333H63.5652Z" fill="url(#paint0_linear_484_271)"/>
<defs>
<linearGradient id="paint0_linear_484_271" x1="0.42225" y1="50.0353" x2="57.9801" y2="50.0353" gradientUnits="userSpaceOnUse">
<stop stop-color="#F3461B"/>
<stop offset="1" stop-color="#0DA6F2"/>
</linearGradient>
</defs>
</svg>
