<svg width="111" height="112" viewBox="0 0 111 112" fill="none" xmlns="http://www.w3.org/2000/svg">
<path d="M1.60921 3.21844C2.49795 3.21844 3.21844 2.49798 3.21844 1.60922C3.21844 0.720466 2.49795 0 1.60921 0C0.720459 0 0 0.720466 0 1.60922C0 2.49798 0.720459 3.21844 1.60921 3.21844Z" fill="url(#paint0_linear_371_646)"/>
<path d="M28.3355 3.21844C29.2242 3.21844 29.9447 2.49798 29.9447 1.60922C29.9447 0.720466 29.2242 0 28.3355 0C27.4467 0 26.7262 0.720466 26.7262 1.60922C26.7262 2.49798 27.4467 3.21844 28.3355 3.21844Z" fill="url(#paint1_linear_371_646)"/>
<path d="M55.0302 3.21844C55.919 3.21844 56.6394 2.49798 56.6394 1.60922C56.6394 0.720466 55.919 0 55.0302 0C54.1415 0 53.421 0.720466 53.421 1.60922C53.421 2.49798 54.1415 3.21844 55.0302 3.21844Z" fill="url(#paint2_linear_371_646)"/>
<path d="M81.7562 3.21844C82.6449 3.21844 83.3654 2.49798 83.3654 1.60922C83.3654 0.720466 82.6449 0 81.7562 0C80.8674 0 80.1469 0.720466 80.1469 1.60922C80.1469 2.49798 80.8674 3.21844 81.7562 3.21844Z" fill="url(#paint3_linear_371_646)"/>
<path d="M110.061 1.61652C110.065 1.93655 109.973 2.25056 109.798 2.51842C109.623 2.78628 109.372 2.99579 109.077 3.12021C108.782 3.24462 108.457 3.27829 108.143 3.21687C107.829 3.15546 107.54 3.00176 107.314 2.77544C107.087 2.54912 106.934 2.26044 106.872 1.94633C106.811 1.63221 106.844 1.30691 106.969 1.01202C107.093 0.717121 107.303 0.466018 107.571 0.290816C107.838 0.115615 108.153 0.0242839 108.473 0.028468C108.894 0.028468 109.298 0.19577 109.595 0.493587C109.893 0.791404 110.061 1.19534 110.061 1.61652Z" fill="url(#paint4_linear_371_646)"/>
<path d="M1.60921 24.965C2.49795 24.965 3.21844 24.2445 3.21844 23.3558C3.21844 22.467 2.49795 21.7466 1.60921 21.7466C0.720459 21.7466 0 22.467 0 23.3558C0 24.2445 0.720459 24.965 1.60921 24.965Z" fill="url(#paint5_linear_371_646)"/>
<path d="M28.3355 24.965C29.2242 24.965 29.9447 24.2445 29.9447 23.3558C29.9447 22.467 29.2242 21.7466 28.3355 21.7466C27.4467 21.7466 26.7262 22.467 26.7262 23.3558C26.7262 24.2445 27.4467 24.965 28.3355 24.965Z" fill="url(#paint6_linear_371_646)"/>
<path d="M55.0302 24.965C55.919 24.965 56.6394 24.2445 56.6394 23.3558C56.6394 22.467 55.919 21.7466 55.0302 21.7466C54.1415 21.7466 53.421 22.467 53.421 23.3558C53.421 24.2445 54.1415 24.965 55.0302 24.965Z" fill="url(#paint7_linear_371_646)"/>
<path d="M81.7562 24.965C82.6449 24.965 83.3654 24.2445 83.3654 23.3558C83.3654 22.467 82.6449 21.7466 81.7562 21.7466C80.8674 21.7466 80.1469 22.467 80.1469 23.3558C80.1469 24.2445 80.8674 24.965 81.7562 24.965Z" fill="url(#paint8_linear_371_646)"/>
<path d="M110.061 23.3553C110.061 23.6745 109.966 23.9864 109.788 24.2515C109.61 24.5166 109.358 24.7228 109.062 24.844C108.767 24.9651 108.442 24.9957 108.13 24.9319C107.817 24.8681 107.53 24.7127 107.306 24.4855C107.082 24.2583 106.93 23.9696 106.871 23.6561C106.811 23.3425 106.846 23.0183 106.971 22.7247C107.096 22.431 107.306 22.1812 107.573 22.007C107.84 21.8327 108.154 21.7419 108.473 21.7461C108.896 21.7517 109.3 21.9237 109.597 22.2248C109.894 22.526 110.061 22.9321 110.061 23.3553Z" fill="url(#paint9_linear_371_646)"/>
<path d="M1.60921 46.6824C2.49795 46.6824 3.21844 45.9619 3.21844 45.0732C3.21844 44.1844 2.49795 43.464 1.60921 43.464C0.720459 43.464 0 44.1844 0 45.0732C0 45.9619 0.720459 46.6824 1.60921 46.6824Z" fill="url(#paint10_linear_371_646)"/>
<path d="M28.3355 46.6824C29.2242 46.6824 29.9447 45.9619 29.9447 45.0732C29.9447 44.1844 29.2242 43.464 28.3355 43.464C27.4467 43.464 26.7262 44.1844 26.7262 45.0732C26.7262 45.9619 27.4467 46.6824 28.3355 46.6824Z" fill="url(#paint11_linear_371_646)"/>
<path d="M55.0302 46.6824C55.919 46.6824 56.6394 45.9619 56.6394 45.0732C56.6394 44.1844 55.919 43.464 55.0302 43.464C54.1415 43.464 53.421 44.1844 53.421 45.0732C53.421 45.9619 54.1415 46.6824 55.0302 46.6824Z" fill="url(#paint12_linear_371_646)"/>
<path d="M81.7562 46.6824C82.6449 46.6824 83.3654 45.9619 83.3654 45.0732C83.3654 44.1844 82.6449 43.464 81.7562 43.464C80.8674 43.464 80.1469 44.1844 80.1469 45.0732C80.1469 45.9619 80.8674 46.6824 81.7562 46.6824Z" fill="url(#paint13_linear_371_646)"/>
<path d="M110.061 45.0805C110.065 45.4005 109.973 45.7146 109.798 45.9824C109.623 46.2503 109.372 46.4598 109.077 46.5842C108.782 46.7086 108.457 46.7423 108.143 46.6808C107.829 46.6194 107.54 46.4658 107.314 46.2394C107.087 46.0131 106.934 45.7244 106.872 45.4103C106.811 45.0962 106.844 44.7709 106.969 44.476C107.093 44.1811 107.303 43.93 107.571 43.7548C107.838 43.5796 108.153 43.4883 108.473 43.4924C108.894 43.4924 109.298 43.6598 109.595 43.9576C109.893 44.2554 110.061 44.6593 110.061 45.0805Z" fill="url(#paint14_linear_371_646)"/>
<path d="M1.60921 68.4288C2.49795 68.4288 3.21844 67.7083 3.21844 66.8196C3.21844 65.9308 2.49795 65.2103 1.60921 65.2103C0.720459 65.2103 0 65.9308 0 66.8196C0 67.7083 0.720459 68.4288 1.60921 68.4288Z" fill="url(#paint15_linear_371_646)"/>
<path d="M28.3355 68.4288C29.2242 68.4288 29.9447 67.7083 29.9447 66.8196C29.9447 65.9308 29.2242 65.2103 28.3355 65.2103C27.4467 65.2103 26.7262 65.9308 26.7262 66.8196C26.7262 67.7083 27.4467 68.4288 28.3355 68.4288Z" fill="url(#paint16_linear_371_646)"/>
<path d="M55.0302 68.4288C55.919 68.4288 56.6394 67.7083 56.6394 66.8196C56.6394 65.9308 55.919 65.2103 55.0302 65.2103C54.1415 65.2103 53.421 65.9308 53.421 66.8196C53.421 67.7083 54.1415 68.4288 55.0302 68.4288Z" fill="url(#paint17_linear_371_646)"/>
<path d="M81.7562 68.4288C82.6449 68.4288 83.3654 67.7083 83.3654 66.8196C83.3654 65.9308 82.6449 65.2103 81.7562 65.2103C80.8674 65.2103 80.1469 65.9308 80.1469 66.8196C80.1469 67.7083 80.8674 68.4288 81.7562 68.4288Z" fill="url(#paint18_linear_371_646)"/>
<path d="M110.061 66.8191C110.061 67.1383 109.966 67.4502 109.788 67.7153C109.61 67.9804 109.358 68.1866 109.062 68.3078C108.767 68.4289 108.442 68.4595 108.13 68.3956C107.817 68.3318 107.53 68.1764 107.306 67.9493C107.082 67.7221 106.93 67.4334 106.871 67.1198C106.811 66.8063 106.846 66.4821 106.971 66.1884C107.096 65.8948 107.306 65.645 107.573 65.4707C107.84 65.2965 108.154 65.2057 108.473 65.2099C108.896 65.2154 109.3 65.3874 109.597 65.6886C109.894 65.9898 110.061 66.396 110.061 66.8191Z" fill="url(#paint19_linear_371_646)"/>
<path d="M1.60921 90.1464C2.49795 90.1464 3.21844 89.4259 3.21844 88.5372C3.21844 87.6484 2.49795 86.928 1.60921 86.928C0.720459 86.928 0 87.6484 0 88.5372C0 89.4259 0.720459 90.1464 1.60921 90.1464Z" fill="url(#paint20_linear_371_646)"/>
<path d="M28.3355 90.1464C29.2242 90.1464 29.9447 89.4259 29.9447 88.5372C29.9447 87.6484 29.2242 86.928 28.3355 86.928C27.4467 86.928 26.7262 87.6484 26.7262 88.5372C26.7262 89.4259 27.4467 90.1464 28.3355 90.1464Z" fill="url(#paint21_linear_371_646)"/>
<path d="M55.0302 90.1464C55.919 90.1464 56.6394 89.4259 56.6394 88.5372C56.6394 87.6484 55.919 86.928 55.0302 86.928C54.1415 86.928 53.421 87.6484 53.421 88.5372C53.421 89.4259 54.1415 90.1464 55.0302 90.1464Z" fill="url(#paint22_linear_371_646)"/>
<path d="M81.7562 90.1464C82.6449 90.1464 83.3654 89.4259 83.3654 88.5372C83.3654 87.6484 82.6449 86.928 81.7562 86.928C80.8674 86.928 80.1469 87.6484 80.1469 88.5372C80.1469 89.4259 80.8674 90.1464 81.7562 90.1464Z" fill="url(#paint23_linear_371_646)"/>
<path d="M110.061 88.5447C110.065 88.8647 109.973 89.1787 109.798 89.4466C109.623 89.7144 109.372 89.924 109.077 90.0484C108.782 90.1728 108.457 90.2064 108.143 90.145C107.829 90.0836 107.54 89.9299 107.314 89.7036C107.087 89.4773 106.934 89.1886 106.872 88.8745C106.811 88.5604 106.844 88.2351 106.969 87.9402C107.093 87.6453 107.303 87.3942 107.571 87.219C107.838 87.0438 108.153 86.9525 108.473 86.9566C108.892 86.9621 109.293 87.1312 109.589 87.4278C109.886 87.7245 110.055 88.1252 110.061 88.5447Z" fill="url(#paint24_linear_371_646)"/>
<path d="M1.60921 111.892C2.49795 111.892 3.21844 111.172 3.21844 110.283C3.21844 109.394 2.49795 108.674 1.60921 108.674C0.720459 108.674 0 109.394 0 110.283C0 111.172 0.720459 111.892 1.60921 111.892Z" fill="url(#paint25_linear_371_646)"/>
<path d="M28.3355 111.892C29.2242 111.892 29.9447 111.172 29.9447 110.283C29.9447 109.394 29.2242 108.674 28.3355 108.674C27.4467 108.674 26.7262 109.394 26.7262 110.283C26.7262 111.172 27.4467 111.892 28.3355 111.892Z" fill="url(#paint26_linear_371_646)"/>
<path d="M55.0302 111.892C55.919 111.892 56.6394 111.172 56.6394 110.283C56.6394 109.394 55.919 108.674 55.0302 108.674C54.1415 108.674 53.421 109.394 53.421 110.283C53.421 111.172 54.1415 111.892 55.0302 111.892Z" fill="url(#paint27_linear_371_646)"/>
<path d="M81.7562 111.892C82.6449 111.892 83.3654 111.172 83.3654 110.283C83.3654 109.394 82.6449 108.674 81.7562 108.674C80.8674 108.674 80.1469 109.394 80.1469 110.283C80.1469 111.172 80.8674 111.892 81.7562 111.892Z" fill="url(#paint28_linear_371_646)"/>
<path d="M110.061 110.283C110.061 110.602 109.966 110.914 109.788 111.179C109.61 111.445 109.358 111.651 109.062 111.772C108.767 111.893 108.442 111.924 108.13 111.86C107.817 111.796 107.53 111.641 107.306 111.413C107.082 111.186 106.93 110.898 106.871 110.584C106.811 110.27 106.846 109.946 106.971 109.653C107.096 109.359 107.306 109.109 107.573 108.935C107.84 108.761 108.154 108.67 108.473 108.674C108.896 108.68 109.3 108.852 109.597 109.153C109.894 109.454 110.061 109.86 110.061 110.283Z" fill="url(#paint29_linear_371_646)"/>
<defs>
<linearGradient id="paint0_linear_371_646" x1="0.540386" y1="51.363" x2="74.2015" y2="51.363" gradientUnits="userSpaceOnUse">
<stop stop-color="#F3461B"/>
<stop offset="1" stop-color="#0DA6F2"/>
</linearGradient>
<linearGradient id="paint1_linear_371_646" x1="0.540386" y1="51.363" x2="74.2015" y2="51.363" gradientUnits="userSpaceOnUse">
<stop stop-color="#F3461B"/>
<stop offset="1" stop-color="#0DA6F2"/>
</linearGradient>
<linearGradient id="paint2_linear_371_646" x1="0.540386" y1="51.363" x2="74.2015" y2="51.363" gradientUnits="userSpaceOnUse">
<stop stop-color="#F3461B"/>
<stop offset="1" stop-color="#0DA6F2"/>
</linearGradient>
<linearGradient id="paint3_linear_371_646" x1="0.540386" y1="51.363" x2="74.2015" y2="51.363" gradientUnits="userSpaceOnUse">
<stop stop-color="#F3461B"/>
<stop offset="1" stop-color="#0DA6F2"/>
</linearGradient>
<linearGradient id="paint4_linear_371_646" x1="0.540386" y1="51.363" x2="74.2015" y2="51.363" gradientUnits="userSpaceOnUse">
<stop stop-color="#F3461B"/>
<stop offset="1" stop-color="#0DA6F2"/>
</linearGradient>
<linearGradient id="paint5_linear_371_646" x1="0.540386" y1="51.363" x2="74.2015" y2="51.363" gradientUnits="userSpaceOnUse">
<stop stop-color="#F3461B"/>
<stop offset="1" stop-color="#0DA6F2"/>
</linearGradient>
<linearGradient id="paint6_linear_371_646" x1="0.540386" y1="51.363" x2="74.2015" y2="51.363" gradientUnits="userSpaceOnUse">
<stop stop-color="#F3461B"/>
<stop offset="1" stop-color="#0DA6F2"/>
</linearGradient>
<linearGradient id="paint7_linear_371_646" x1="0.540386" y1="51.363" x2="74.2015" y2="51.363" gradientUnits="userSpaceOnUse">
<stop stop-color="#F3461B"/>
<stop offset="1" stop-color="#0DA6F2"/>
</linearGradient>
<linearGradient id="paint8_linear_371_646" x1="0.540386" y1="51.363" x2="74.2015" y2="51.363" gradientUnits="userSpaceOnUse">
<stop stop-color="#F3461B"/>
<stop offset="1" stop-color="#0DA6F2"/>
</linearGradient>
<linearGradient id="paint9_linear_371_646" x1="0.540386" y1="51.363" x2="74.2015" y2="51.363" gradientUnits="userSpaceOnUse">
<stop stop-color="#F3461B"/>
<stop offset="1" stop-color="#0DA6F2"/>
</linearGradient>
<linearGradient id="paint10_linear_371_646" x1="0.540386" y1="51.363" x2="74.2015" y2="51.363" gradientUnits="userSpaceOnUse">
<stop stop-color="#F3461B"/>
<stop offset="1" stop-color="#0DA6F2"/>
</linearGradient>
<linearGradient id="paint11_linear_371_646" x1="0.540386" y1="51.363" x2="74.2015" y2="51.363" gradientUnits="userSpaceOnUse">
<stop stop-color="#F3461B"/>
<stop offset="1" stop-color="#0DA6F2"/>
</linearGradient>
<linearGradient id="paint12_linear_371_646" x1="0.540386" y1="51.363" x2="74.2015" y2="51.363" gradientUnits="userSpaceOnUse">
<stop stop-color="#F3461B"/>
<stop offset="1" stop-color="#0DA6F2"/>
</linearGradient>
<linearGradient id="paint13_linear_371_646" x1="0.540386" y1="51.363" x2="74.2015" y2="51.363" gradientUnits="userSpaceOnUse">
<stop stop-color="#F3461B"/>
<stop offset="1" stop-color="#0DA6F2"/>
</linearGradient>
<linearGradient id="paint14_linear_371_646" x1="0.540386" y1="51.363" x2="74.2015" y2="51.363" gradientUnits="userSpaceOnUse">
<stop stop-color="#F3461B"/>
<stop offset="1" stop-color="#0DA6F2"/>
</linearGradient>
<linearGradient id="paint15_linear_371_646" x1="0.540386" y1="51.363" x2="74.2015" y2="51.363" gradientUnits="userSpaceOnUse">
<stop stop-color="#F3461B"/>
<stop offset="1" stop-color="#0DA6F2"/>
</linearGradient>
<linearGradient id="paint16_linear_371_646" x1="0.540386" y1="51.363" x2="74.2015" y2="51.363" gradientUnits="userSpaceOnUse">
<stop stop-color="#F3461B"/>
<stop offset="1" stop-color="#0DA6F2"/>
</linearGradient>
<linearGradient id="paint17_linear_371_646" x1="0.540386" y1="51.363" x2="74.2015" y2="51.363" gradientUnits="userSpaceOnUse">
<stop stop-color="#F3461B"/>
<stop offset="1" stop-color="#0DA6F2"/>
</linearGradient>
<linearGradient id="paint18_linear_371_646" x1="0.540386" y1="51.363" x2="74.2015" y2="51.363" gradientUnits="userSpaceOnUse">
<stop stop-color="#F3461B"/>
<stop offset="1" stop-color="#0DA6F2"/>
</linearGradient>
<linearGradient id="paint19_linear_371_646" x1="0.540386" y1="51.363" x2="74.2015" y2="51.363" gradientUnits="userSpaceOnUse">
<stop stop-color="#F3461B"/>
<stop offset="1" stop-color="#0DA6F2"/>
</linearGradient>
<linearGradient id="paint20_linear_371_646" x1="0.540386" y1="51.363" x2="74.2015" y2="51.363" gradientUnits="userSpaceOnUse">
<stop stop-color="#F3461B"/>
<stop offset="1" stop-color="#0DA6F2"/>
</linearGradient>
<linearGradient id="paint21_linear_371_646" x1="0.540386" y1="51.363" x2="74.2015" y2="51.363" gradientUnits="userSpaceOnUse">
<stop stop-color="#F3461B"/>
<stop offset="1" stop-color="#0DA6F2"/>
</linearGradient>
<linearGradient id="paint22_linear_371_646" x1="0.540386" y1="51.363" x2="74.2015" y2="51.363" gradientUnits="userSpaceOnUse">
<stop stop-color="#F3461B"/>
<stop offset="1" stop-color="#0DA6F2"/>
</linearGradient>
<linearGradient id="paint23_linear_371_646" x1="0.540386" y1="51.363" x2="74.2015" y2="51.363" gradientUnits="userSpaceOnUse">
<stop stop-color="#F3461B"/>
<stop offset="1" stop-color="#0DA6F2"/>
</linearGradient>
<linearGradient id="paint24_linear_371_646" x1="0.540386" y1="51.363" x2="74.2015" y2="51.363" gradientUnits="userSpaceOnUse">
<stop stop-color="#F3461B"/>
<stop offset="1" stop-color="#0DA6F2"/>
</linearGradient>
<linearGradient id="paint25_linear_371_646" x1="0.540386" y1="51.363" x2="74.2015" y2="51.363" gradientUnits="userSpaceOnUse">
<stop stop-color="#F3461B"/>
<stop offset="1" stop-color="#0DA6F2"/>
</linearGradient>
<linearGradient id="paint26_linear_371_646" x1="0.540386" y1="51.363" x2="74.2015" y2="51.363" gradientUnits="userSpaceOnUse">
<stop stop-color="#F3461B"/>
<stop offset="1" stop-color="#0DA6F2"/>
</linearGradient>
<linearGradient id="paint27_linear_371_646" x1="0.540386" y1="51.363" x2="74.2015" y2="51.363" gradientUnits="userSpaceOnUse">
<stop stop-color="#F3461B"/>
<stop offset="1" stop-color="#0DA6F2"/>
</linearGradient>
<linearGradient id="paint28_linear_371_646" x1="0.540386" y1="51.363" x2="74.2015" y2="51.363" gradientUnits="userSpaceOnUse">
<stop stop-color="#F3461B"/>
<stop offset="1" stop-color="#0DA6F2"/>
</linearGradient>
<linearGradient id="paint29_linear_371_646" x1="0.540386" y1="51.363" x2="74.2015" y2="51.363" gradientUnits="userSpaceOnUse">
<stop stop-color="#F3461B"/>
<stop offset="1" stop-color="#0DA6F2"/>
</linearGradient>
</defs>
</svg>
