<svg width="70" height="70" viewBox="0 0 140 102" fill="none" xmlns="http://www.w3.org/2000/svg">
<path d="M78.113 23.3737C57.3986 89.0318 86.7552 101.407 86.7552 101.407C86.7552 101.407 117.134 111.885 140 44.7224C118.836 48.8895 91.7322 38.9576 78.113 23.3737ZM88.5724 53.9927C91.6258 55.0445 93.6208 58.2884 93.9022 62.4056C93.9022 62.4056 91.1456 58.1355 87.5966 56.9437C84.28 55.799 79.3394 57.3824 79.3394 57.3824C81.9406 54.3542 85.449 52.9152 88.5724 53.9927ZM109.299 87.98C107.02 85.6621 100.341 79.2713 94.6442 77.8037C88.4968 75.6829 80.3572 76.3946 77.1652 76.7948C77.112 76.5204 77.0616 76.2431 77.014 75.9673C82.3326 71.813 89.5132 70.344 96.3354 72.6991C101.545 74.4968 107.731 79.1884 109.816 87.4927C109.642 87.6556 109.472 87.8199 109.299 87.98ZM112.512 65.5381C109.197 64.3934 104.257 65.9768 104.257 65.9768C106.859 62.95 110.368 61.511 113.491 62.5871C116.869 63.7532 118.573 67.3801 118.818 70.9999C118.818 70.9999 115.038 65.8096 112.512 65.5381ZM0 21.07C22.2698 86.1965 52.9984 77.9952 52.9984 77.9952C52.9984 77.9952 83.4204 67.6502 61.978 0C47.558 16.3541 20.0718 25.1157 0 21.07ZM51.387 30.569C54.7708 29.4186 58.2722 31.2635 60.6074 33.9987C60.6074 33.9987 54.5258 32.1867 52.3516 33.5243C49.0308 34.6518 46.0236 38.9576 46.0236 38.9576C46.3134 34.9405 48.2608 31.6322 51.387 30.569ZM21.0686 47.4419C21.3584 43.4248 23.3058 40.1165 26.4334 39.0547C29.491 38.013 32.9994 39.3734 35.6538 42.4831C35.6538 42.4831 30.933 40.7739 27.398 42.0072C24.0758 43.1376 21.0686 47.4419 21.0686 47.4419ZM48.1026 62.9858C42.6104 64.8535 34.3616 64.8307 27.5842 58.6043C27.5842 58.6043 39.7908 60.7407 46.4338 57.874C54.2584 55.2145 61.9486 46.9203 61.9486 46.9203C60.5458 54.177 55.4694 60.4821 48.1026 62.9858Z" fill="url(#paint0_linear_484_256)"/>
<defs>
<linearGradient id="paint0_linear_484_256" x1="0.687384" y1="46.822" x2="94.3861" y2="46.822" gradientUnits="userSpaceOnUse">
<stop stop-color="#F3461B"/>
<stop offset="1" stop-color="#0DA6F2"/>
</linearGradient>
</defs>
</svg>
