<svg width="70" height="70" viewBox="0 0 70 70" fill="none" xmlns="http://www.w3.org/2000/svg">
<path d="M59.9089 60.4173L58.191 54.5311C57.0678 50.5068 53.3676 47.5037 48.8085 46.9631L44.778 46.4226L43.5226 43.1191C43.7869 42.9389 44.1173 42.7587 44.3816 42.5785C48.346 42.0379 52.7069 41.2571 55.2838 39.9357C55.7463 39.6354 55.8784 39.0948 55.6141 38.6143C54.8873 37.4731 54.2266 36.0316 53.698 34.5901C53.3676 34.8303 52.9712 34.9505 52.5087 34.9505H51.6497C50.4604 34.9505 49.5353 34.1096 49.5353 33.0285V31.5269C49.205 31.7671 48.9407 31.8872 48.8746 31.8872C48.346 32.0074 47.9496 32.3678 47.8174 32.8483C46.562 38.8546 41.21 43.1791 34.933 43.1791C28.722 43.1791 23.3701 38.8546 22.1147 32.8483C22.0486 32.4278 21.6521 32.0074 21.1235 31.8872C21.0575 31.8872 20.7271 31.7671 20.4628 31.5269V33.0285C20.4628 34.0495 19.5378 34.9505 18.3484 34.9505H17.4895C17.027 34.9505 16.6305 34.8303 16.3001 34.5901C15.7716 36.0316 15.1108 37.4731 14.384 38.6143C14.0536 39.0948 14.1858 39.6955 14.7144 39.9357C17.2913 41.2571 21.6521 42.098 25.6826 42.5785C25.9469 42.7587 26.2112 42.9389 26.4755 43.1191L25.2862 46.4226L21.1896 46.9631C16.6305 47.5037 12.9304 50.5068 11.8071 54.5311L10.0892 60.4173C9.89098 61.078 10.0231 61.7387 10.4856 62.2192C10.8821 62.7597 11.6089 63 12.3357 63H57.7285C58.4553 63 59.116 62.6997 59.5786 62.2192C59.975 61.7387 60.1072 61.078 59.9089 60.4173ZM27.5327 47.7439L28.722 44.4405C30.6382 45.2813 32.8186 45.7619 34.9991 45.7619C37.1795 45.7619 39.2278 45.2813 41.21 44.4405L42.3993 47.7439C37.9724 50.687 32.0257 50.687 27.5327 47.7439Z" fill="url(#paint0_linear_371_1394)"/>
<path d="M44.1832 21.7366L45.1082 19.5142C45.5047 22.2771 45.7029 25.6407 48.2798 29.0042C48.478 27.7429 49.0727 26.5416 49.4691 25.7007V23.7187C49.4691 22.8778 50.1298 22.157 50.9888 21.9168C49.6673 14.589 43.0599 9.1233 34.9989 9.1233C26.9379 9.1233 20.3305 14.589 19.009 21.8567C19.868 22.097 20.4627 22.8177 20.4627 23.6586V25.7007C20.9252 26.5416 21.5198 27.7429 21.652 29.0042C24.2289 25.6407 24.4932 22.2771 24.8235 19.5142L25.7486 21.7366C25.8807 22.097 26.2772 22.3372 26.7397 22.3372H43.126C43.6546 22.3973 44.051 22.097 44.1832 21.7366Z" fill="url(#paint1_linear_371_1394)"/>
<path d="M33.4139 26.4816C33.4139 26.0011 33.0175 25.6407 32.4889 25.6407C31.9603 25.6407 31.5638 26.0011 31.5638 26.4816C31.5638 27.1423 30.9692 27.6828 30.2424 27.6828C29.5156 27.6828 28.9209 27.1423 28.9209 26.4816C28.9209 26.0011 28.5244 25.6407 27.9959 25.6407C27.4673 25.6407 27.0708 26.0011 27.0708 26.4816C27.0708 28.1033 28.5244 29.4247 30.3084 29.4247C31.9603 29.4247 33.4139 28.1033 33.4139 26.4816Z" fill="url(#paint2_linear_371_1394)"/>
<path d="M43.0605 26.4816C43.0605 26.0011 42.664 25.6407 42.1354 25.6407C41.6068 25.6407 41.2104 26.0011 41.2104 26.4816C41.2104 27.1423 40.6157 27.6828 39.8889 27.6828C39.1621 27.6828 38.5674 27.1423 38.5674 26.4816C38.5674 26.0011 38.171 25.6407 37.6424 25.6407C37.1138 25.6407 36.7174 26.0011 36.7174 26.4816C36.7174 28.1033 38.171 29.4247 39.955 29.4247C41.6068 29.4247 43.0605 28.1033 43.0605 26.4816Z" fill="url(#paint3_linear_371_1394)"/>
<path d="M34.9991 38.0738C36.9152 38.0738 38.7653 37.4131 39.7564 36.392C40.0867 36.0316 40.0207 35.491 39.6242 35.1907C39.2278 34.8904 38.6331 34.9505 38.3028 35.3108C37.0473 36.6322 32.9508 36.6322 31.6293 35.3108C31.2989 34.9505 30.7043 34.8904 30.3078 35.1907C29.9114 35.491 29.8453 36.0316 30.1757 36.392C31.2328 37.4131 33.0829 38.0738 34.9991 38.0738Z" fill="url(#paint4_linear_371_1394)"/>
<path d="M16.5643 33.3288C16.6964 33.7492 17.0268 34.0495 17.4232 34.0495H18.2822C18.8108 34.0495 19.2733 33.6291 19.2733 33.1486V23.7187C19.2733 23.2381 18.8108 22.8177 18.2822 22.8177H17.4232C17.2911 22.8177 17.225 22.8778 17.159 22.9378C17.8197 14.4689 25.5503 7.74183 34.9989 7.74183C44.4475 7.74183 52.1781 14.4689 52.7728 22.9378C52.7067 22.8778 52.6406 22.8177 52.5085 22.8177H51.6495C51.1209 22.8177 50.6584 23.2381 50.6584 23.7187V33.1486C50.6584 33.6291 51.1209 34.0495 51.6495 34.0495H52.5085C52.971 34.0495 53.3014 33.7492 53.3675 33.3288C56.0765 33.0285 58.1909 30.9863 58.1909 28.4036C58.1909 26.3014 56.7372 24.6196 54.755 23.8988C54.755 14.0485 45.9011 6 34.9989 6C24.0967 6 15.2428 14.0485 15.1767 23.8988C13.1945 24.6196 11.7409 26.3614 11.7409 28.4036C11.807 30.9863 13.8553 33.0285 16.5643 33.3288Z" fill="url(#paint5_linear_371_1394)"/>
<defs>
<linearGradient id="paint0_linear_371_1394" x1="10.2455" y1="32.1653" x2="43.7093" y2="32.1653" gradientUnits="userSpaceOnUse">
<stop stop-color="#F3461B"/>
<stop offset="1" stop-color="#0DA6F2"/>
</linearGradient>
<linearGradient id="paint1_linear_371_1394" x1="10.2455" y1="32.1653" x2="43.7093" y2="32.1653" gradientUnits="userSpaceOnUse">
<stop stop-color="#F3461B"/>
<stop offset="1" stop-color="#0DA6F2"/>
</linearGradient>
<linearGradient id="paint2_linear_371_1394" x1="10.2455" y1="32.1653" x2="43.7093" y2="32.1653" gradientUnits="userSpaceOnUse">
<stop stop-color="#F3461B"/>
<stop offset="1" stop-color="#0DA6F2"/>
</linearGradient>
<linearGradient id="paint3_linear_371_1394" x1="10.2455" y1="32.1653" x2="43.7093" y2="32.1653" gradientUnits="userSpaceOnUse">
<stop stop-color="#F3461B"/>
<stop offset="1" stop-color="#0DA6F2"/>
</linearGradient>
<linearGradient id="paint4_linear_371_1394" x1="10.2455" y1="32.1653" x2="43.7093" y2="32.1653" gradientUnits="userSpaceOnUse">
<stop stop-color="#F3461B"/>
<stop offset="1" stop-color="#0DA6F2"/>
</linearGradient>
<linearGradient id="paint5_linear_371_1394" x1="10.2455" y1="32.1653" x2="43.7093" y2="32.1653" gradientUnits="userSpaceOnUse">
<stop stop-color="#F3461B"/>
<stop offset="1" stop-color="#0DA6F2"/>
</linearGradient>
</defs>
</svg>
