<svg width="70" height="70" viewBox="0 0 70 70" fill="none" xmlns="http://www.w3.org/2000/svg">
<path d="M40.6606 26.873C38.3833 26.873 36.5367 30.2869 36.5367 34.5C36.5367 38.7131 38.3833 42.127 40.6606 42.127C42.938 42.127 44.7846 38.7131 44.7846 34.5C44.7846 30.2869 42.938 26.873 40.6606 26.873ZM41.6274 35.947C41.0323 36.8923 40.1343 37.352 39.0354 37.4595C38.856 37.4767 38.7937 37.4305 38.7593 37.2597C38.5667 36.3413 38.4731 35.405 38.48 34.4667C38.4762 33.5561 38.5687 32.6476 38.7561 31.7564C38.7926 31.5781 38.857 31.5094 39.0418 31.533C39.5324 31.5824 40.0094 31.7234 40.4479 31.9487C41.9755 32.7812 42.5104 34.5559 41.6328 35.9513L41.6274 35.947Z" fill="url(#paint0_linear_371_1395)"/>
<path d="M34.5 7C19.3127 7 7 19.3127 7 34.5C7 49.6873 19.3127 62 34.5 62C49.6873 62 62 49.6873 62 34.5C62 19.3127 49.6873 7 34.5 7ZM41.4019 44.168H41.3385C41.3331 44.168 41.3277 44.168 41.3213 44.168C40.6531 44.168 40.015 43.9069 39.4328 43.4493L31.5158 38.7969H26.4616C25.9663 38.7993 25.4755 38.7038 25.0172 38.5159C24.5589 38.3281 24.1423 38.0515 23.7913 37.7021C23.4402 37.3528 23.1616 36.9375 22.9715 36.4801C22.7814 36.0228 22.6836 35.5324 22.6836 35.0371V33.9629C22.6846 33.4679 22.7831 32.9779 22.9735 32.521C23.164 32.0641 23.4426 31.6492 23.7935 31.3001C24.1443 30.9509 24.5606 30.6743 25.0184 30.4861C25.4762 30.2979 25.9666 30.2017 26.4616 30.2031H31.5212L39.4479 25.5485C40.0269 25.0984 40.6585 24.8363 41.3213 24.8363H41.39C44.1272 24.9072 46.3314 29.2073 46.3314 34.5043C46.3314 39.8013 44.1336 44.082 41.4019 44.168Z" fill="url(#paint1_linear_371_1395)"/>
<defs>
<linearGradient id="paint0_linear_371_1395" x1="7.27004" y1="32.2472" x2="44.0803" y2="32.2472" gradientUnits="userSpaceOnUse">
<stop stop-color="#F3461B"/>
<stop offset="1" stop-color="#0DA6F2"/>
</linearGradient>
<linearGradient id="paint1_linear_371_1395" x1="7.27004" y1="32.2472" x2="44.0803" y2="32.2472" gradientUnits="userSpaceOnUse">
<stop stop-color="#F3461B"/>
<stop offset="1" stop-color="#0DA6F2"/>
</linearGradient>
</defs>
</svg>
