<svg width="70" height="70" viewBox="0 0 70 70" fill="none" xmlns="http://www.w3.org/2000/svg">
<path d="M43.6225 13.0389C43.3319 12.9352 42.9444 13.0389 42.8475 13.3499C42.7506 13.4536 35.6789 24.9623 19.9855 26.7249V40.5146C35.6789 42.2772 42.7506 53.7859 42.7506 53.8896C43.1381 54.5117 44.1068 54.3043 44.1068 53.4749V13.7647C44.1068 13.4536 43.9131 13.1426 43.6225 13.0389Z" fill="url(#paint0_linear_392_135)"/>
<path d="M50.3073 33.6716C50.3073 30.4574 48.273 27.658 45.5605 26.6212V40.6182C48.273 39.6851 50.3073 36.8857 50.3073 33.6716Z" fill="url(#paint1_linear_392_135)"/>
<path d="M50.7919 48.4981C50.8888 48.8092 51.1794 49.0165 51.47 49.0165C51.5669 49.0165 51.5669 49.0165 51.6638 49.0165C65.6134 44.5582 65.6134 22.6813 51.6638 18.223C51.2763 18.1193 50.8888 18.3266 50.7919 18.7414C50.695 19.1561 50.8888 19.5708 51.2763 19.6745C63.8697 23.7181 63.8697 43.4177 51.2763 47.4613C50.8888 47.6686 50.695 48.0834 50.7919 48.4981Z" fill="url(#paint2_linear_392_135)"/>
<path d="M51.7597 13.2462C51.3722 13.1425 50.9847 13.3499 50.8878 13.7646C50.791 14.1793 50.9847 14.5941 51.3722 14.6978C68.9062 19.7782 68.9062 47.4613 51.3722 52.5417C50.9847 52.6454 50.791 53.0601 50.8878 53.4748C50.9847 53.8895 51.3722 54.0969 51.7597 53.9932C70.7468 48.6018 70.7468 18.6377 51.7597 13.2462Z" fill="url(#paint3_linear_392_135)"/>
<path d="M51.3724 42.4845C50.9849 42.5882 50.7911 43.1066 50.9849 43.5214C51.0817 43.8324 51.3724 44.0398 51.663 44.0398C51.7598 44.0398 51.8567 44.0398 51.9536 44.0398C60.769 40.6183 60.769 26.8286 51.9536 23.4071C51.5661 23.3034 51.1786 23.5107 50.9849 23.8218C50.888 24.2365 51.0817 24.6512 51.3724 24.8586C58.8316 27.7617 58.8316 39.5814 51.3724 42.4845Z" fill="url(#paint4_linear_392_135)"/>
<path d="M18.5329 38.8556V26.8285C17.7579 26.9322 16.8861 26.9322 16.0142 26.9322C13.2049 26.9322 10.2987 26.6212 7.39253 25.9991C7.39253 25.9991 7.19878 25.9991 7.00504 25.9991C5.3582 25.9991 4.00198 27.2433 4.00198 30.3537V36.8857C3.90511 41.7587 7.39253 41.344 7.39253 41.2403C8.16751 41.1367 8.94249 40.9293 9.71747 40.8256C9.71747 41.8624 9.6206 42.1735 9.81435 42.3808C11.6549 45.2839 13.0111 50.9864 13.2049 51.6085C13.3018 53.2675 13.883 55.6521 15.2392 56.2742C16.4986 56.7926 17.7579 57 18.9204 57C21.8266 57 23.2797 55.4448 23.3765 55.4448C23.3765 55.3411 23.4734 55.3411 23.4734 55.3411C25.314 52.1269 21.1485 48.7054 20.9547 48.6018C18.3391 46.1134 17.8548 42.0698 17.7579 40.3072C17.9517 40.3072 18.2423 40.3072 18.436 40.3072V38.8556H18.5329ZM11.0737 36.782C9.42686 36.782 8.16751 35.4341 8.16751 33.6716C8.16751 31.909 9.42686 30.5611 11.0737 30.5611C12.7205 30.5611 13.9799 31.909 13.9799 33.6716C13.9799 35.4341 12.7205 36.782 11.0737 36.782Z" fill="url(#paint5_linear_392_135)"/>
<path d="M11.074 32.1163C10.299 32.1163 9.6209 32.8421 9.6209 33.6716C9.6209 34.501 10.299 35.2268 11.074 35.2268C11.849 35.2268 12.5271 34.501 12.5271 33.6716C12.5271 32.7384 11.9458 32.1163 11.074 32.1163Z" fill="url(#paint6_linear_392_135)"/>
<defs>
<linearGradient id="paint0_linear_392_135" x1="4.30441" y1="33.1977" x2="45.7996" y2="33.1977" gradientUnits="userSpaceOnUse">
<stop stop-color="#F3461B"/>
<stop offset="1" stop-color="#0DA6F2"/>
</linearGradient>
<linearGradient id="paint1_linear_392_135" x1="4.30441" y1="33.1977" x2="45.7996" y2="33.1977" gradientUnits="userSpaceOnUse">
<stop stop-color="#F3461B"/>
<stop offset="1" stop-color="#0DA6F2"/>
</linearGradient>
<linearGradient id="paint2_linear_392_135" x1="4.30441" y1="33.1977" x2="45.7996" y2="33.1977" gradientUnits="userSpaceOnUse">
<stop stop-color="#F3461B"/>
<stop offset="1" stop-color="#0DA6F2"/>
</linearGradient>
<linearGradient id="paint3_linear_392_135" x1="4.30441" y1="33.1977" x2="45.7996" y2="33.1977" gradientUnits="userSpaceOnUse">
<stop stop-color="#F3461B"/>
<stop offset="1" stop-color="#0DA6F2"/>
</linearGradient>
<linearGradient id="paint4_linear_392_135" x1="4.30441" y1="33.1977" x2="45.7996" y2="33.1977" gradientUnits="userSpaceOnUse">
<stop stop-color="#F3461B"/>
<stop offset="1" stop-color="#0DA6F2"/>
</linearGradient>
<linearGradient id="paint5_linear_392_135" x1="4.30441" y1="33.1977" x2="45.7996" y2="33.1977" gradientUnits="userSpaceOnUse">
<stop stop-color="#F3461B"/>
<stop offset="1" stop-color="#0DA6F2"/>
</linearGradient>
<linearGradient id="paint6_linear_392_135" x1="4.30441" y1="33.1977" x2="45.7996" y2="33.1977" gradientUnits="userSpaceOnUse">
<stop stop-color="#F3461B"/>
<stop offset="1" stop-color="#0DA6F2"/>
</linearGradient>
</defs>
</svg>
