<svg width="70" height="70" viewBox="0 0 70 70" fill="none" xmlns="http://www.w3.org/2000/svg">
<path d="M47.8726 7.03522H22.8678C21.1313 7.03522 19.7422 8.42438 19.7422 10.1608V58.8392C19.7422 60.5757 21.1313 61.9648 22.8678 61.9648H47.8726C49.6091 61.9648 50.9982 60.5757 50.9982 58.8392V10.1608C50.9982 8.42438 49.6091 7.03522 47.8726 7.03522ZM31.7237 10.2187H38.901C39.4798 10.2187 39.9429 10.6818 39.9429 11.2606C39.9429 11.8394 39.4798 12.3024 38.901 12.3024H31.7237C31.1449 12.3024 30.6818 11.8394 30.6818 11.2606C30.6818 10.6818 31.1449 10.2187 31.7237 10.2187ZM35.3702 58.6077C33.9232 58.6077 32.7077 57.4501 32.7077 56.003C32.7077 54.556 33.8653 53.3984 35.3702 53.3984C36.8173 53.3984 37.9749 54.556 37.9749 56.003C37.9749 57.4501 36.8173 58.6077 35.3702 58.6077ZM46.9465 49.9834H23.7939V15.428H46.9465V49.9834Z" fill="url(#paint0_linear_371_1397)"/>
<path d="M31.9685 26.715H40.0007V28.0684H31.9685V26.715Z" fill="url(#paint1_linear_371_1397)"/>
<path d="M31.9685 27.5762H32.5505V38.4038H31.9685V27.5762Z" fill="url(#paint2_linear_371_1397)"/>
<path d="M29.5821 37.1119L32.5505 35.3537V38.8701L29.5821 37.1119Z" fill="url(#paint3_linear_371_1397)"/>
<path d="M39.4187 27.5762H40.0007V38.4038H39.4187V27.5762Z" fill="url(#paint4_linear_371_1397)"/>
<path d="M37.0323 37.1119L40.0007 35.3537V38.8701L37.0323 37.1119Z" fill="url(#paint5_linear_371_1397)"/>
<defs>
<linearGradient id="paint0_linear_371_1397" x1="19.8957" y1="32.2501" x2="40.8146" y2="32.2501" gradientUnits="userSpaceOnUse">
<stop stop-color="#F3461B"/>
<stop offset="1" stop-color="#0DA6F2"/>
</linearGradient>
<linearGradient id="paint1_linear_371_1397" x1="19.8957" y1="32.2501" x2="40.8146" y2="32.2501" gradientUnits="userSpaceOnUse">
<stop stop-color="#F3461B"/>
<stop offset="1" stop-color="#0DA6F2"/>
</linearGradient>
<linearGradient id="paint2_linear_371_1397" x1="19.8957" y1="32.2501" x2="40.8146" y2="32.2501" gradientUnits="userSpaceOnUse">
<stop stop-color="#F3461B"/>
<stop offset="1" stop-color="#0DA6F2"/>
</linearGradient>
<linearGradient id="paint3_linear_371_1397" x1="19.8957" y1="32.2501" x2="40.8146" y2="32.2501" gradientUnits="userSpaceOnUse">
<stop stop-color="#F3461B"/>
<stop offset="1" stop-color="#0DA6F2"/>
</linearGradient>
<linearGradient id="paint4_linear_371_1397" x1="19.8957" y1="32.2501" x2="40.8146" y2="32.2501" gradientUnits="userSpaceOnUse">
<stop stop-color="#F3461B"/>
<stop offset="1" stop-color="#0DA6F2"/>
</linearGradient>
<linearGradient id="paint5_linear_371_1397" x1="19.8957" y1="32.2501" x2="40.8146" y2="32.2501" gradientUnits="userSpaceOnUse">
<stop stop-color="#F3461B"/>
<stop offset="1" stop-color="#0DA6F2"/>
</linearGradient>
</defs>
</svg>
