<svg width="70" height="70" viewBox="0 0 70 70" fill="none" xmlns="http://www.w3.org/2000/svg">
<path fill-rule="evenodd" clip-rule="evenodd" d="M24.1173 11H45.8002C48.234 11 50.004 13.0143 50.004 15.2524V53.5238C50.004 55.9857 48.234 58 45.8002 58H24.1173C21.9048 58 19.9135 55.9857 19.9135 53.5238V15.2524C19.9135 13.0143 21.9048 11 24.1173 11ZM53.1016 39.6476C51.5528 40.5429 52.8803 42.781 54.4291 41.8857C59.9604 38.5286 59.9604 30.2476 54.4291 26.8905C52.8803 26.219 51.5528 28.4571 53.1016 29.1286C57.0841 31.5905 57.0841 37.4095 53.1016 39.6476ZM17.0372 39.6476C18.3647 40.5429 17.0372 42.781 15.7097 41.8857C9.95711 38.5286 9.95711 30.2476 15.7097 26.8905C17.0372 26.219 18.3647 28.4571 17.0372 29.1286C13.0547 31.5905 13.0547 37.4095 17.0372 39.6476ZM11.2846 49.7191C12.6122 50.6143 11.5059 52.8524 9.95711 51.9571C-3.09686 44.3476 -3.53937 24.8762 9.95711 17.0429C11.5059 16.1476 12.6122 18.3857 11.2846 19.281C-0.220562 25.9952 -0.220562 43.0048 11.2846 49.7191ZM13.9397 44.7952C15.4884 45.6905 14.1609 47.9286 12.8334 47.0333C3.09824 41.4381 3.09824 27.3381 12.8334 21.7429C14.1609 21.0714 15.4884 23.3095 13.9397 24.2048C6.19579 28.681 6.19579 40.3191 13.9397 44.7952ZM58.8542 49.7191C57.3054 50.6143 58.6329 52.8524 59.9604 51.9571C73.2357 44.3476 73.4569 24.8762 59.9604 17.0429C58.6329 16.1476 57.3054 18.3857 58.8542 19.281C70.3594 25.9952 70.3594 43.0048 58.8542 49.7191ZM55.9779 44.7952C54.4291 45.6905 55.7566 47.9286 57.3054 47.0333C66.8193 41.4381 66.8193 27.3381 57.3054 21.7429C55.7566 21.0714 54.4291 23.3095 55.9779 24.2048C63.943 28.681 63.943 40.3191 55.9779 44.7952ZM35.18 38.3048C33.41 38.3048 32.0825 39.6476 32.0825 41.4381C32.0825 43.2286 33.41 44.7952 35.18 44.7952C36.9501 44.7952 38.2776 43.2286 38.2776 41.4381C38.2776 39.6476 36.9501 38.3048 35.18 38.3048ZM35.18 31.5905C40.4901 31.5905 44.9152 36.0667 44.9152 41.4381C44.9152 47.0333 40.4901 51.5095 35.18 51.5095C29.6487 51.5095 25.2236 47.0333 25.2236 41.4381C25.2236 36.0667 29.6487 31.5905 35.18 31.5905ZM35.18 36.7381C37.8351 36.7381 39.8264 38.9762 39.8264 41.4381C39.8264 44.1238 37.8351 46.3619 35.18 46.3619C32.525 46.3619 30.3124 44.1238 30.3124 41.4381C30.3124 38.9762 32.525 36.7381 35.18 36.7381ZM34.9588 18.6095C36.9501 18.6095 38.7201 20.4 38.7201 22.4143C38.7201 24.4286 36.9501 26.219 34.9588 26.219C32.9675 26.219 31.1975 24.4286 31.1975 22.4143C31.1975 20.4 32.9675 18.6095 34.9588 18.6095ZM34.9588 17.0429C37.8351 17.0429 40.2689 19.5048 40.2689 22.4143C40.2689 25.3238 37.8351 27.7857 34.9588 27.7857C32.0825 27.7857 29.6487 25.3238 29.6487 22.4143C29.6487 19.5048 32.0825 17.0429 34.9588 17.0429ZM35.18 30.0238C41.3751 30.0238 46.464 35.1714 46.464 41.4381C46.464 47.9286 41.3751 53.0762 35.18 53.0762C28.9849 53.0762 23.8961 47.9286 23.8961 41.4381C23.8961 35.1714 28.9849 30.0238 35.18 30.0238Z" fill="url(#paint0_linear_371_1398)"/>
<defs>
<linearGradient id="paint0_linear_371_1398" x1="0.343692" y1="32.5749" x2="47.1931" y2="32.5749" gradientUnits="userSpaceOnUse">
<stop stop-color="#F3461B"/>
<stop offset="1" stop-color="#0DA6F2"/>
</linearGradient>
</defs>
</svg>
