<svg width="70" height="70" viewBox="0 0 103 70" fill="none" xmlns="http://www.w3.org/2000/svg">
<path fill-rule="evenodd" clip-rule="evenodd" d="M35.487 0H67.3917C70.9729 0 73.5774 3 73.5774 6.33333V63.3333C73.5774 67 70.9729 70 67.3917 70H35.487C32.2314 70 29.3013 67 29.3013 63.3333V6.33333C29.3013 3 32.2314 0 35.487 0ZM78.1352 42.6667C75.8563 44 77.8096 47.3333 80.0885 46C88.2275 41 88.2275 28.6667 80.0885 23.6667C77.8096 22.6667 75.8563 26 78.1352 27C83.9952 30.6667 83.9952 39.3333 78.1352 42.6667ZM25.0691 42.6667C27.0224 44 25.0691 47.3333 23.1157 46C14.6512 41 14.6512 28.6667 23.1157 23.6667C25.0691 22.6667 27.0224 26 25.0691 27C19.209 30.6667 19.209 39.3333 25.0691 42.6667ZM16.6045 57.6667C18.5579 59 16.9301 62.3333 14.6512 61C-4.55681 49.6667 -5.20793 20.6667 14.6512 9C16.9301 7.66667 18.5579 11 16.6045 12.3333C-0.324541 22.3333 -0.324541 47.6667 16.6045 57.6667ZM20.5112 50.3333C22.7901 51.6667 20.8368 55 18.8834 53.6667C4.55884 45.3333 4.55884 24.3333 18.8834 16C20.8368 15 22.7901 18.3333 20.5112 19.6667C9.11667 26.3333 9.11667 43.6667 20.5112 50.3333ZM86.5997 57.6667C84.3208 59 86.2742 62.3333 88.2275 61C107.761 49.6667 108.087 20.6667 88.2275 9C86.2742 7.66667 84.3208 11 86.5997 12.3333C103.529 22.3333 103.529 47.6667 86.5997 57.6667ZM82.3675 50.3333C80.0885 51.6667 82.0419 55 84.3208 53.6667C98.3198 45.3333 98.3198 24.3333 84.3208 16C82.0419 15 80.0885 18.3333 82.3675 19.6667C94.0876 26.3333 94.0876 43.6667 82.3675 50.3333ZM51.7649 40.6667C49.1604 40.6667 47.2071 42.6667 47.2071 45.3333C47.2071 48 49.1604 50.3333 51.7649 50.3333C54.3694 50.3333 56.3227 48 56.3227 45.3333C56.3227 42.6667 54.3694 40.6667 51.7649 40.6667ZM51.7649 30.6667C59.5783 30.6667 66.0895 37.3333 66.0895 45.3333C66.0895 53.6667 59.5783 60.3333 51.7649 60.3333C43.6259 60.3333 37.1147 53.6667 37.1147 45.3333C37.1147 37.3333 43.6259 30.6667 51.7649 30.6667ZM51.7649 38.3333C55.6716 38.3333 58.6017 41.6667 58.6017 45.3333C58.6017 49.3333 55.6716 52.6667 51.7649 52.6667C47.8582 52.6667 44.6026 49.3333 44.6026 45.3333C44.6026 41.6667 47.8582 38.3333 51.7649 38.3333ZM51.4393 11.3333C54.3694 11.3333 56.9738 14 56.9738 17C56.9738 20 54.3694 22.6667 51.4393 22.6667C48.5093 22.6667 45.9048 20 45.9048 17C45.9048 14 48.5093 11.3333 51.4393 11.3333ZM51.4393 9C55.6716 9 59.2528 12.6667 59.2528 17C59.2528 21.3333 55.6716 25 51.4393 25C47.2071 25 43.6259 21.3333 43.6259 17C43.6259 12.6667 47.2071 9 51.4393 9ZM51.7649 28.3333C60.8806 28.3333 68.3684 36 68.3684 45.3333C68.3684 55 60.8806 62.6667 51.7649 62.6667C42.6493 62.6667 35.1614 55 35.1614 45.3333C35.1614 36 42.6493 28.3333 51.7649 28.3333Z" fill="url(#paint0_linear_484_265)"/>
<defs>
<linearGradient id="paint0_linear_484_265" x1="0.505718" y1="32.1328" x2="69.4412" y2="32.1328" gradientUnits="userSpaceOnUse">
<stop stop-color="#F3461B"/>
<stop offset="1" stop-color="#0DA6F2"/>
</linearGradient>
</defs>
</svg>
