<svg width="70" height="70" viewBox="0 0 127 98" fill="none" xmlns="http://www.w3.org/2000/svg">
<path d="M9.07143 0C4.04581 0 0 4.09778 0 9.1875V88.8125C0 93.9022 4.04581 98 9.07143 98H117.929C122.954 98 127 93.9022 127 88.8125V9.1875C127 4.09778 122.954 0 117.929 0H9.07143ZM6.04762 6.125H24.1905V18.375H6.04762V6.125ZM102.81 6.125H120.952V18.375H102.81V6.125ZM63.5 21.5811C78.3956 21.5811 90.5253 33.9138 90.5253 49C84.2903 89.2734 37.3618 78.4358 36.4747 49C36.4747 33.9138 48.6044 21.5811 63.5 21.5811ZM6.04762 24.5H24.1905V36.75H6.04762V24.5ZM102.81 24.5H120.952V36.75H102.81V24.5ZM54.4286 36.75L78.619 49L54.4286 61.25V36.75ZM6.04762 42.875H24.1905V55.125H6.04762V42.875ZM102.81 42.875H120.952V55.125H102.81V42.875ZM6.04762 61.25H24.1905V73.5H6.04762V61.25ZM102.81 61.25H120.952V73.5H102.81V61.25ZM6.04762 79.625H24.1905V91.875H6.04762V79.625ZM102.81 79.625H120.952V91.875H102.81V79.625Z" fill="url(#paint0_linear_484_254)"/>
<defs>
<linearGradient id="paint0_linear_484_254" x1="0.623555" y1="44.9859" x2="85.6217" y2="44.9859" gradientUnits="userSpaceOnUse">
<stop stop-color="#F3461B"/>
<stop offset="1" stop-color="#0DA6F2"/>
</linearGradient>
</defs>
</svg>
