<svg width="70" height="70" viewBox="0 0 127 87" fill="none" xmlns="http://www.w3.org/2000/svg">
<path fill-rule="evenodd" clip-rule="evenodd" d="M88.1486 0.719536C100.974 -2.91703 115.402 7.58861 120.212 24.1552C125.422 40.7218 132.636 83.1484 119.811 86.785C112.196 88.8053 98.5691 76.2794 88.1486 62.1371H63.7004H38.8515C28.4309 76.2794 15.2049 88.8053 7.18908 86.785C-5.63618 83.1484 1.57803 40.7218 6.78829 24.1552C11.5978 7.58861 26.0262 -2.91703 38.8515 0.719536C42.8593 1.52766 46.4665 4.35611 49.272 7.58861H63.7004H78.1288C80.5336 4.35611 84.1407 1.52766 88.1486 0.719536ZM91.7557 20.1146H99.7714V30.2162H109.791V38.7015H99.7714V48.8031H91.7557V38.7015H81.3351V30.2162H91.7557V20.1146ZM24.0222 27.7918C27.6293 27.7918 30.8357 30.6202 30.8357 34.2568C30.8357 38.2974 27.6293 41.1259 24.0222 41.1259C20.4151 41.1259 17.2088 38.2974 17.2088 34.2568C17.2088 30.6202 20.4151 27.7918 24.0222 27.7918ZM40.4546 38.2974C44.4625 38.2974 47.268 41.5299 47.268 45.1665C47.268 48.8031 44.4625 52.0356 40.4546 52.0356C36.8475 52.0356 34.042 48.8031 34.042 45.1665C34.042 41.5299 36.8475 38.2974 40.4546 38.2974ZM40.4546 16.8821C44.4625 16.8821 47.268 20.1146 47.268 23.7511C47.268 27.3877 44.4625 30.6202 40.4546 30.6202C36.8475 30.6202 34.042 27.3877 34.042 23.7511C34.042 20.1146 36.8475 16.8821 40.4546 16.8821Z" fill="url(#paint0_linear_484_248)"/>
<defs>
<linearGradient id="paint0_linear_484_248" x1="0.623555" y1="39.9364" x2="85.6217" y2="39.9364" gradientUnits="userSpaceOnUse">
<stop stop-color="#F3461B"/>
<stop offset="1" stop-color="#0DA6F2"/>
</linearGradient>
</defs>
</svg>
