<svg width="70" height="70" viewBox="0 0 81 81" fill="none" xmlns="http://www.w3.org/2000/svg">
<path d="M49.573 29.2676C46.219 29.2676 43.4995 34.2953 43.4995 40.5C43.4995 46.7047 46.219 51.7324 49.573 51.7324C52.9269 51.7324 55.6464 46.7047 55.6464 40.5C55.6464 34.2953 52.9269 29.2676 49.573 29.2676ZM50.9968 42.631C50.1203 44.0232 48.7978 44.7003 47.1793 44.8585C46.9151 44.8838 46.8234 44.8158 46.7728 44.5642C46.4892 43.2118 46.3513 41.8328 46.3614 40.451C46.3559 39.1099 46.4922 37.7719 46.768 36.4595C46.8218 36.1969 46.9167 36.0956 47.1888 36.1304C47.9113 36.2032 48.6138 36.4109 49.2597 36.7427C51.5094 37.9688 52.2972 40.5823 51.0047 42.6373L50.9968 42.631Z" fill="url(#paint0_linear_484_263)"/>
<path d="M40.5 0C18.1332 0 0 18.1332 0 40.5C0 62.8668 18.1332 81 40.5 81C62.8668 81 81 62.8668 81 40.5C81 18.1332 62.8668 0 40.5 0ZM50.6646 54.7383H50.5712C50.5633 54.7383 50.5554 54.7383 50.5459 54.7383C49.5619 54.7383 48.6222 54.3538 47.7647 53.6799L36.1051 46.8281H28.6617C27.9323 46.8317 27.2093 46.6911 26.5344 46.4144C25.8595 46.1377 25.246 45.7304 24.7289 45.2159C24.2119 44.7014 23.8016 44.0898 23.5217 43.4162C23.2418 42.7426 23.0976 42.0204 23.0977 41.291V39.709C23.0991 38.98 23.2442 38.2584 23.5247 37.5855C23.8051 36.9126 24.2155 36.3016 24.7322 35.7874C25.2489 35.2732 25.8619 34.8658 26.5362 34.5886C27.2104 34.3114 27.9327 34.1698 28.6617 34.1719H36.113L47.7868 27.3169C48.6395 26.6541 49.5698 26.268 50.5459 26.268H50.6472C54.6782 26.3725 57.9245 32.7053 57.9245 40.5063C57.9245 48.3073 54.6877 54.6117 50.6646 54.7383Z" fill="url(#paint1_linear_484_263)"/>
<defs>
<linearGradient id="paint0_linear_484_263" x1="0.397701" y1="37.1822" x2="54.6091" y2="37.1822" gradientUnits="userSpaceOnUse">
<stop stop-color="#F3461B"/>
<stop offset="1" stop-color="#0DA6F2"/>
</linearGradient>
<linearGradient id="paint1_linear_484_263" x1="0.397701" y1="37.1822" x2="54.6091" y2="37.1822" gradientUnits="userSpaceOnUse">
<stop stop-color="#F3461B"/>
<stop offset="1" stop-color="#0DA6F2"/>
</linearGradient>
</defs>
</svg>
