<svg width="70" height="70" viewBox="0 0 114 109" fill="none" xmlns="http://www.w3.org/2000/svg">
<path d="M18.1982 48.5476V82.7493H79.0221L60.3313 72.2393H39.8326L47.0191 64.753L18.1982 48.5476Z" fill="url(#paint0_linear_484_269)"/>
<path d="M88.3965 89.1584V71.4581C87.0894 71.7369 85.7685 71.9404 84.4399 72.0677V72.2393H83.2838V87.1877H13.9383V44.1085H45.8848C45.438 42.3598 45.1129 40.5798 44.912 38.7824H11.3819C10.7039 38.7825 10.0537 39.063 9.57433 39.5624C9.09493 40.0619 8.82559 40.7392 8.82555 41.4454V89.1584L0.32367 105.04C0.106698 105.445 -0.00482294 105.903 0.000159947 106.367C0.00514283 106.831 0.126457 107.285 0.352077 107.686C0.577698 108.086 0.899792 108.418 1.28644 108.648C1.67308 108.879 2.11086 109 2.55637 109H94.6654C95.1109 109 95.5487 108.879 95.9353 108.648C96.322 108.418 96.6441 108.086 96.8697 107.686C97.0953 107.285 97.2166 106.831 97.2216 106.367C97.2266 105.903 97.1151 105.445 96.8981 105.04L88.3965 89.1584ZM67.1166 103.674L64.4716 98.394C64.2555 97.9625 63.93 97.6009 63.5304 97.3486C63.1309 97.0963 62.6726 96.9629 62.2053 96.963H35.0173C34.55 96.963 34.0917 97.0963 33.6921 97.3486C33.2926 97.601 32.967 97.9625 32.7509 98.394L30.1059 103.674H6.90889L12.8833 92.5138H84.339L90.3132 103.674H67.1166Z" fill="url(#paint1_linear_484_269)"/>
<path d="M81.0313 4.1594e-10C74.5107 -3.34293e-05 68.1365 2.0142 62.7148 5.78799C57.2931 9.56177 53.0674 14.9256 50.5721 21.2012C48.0767 27.4768 47.4239 34.3823 48.696 41.0444C49.9681 47.7066 53.1081 53.8261 57.7189 58.6292L48.0625 68.6886H81.0313C89.7751 68.6886 98.1608 65.0702 104.344 58.6294C110.527 52.1887 114 43.4531 114 34.3444C114 25.2357 110.527 16.5001 104.344 10.0593C98.1608 3.61854 89.7751 4.15945e-10 81.0313 4.1594e-10ZM74.1969 18.9799C74.1929 18.0423 74.3667 17.1131 74.7084 16.2457C75.05 15.3782 75.5528 14.5897 76.1878 13.9252C76.8228 13.2607 77.5776 12.7334 78.4088 12.3737C79.2399 12.0139 80.1311 11.8287 81.0312 11.8287C81.9313 11.8287 82.8225 12.0139 83.6536 12.3737C84.4848 12.7334 85.2395 13.2607 85.8745 13.9252C86.5096 14.5897 87.0123 15.3782 87.354 16.2457C87.6956 17.1131 87.8695 18.0423 87.8654 18.9799V33.6763C87.8695 34.6139 87.6956 35.5431 87.354 36.4105C87.0123 37.278 86.5096 38.0666 85.8745 38.731C85.2395 39.3955 84.4848 39.9228 83.6536 40.2826C82.8225 40.6423 81.9313 40.8275 81.0312 40.8275C80.1311 40.8275 79.2399 40.6423 78.4088 40.2826C77.5776 39.9228 76.8228 39.3955 76.1878 38.731C75.5528 38.0666 75.05 37.278 74.7084 36.4105C74.3667 35.5431 74.1929 34.6139 74.1969 33.6763V18.9799ZM82.7355 48.9453V53.2772H87.4437C87.8957 53.2772 88.3292 53.4642 88.6488 53.7972C88.9684 54.1301 89.148 54.5817 89.148 55.0525C89.148 55.5234 88.9684 55.9749 88.6488 56.3079C88.3292 56.6408 87.8957 56.8279 87.4437 56.8279H74.6186C74.1666 56.8279 73.7332 56.6408 73.4136 56.3079C73.0939 55.9749 72.9144 55.5234 72.9144 55.0525C72.9144 54.5817 73.0939 54.1301 73.4136 53.7972C73.7332 53.4642 74.1666 53.2772 74.6186 53.2772H79.327V48.9453C75.8818 48.5085 72.7087 46.7745 70.4055 44.0698C68.1024 41.3651 66.828 37.8765 66.8226 34.261C66.8226 33.7902 67.0022 33.3386 67.3218 33.0057C67.6414 32.6727 68.0749 32.4857 68.5268 32.4857C68.9788 32.4857 69.4123 32.6727 69.7319 33.0057C70.0515 33.3386 70.2311 33.7902 70.2311 34.261C70.226 35.7418 70.5017 37.2091 71.0422 38.5788C71.5826 39.9484 72.3774 41.1934 73.3808 42.2423C74.3841 43.2913 75.5764 44.1236 76.8893 44.6915C78.2021 45.2594 79.6097 45.5518 81.0312 45.5518C82.4527 45.5518 83.8603 45.2594 85.1731 44.6915C86.4859 44.1236 87.6782 43.2913 88.6816 42.2423C89.685 41.1934 90.4797 39.9484 91.0202 38.5788C91.5607 37.2091 91.8363 35.7418 91.8313 34.261C91.8313 33.7902 92.0108 33.3386 92.3304 33.0057C92.65 32.6727 93.0835 32.4857 93.5355 32.4857C93.9875 32.4857 94.421 32.6727 94.7406 33.0057C95.0602 33.3386 95.2398 33.7902 95.2398 34.261C95.2344 37.8765 93.9601 41.3651 91.6569 44.0698C89.3538 46.7745 86.1807 48.5085 82.7355 48.9453Z" fill="url(#paint2_linear_484_269)"/>
<defs>
<linearGradient id="paint0_linear_484_269" x1="0.559727" y1="50.0353" x2="76.8573" y2="50.0353" gradientUnits="userSpaceOnUse">
<stop stop-color="#F3461B"/>
<stop offset="1" stop-color="#0DA6F2"/>
</linearGradient>
<linearGradient id="paint1_linear_484_269" x1="0.559727" y1="50.0353" x2="76.8573" y2="50.0353" gradientUnits="userSpaceOnUse">
<stop stop-color="#F3461B"/>
<stop offset="1" stop-color="#0DA6F2"/>
</linearGradient>
<linearGradient id="paint2_linear_484_269" x1="0.559727" y1="50.0353" x2="76.8573" y2="50.0353" gradientUnits="userSpaceOnUse">
<stop stop-color="#F3461B"/>
<stop offset="1" stop-color="#0DA6F2"/>
</linearGradient>
</defs>
</svg>
