<svg width="70" height="70" viewBox="0 0 74 83" fill="none" xmlns="http://www.w3.org/2000/svg">
<path d="M73.8652 79.2392L71.3227 70.6681C69.6603 64.8082 64.1841 60.4352 57.4366 59.648L51.4715 58.8609L49.6134 54.0506C50.0046 53.7882 50.4936 53.5258 50.8847 53.2634C56.7521 52.4763 63.2062 51.3393 67.02 49.4152C67.7045 48.9779 67.9001 48.1907 67.5089 47.491C66.4332 45.8293 65.4553 43.7302 64.673 41.6312C64.1841 41.981 63.5973 42.156 62.9128 42.156H61.6415C59.8813 42.156 58.5123 40.9315 58.5123 39.3572V37.1707C58.0233 37.5205 57.6322 37.6955 57.5344 37.6955C56.7521 37.8704 56.1653 38.3952 55.9698 39.0948C54.1118 47.8409 46.1908 54.138 36.9008 54.138C27.7086 54.138 19.7877 47.8409 17.9297 39.0948C17.8319 38.4826 17.2452 37.8704 16.4628 37.6955C16.3651 37.6955 15.8761 37.5205 15.485 37.1707V39.3572C15.485 40.844 14.1159 42.156 12.3557 42.156H11.0844C10.3999 42.156 9.81317 41.981 9.32422 41.6312C8.54191 43.7302 7.56401 45.8293 6.48833 47.491C5.99938 48.1907 6.19496 49.0653 6.97727 49.4152C10.7911 51.3393 17.2452 52.5638 23.2103 53.2634C23.6015 53.5258 23.9926 53.7882 24.3838 54.0506L22.6236 58.8609L16.5606 59.648C9.81317 60.4352 4.33696 64.8082 2.67454 70.6681L0.132016 79.2392C-0.161352 80.2013 0.0342259 81.1633 0.718752 81.863C1.30549 82.6502 2.38117 83 3.45686 83H70.6382C71.7139 83 72.6917 82.5627 73.3763 81.863C73.963 81.1633 74.1586 80.2013 73.8652 79.2392ZM25.9484 60.785L27.7086 55.9747C30.5445 57.1992 33.7716 57.8988 36.9986 57.8988C40.2257 57.8988 43.2571 57.1992 46.1908 55.9747L47.951 60.785C41.3991 65.0706 32.5981 65.0706 25.9484 60.785Z" fill="url(#paint0_linear_484_261)"/>
<path d="M50.5911 22.9147L51.9602 19.6786C52.5469 23.7018 52.8403 28.5996 56.6541 33.4974C56.9474 31.6607 57.8275 29.9115 58.4143 28.687V25.8009C58.4143 24.5764 59.3922 23.5269 60.6634 23.177C58.7076 12.5069 48.9287 4.54796 36.9984 4.54796C25.0681 4.54796 15.2891 12.5069 13.3334 23.0896C14.6046 23.4394 15.4847 24.4889 15.4847 25.7134V28.687C16.1692 29.9115 17.0494 31.6607 17.2449 33.4974C21.0587 28.5996 21.4499 23.7018 21.9388 19.6786L23.3079 22.9147C23.5035 23.4394 24.0902 23.7893 24.7747 23.7893H49.0265C49.8088 23.8767 50.3955 23.4394 50.5911 22.9147Z" fill="url(#paint1_linear_484_261)"/>
<path d="M34.6526 29.824C34.6526 29.1243 34.0659 28.5996 33.2835 28.5996C32.5012 28.5996 31.9145 29.1243 31.9145 29.824C31.9145 30.7861 31.0344 31.5732 29.9587 31.5732C28.883 31.5732 28.0029 30.7861 28.0029 29.824C28.0029 29.1243 27.4162 28.5996 26.6339 28.5996C25.8515 28.5996 25.2648 29.1243 25.2648 29.824C25.2648 32.1855 27.4162 34.1096 30.0565 34.1096C32.5012 34.1096 34.6526 32.1855 34.6526 29.824Z" fill="url(#paint2_linear_484_261)"/>
<path d="M48.9295 29.824C48.9295 29.1243 48.3427 28.5996 47.5604 28.5996C46.7781 28.5996 46.1914 29.1243 46.1914 29.824C46.1914 30.7861 45.3113 31.5732 44.2356 31.5732C43.1599 31.5732 42.2798 30.7861 42.2798 29.824C42.2798 29.1243 41.693 28.5996 40.9107 28.5996C40.1284 28.5996 39.5417 29.1243 39.5417 29.824C39.5417 32.1855 41.693 34.1096 44.3334 34.1096C46.7781 34.1096 48.9295 32.1855 48.9295 29.824Z" fill="url(#paint3_linear_484_261)"/>
<path d="M36.9986 46.7039C39.8345 46.7039 42.5726 45.7418 44.0394 44.255C44.5284 43.7302 44.4306 42.9431 43.8439 42.5058C43.2571 42.0685 42.377 42.1559 41.8881 42.6807C40.0301 44.6048 33.9671 44.6048 32.0113 42.6807C31.5224 42.1559 30.6423 42.0685 30.0556 42.5058C29.4688 42.9431 29.371 43.7302 29.86 44.255C31.4246 45.7418 34.1627 46.7039 36.9986 46.7039Z" fill="url(#paint4_linear_484_261)"/>
<path d="M9.71515 39.7945C9.91073 40.4067 10.3997 40.844 10.9864 40.844H12.2577C13.04 40.844 13.7245 40.2318 13.7245 39.5321V25.8008C13.7245 25.1012 13.04 24.4889 12.2577 24.4889H10.9864C10.7908 24.4889 10.693 24.5764 10.5953 24.6639C11.5731 12.3319 23.0145 2.53635 36.9984 2.53635C50.9823 2.53635 62.4236 12.3319 63.3037 24.6639C63.2059 24.5764 63.1082 24.4889 62.9126 24.4889H61.6413C60.859 24.4889 60.1745 25.1012 60.1745 25.8008V39.5321C60.1745 40.2318 60.859 40.844 61.6413 40.844H62.9126C63.5971 40.844 64.0861 40.4067 64.1838 39.7945C68.1932 39.3572 71.3225 36.3836 71.3225 32.6228C71.3225 29.5616 69.1711 27.1127 66.2374 26.0632C66.2374 11.7197 53.1336 0 36.9984 0C20.8631 0 7.75936 11.7197 7.66157 26.0632C4.72789 27.1127 2.57652 29.6491 2.57652 32.6228C2.67431 36.3836 5.70578 39.3572 9.71515 39.7945Z" fill="url(#paint5_linear_484_261)"/>
<defs>
<linearGradient id="paint0_linear_484_261" x1="0.363332" y1="38.1003" x2="49.8898" y2="38.1003" gradientUnits="userSpaceOnUse">
<stop stop-color="#F3461B"/>
<stop offset="1" stop-color="#0DA6F2"/>
</linearGradient>
<linearGradient id="paint1_linear_484_261" x1="0.363332" y1="38.1003" x2="49.8898" y2="38.1003" gradientUnits="userSpaceOnUse">
<stop stop-color="#F3461B"/>
<stop offset="1" stop-color="#0DA6F2"/>
</linearGradient>
<linearGradient id="paint2_linear_484_261" x1="0.363332" y1="38.1003" x2="49.8898" y2="38.1003" gradientUnits="userSpaceOnUse">
<stop stop-color="#F3461B"/>
<stop offset="1" stop-color="#0DA6F2"/>
</linearGradient>
<linearGradient id="paint3_linear_484_261" x1="0.363332" y1="38.1003" x2="49.8898" y2="38.1003" gradientUnits="userSpaceOnUse">
<stop stop-color="#F3461B"/>
<stop offset="1" stop-color="#0DA6F2"/>
</linearGradient>
<linearGradient id="paint4_linear_484_261" x1="0.363332" y1="38.1003" x2="49.8898" y2="38.1003" gradientUnits="userSpaceOnUse">
<stop stop-color="#F3461B"/>
<stop offset="1" stop-color="#0DA6F2"/>
</linearGradient>
<linearGradient id="paint5_linear_484_261" x1="0.363332" y1="38.1003" x2="49.8898" y2="38.1003" gradientUnits="userSpaceOnUse">
<stop stop-color="#F3461B"/>
<stop offset="1" stop-color="#0DA6F2"/>
</linearGradient>
</defs>
</svg>
