<svg width="70" height="70" viewBox="0 0 115 117" fill="none" xmlns="http://www.w3.org/2000/svg">
<path d="M67.7033 74.5442C71.9166 74.5442 75.3448 71.0487 75.3448 66.7526C75.3448 64.9229 75.7691 63.0913 76.5722 61.4577L80.0678 54.3272H82.2845C82.8317 54.3272 83.2759 53.8743 83.2759 53.3164C83.2759 53.096 83.2065 52.8857 83.0756 52.7078L82.338 51.7051C79.1061 47.3119 77.3276 41.8695 77.3276 36.3765C77.3276 34.1506 76.477 32.0581 74.9344 30.4853C73.3918 28.9124 71.3377 28.0451 69.1566 28.0451H56.9091C52.8504 28.0451 49.0693 29.899 46.5334 33.1296C44.6537 35.5233 43.6207 38.5296 43.6207 41.5945V46.2404H39.6552C37.4682 46.2404 35.6897 48.0539 35.6897 50.2838C35.6897 52.5137 37.4682 54.3272 39.6552 54.3272H43.6207V56.3489C43.6207 63.4067 40.9241 70.0439 36.0287 75.0355L35.2971 75.7815C35.535 77.6738 35.6897 79.5803 35.6897 81.4989V83.5711L45.6034 90.3095L55.5172 83.5711V75.644L45.0344 72.4376L46.1725 68.564L65.7225 74.5442H67.7033Z" fill="url(#paint0_linear_484_267)"/>
<path d="M28.1928 56.448C30.4096 59.806 32.1722 63.4592 33.4313 67.3065C33.812 68.4731 34.1431 69.6517 34.4286 70.8385C37.381 67.3065 39.1654 62.9862 39.5679 58.3706C35.2356 58.3221 31.7241 54.7133 31.7241 50.2838C31.7241 45.8239 35.2812 42.197 39.6552 42.197V41.5945C39.6552 37.6138 40.9975 33.7119 43.4363 30.6045C46.7277 26.4075 51.639 24.0017 56.9091 24.0017H69.1566C72.2022 24.0017 75.0692 25.15 77.3078 27.2283L77.6428 26.8866C81.2753 23.1829 83.2759 18.258 83.2759 13.0177C83.2759 8.8025 81.9097 4.62161 79.4293 1.24941L78.5113 0C68.2803 2.50489 57.617 3.78463 46.8704 3.78463H45.7819C30.3778 3.78463 17.8448 16.5638 17.8448 32.2704C17.8448 37.1003 19.0603 41.8836 21.3603 46.1029L28.1928 56.448Z" fill="url(#paint1_linear_484_267)"/>
<path d="M83.946 94.2417L63.1013 88.3383L58.6559 106.463L45.6034 95.3718L32.5509 106.465L28.1056 88.3403L7.26086 94.2437C2.98604 95.4527 0 99.4577 0 103.982V117H91.2069V103.982C91.2069 99.4577 88.2209 95.4527 83.946 94.2417Z" fill="url(#paint2_linear_484_267)"/>
<path d="M31.9284 87.2547L34.8628 99.2333L42.2942 92.9195L33.3639 86.8483L31.9284 87.2547Z" fill="url(#paint3_linear_484_267)"/>
<path d="M56.3441 99.2333L59.2785 87.2547L57.843 86.8483L48.9127 92.9195L56.3441 99.2333Z" fill="url(#paint4_linear_484_267)"/>
<path d="M106.869 78.3834L104.065 75.5248C108.56 70.9436 111.034 64.8502 111.034 58.3706C111.034 51.8911 108.56 45.7976 104.065 41.2165L106.869 38.3578C112.113 43.7032 115 50.8094 115 58.3706C115 65.9318 112.113 73.0381 106.869 78.3834Z" fill="url(#paint5_linear_484_267)"/>
<path d="M101.261 72.6661L98.4578 69.8074C101.454 66.7526 103.103 62.691 103.103 58.3706C103.103 54.0502 101.454 49.9886 98.4578 46.9338L101.261 44.0751C105.005 47.8921 107.069 52.9706 107.069 58.3706C107.069 63.7706 105.005 68.8491 101.261 72.6661Z" fill="url(#paint6_linear_484_267)"/>
<path d="M95.6542 66.9487L92.8506 64.09C94.3476 62.5616 95.1724 60.5298 95.1724 58.3706C95.1724 56.2114 94.3476 54.1796 92.8506 52.6512L95.6542 49.7925C97.9007 52.0851 99.1379 55.1298 99.1379 58.3706C99.1379 61.6114 97.9007 64.6561 95.6542 66.9487Z" fill="url(#paint7_linear_484_267)"/>
<defs>
<linearGradient id="paint0_linear_484_267" x1="0.564637" y1="53.7076" x2="77.5315" y2="53.7076" gradientUnits="userSpaceOnUse">
<stop stop-color="#F3461B"/>
<stop offset="1" stop-color="#0DA6F2"/>
</linearGradient>
<linearGradient id="paint1_linear_484_267" x1="0.564637" y1="53.7076" x2="77.5315" y2="53.7076" gradientUnits="userSpaceOnUse">
<stop stop-color="#F3461B"/>
<stop offset="1" stop-color="#0DA6F2"/>
</linearGradient>
<linearGradient id="paint2_linear_484_267" x1="0.564637" y1="53.7076" x2="77.5315" y2="53.7076" gradientUnits="userSpaceOnUse">
<stop stop-color="#F3461B"/>
<stop offset="1" stop-color="#0DA6F2"/>
</linearGradient>
<linearGradient id="paint3_linear_484_267" x1="0.564637" y1="53.7076" x2="77.5315" y2="53.7076" gradientUnits="userSpaceOnUse">
<stop stop-color="#F3461B"/>
<stop offset="1" stop-color="#0DA6F2"/>
</linearGradient>
<linearGradient id="paint4_linear_484_267" x1="0.564637" y1="53.7076" x2="77.5315" y2="53.7076" gradientUnits="userSpaceOnUse">
<stop stop-color="#F3461B"/>
<stop offset="1" stop-color="#0DA6F2"/>
</linearGradient>
<linearGradient id="paint5_linear_484_267" x1="0.564637" y1="53.7076" x2="77.5315" y2="53.7076" gradientUnits="userSpaceOnUse">
<stop stop-color="#F3461B"/>
<stop offset="1" stop-color="#0DA6F2"/>
</linearGradient>
<linearGradient id="paint6_linear_484_267" x1="0.564637" y1="53.7076" x2="77.5315" y2="53.7076" gradientUnits="userSpaceOnUse">
<stop stop-color="#F3461B"/>
<stop offset="1" stop-color="#0DA6F2"/>
</linearGradient>
<linearGradient id="paint7_linear_484_267" x1="0.564637" y1="53.7076" x2="77.5315" y2="53.7076" gradientUnits="userSpaceOnUse">
<stop stop-color="#F3461B"/>
<stop offset="1" stop-color="#0DA6F2"/>
</linearGradient>
</defs>
</svg>
