<svg width="148" height="138" viewBox="0 0 148 138" fill="none" xmlns="http://www.w3.org/2000/svg">
<path d="M28.0591 28.0137H33.1742V28.8345H28.0591V28.0137Z" fill="url(#paint0_linear_326_22)"/>
<path d="M28.0591 28.536H28.4298V35.1029H28.0591V28.536Z" fill="url(#paint1_linear_326_22)"/>
<path d="M26.5394 34.3194L28.4298 33.2531V35.3857L26.5394 34.3194Z" fill="url(#paint2_linear_326_22)"/>
<path d="M32.8036 28.536H33.1742V35.1029H32.8036V28.536Z" fill="url(#paint3_linear_326_22)"/>
<path d="M31.2839 34.3194L33.1742 33.2531V35.3857L31.2839 34.3194Z" fill="url(#paint4_linear_326_22)"/>
<path d="M82.0436 56.0274H87.7271V56.8482H82.0436V56.0274Z" fill="url(#paint5_linear_326_22)"/>
<path d="M82.0436 56.5497H82.4555V63.1166H82.0436V56.5497Z" fill="url(#paint6_linear_326_22)"/>
<path d="M80.355 62.3331L82.4555 61.2667V63.3994L80.355 62.3331Z" fill="url(#paint7_linear_326_22)"/>
<path d="M87.3152 56.5497H87.7271V63.1166H87.3152V56.5497Z" fill="url(#paint8_linear_326_22)"/>
<path d="M85.6267 62.3331L87.7271 61.2667V63.3994L85.6267 62.3331Z" fill="url(#paint9_linear_326_22)"/>
<path d="M3.89986 81.0923H9.58331V81.9952H3.89986V81.0923Z" fill="url(#paint10_linear_326_22)"/>
<path d="M3.89986 81.6669H4.3117V88.8905H3.89986V81.6669Z" fill="url(#paint11_linear_326_22)"/>
<path d="M2.21128 88.0286L4.31168 86.8556V89.2015L2.21128 88.0286Z" fill="url(#paint12_linear_326_22)"/>
<path d="M9.17145 81.6669H9.58329V88.8905H9.17145V81.6669Z" fill="url(#paint13_linear_326_22)"/>
<path d="M7.48289 88.0286L9.58329 86.8556V89.2015L7.48289 88.0286Z" fill="url(#paint14_linear_326_22)"/>
<path d="M3.25092 28.978H4.57411V32.8561H3.25092V28.978Z" fill="url(#paint15_linear_326_22)"/>
<path d="M5.2357 28.978H6.55889V32.8561H5.2357V28.978Z" fill="url(#paint16_linear_326_22)"/>
<path d="M7.22048 28.978H8.54366V32.8561H7.22048V28.978Z" fill="url(#paint17_linear_326_22)"/>
<path d="M7.61743 30.6043H8.14671V34.4824H7.61743V30.6043Z" fill="url(#paint18_linear_326_22)"/>
<path d="M5.63266 30.6043H6.16193V34.4824H5.63266V30.6043Z" fill="url(#paint19_linear_326_22)"/>
<path d="M3.64788 30.6043H4.17715V34.4824H3.64788V30.6043Z" fill="url(#paint20_linear_326_22)"/>
<path fill-rule="evenodd" clip-rule="evenodd" d="M9.29977 29.0052H2.49482V34.3947H9.29977V29.0052ZM2.21128 28.7511V34.6488H9.58331V28.7511H2.21128Z" fill="url(#paint21_linear_326_22)"/>
<path d="M33.6762 8.10923C34.1124 8.10923 34.4892 7.71518 34.4892 7.2589L35.3854 6.38783L34.4892 5.51677C34.4892 5.12271 34.2711 4.83236 33.934 4.68718V3.48427C33.934 1.55548 32.4467 0 30.6026 0C28.7782 0 27.291 1.55548 27.291 3.48427V4.68718C26.9737 4.83236 26.7358 5.14345 26.7358 5.51677L25.8017 6.38783L26.7358 7.2589C26.7358 7.71518 27.1125 8.10923 27.5686 8.10923C28.0247 8.10923 28.4015 7.71518 28.4015 7.2589V5.51677C28.4015 5.12271 28.1635 4.83236 27.8462 4.68718V3.48427C27.8462 1.86657 29.0757 0.580712 30.6026 0.580712C32.1493 0.580712 33.3787 1.86657 33.3787 3.48427V4.68718C33.0813 4.83236 32.8433 5.14345 32.8433 5.51677V7.2589C32.8433 7.71518 33.2201 8.10923 33.6762 8.10923Z" fill="url(#paint22_linear_326_22)"/>
<path d="M88.2295 35.3857C88.6658 35.3857 89.0425 35.0275 89.0425 34.6127L89.9387 33.8208L89.0425 33.0289C89.0425 32.6707 88.8244 32.4067 88.4873 32.2747V31.1812C88.4873 29.4278 87.0001 28.0137 85.1559 28.0137C83.3316 28.0137 81.8443 29.4278 81.8443 31.1812V32.2747C81.5271 32.4067 81.2891 32.6895 81.2891 33.0289L80.355 33.8208L81.2891 34.6127C81.2891 35.0275 81.6659 35.3857 82.1219 35.3857C82.578 35.3857 82.9548 35.0275 82.9548 34.6127V33.0289C82.9548 32.6707 82.7168 32.4067 82.3996 32.2747V31.1812C82.3996 29.7106 83.629 28.5416 85.1559 28.5416C86.7026 28.5416 87.9321 29.7106 87.9321 31.1812V32.2747C87.6346 32.4067 87.3967 32.6895 87.3967 33.0289V34.6127C87.3967 35.0275 87.7734 35.3857 88.2295 35.3857Z" fill="url(#paint23_linear_326_22)"/>
<path d="M88.2295 88.4645C88.6658 88.4645 89.0425 88.0704 89.0425 87.6142L89.9387 86.7431L89.0425 85.872C89.0425 85.478 88.8244 85.1876 88.4873 85.0424V83.8395C88.4873 81.9108 87.0001 80.3553 85.1559 80.3553C83.3316 80.3553 81.8443 81.9108 81.8443 83.8395V85.0424C81.5271 85.1876 81.2891 85.4987 81.2891 85.872L80.355 86.7431L81.2891 87.6142C81.2891 88.0704 81.6659 88.4645 82.1219 88.4645C82.578 88.4645 82.9548 88.0704 82.9548 87.6142V85.872C82.9548 85.478 82.7168 85.1876 82.3996 85.0424V83.8395C82.3996 82.2218 83.629 80.936 85.1559 80.936C86.7026 80.936 87.9321 82.2218 87.9321 83.8395V85.0424C87.6346 85.1876 87.3967 85.4987 87.3967 85.872V87.6142C87.3967 88.0704 87.7734 88.4645 88.2295 88.4645Z" fill="url(#paint24_linear_326_22)"/>
<path fill-rule="evenodd" clip-rule="evenodd" d="M7.51337 59.7939C7.51337 60.7867 6.77274 61.6179 5.88809 61.6179C5.00345 61.6179 4.26282 60.7867 4.26282 59.7939V56.3767C4.26282 55.3839 5.00345 54.5526 5.88809 54.5526C6.79331 54.5526 7.51337 55.3839 7.51337 56.3767V59.7939Z" fill="url(#paint25_linear_326_22)"/>
<path fill-rule="evenodd" clip-rule="evenodd" d="M6.8339 64.2039H6.19614V62.2875C6.34015 62.2875 6.48416 62.2413 6.54588 62.2182C6.68989 62.1721 7.16307 61.9181 7.28651 61.8257C7.38938 61.7103 7.73912 61.2947 7.82141 61.1561C7.88313 60.9945 7.986 60.7636 8.02714 60.5789C8.06829 60.4173 8.06829 60.2788 8.06829 60.2788C8.08886 60.1171 8.10944 59.817 8.10944 59.6554V58.4316C8.10944 58.2469 8.06829 57.9699 8.00657 57.8082L7.84199 57.2541C7.80084 57.0925 7.75969 57.0925 7.75969 57.2772V57.7851C7.75969 57.9468 7.75969 58.2469 7.75969 58.4316V59.6554C7.75969 59.817 7.71855 60.3711 7.69797 60.4866C7.65683 60.6251 7.47167 61.0407 7.38938 61.1561C7.30709 61.2485 6.99849 61.5487 6.89562 61.641C6.79276 61.7103 6.3813 61.8719 6.25786 61.895C6.11384 61.9181 6.01098 61.9181 6.01098 61.9181C5.96983 61.9181 5.94926 61.9181 5.94926 61.9181C5.92869 61.9181 5.90811 61.9181 5.90811 61.9181C5.88754 61.9181 5.86697 61.9181 5.86697 61.9181C5.84639 61.9181 5.49665 61.8719 5.37321 61.8488C5.24977 61.8026 4.87946 61.5948 4.77659 61.5256C4.6943 61.4332 4.40628 61.0869 4.34456 60.9714C4.28284 60.8329 4.13883 60.3942 4.11825 60.2557C4.09768 60.1171 4.09768 59.8632 4.09768 59.6784V58.4547C4.09768 58.27 4.09768 57.9699 4.09768 57.8082V57.3003C4.09768 57.1386 4.03596 57.1386 3.99482 57.2772L3.83023 57.8313C3.72736 57.9699 3.68622 58.2469 3.68622 58.4316V59.6554C3.68622 59.817 3.72736 60.4404 3.76851 60.602C3.80966 60.7636 4.03596 61.2947 4.11825 61.4332C4.22112 61.5487 4.59143 61.9181 4.71487 62.0104C4.85889 62.0797 5.06462 62.1952 5.2292 62.2644C5.37321 62.3337 5.49665 62.3337 5.49665 62.3337H5.55837V64.2501H4.94118C4.85889 64.2501 4.79717 64.3194 4.79717 64.4117V64.7119C4.79717 64.8042 4.85889 64.8735 4.94118 64.8735H5.86697L6.8339 64.8344C6.89562 64.8344 6.95734 64.8042 6.95734 64.7119V64.3424C6.97792 64.2501 6.89562 64.2039 6.8339 64.2039Z" fill="url(#paint26_linear_326_22)"/>
<path fill-rule="evenodd" clip-rule="evenodd" d="M5.61747 0.0600811L6.03034 0L7.41709 3.88006H9.58364V4.31062H7.11809L5.98005 1.12642L5.56344 8.05153L5.14973 8.10923L3.94443 4.60868L3.04211 6.17849L1.879 4.31062H0V3.88006H2.11419L3.02753 5.34682L4.04193 3.58201L5.20277 6.95345L5.61747 0.0600811Z" fill="url(#paint27_linear_326_22)"/>
<path d="M140.283 81.0923H145.967V81.9952H140.283V81.0923Z" fill="url(#paint28_linear_326_22)"/>
<path d="M140.283 81.6669H140.695V88.8905H140.283V81.6669Z" fill="url(#paint29_linear_326_22)"/>
<path d="M138.595 88.0286L140.695 86.8556V89.2015L138.595 88.0286Z" fill="url(#paint30_linear_326_22)"/>
<path d="M145.555 81.6669H145.967V88.8905H145.555V81.6669Z" fill="url(#paint31_linear_326_22)"/>
<path d="M143.866 88.0286L145.967 86.8556V89.2015L143.866 88.0286Z" fill="url(#paint32_linear_326_22)"/>
<path d="M139.634 28.978H140.957V32.8561H139.634V28.978Z" fill="url(#paint33_linear_326_22)"/>
<path d="M141.619 28.978H142.942V32.8561H141.619V28.978Z" fill="url(#paint34_linear_326_22)"/>
<path d="M143.604 28.978H144.927V32.8561H143.604V28.978Z" fill="url(#paint35_linear_326_22)"/>
<path d="M144.001 30.6043H144.53V34.4824H144.001V30.6043Z" fill="url(#paint36_linear_326_22)"/>
<path d="M142.016 30.6043H142.545V34.4824H142.016V30.6043Z" fill="url(#paint37_linear_326_22)"/>
<path d="M140.031 30.6043H140.56V34.4824H140.031V30.6043Z" fill="url(#paint38_linear_326_22)"/>
<path fill-rule="evenodd" clip-rule="evenodd" d="M145.683 29.0052H138.878V34.3947H145.683V29.0052ZM138.595 28.7511V34.6488H145.967V28.7511H138.595Z" fill="url(#paint39_linear_326_22)"/>
<path fill-rule="evenodd" clip-rule="evenodd" d="M143.896 59.7939C143.896 60.7867 143.155 61.6179 142.27 61.6179C141.386 61.6179 140.645 60.7867 140.645 59.7939V56.3767C140.645 55.3839 141.386 54.5526 142.27 54.5526C143.176 54.5526 143.896 55.3839 143.896 56.3767V59.7939Z" fill="url(#paint40_linear_326_22)"/>
<path fill-rule="evenodd" clip-rule="evenodd" d="M143.216 64.2039H142.579V62.2875C142.723 62.2875 142.867 62.2413 142.928 62.2182C143.072 62.1721 143.545 61.9181 143.669 61.8257C143.772 61.7103 144.122 61.2947 144.204 61.1561C144.266 60.9945 144.368 60.7636 144.41 60.5789C144.451 60.4173 144.451 60.2788 144.451 60.2788C144.471 60.1171 144.492 59.817 144.492 59.6554V58.4316C144.492 58.2469 144.451 57.9699 144.389 57.8082L144.224 57.2541C144.183 57.0925 144.142 57.0925 144.142 57.2772V57.7851C144.142 57.9468 144.142 58.2469 144.142 58.4316V59.6554C144.142 59.817 144.101 60.3711 144.08 60.4866C144.039 60.6251 143.854 61.0407 143.772 61.1561C143.689 61.2485 143.381 61.5487 143.278 61.641C143.175 61.7103 142.764 61.8719 142.64 61.895C142.496 61.9181 142.393 61.9181 142.393 61.9181C142.352 61.9181 142.332 61.9181 142.332 61.9181C142.311 61.9181 142.291 61.9181 142.291 61.9181C142.27 61.9181 142.249 61.9181 142.249 61.9181C142.229 61.9181 141.879 61.8719 141.756 61.8488C141.632 61.8026 141.262 61.5948 141.159 61.5256C141.077 61.4332 140.789 61.0869 140.727 60.9714C140.665 60.8329 140.521 60.3942 140.501 60.2557C140.48 60.1171 140.48 59.8632 140.48 59.6784V58.4547C140.48 58.27 140.48 57.9699 140.48 57.8082V57.3003C140.48 57.1386 140.418 57.1386 140.377 57.2772L140.213 57.8313C140.11 57.9699 140.069 58.2469 140.069 58.4316V59.6554C140.069 59.817 140.11 60.4404 140.151 60.602C140.192 60.7636 140.418 61.2947 140.501 61.4332C140.604 61.5487 140.974 61.9181 141.097 62.0104C141.241 62.0797 141.447 62.1952 141.612 62.2644C141.756 62.3337 141.879 62.3337 141.879 62.3337H141.941V64.2501H141.324C141.241 64.2501 141.18 64.3194 141.18 64.4117V64.7119C141.18 64.8042 141.241 64.8735 141.324 64.8735H142.249L143.216 64.8344C143.278 64.8344 143.34 64.8042 143.34 64.7119V64.3424C143.36 64.2501 143.278 64.2039 143.216 64.2039Z" fill="url(#paint41_linear_326_22)"/>
<path fill-rule="evenodd" clip-rule="evenodd" d="M142 0.0600811L142.413 0L143.799 3.88006H145.966V4.31062H143.5L142.362 1.12642L141.946 8.05153L141.532 8.10923L140.327 4.60868L139.425 6.17849L138.261 4.31062H136.382V3.88006H138.497L139.41 5.34682L140.424 3.58201L141.585 6.95345L142 0.0600811Z" fill="url(#paint42_linear_326_22)"/>
<path d="M27.683 82.0845H29.1385V86.4474H27.683V82.0845Z" fill="url(#paint43_linear_326_22)"/>
<path d="M29.8663 82.0845H31.3218V86.4474H29.8663V82.0845Z" fill="url(#paint44_linear_326_22)"/>
<path d="M32.0495 82.0845H33.505V86.4474H32.0495V82.0845Z" fill="url(#paint45_linear_326_22)"/>
<path d="M32.4862 83.9141H33.0684V88.277H32.4862V83.9141Z" fill="url(#paint46_linear_326_22)"/>
<path d="M30.3029 83.9141H30.8851V88.277H30.3029V83.9141Z" fill="url(#paint47_linear_326_22)"/>
<path d="M28.1197 83.9141H28.7019V88.277H28.1197V83.9141Z" fill="url(#paint48_linear_326_22)"/>
<path fill-rule="evenodd" clip-rule="evenodd" d="M34.3368 82.1151H26.8513V88.1783H34.3368V82.1151ZM26.5394 81.8293V88.4641H34.6486V81.8293H26.5394Z" fill="url(#paint49_linear_326_22)"/>
<path fill-rule="evenodd" clip-rule="evenodd" d="M57.133 35.117C58.8166 35.117 60.1815 33.7522 60.1815 32.0686C60.1815 30.385 58.8166 29.0201 57.133 29.0201C55.4494 29.0201 54.0846 30.385 54.0846 32.0686C54.0846 33.7522 55.4494 35.117 57.133 35.117ZM57.133 35.386C58.9652 35.386 60.4505 33.9007 60.4505 32.0686C60.4505 30.2364 58.9652 28.7511 57.133 28.7511C55.3009 28.7511 53.8156 30.2364 53.8156 32.0686C53.8156 33.9007 55.3009 35.386 57.133 35.386Z" fill="url(#paint50_linear_326_22)"/>
<path d="M58.296 32.0686C58.296 32.7114 57.7749 33.2326 57.132 33.2326C56.4892 33.2326 55.968 32.7114 55.968 32.0686C55.968 31.4257 56.4892 30.9046 57.132 30.9046C57.7749 30.9046 58.296 31.4257 58.296 32.0686Z" fill="url(#paint51_linear_326_22)"/>
<path d="M55.1035 30.082C54.649 30.5184 54.7069 31.2914 54.7069 31.2914C54.7069 31.2914 55.0256 30.4583 55.2529 30.2287C55.4803 29.9991 56.2626 29.7047 56.2626 29.7047C56.2626 29.7047 55.558 29.6456 55.1035 30.082Z" fill="url(#paint52_linear_326_22)"/>
<path fill-rule="evenodd" clip-rule="evenodd" d="M56.0105 29.7095C56.1612 29.6962 56.2626 29.7047 56.2626 29.7047C56.2626 29.7047 56.1667 29.7408 56.0322 29.7976C55.7827 29.903 55.4006 30.0795 55.2529 30.2287C55.102 30.3811 54.9108 30.7996 54.7994 31.0636C54.7429 31.1973 54.7069 31.2914 54.7069 31.2914C54.7069 31.2914 54.6994 31.1911 54.711 31.0423C54.7317 30.7781 54.8127 30.3612 55.1035 30.082C55.3855 29.8112 55.7639 29.7312 56.0105 29.7095ZM55.6645 29.8658C55.4932 29.9176 55.3141 30.0041 55.1656 30.1467C54.9986 30.307 54.905 30.5201 54.8535 30.7219C54.8976 30.6288 54.9452 30.534 54.9935 30.4478C55.056 30.3363 55.1234 30.2321 55.1892 30.1656C55.255 30.0991 55.3555 30.0328 55.4623 29.972C55.5266 29.9355 55.5955 29.8997 55.6645 29.8658Z" fill="url(#paint53_linear_326_22)"/>
<path d="M55.6351 30.5491C55.3328 30.8367 55.3688 31.3486 55.3688 31.3486C55.3688 31.3486 55.5824 30.798 55.7336 30.6467C55.8848 30.4954 56.4037 30.3029 56.4037 30.3029C56.4037 30.3029 55.9374 30.2616 55.6351 30.5491Z" fill="url(#paint54_linear_326_22)"/>
<path fill-rule="evenodd" clip-rule="evenodd" d="M56.1271 30.3191C56.2843 30.2923 56.4037 30.3029 56.4037 30.3029C56.4037 30.3029 56.2897 30.3452 56.153 30.4057C55.998 30.4743 55.8139 30.5663 55.7336 30.6467C55.6498 30.7306 55.5468 30.9371 55.4717 31.1046C55.4113 31.2392 55.3688 31.3486 55.3688 31.3486C55.3688 31.3486 55.3606 31.2321 55.3849 31.079C55.4115 30.9112 55.477 30.6995 55.6351 30.5491C55.7844 30.4071 55.9737 30.3453 56.1271 30.3191Z" fill="url(#paint55_linear_326_22)"/>
<path d="M56.095 30.9682C55.8909 31.1624 55.9152 31.5081 55.9152 31.5081C55.9152 31.5081 56.0594 31.1363 56.1615 31.0341C56.2637 30.9319 56.6141 30.8019 56.6141 30.8019C56.6141 30.8019 56.2991 30.774 56.095 30.9682Z" fill="url(#paint56_linear_326_22)"/>
<path fill-rule="evenodd" clip-rule="evenodd" d="M56.2568 30.8626C56.4332 30.7858 56.6141 30.8019 56.6141 30.8019C56.6141 30.8019 56.4352 30.8682 56.2958 30.9434C56.2401 30.9734 56.1907 31.0049 56.1615 31.0341C56.1251 31.0706 56.0832 31.1415 56.0445 31.2175C55.9748 31.3544 55.9152 31.5081 55.9152 31.5081C55.9152 31.5081 55.9038 31.3466 55.9618 31.1823C55.9887 31.1063 56.0304 31.0296 56.095 30.9682C56.1444 30.9211 56.2004 30.8871 56.2568 30.8626Z" fill="url(#paint57_linear_326_22)"/>
<path d="M59.2487 33.9341C59.6863 33.4808 59.5991 32.7106 59.5991 32.7106C59.5991 32.7106 59.3122 33.5552 59.0938 33.7932C58.8754 34.0313 58.1047 34.3551 58.1047 34.3551C58.1047 34.3551 58.8111 34.3875 59.2487 33.9341Z" fill="url(#paint58_linear_326_22)"/>
<path fill-rule="evenodd" clip-rule="evenodd" d="M58.3315 34.2535C58.1992 34.3154 58.1047 34.3551 58.1047 34.3551C58.1047 34.3551 58.2064 34.3598 58.3565 34.3408C58.602 34.3098 58.9771 34.2155 59.2487 33.9341C59.5287 33.6441 59.5938 33.2244 59.6044 32.9596C59.6104 32.8105 59.5991 32.7106 59.5991 32.7106C59.5991 32.7106 59.5667 32.806 59.5154 32.9417C59.414 33.2098 59.2388 33.6352 59.0938 33.7932C58.9519 33.9479 58.5768 34.1388 58.3315 34.2535ZM58.6963 34.1715C58.8655 34.1132 59.0412 34.02 59.1842 33.8719C59.345 33.7053 59.4305 33.4889 59.4742 33.2852C59.4337 33.3799 59.3897 33.4764 59.3447 33.5644C59.2865 33.6783 59.2231 33.7849 59.1599 33.8538C59.0966 33.9228 58.9988 33.9929 58.8943 34.0576C58.8315 34.0966 58.764 34.135 58.6963 34.1715Z" fill="url(#paint59_linear_326_22)"/>
<path d="M58.7001 33.4875C58.9912 33.1887 58.9358 32.6785 58.9358 32.6785C58.9358 32.6785 58.7433 33.2368 58.5979 33.3937C58.4526 33.5507 57.9414 33.7627 57.9414 33.7627C57.9414 33.7627 58.4089 33.7863 58.7001 33.4875Z" fill="url(#paint60_linear_326_22)"/>
<path fill-rule="evenodd" clip-rule="evenodd" d="M58.188 33.6504C58.0537 33.7161 57.9414 33.7627 57.9414 33.7627C57.9414 33.7627 58.0611 33.7688 58.2171 33.736C58.3694 33.704 58.5563 33.6351 58.7001 33.4875C58.8523 33.3312 58.9098 33.1172 58.93 32.9485C58.9484 32.7946 58.9358 32.6785 58.9358 32.6785C58.9358 32.6785 58.8976 32.7894 58.8423 32.9262C58.7736 33.0964 58.6785 33.3067 58.5979 33.3937C58.5207 33.4771 58.3402 33.576 58.188 33.6504Z" fill="url(#paint61_linear_326_22)"/>
<path d="M58.2248 33.0862C58.4214 32.8844 58.384 32.5398 58.384 32.5398C58.384 32.5398 58.254 32.9169 58.1558 33.0229C58.0576 33.1289 57.7123 33.2721 57.7123 33.2721C57.7123 33.2721 58.0281 33.288 58.2248 33.0862Z" fill="url(#paint62_linear_326_22)"/>
<path fill-rule="evenodd" clip-rule="evenodd" d="M58.025 33.1186C57.8886 33.199 57.7123 33.2721 57.7123 33.2721C57.7123 33.2721 57.8937 33.2812 58.0671 33.1978C58.1225 33.1712 58.1771 33.1351 58.2248 33.0862C58.287 33.0223 58.3258 32.9442 58.3497 32.8672C58.4014 32.7008 58.384 32.5398 58.384 32.5398C58.384 32.5398 58.3302 32.6957 58.2658 32.8351C58.23 32.9126 58.1908 32.985 58.1558 33.0229C58.1277 33.0531 58.0796 33.0864 58.025 33.1186Z" fill="url(#paint63_linear_326_22)"/>
<path fill-rule="evenodd" clip-rule="evenodd" d="M57.133 88.1952C58.8166 88.1952 60.1815 86.8303 60.1815 85.1467C60.1815 83.4631 58.8166 82.0983 57.133 82.0983C55.4494 82.0983 54.0846 83.4631 54.0846 85.1467C54.0846 86.8303 55.4494 88.1952 57.133 88.1952ZM57.133 88.4641C58.9652 88.4641 60.4505 86.9789 60.4505 85.1467C60.4505 83.3146 58.9652 81.8293 57.133 81.8293C55.3009 81.8293 53.8156 83.3146 53.8156 85.1467C53.8156 86.9789 55.3009 88.4641 57.133 88.4641Z" fill="url(#paint64_linear_326_22)"/>
<path d="M58.296 85.1467C58.296 85.7896 57.7749 86.3107 57.132 86.3107C56.4892 86.3107 55.968 85.7896 55.968 85.1467C55.968 84.5039 56.4892 83.9827 57.132 83.9827C57.7749 83.9827 58.296 84.5039 58.296 85.1467Z" fill="url(#paint65_linear_326_22)"/>
<path d="M55.1035 83.1601C54.649 83.5966 54.7069 84.3695 54.7069 84.3695C54.7069 84.3695 55.0256 83.5365 55.2529 83.3069C55.4803 83.0773 56.2626 82.7829 56.2626 82.7829C56.2626 82.7829 55.558 82.7237 55.1035 83.1601Z" fill="url(#paint66_linear_326_22)"/>
<path fill-rule="evenodd" clip-rule="evenodd" d="M56.0105 82.7876C56.1612 82.7744 56.2626 82.7829 56.2626 82.7829C56.2626 82.7829 56.1667 82.819 56.0322 82.8758C55.7827 82.9811 55.4006 83.1577 55.2529 83.3069C55.102 83.4593 54.9108 83.8777 54.7994 84.1418C54.7429 84.2754 54.7069 84.3695 54.7069 84.3695C54.7069 84.3695 54.6994 84.2692 54.711 84.1205C54.7317 83.8563 54.8127 83.4393 55.1035 83.1601C55.3855 82.8893 55.7639 82.8093 56.0105 82.7876ZM55.6645 82.944C55.4932 82.9958 55.3141 83.0822 55.1656 83.2248C54.9986 83.3852 54.905 83.5982 54.8535 83.8001C54.8976 83.707 54.9452 83.6122 54.9935 83.5259C55.056 83.4144 55.1234 83.3103 55.1892 83.2438C55.255 83.1773 55.3555 83.1109 55.4623 83.0502C55.5266 83.0136 55.5955 82.9778 55.6645 82.944Z" fill="url(#paint67_linear_326_22)"/>
<path d="M55.6351 83.6273C55.3328 83.9148 55.3688 84.4268 55.3688 84.4268C55.3688 84.4268 55.5824 83.8762 55.7336 83.7249C55.8848 83.5735 56.4037 83.381 56.4037 83.381C56.4037 83.381 55.9374 83.3397 55.6351 83.6273Z" fill="url(#paint68_linear_326_22)"/>
<path fill-rule="evenodd" clip-rule="evenodd" d="M56.1271 83.3973C56.2843 83.3705 56.4037 83.381 56.4037 83.381C56.4037 83.381 56.2897 83.4233 56.153 83.4839C55.998 83.5525 55.8139 83.6445 55.7336 83.7249C55.6498 83.8087 55.5468 84.0153 55.4717 84.1828C55.4113 84.3174 55.3688 84.4268 55.3688 84.4268C55.3688 84.4268 55.3606 84.3103 55.3849 84.1572C55.4115 83.9894 55.477 83.7776 55.6351 83.6273C55.7844 83.4852 55.9737 83.4234 56.1271 83.3973Z" fill="url(#paint69_linear_326_22)"/>
<path d="M56.095 84.0463C55.8909 84.2405 55.9152 84.5863 55.9152 84.5863C55.9152 84.5863 56.0594 84.2144 56.1615 84.1122C56.2637 84.01 56.6141 83.88 56.6141 83.88C56.6141 83.88 56.2991 83.8521 56.095 84.0463Z" fill="url(#paint70_linear_326_22)"/>
<path fill-rule="evenodd" clip-rule="evenodd" d="M56.2568 83.9408C56.4332 83.864 56.6141 83.88 56.6141 83.88C56.6141 83.88 56.4352 83.9464 56.2958 84.0216C56.2401 84.0516 56.1907 84.0831 56.1615 84.1122C56.1251 84.1487 56.0832 84.2196 56.0445 84.2957C55.9748 84.4326 55.9152 84.5863 55.9152 84.5863C55.9152 84.5863 55.9038 84.4247 55.9618 84.2605C55.9887 84.1844 56.0304 84.1078 56.095 84.0463C56.1444 83.9993 56.2004 83.9653 56.2568 83.9408Z" fill="url(#paint71_linear_326_22)"/>
<path d="M59.2487 87.0123C59.6863 86.559 59.5991 85.7888 59.5991 85.7888C59.5991 85.7888 59.3122 86.6333 59.0938 86.8714C58.8754 87.1094 58.1047 87.4333 58.1047 87.4333C58.1047 87.4333 58.8111 87.4656 59.2487 87.0123Z" fill="url(#paint72_linear_326_22)"/>
<path fill-rule="evenodd" clip-rule="evenodd" d="M58.3315 87.3317C58.1992 87.3936 58.1047 87.4333 58.1047 87.4333C58.1047 87.4333 58.2064 87.4379 58.3565 87.419C58.602 87.3879 58.9771 87.2936 59.2487 87.0123C59.5287 86.7223 59.5938 86.3025 59.6044 86.0378C59.6104 85.8887 59.5991 85.7888 59.5991 85.7888C59.5991 85.7888 59.5667 85.8842 59.5154 86.0199C59.414 86.2879 59.2388 86.7133 59.0938 86.8714C58.9519 87.026 58.5768 87.2169 58.3315 87.3317ZM58.6963 87.2496C58.8655 87.1913 59.0412 87.0982 59.1842 86.95C59.345 86.7835 59.4305 86.567 59.4742 86.3633C59.4337 86.4581 59.3897 86.5546 59.3447 86.6426C59.2865 86.7564 59.2231 86.863 59.1599 86.932C59.0966 87.0009 58.9988 87.0711 58.8943 87.1358C58.8315 87.1748 58.764 87.2132 58.6963 87.2496Z" fill="url(#paint73_linear_326_22)"/>
<path d="M58.7001 86.5657C58.9912 86.2668 58.9358 85.7566 58.9358 85.7566C58.9358 85.7566 58.7433 86.3149 58.5979 86.4719C58.4526 86.6288 57.9414 86.8409 57.9414 86.8409C57.9414 86.8409 58.4089 86.8645 58.7001 86.5657Z" fill="url(#paint74_linear_326_22)"/>
<path fill-rule="evenodd" clip-rule="evenodd" d="M58.188 86.7286C58.0537 86.7943 57.9414 86.8409 57.9414 86.8409C57.9414 86.8409 58.0611 86.8469 58.2171 86.8142C58.3694 86.7822 58.5563 86.7133 58.7001 86.5657C58.8523 86.4094 58.9098 86.1953 58.93 86.0266C58.9484 85.8727 58.9358 85.7566 58.9358 85.7566C58.9358 85.7566 58.8976 85.8675 58.8423 86.0044C58.7736 86.1745 58.6785 86.3849 58.5979 86.4719C58.5207 86.5552 58.3402 86.6542 58.188 86.7286Z" fill="url(#paint75_linear_326_22)"/>
<path d="M58.2248 86.1644C58.4214 85.9626 58.384 85.618 58.384 85.618C58.384 85.618 58.254 85.995 58.1558 86.101C58.0576 86.207 57.7123 86.3503 57.7123 86.3503C57.7123 86.3503 58.0281 86.3662 58.2248 86.1644Z" fill="url(#paint76_linear_326_22)"/>
<path fill-rule="evenodd" clip-rule="evenodd" d="M58.025 86.1967C57.8886 86.2772 57.7123 86.3503 57.7123 86.3503C57.7123 86.3503 57.8937 86.3594 58.0671 86.276C58.1225 86.2494 58.1771 86.2132 58.2248 86.1644C58.287 86.1005 58.3258 86.0223 58.3497 85.9453C58.4014 85.779 58.384 85.618 58.384 85.618C58.384 85.618 58.3302 85.7738 58.2658 85.9133C58.23 85.9908 58.1908 86.0632 58.1558 86.101C58.1277 86.1313 58.0796 86.1646 58.025 86.1967Z" fill="url(#paint77_linear_326_22)"/>
<path fill-rule="evenodd" clip-rule="evenodd" d="M58.3805 59.7939C58.3805 60.7867 57.6398 61.6179 56.7552 61.6179C55.8706 61.6179 55.1299 60.7867 55.1299 59.7939V56.3767C55.1299 55.3839 55.8706 54.5526 56.7552 54.5526C57.6604 54.5526 58.3805 55.3839 58.3805 56.3767V59.7939Z" fill="url(#paint78_linear_326_22)"/>
<path fill-rule="evenodd" clip-rule="evenodd" d="M57.701 64.2039H57.0632V62.2875C57.2073 62.2875 57.3513 62.2413 57.413 62.2182C57.557 62.1721 58.0302 61.9181 58.1536 61.8257C58.2565 61.7103 58.6062 61.2947 58.6885 61.1561C58.7502 60.9945 58.8531 60.7636 58.8942 60.5789C58.9354 60.4173 58.9354 60.2788 58.9354 60.2788C58.956 60.1171 58.9765 59.817 58.9765 59.6554V58.4316C58.9765 58.2469 58.9354 57.9699 58.8737 57.8082L58.7091 57.2541C58.6679 57.0925 58.6268 57.0925 58.6268 57.2772V57.7851C58.6268 57.9468 58.6268 58.2469 58.6268 58.4316V59.6554C58.6268 59.817 58.5857 60.3711 58.5651 60.4866C58.5239 60.6251 58.3388 61.0407 58.2565 61.1561C58.1742 61.2485 57.8656 61.5487 57.7627 61.641C57.6599 61.7103 57.2484 61.8719 57.125 61.895C56.9809 61.9181 56.8781 61.9181 56.8781 61.9181C56.8369 61.9181 56.8164 61.9181 56.8164 61.9181C56.7958 61.9181 56.7752 61.9181 56.7752 61.9181C56.7546 61.9181 56.7341 61.9181 56.7341 61.9181C56.7135 61.9181 56.3638 61.8719 56.2403 61.8488C56.1169 61.8026 55.7466 61.5948 55.6437 61.5256C55.5614 61.4332 55.2734 61.0869 55.2117 60.9714C55.1499 60.8329 55.0059 60.3942 54.9854 60.2557C54.9648 60.1171 54.9648 59.8632 54.9648 59.6784V58.4547C54.9648 58.27 54.9648 57.9699 54.9648 57.8082V57.3003C54.9648 57.1386 54.9031 57.1386 54.8619 57.2772L54.6973 57.8313C54.5945 57.9699 54.5533 58.2469 54.5533 58.4316V59.6554C54.5533 59.817 54.5945 60.4404 54.6356 60.602C54.6768 60.7636 54.9031 61.2947 54.9854 61.4332C55.0882 61.5487 55.4585 61.9181 55.582 62.0104C55.726 62.0797 55.9317 62.1952 56.0963 62.2644C56.2403 62.3337 56.3638 62.3337 56.3638 62.3337H56.4255V64.2501H55.8083C55.726 64.2501 55.6643 64.3194 55.6643 64.4117V64.7119C55.6643 64.8042 55.726 64.8735 55.8083 64.8735H56.7341L57.701 64.8344C57.7627 64.8344 57.8244 64.8042 57.8244 64.7119V64.3424C57.845 64.2501 57.7627 64.2039 57.701 64.2039Z" fill="url(#paint79_linear_326_22)"/>
<path fill-rule="evenodd" clip-rule="evenodd" d="M31.115 56.082L31.5596 56.0274L33.053 59.5547H35.3862V59.9461H32.731L31.5054 57.0514L31.0568 63.3469L30.6112 63.3994L29.3132 60.2171L28.3415 61.6442L27.0889 59.9461H25.0654V59.5547H27.3422L28.3258 60.8881L29.4182 59.2837L30.6684 62.3487L31.115 56.082Z" fill="url(#paint80_linear_326_22)"/>
<path d="M110.625 28.0137H115.74V28.8345H110.625V28.0137Z" fill="url(#paint81_linear_326_22)"/>
<path d="M110.625 28.536H110.996V35.1029H110.625V28.536Z" fill="url(#paint82_linear_326_22)"/>
<path d="M109.105 34.3194L110.996 33.2531V35.3857L109.105 34.3194Z" fill="url(#paint83_linear_326_22)"/>
<path d="M115.369 28.536H115.74V35.1029H115.369V28.536Z" fill="url(#paint84_linear_326_22)"/>
<path d="M113.85 34.3194L115.74 33.2531V35.3857L113.85 34.3194Z" fill="url(#paint85_linear_326_22)"/>
<path d="M28.0591 129.748H33.1742V130.569H28.0591V129.748Z" fill="url(#paint86_linear_326_22)"/>
<path d="M28.0591 130.27H28.4298V136.837H28.0591V130.27Z" fill="url(#paint87_linear_326_22)"/>
<path d="M26.5394 136.054L28.4298 134.987V137.12L26.5394 136.054Z" fill="url(#paint88_linear_326_22)"/>
<path d="M32.8036 130.27H33.1742V136.837H32.8036V130.27Z" fill="url(#paint89_linear_326_22)"/>
<path d="M31.2839 136.054L33.1742 134.987V137.12L31.2839 136.054Z" fill="url(#paint90_linear_326_22)"/>
<path d="M3.25092 130.712H4.57411V134.59H3.25092V130.712Z" fill="url(#paint91_linear_326_22)"/>
<path d="M5.2357 130.712H6.55889V134.59H5.2357V130.712Z" fill="url(#paint92_linear_326_22)"/>
<path d="M7.22048 130.712H8.54366V134.59H7.22048V130.712Z" fill="url(#paint93_linear_326_22)"/>
<path d="M7.61743 132.338H8.14671V136.216H7.61743V132.338Z" fill="url(#paint94_linear_326_22)"/>
<path d="M5.63266 132.338H6.16193V136.216H5.63266V132.338Z" fill="url(#paint95_linear_326_22)"/>
<path d="M3.64788 132.338H4.17715V136.216H3.64788V132.338Z" fill="url(#paint96_linear_326_22)"/>
<path fill-rule="evenodd" clip-rule="evenodd" d="M9.29977 130.739H2.49482V136.128H9.29977V130.739ZM2.21128 130.485V136.383H9.58331V130.485H2.21128Z" fill="url(#paint97_linear_326_22)"/>
<path d="M88.2295 137.12C88.6658 137.12 89.0425 136.762 89.0425 136.347L89.9387 135.555L89.0425 134.763C89.0425 134.405 88.8244 134.141 88.4873 134.009V132.915C88.4873 131.162 87.0001 129.748 85.1559 129.748C83.3316 129.748 81.8443 131.162 81.8443 132.915V134.009C81.5271 134.141 81.2891 134.424 81.2891 134.763L80.355 135.555L81.2891 136.347C81.2891 136.762 81.6659 137.12 82.1219 137.12C82.578 137.12 82.9548 136.762 82.9548 136.347V134.763C82.9548 134.405 82.7168 134.141 82.3996 134.009V132.915C82.3996 131.445 83.629 130.276 85.1559 130.276C86.7026 130.276 87.9321 131.445 87.9321 132.915V134.009C87.6346 134.141 87.3967 134.424 87.3967 134.763V136.347C87.3967 136.762 87.7734 137.12 88.2295 137.12Z" fill="url(#paint98_linear_326_22)"/>
<path d="M139.634 130.712H140.957V134.59H139.634V130.712Z" fill="url(#paint99_linear_326_22)"/>
<path d="M141.619 130.712H142.942V134.59H141.619V130.712Z" fill="url(#paint100_linear_326_22)"/>
<path d="M143.604 130.712H144.927V134.59H143.604V130.712Z" fill="url(#paint101_linear_326_22)"/>
<path d="M144.001 132.338H144.53V136.216H144.001V132.338Z" fill="url(#paint102_linear_326_22)"/>
<path d="M142.016 132.338H142.545V136.216H142.016V132.338Z" fill="url(#paint103_linear_326_22)"/>
<path d="M140.031 132.338H140.56V136.216H140.031V132.338Z" fill="url(#paint104_linear_326_22)"/>
<path fill-rule="evenodd" clip-rule="evenodd" d="M145.683 130.739H138.878V136.128H145.683V130.739ZM138.595 130.485V136.383H145.967V130.485H138.595Z" fill="url(#paint105_linear_326_22)"/>
<path fill-rule="evenodd" clip-rule="evenodd" d="M57.133 136.851C58.8166 136.851 60.1815 135.486 60.1815 133.802C60.1815 132.119 58.8166 130.754 57.133 130.754C55.4494 130.754 54.0846 132.119 54.0846 133.802C54.0846 135.486 55.4494 136.851 57.133 136.851ZM57.133 137.12C58.9652 137.12 60.4505 135.634 60.4505 133.802C60.4505 131.97 58.9652 130.485 57.133 130.485C55.3009 130.485 53.8156 131.97 53.8156 133.802C53.8156 135.634 55.3009 137.12 57.133 137.12Z" fill="url(#paint106_linear_326_22)"/>
<path d="M58.296 133.802C58.296 134.445 57.7749 134.966 57.132 134.966C56.4892 134.966 55.968 134.445 55.968 133.802C55.968 133.159 56.4892 132.638 57.132 132.638C57.7749 132.638 58.296 133.159 58.296 133.802Z" fill="url(#paint107_linear_326_22)"/>
<path d="M55.1035 131.816C54.649 132.252 54.7069 133.025 54.7069 133.025C54.7069 133.025 55.0256 132.192 55.2529 131.962C55.4803 131.733 56.2626 131.438 56.2626 131.438C56.2626 131.438 55.558 131.379 55.1035 131.816Z" fill="url(#paint108_linear_326_22)"/>
<path fill-rule="evenodd" clip-rule="evenodd" d="M56.0105 131.443C56.1612 131.43 56.2626 131.438 56.2626 131.438C56.2626 131.438 56.1667 131.475 56.0322 131.531C55.7827 131.637 55.4006 131.813 55.2529 131.962C55.102 132.115 54.9108 132.533 54.7994 132.797C54.7429 132.931 54.7069 133.025 54.7069 133.025C54.7069 133.025 54.6994 132.925 54.711 132.776C54.7317 132.512 54.8127 132.095 55.1035 131.816C55.3855 131.545 55.7639 131.465 56.0105 131.443ZM55.6645 131.6C55.4932 131.651 55.3141 131.738 55.1656 131.88C54.9986 132.041 54.905 132.254 54.8535 132.456C54.8976 132.363 54.9452 132.268 54.9935 132.182C55.056 132.07 55.1234 131.966 55.1892 131.899C55.255 131.833 55.3555 131.767 55.4623 131.706C55.5266 131.669 55.5955 131.633 55.6645 131.6Z" fill="url(#paint109_linear_326_22)"/>
<path d="M55.6351 132.283C55.3328 132.57 55.3688 133.082 55.3688 133.082C55.3688 133.082 55.5824 132.532 55.7336 132.38C55.8848 132.229 56.4037 132.037 56.4037 132.037C56.4037 132.037 55.9374 131.995 55.6351 132.283Z" fill="url(#paint110_linear_326_22)"/>
<path fill-rule="evenodd" clip-rule="evenodd" d="M56.1271 132.053C56.2843 132.026 56.4037 132.037 56.4037 132.037C56.4037 132.037 56.2897 132.079 56.153 132.139C55.998 132.208 55.8139 132.3 55.7336 132.38C55.6498 132.464 55.5468 132.671 55.4717 132.838C55.4113 132.973 55.3688 133.082 55.3688 133.082C55.3688 133.082 55.3606 132.966 55.3849 132.813C55.4115 132.645 55.477 132.433 55.6351 132.283C55.7844 132.141 55.9737 132.079 56.1271 132.053Z" fill="url(#paint111_linear_326_22)"/>
<path d="M56.095 132.702C55.8909 132.896 55.9152 133.242 55.9152 133.242C55.9152 133.242 56.0594 132.87 56.1615 132.768C56.2637 132.666 56.6141 132.536 56.6141 132.536C56.6141 132.536 56.2991 132.508 56.095 132.702Z" fill="url(#paint112_linear_326_22)"/>
<path fill-rule="evenodd" clip-rule="evenodd" d="M56.2568 132.596C56.4332 132.52 56.6141 132.536 56.6141 132.536C56.6141 132.536 56.4352 132.602 56.2958 132.677C56.2401 132.707 56.1907 132.739 56.1615 132.768C56.1251 132.804 56.0832 132.875 56.0445 132.951C55.9748 133.088 55.9152 133.242 55.9152 133.242C55.9152 133.242 55.9038 133.08 55.9618 132.916C55.9887 132.84 56.0304 132.763 56.095 132.702C56.1444 132.655 56.2004 132.621 56.2568 132.596Z" fill="url(#paint113_linear_326_22)"/>
<path d="M59.2487 135.668C59.6863 135.215 59.5991 134.444 59.5991 134.444C59.5991 134.444 59.3122 135.289 59.0938 135.527C58.8754 135.765 58.1047 136.089 58.1047 136.089C58.1047 136.089 58.8111 136.121 59.2487 135.668Z" fill="url(#paint114_linear_326_22)"/>
<path fill-rule="evenodd" clip-rule="evenodd" d="M58.3315 135.987C58.1992 136.049 58.1047 136.089 58.1047 136.089C58.1047 136.089 58.2064 136.094 58.3565 136.075C58.602 136.044 58.9771 135.949 59.2487 135.668C59.5287 135.378 59.5938 134.958 59.6044 134.693C59.6104 134.544 59.5991 134.444 59.5991 134.444C59.5991 134.444 59.5667 134.54 59.5154 134.675C59.414 134.944 59.2388 135.369 59.0938 135.527C58.9519 135.682 58.5768 135.873 58.3315 135.987ZM58.6963 135.905C58.8655 135.847 59.0412 135.754 59.1842 135.606C59.345 135.439 59.4305 135.223 59.4742 135.019C59.4337 135.114 59.3897 135.21 59.3447 135.298C59.2865 135.412 59.2231 135.519 59.1599 135.588C59.0966 135.657 58.9988 135.727 58.8943 135.791C58.8315 135.83 58.764 135.869 58.6963 135.905Z" fill="url(#paint115_linear_326_22)"/>
<path d="M58.7001 135.221C58.9912 134.922 58.9358 134.412 58.9358 134.412C58.9358 134.412 58.7433 134.971 58.5979 135.127C58.4526 135.284 57.9414 135.496 57.9414 135.496C57.9414 135.496 58.4089 135.52 58.7001 135.221Z" fill="url(#paint116_linear_326_22)"/>
<path fill-rule="evenodd" clip-rule="evenodd" d="M58.188 135.384C58.0537 135.45 57.9414 135.496 57.9414 135.496C57.9414 135.496 58.0611 135.503 58.2171 135.47C58.3694 135.438 58.5563 135.369 58.7001 135.221C58.8523 135.065 58.9098 134.851 58.93 134.682C58.9484 134.528 58.9358 134.412 58.9358 134.412C58.9358 134.412 58.8976 134.523 58.8423 134.66C58.7736 134.83 58.6785 135.04 58.5979 135.127C58.5207 135.211 58.3402 135.31 58.188 135.384Z" fill="url(#paint117_linear_326_22)"/>
<path d="M58.2248 134.82C58.4214 134.618 58.384 134.274 58.384 134.274C58.384 134.274 58.254 134.651 58.1558 134.757C58.0576 134.863 57.7123 135.006 57.7123 135.006C57.7123 135.006 58.0281 135.022 58.2248 134.82Z" fill="url(#paint118_linear_326_22)"/>
<path fill-rule="evenodd" clip-rule="evenodd" d="M58.025 134.852C57.8886 134.933 57.7123 135.006 57.7123 135.006C57.7123 135.006 57.8937 135.015 58.0671 134.932C58.1225 134.905 58.1771 134.869 58.2248 134.82C58.287 134.756 58.3258 134.678 58.3497 134.601C58.4014 134.435 58.384 134.274 58.384 134.274C58.384 134.274 58.3302 134.429 58.2658 134.569C58.23 134.646 58.1908 134.719 58.1558 134.757C58.1277 134.787 58.0796 134.82 58.025 134.852Z" fill="url(#paint119_linear_326_22)"/>
<path d="M110.625 129.748H115.74V130.569H110.625V129.748Z" fill="url(#paint120_linear_326_22)"/>
<path d="M110.625 130.27H110.996V136.837H110.625V130.27Z" fill="url(#paint121_linear_326_22)"/>
<path d="M109.105 136.054L110.996 134.987V137.12L109.105 136.054Z" fill="url(#paint122_linear_326_22)"/>
<path d="M115.369 130.27H115.74V136.837H115.369V130.27Z" fill="url(#paint123_linear_326_22)"/>
<path d="M113.85 136.054L115.74 134.987V137.12L113.85 136.054Z" fill="url(#paint124_linear_326_22)"/>
<path d="M116.244 8.10923C116.68 8.10923 117.057 7.71518 117.057 7.2589L117.953 6.38783L117.057 5.51677C117.057 5.12271 116.839 4.83236 116.502 4.68718V3.48427C116.502 1.55548 115.014 0 113.17 0C111.346 0 109.859 1.55548 109.859 3.48427V4.68718C109.541 4.83236 109.303 5.14345 109.303 5.51677L108.369 6.38783L109.303 7.2589C109.303 7.71518 109.68 8.10923 110.136 8.10923C110.592 8.10923 110.969 7.71518 110.969 7.2589V5.51677C110.969 5.12271 110.731 4.83236 110.414 4.68718V3.48427C110.414 1.86657 111.643 0.580712 113.17 0.580712C114.717 0.580712 115.946 1.86657 115.946 3.48427V4.68718C115.649 4.83236 115.411 5.14345 115.411 5.51677V7.2589C115.411 7.71518 115.788 8.10923 116.244 8.10923Z" fill="url(#paint125_linear_326_22)"/>
<path d="M110.249 82.0845H111.704V86.4474H110.249V82.0845Z" fill="url(#paint126_linear_326_22)"/>
<path d="M112.432 82.0845H113.888V86.4474H112.432V82.0845Z" fill="url(#paint127_linear_326_22)"/>
<path d="M114.615 82.0845H116.071V86.4474H114.615V82.0845Z" fill="url(#paint128_linear_326_22)"/>
<path d="M115.052 83.9141H115.634V88.277H115.052V83.9141Z" fill="url(#paint129_linear_326_22)"/>
<path d="M112.869 83.9141H113.451V88.277H112.869V83.9141Z" fill="url(#paint130_linear_326_22)"/>
<path d="M110.686 83.9141H111.268V88.277H110.686V83.9141Z" fill="url(#paint131_linear_326_22)"/>
<path fill-rule="evenodd" clip-rule="evenodd" d="M116.903 82.1151H109.417V88.1783H116.903V82.1151ZM109.105 81.8293V88.4641H117.215V81.8293H109.105Z" fill="url(#paint132_linear_326_22)"/>
<path fill-rule="evenodd" clip-rule="evenodd" d="M113.681 56.082L114.126 56.0274L115.619 59.5547H117.953V59.9461H115.297L114.072 57.0514L113.623 63.3469L113.178 63.3994L111.88 60.2171L110.908 61.6442L109.655 59.9461H107.632V59.5547H109.909L110.892 60.8881L111.985 59.2837L113.235 62.3487L113.681 56.082Z" fill="url(#paint133_linear_326_22)"/>
<path d="M81.4987 0.992205H82.9542V5.35511H81.4987V0.992205Z" fill="url(#paint134_linear_326_22)"/>
<path d="M83.6819 0.992205H85.1374V5.35511H83.6819V0.992205Z" fill="url(#paint135_linear_326_22)"/>
<path d="M85.8652 0.992205H87.3207V5.35511H85.8652V0.992205Z" fill="url(#paint136_linear_326_22)"/>
<path d="M86.3018 2.82181H86.884V7.18471H86.3018V2.82181Z" fill="url(#paint137_linear_326_22)"/>
<path d="M84.1186 2.82181H84.7008V7.18471H84.1186V2.82181Z" fill="url(#paint138_linear_326_22)"/>
<path d="M81.9353 2.82181H82.5175V7.18471H81.9353V2.82181Z" fill="url(#paint139_linear_326_22)"/>
<path fill-rule="evenodd" clip-rule="evenodd" d="M88.1524 1.02283H80.6669V7.08604H88.1524V1.02283ZM80.355 0.737018V7.37184H88.4643V0.737018H80.355Z" fill="url(#paint140_linear_326_22)"/>
<path fill-rule="evenodd" clip-rule="evenodd" d="M58.3907 0.0600811L58.8354 0L60.3288 3.88006H62.662V4.31062H60.0068L58.7812 1.12642L58.3325 8.05153L57.887 8.10923L56.589 4.60868L55.6173 6.17849L54.3647 4.31062H52.3411V3.88006H54.618L55.6016 5.34682L56.694 3.58201L57.9441 6.95345L58.3907 0.0600811Z" fill="url(#paint141_linear_326_22)"/>
<path d="M33.6762 113.529C34.1124 113.529 34.4892 113.135 34.4892 112.679L35.3854 111.808L34.4892 110.937C34.4892 110.543 34.2711 110.253 33.934 110.107V108.904C33.934 106.976 32.4467 105.42 30.6026 105.42C28.7782 105.42 27.291 106.976 27.291 108.904V110.107C26.9737 110.253 26.7358 110.564 26.7358 110.937L25.8017 111.808L26.7358 112.679C26.7358 113.135 27.1125 113.529 27.5686 113.529C28.0247 113.529 28.4015 113.135 28.4015 112.679V110.937C28.4015 110.543 28.1635 110.253 27.8462 110.107V108.904C27.8462 107.287 29.0757 106.001 30.6026 106.001C32.1493 106.001 33.3787 107.287 33.3787 108.904V110.107C33.0813 110.253 32.8433 110.564 32.8433 110.937V112.679C32.8433 113.135 33.2201 113.529 33.6762 113.529Z" fill="url(#paint142_linear_326_22)"/>
<path fill-rule="evenodd" clip-rule="evenodd" d="M6.35471 105.48L6.76759 105.42L8.15434 109.3H10.3209V109.731H7.85533L6.71729 106.547L6.30068 113.472L5.88697 113.529L4.68167 110.029L3.77935 111.599L2.61624 109.731H0.737244V109.3H2.85143L3.76477 110.767L4.77918 109.002L5.94002 112.374L6.35471 105.48Z" fill="url(#paint143_linear_326_22)"/>
<path fill-rule="evenodd" clip-rule="evenodd" d="M143.474 105.48L143.887 105.42L145.274 109.3H147.441V109.731H144.975L143.837 106.547L143.42 113.472L143.007 113.529L141.801 110.029L140.899 111.599L139.736 109.731H137.857V109.3H139.971L140.884 110.767L141.899 109.002L143.06 112.374L143.474 105.48Z" fill="url(#paint144_linear_326_22)"/>
<path d="M116.244 113.529C116.68 113.529 117.057 113.135 117.057 112.679L117.953 111.808L117.057 110.937C117.057 110.543 116.839 110.253 116.502 110.107V108.904C116.502 106.976 115.014 105.42 113.17 105.42C111.346 105.42 109.859 106.976 109.859 108.904V110.107C109.541 110.253 109.303 110.564 109.303 110.937L108.369 111.808L109.303 112.679C109.303 113.135 109.68 113.529 110.136 113.529C110.592 113.529 110.969 113.135 110.969 112.679V110.937C110.969 110.543 110.731 110.253 110.414 110.107V108.904C110.414 107.287 111.643 106.001 113.17 106.001C114.717 106.001 115.946 107.287 115.946 108.904V110.107C115.649 110.253 115.411 110.564 115.411 110.937V112.679C115.411 113.135 115.788 113.529 116.244 113.529Z" fill="url(#paint145_linear_326_22)"/>
<path d="M81.4987 106.412H82.9542V110.775H81.4987V106.412Z" fill="url(#paint146_linear_326_22)"/>
<path d="M83.6819 106.412H85.1374V110.775H83.6819V106.412Z" fill="url(#paint147_linear_326_22)"/>
<path d="M85.8652 106.412H87.3207V110.775H85.8652V106.412Z" fill="url(#paint148_linear_326_22)"/>
<path d="M86.3018 108.242H86.884V112.605H86.3018V108.242Z" fill="url(#paint149_linear_326_22)"/>
<path d="M84.1186 108.242H84.7008V112.605H84.1186V108.242Z" fill="url(#paint150_linear_326_22)"/>
<path d="M81.9353 108.242H82.5175V112.605H81.9353V108.242Z" fill="url(#paint151_linear_326_22)"/>
<path fill-rule="evenodd" clip-rule="evenodd" d="M88.1524 106.443H80.6669V112.506H88.1524V106.443ZM80.355 106.157V112.792H88.4643V106.157H80.355Z" fill="url(#paint152_linear_326_22)"/>
<path fill-rule="evenodd" clip-rule="evenodd" d="M58.3907 105.48L58.8354 105.42L60.3288 109.3H62.662V109.731H60.0068L58.7812 106.547L58.3325 113.472L57.887 113.529L56.589 110.029L55.6173 111.599L54.3647 109.731H52.3411V109.3H54.618L55.6016 110.767L56.694 109.002L57.9441 112.374L58.3907 105.48Z" fill="url(#paint153_linear_326_22)"/>
<defs>
<linearGradient id="paint0_linear_326_22" x1="0.723916" y1="62.9435" x2="99.4024" y2="62.9435" gradientUnits="userSpaceOnUse">
<stop stop-color="#F3461B"/>
<stop offset="1" stop-color="#0DA6F2"/>
</linearGradient>
<linearGradient id="paint1_linear_326_22" x1="0.723916" y1="62.9435" x2="99.4024" y2="62.9435" gradientUnits="userSpaceOnUse">
<stop stop-color="#F3461B"/>
<stop offset="1" stop-color="#0DA6F2"/>
</linearGradient>
<linearGradient id="paint2_linear_326_22" x1="0.723916" y1="62.9435" x2="99.4024" y2="62.9435" gradientUnits="userSpaceOnUse">
<stop stop-color="#F3461B"/>
<stop offset="1" stop-color="#0DA6F2"/>
</linearGradient>
<linearGradient id="paint3_linear_326_22" x1="0.723916" y1="62.9435" x2="99.4024" y2="62.9435" gradientUnits="userSpaceOnUse">
<stop stop-color="#F3461B"/>
<stop offset="1" stop-color="#0DA6F2"/>
</linearGradient>
<linearGradient id="paint4_linear_326_22" x1="0.723916" y1="62.9435" x2="99.4024" y2="62.9435" gradientUnits="userSpaceOnUse">
<stop stop-color="#F3461B"/>
<stop offset="1" stop-color="#0DA6F2"/>
</linearGradient>
<linearGradient id="paint5_linear_326_22" x1="0.723916" y1="62.9435" x2="99.4024" y2="62.9435" gradientUnits="userSpaceOnUse">
<stop stop-color="#F3461B"/>
<stop offset="1" stop-color="#0DA6F2"/>
</linearGradient>
<linearGradient id="paint6_linear_326_22" x1="0.723916" y1="62.9435" x2="99.4024" y2="62.9435" gradientUnits="userSpaceOnUse">
<stop stop-color="#F3461B"/>
<stop offset="1" stop-color="#0DA6F2"/>
</linearGradient>
<linearGradient id="paint7_linear_326_22" x1="0.723916" y1="62.9435" x2="99.4024" y2="62.9435" gradientUnits="userSpaceOnUse">
<stop stop-color="#F3461B"/>
<stop offset="1" stop-color="#0DA6F2"/>
</linearGradient>
<linearGradient id="paint8_linear_326_22" x1="0.723916" y1="62.9435" x2="99.4024" y2="62.9435" gradientUnits="userSpaceOnUse">
<stop stop-color="#F3461B"/>
<stop offset="1" stop-color="#0DA6F2"/>
</linearGradient>
<linearGradient id="paint9_linear_326_22" x1="0.723916" y1="62.9435" x2="99.4024" y2="62.9435" gradientUnits="userSpaceOnUse">
<stop stop-color="#F3461B"/>
<stop offset="1" stop-color="#0DA6F2"/>
</linearGradient>
<linearGradient id="paint10_linear_326_22" x1="0.723916" y1="62.9435" x2="99.4024" y2="62.9435" gradientUnits="userSpaceOnUse">
<stop stop-color="#F3461B"/>
<stop offset="1" stop-color="#0DA6F2"/>
</linearGradient>
<linearGradient id="paint11_linear_326_22" x1="0.723916" y1="62.9435" x2="99.4024" y2="62.9435" gradientUnits="userSpaceOnUse">
<stop stop-color="#F3461B"/>
<stop offset="1" stop-color="#0DA6F2"/>
</linearGradient>
<linearGradient id="paint12_linear_326_22" x1="0.723916" y1="62.9435" x2="99.4024" y2="62.9435" gradientUnits="userSpaceOnUse">
<stop stop-color="#F3461B"/>
<stop offset="1" stop-color="#0DA6F2"/>
</linearGradient>
<linearGradient id="paint13_linear_326_22" x1="0.723916" y1="62.9435" x2="99.4024" y2="62.9435" gradientUnits="userSpaceOnUse">
<stop stop-color="#F3461B"/>
<stop offset="1" stop-color="#0DA6F2"/>
</linearGradient>
<linearGradient id="paint14_linear_326_22" x1="0.723916" y1="62.9435" x2="99.4024" y2="62.9435" gradientUnits="userSpaceOnUse">
<stop stop-color="#F3461B"/>
<stop offset="1" stop-color="#0DA6F2"/>
</linearGradient>
<linearGradient id="paint15_linear_326_22" x1="0.723916" y1="62.9435" x2="99.4024" y2="62.9435" gradientUnits="userSpaceOnUse">
<stop stop-color="#F3461B"/>
<stop offset="1" stop-color="#0DA6F2"/>
</linearGradient>
<linearGradient id="paint16_linear_326_22" x1="0.723916" y1="62.9435" x2="99.4024" y2="62.9435" gradientUnits="userSpaceOnUse">
<stop stop-color="#F3461B"/>
<stop offset="1" stop-color="#0DA6F2"/>
</linearGradient>
<linearGradient id="paint17_linear_326_22" x1="0.723916" y1="62.9435" x2="99.4024" y2="62.9435" gradientUnits="userSpaceOnUse">
<stop stop-color="#F3461B"/>
<stop offset="1" stop-color="#0DA6F2"/>
</linearGradient>
<linearGradient id="paint18_linear_326_22" x1="0.723916" y1="62.9435" x2="99.4024" y2="62.9435" gradientUnits="userSpaceOnUse">
<stop stop-color="#F3461B"/>
<stop offset="1" stop-color="#0DA6F2"/>
</linearGradient>
<linearGradient id="paint19_linear_326_22" x1="0.723916" y1="62.9435" x2="99.4024" y2="62.9435" gradientUnits="userSpaceOnUse">
<stop stop-color="#F3461B"/>
<stop offset="1" stop-color="#0DA6F2"/>
</linearGradient>
<linearGradient id="paint20_linear_326_22" x1="0.723916" y1="62.9435" x2="99.4024" y2="62.9435" gradientUnits="userSpaceOnUse">
<stop stop-color="#F3461B"/>
<stop offset="1" stop-color="#0DA6F2"/>
</linearGradient>
<linearGradient id="paint21_linear_326_22" x1="0.723916" y1="62.9435" x2="99.4024" y2="62.9435" gradientUnits="userSpaceOnUse">
<stop stop-color="#F3461B"/>
<stop offset="1" stop-color="#0DA6F2"/>
</linearGradient>
<linearGradient id="paint22_linear_326_22" x1="0.723916" y1="62.9435" x2="99.4024" y2="62.9435" gradientUnits="userSpaceOnUse">
<stop stop-color="#F3461B"/>
<stop offset="1" stop-color="#0DA6F2"/>
</linearGradient>
<linearGradient id="paint23_linear_326_22" x1="0.723916" y1="62.9435" x2="99.4024" y2="62.9435" gradientUnits="userSpaceOnUse">
<stop stop-color="#F3461B"/>
<stop offset="1" stop-color="#0DA6F2"/>
</linearGradient>
<linearGradient id="paint24_linear_326_22" x1="0.723916" y1="62.9435" x2="99.4024" y2="62.9435" gradientUnits="userSpaceOnUse">
<stop stop-color="#F3461B"/>
<stop offset="1" stop-color="#0DA6F2"/>
</linearGradient>
<linearGradient id="paint25_linear_326_22" x1="0.723916" y1="62.9435" x2="99.4024" y2="62.9435" gradientUnits="userSpaceOnUse">
<stop stop-color="#F3461B"/>
<stop offset="1" stop-color="#0DA6F2"/>
</linearGradient>
<linearGradient id="paint26_linear_326_22" x1="0.723916" y1="62.9435" x2="99.4024" y2="62.9435" gradientUnits="userSpaceOnUse">
<stop stop-color="#F3461B"/>
<stop offset="1" stop-color="#0DA6F2"/>
</linearGradient>
<linearGradient id="paint27_linear_326_22" x1="0.723916" y1="62.9435" x2="99.4024" y2="62.9435" gradientUnits="userSpaceOnUse">
<stop stop-color="#F3461B"/>
<stop offset="1" stop-color="#0DA6F2"/>
</linearGradient>
<linearGradient id="paint28_linear_326_22" x1="0.723916" y1="62.9435" x2="99.4024" y2="62.9435" gradientUnits="userSpaceOnUse">
<stop stop-color="#F3461B"/>
<stop offset="1" stop-color="#0DA6F2"/>
</linearGradient>
<linearGradient id="paint29_linear_326_22" x1="0.723916" y1="62.9435" x2="99.4024" y2="62.9435" gradientUnits="userSpaceOnUse">
<stop stop-color="#F3461B"/>
<stop offset="1" stop-color="#0DA6F2"/>
</linearGradient>
<linearGradient id="paint30_linear_326_22" x1="0.723916" y1="62.9435" x2="99.4024" y2="62.9435" gradientUnits="userSpaceOnUse">
<stop stop-color="#F3461B"/>
<stop offset="1" stop-color="#0DA6F2"/>
</linearGradient>
<linearGradient id="paint31_linear_326_22" x1="0.723916" y1="62.9435" x2="99.4024" y2="62.9435" gradientUnits="userSpaceOnUse">
<stop stop-color="#F3461B"/>
<stop offset="1" stop-color="#0DA6F2"/>
</linearGradient>
<linearGradient id="paint32_linear_326_22" x1="0.723916" y1="62.9435" x2="99.4024" y2="62.9435" gradientUnits="userSpaceOnUse">
<stop stop-color="#F3461B"/>
<stop offset="1" stop-color="#0DA6F2"/>
</linearGradient>
<linearGradient id="paint33_linear_326_22" x1="0.723916" y1="62.9435" x2="99.4024" y2="62.9435" gradientUnits="userSpaceOnUse">
<stop stop-color="#F3461B"/>
<stop offset="1" stop-color="#0DA6F2"/>
</linearGradient>
<linearGradient id="paint34_linear_326_22" x1="0.723916" y1="62.9435" x2="99.4024" y2="62.9435" gradientUnits="userSpaceOnUse">
<stop stop-color="#F3461B"/>
<stop offset="1" stop-color="#0DA6F2"/>
</linearGradient>
<linearGradient id="paint35_linear_326_22" x1="0.723916" y1="62.9435" x2="99.4024" y2="62.9435" gradientUnits="userSpaceOnUse">
<stop stop-color="#F3461B"/>
<stop offset="1" stop-color="#0DA6F2"/>
</linearGradient>
<linearGradient id="paint36_linear_326_22" x1="0.723916" y1="62.9435" x2="99.4024" y2="62.9435" gradientUnits="userSpaceOnUse">
<stop stop-color="#F3461B"/>
<stop offset="1" stop-color="#0DA6F2"/>
</linearGradient>
<linearGradient id="paint37_linear_326_22" x1="0.723916" y1="62.9435" x2="99.4024" y2="62.9435" gradientUnits="userSpaceOnUse">
<stop stop-color="#F3461B"/>
<stop offset="1" stop-color="#0DA6F2"/>
</linearGradient>
<linearGradient id="paint38_linear_326_22" x1="0.723916" y1="62.9435" x2="99.4024" y2="62.9435" gradientUnits="userSpaceOnUse">
<stop stop-color="#F3461B"/>
<stop offset="1" stop-color="#0DA6F2"/>
</linearGradient>
<linearGradient id="paint39_linear_326_22" x1="0.723916" y1="62.9435" x2="99.4024" y2="62.9435" gradientUnits="userSpaceOnUse">
<stop stop-color="#F3461B"/>
<stop offset="1" stop-color="#0DA6F2"/>
</linearGradient>
<linearGradient id="paint40_linear_326_22" x1="0.723916" y1="62.9435" x2="99.4024" y2="62.9435" gradientUnits="userSpaceOnUse">
<stop stop-color="#F3461B"/>
<stop offset="1" stop-color="#0DA6F2"/>
</linearGradient>
<linearGradient id="paint41_linear_326_22" x1="0.723916" y1="62.9435" x2="99.4024" y2="62.9435" gradientUnits="userSpaceOnUse">
<stop stop-color="#F3461B"/>
<stop offset="1" stop-color="#0DA6F2"/>
</linearGradient>
<linearGradient id="paint42_linear_326_22" x1="0.723916" y1="62.9435" x2="99.4024" y2="62.9435" gradientUnits="userSpaceOnUse">
<stop stop-color="#F3461B"/>
<stop offset="1" stop-color="#0DA6F2"/>
</linearGradient>
<linearGradient id="paint43_linear_326_22" x1="0.723916" y1="62.9435" x2="99.4024" y2="62.9435" gradientUnits="userSpaceOnUse">
<stop stop-color="#F3461B"/>
<stop offset="1" stop-color="#0DA6F2"/>
</linearGradient>
<linearGradient id="paint44_linear_326_22" x1="0.723916" y1="62.9435" x2="99.4024" y2="62.9435" gradientUnits="userSpaceOnUse">
<stop stop-color="#F3461B"/>
<stop offset="1" stop-color="#0DA6F2"/>
</linearGradient>
<linearGradient id="paint45_linear_326_22" x1="0.723916" y1="62.9435" x2="99.4024" y2="62.9435" gradientUnits="userSpaceOnUse">
<stop stop-color="#F3461B"/>
<stop offset="1" stop-color="#0DA6F2"/>
</linearGradient>
<linearGradient id="paint46_linear_326_22" x1="0.723916" y1="62.9435" x2="99.4024" y2="62.9435" gradientUnits="userSpaceOnUse">
<stop stop-color="#F3461B"/>
<stop offset="1" stop-color="#0DA6F2"/>
</linearGradient>
<linearGradient id="paint47_linear_326_22" x1="0.723916" y1="62.9435" x2="99.4024" y2="62.9435" gradientUnits="userSpaceOnUse">
<stop stop-color="#F3461B"/>
<stop offset="1" stop-color="#0DA6F2"/>
</linearGradient>
<linearGradient id="paint48_linear_326_22" x1="0.723916" y1="62.9435" x2="99.4024" y2="62.9435" gradientUnits="userSpaceOnUse">
<stop stop-color="#F3461B"/>
<stop offset="1" stop-color="#0DA6F2"/>
</linearGradient>
<linearGradient id="paint49_linear_326_22" x1="0.723916" y1="62.9435" x2="99.4024" y2="62.9435" gradientUnits="userSpaceOnUse">
<stop stop-color="#F3461B"/>
<stop offset="1" stop-color="#0DA6F2"/>
</linearGradient>
<linearGradient id="paint50_linear_326_22" x1="0.723916" y1="62.9435" x2="99.4024" y2="62.9435" gradientUnits="userSpaceOnUse">
<stop stop-color="#F3461B"/>
<stop offset="1" stop-color="#0DA6F2"/>
</linearGradient>
<linearGradient id="paint51_linear_326_22" x1="0.723916" y1="62.9435" x2="99.4024" y2="62.9435" gradientUnits="userSpaceOnUse">
<stop stop-color="#F3461B"/>
<stop offset="1" stop-color="#0DA6F2"/>
</linearGradient>
<linearGradient id="paint52_linear_326_22" x1="0.723916" y1="62.9435" x2="99.4024" y2="62.9435" gradientUnits="userSpaceOnUse">
<stop stop-color="#F3461B"/>
<stop offset="1" stop-color="#0DA6F2"/>
</linearGradient>
<linearGradient id="paint53_linear_326_22" x1="0.723916" y1="62.9435" x2="99.4024" y2="62.9435" gradientUnits="userSpaceOnUse">
<stop stop-color="#F3461B"/>
<stop offset="1" stop-color="#0DA6F2"/>
</linearGradient>
<linearGradient id="paint54_linear_326_22" x1="0.723916" y1="62.9435" x2="99.4024" y2="62.9435" gradientUnits="userSpaceOnUse">
<stop stop-color="#F3461B"/>
<stop offset="1" stop-color="#0DA6F2"/>
</linearGradient>
<linearGradient id="paint55_linear_326_22" x1="0.723916" y1="62.9435" x2="99.4024" y2="62.9435" gradientUnits="userSpaceOnUse">
<stop stop-color="#F3461B"/>
<stop offset="1" stop-color="#0DA6F2"/>
</linearGradient>
<linearGradient id="paint56_linear_326_22" x1="0.723916" y1="62.9435" x2="99.4024" y2="62.9435" gradientUnits="userSpaceOnUse">
<stop stop-color="#F3461B"/>
<stop offset="1" stop-color="#0DA6F2"/>
</linearGradient>
<linearGradient id="paint57_linear_326_22" x1="0.723916" y1="62.9435" x2="99.4024" y2="62.9435" gradientUnits="userSpaceOnUse">
<stop stop-color="#F3461B"/>
<stop offset="1" stop-color="#0DA6F2"/>
</linearGradient>
<linearGradient id="paint58_linear_326_22" x1="0.723916" y1="62.9435" x2="99.4024" y2="62.9435" gradientUnits="userSpaceOnUse">
<stop stop-color="#F3461B"/>
<stop offset="1" stop-color="#0DA6F2"/>
</linearGradient>
<linearGradient id="paint59_linear_326_22" x1="0.723916" y1="62.9435" x2="99.4024" y2="62.9435" gradientUnits="userSpaceOnUse">
<stop stop-color="#F3461B"/>
<stop offset="1" stop-color="#0DA6F2"/>
</linearGradient>
<linearGradient id="paint60_linear_326_22" x1="0.723916" y1="62.9435" x2="99.4024" y2="62.9435" gradientUnits="userSpaceOnUse">
<stop stop-color="#F3461B"/>
<stop offset="1" stop-color="#0DA6F2"/>
</linearGradient>
<linearGradient id="paint61_linear_326_22" x1="0.723916" y1="62.9435" x2="99.4024" y2="62.9435" gradientUnits="userSpaceOnUse">
<stop stop-color="#F3461B"/>
<stop offset="1" stop-color="#0DA6F2"/>
</linearGradient>
<linearGradient id="paint62_linear_326_22" x1="0.723916" y1="62.9435" x2="99.4024" y2="62.9435" gradientUnits="userSpaceOnUse">
<stop stop-color="#F3461B"/>
<stop offset="1" stop-color="#0DA6F2"/>
</linearGradient>
<linearGradient id="paint63_linear_326_22" x1="0.723916" y1="62.9435" x2="99.4024" y2="62.9435" gradientUnits="userSpaceOnUse">
<stop stop-color="#F3461B"/>
<stop offset="1" stop-color="#0DA6F2"/>
</linearGradient>
<linearGradient id="paint64_linear_326_22" x1="0.723916" y1="62.9435" x2="99.4024" y2="62.9435" gradientUnits="userSpaceOnUse">
<stop stop-color="#F3461B"/>
<stop offset="1" stop-color="#0DA6F2"/>
</linearGradient>
<linearGradient id="paint65_linear_326_22" x1="0.723916" y1="62.9435" x2="99.4024" y2="62.9435" gradientUnits="userSpaceOnUse">
<stop stop-color="#F3461B"/>
<stop offset="1" stop-color="#0DA6F2"/>
</linearGradient>
<linearGradient id="paint66_linear_326_22" x1="0.723916" y1="62.9435" x2="99.4024" y2="62.9435" gradientUnits="userSpaceOnUse">
<stop stop-color="#F3461B"/>
<stop offset="1" stop-color="#0DA6F2"/>
</linearGradient>
<linearGradient id="paint67_linear_326_22" x1="0.723916" y1="62.9435" x2="99.4024" y2="62.9435" gradientUnits="userSpaceOnUse">
<stop stop-color="#F3461B"/>
<stop offset="1" stop-color="#0DA6F2"/>
</linearGradient>
<linearGradient id="paint68_linear_326_22" x1="0.723916" y1="62.9435" x2="99.4024" y2="62.9435" gradientUnits="userSpaceOnUse">
<stop stop-color="#F3461B"/>
<stop offset="1" stop-color="#0DA6F2"/>
</linearGradient>
<linearGradient id="paint69_linear_326_22" x1="0.723916" y1="62.9435" x2="99.4024" y2="62.9435" gradientUnits="userSpaceOnUse">
<stop stop-color="#F3461B"/>
<stop offset="1" stop-color="#0DA6F2"/>
</linearGradient>
<linearGradient id="paint70_linear_326_22" x1="0.723916" y1="62.9435" x2="99.4024" y2="62.9435" gradientUnits="userSpaceOnUse">
<stop stop-color="#F3461B"/>
<stop offset="1" stop-color="#0DA6F2"/>
</linearGradient>
<linearGradient id="paint71_linear_326_22" x1="0.723916" y1="62.9435" x2="99.4024" y2="62.9435" gradientUnits="userSpaceOnUse">
<stop stop-color="#F3461B"/>
<stop offset="1" stop-color="#0DA6F2"/>
</linearGradient>
<linearGradient id="paint72_linear_326_22" x1="0.723916" y1="62.9435" x2="99.4024" y2="62.9435" gradientUnits="userSpaceOnUse">
<stop stop-color="#F3461B"/>
<stop offset="1" stop-color="#0DA6F2"/>
</linearGradient>
<linearGradient id="paint73_linear_326_22" x1="0.723916" y1="62.9435" x2="99.4024" y2="62.9435" gradientUnits="userSpaceOnUse">
<stop stop-color="#F3461B"/>
<stop offset="1" stop-color="#0DA6F2"/>
</linearGradient>
<linearGradient id="paint74_linear_326_22" x1="0.723916" y1="62.9435" x2="99.4024" y2="62.9435" gradientUnits="userSpaceOnUse">
<stop stop-color="#F3461B"/>
<stop offset="1" stop-color="#0DA6F2"/>
</linearGradient>
<linearGradient id="paint75_linear_326_22" x1="0.723916" y1="62.9435" x2="99.4024" y2="62.9435" gradientUnits="userSpaceOnUse">
<stop stop-color="#F3461B"/>
<stop offset="1" stop-color="#0DA6F2"/>
</linearGradient>
<linearGradient id="paint76_linear_326_22" x1="0.723916" y1="62.9435" x2="99.4024" y2="62.9435" gradientUnits="userSpaceOnUse">
<stop stop-color="#F3461B"/>
<stop offset="1" stop-color="#0DA6F2"/>
</linearGradient>
<linearGradient id="paint77_linear_326_22" x1="0.723916" y1="62.9435" x2="99.4024" y2="62.9435" gradientUnits="userSpaceOnUse">
<stop stop-color="#F3461B"/>
<stop offset="1" stop-color="#0DA6F2"/>
</linearGradient>
<linearGradient id="paint78_linear_326_22" x1="0.723916" y1="62.9435" x2="99.4024" y2="62.9435" gradientUnits="userSpaceOnUse">
<stop stop-color="#F3461B"/>
<stop offset="1" stop-color="#0DA6F2"/>
</linearGradient>
<linearGradient id="paint79_linear_326_22" x1="0.723916" y1="62.9435" x2="99.4024" y2="62.9435" gradientUnits="userSpaceOnUse">
<stop stop-color="#F3461B"/>
<stop offset="1" stop-color="#0DA6F2"/>
</linearGradient>
<linearGradient id="paint80_linear_326_22" x1="0.723916" y1="62.9435" x2="99.4024" y2="62.9435" gradientUnits="userSpaceOnUse">
<stop stop-color="#F3461B"/>
<stop offset="1" stop-color="#0DA6F2"/>
</linearGradient>
<linearGradient id="paint81_linear_326_22" x1="0.723916" y1="62.9435" x2="99.4024" y2="62.9435" gradientUnits="userSpaceOnUse">
<stop stop-color="#F3461B"/>
<stop offset="1" stop-color="#0DA6F2"/>
</linearGradient>
<linearGradient id="paint82_linear_326_22" x1="0.723916" y1="62.9435" x2="99.4024" y2="62.9435" gradientUnits="userSpaceOnUse">
<stop stop-color="#F3461B"/>
<stop offset="1" stop-color="#0DA6F2"/>
</linearGradient>
<linearGradient id="paint83_linear_326_22" x1="0.723916" y1="62.9435" x2="99.4024" y2="62.9435" gradientUnits="userSpaceOnUse">
<stop stop-color="#F3461B"/>
<stop offset="1" stop-color="#0DA6F2"/>
</linearGradient>
<linearGradient id="paint84_linear_326_22" x1="0.723916" y1="62.9435" x2="99.4024" y2="62.9435" gradientUnits="userSpaceOnUse">
<stop stop-color="#F3461B"/>
<stop offset="1" stop-color="#0DA6F2"/>
</linearGradient>
<linearGradient id="paint85_linear_326_22" x1="0.723916" y1="62.9435" x2="99.4024" y2="62.9435" gradientUnits="userSpaceOnUse">
<stop stop-color="#F3461B"/>
<stop offset="1" stop-color="#0DA6F2"/>
</linearGradient>
<linearGradient id="paint86_linear_326_22" x1="0.723916" y1="62.9435" x2="99.4024" y2="62.9435" gradientUnits="userSpaceOnUse">
<stop stop-color="#F3461B"/>
<stop offset="1" stop-color="#0DA6F2"/>
</linearGradient>
<linearGradient id="paint87_linear_326_22" x1="0.723916" y1="62.9435" x2="99.4024" y2="62.9435" gradientUnits="userSpaceOnUse">
<stop stop-color="#F3461B"/>
<stop offset="1" stop-color="#0DA6F2"/>
</linearGradient>
<linearGradient id="paint88_linear_326_22" x1="0.723916" y1="62.9435" x2="99.4024" y2="62.9435" gradientUnits="userSpaceOnUse">
<stop stop-color="#F3461B"/>
<stop offset="1" stop-color="#0DA6F2"/>
</linearGradient>
<linearGradient id="paint89_linear_326_22" x1="0.723916" y1="62.9435" x2="99.4024" y2="62.9435" gradientUnits="userSpaceOnUse">
<stop stop-color="#F3461B"/>
<stop offset="1" stop-color="#0DA6F2"/>
</linearGradient>
<linearGradient id="paint90_linear_326_22" x1="0.723916" y1="62.9435" x2="99.4024" y2="62.9435" gradientUnits="userSpaceOnUse">
<stop stop-color="#F3461B"/>
<stop offset="1" stop-color="#0DA6F2"/>
</linearGradient>
<linearGradient id="paint91_linear_326_22" x1="0.723916" y1="62.9435" x2="99.4024" y2="62.9435" gradientUnits="userSpaceOnUse">
<stop stop-color="#F3461B"/>
<stop offset="1" stop-color="#0DA6F2"/>
</linearGradient>
<linearGradient id="paint92_linear_326_22" x1="0.723916" y1="62.9435" x2="99.4024" y2="62.9435" gradientUnits="userSpaceOnUse">
<stop stop-color="#F3461B"/>
<stop offset="1" stop-color="#0DA6F2"/>
</linearGradient>
<linearGradient id="paint93_linear_326_22" x1="0.723916" y1="62.9435" x2="99.4024" y2="62.9435" gradientUnits="userSpaceOnUse">
<stop stop-color="#F3461B"/>
<stop offset="1" stop-color="#0DA6F2"/>
</linearGradient>
<linearGradient id="paint94_linear_326_22" x1="0.723916" y1="62.9435" x2="99.4024" y2="62.9435" gradientUnits="userSpaceOnUse">
<stop stop-color="#F3461B"/>
<stop offset="1" stop-color="#0DA6F2"/>
</linearGradient>
<linearGradient id="paint95_linear_326_22" x1="0.723916" y1="62.9435" x2="99.4024" y2="62.9435" gradientUnits="userSpaceOnUse">
<stop stop-color="#F3461B"/>
<stop offset="1" stop-color="#0DA6F2"/>
</linearGradient>
<linearGradient id="paint96_linear_326_22" x1="0.723916" y1="62.9435" x2="99.4024" y2="62.9435" gradientUnits="userSpaceOnUse">
<stop stop-color="#F3461B"/>
<stop offset="1" stop-color="#0DA6F2"/>
</linearGradient>
<linearGradient id="paint97_linear_326_22" x1="0.723916" y1="62.9435" x2="99.4024" y2="62.9435" gradientUnits="userSpaceOnUse">
<stop stop-color="#F3461B"/>
<stop offset="1" stop-color="#0DA6F2"/>
</linearGradient>
<linearGradient id="paint98_linear_326_22" x1="0.723916" y1="62.9435" x2="99.4024" y2="62.9435" gradientUnits="userSpaceOnUse">
<stop stop-color="#F3461B"/>
<stop offset="1" stop-color="#0DA6F2"/>
</linearGradient>
<linearGradient id="paint99_linear_326_22" x1="0.723916" y1="62.9435" x2="99.4024" y2="62.9435" gradientUnits="userSpaceOnUse">
<stop stop-color="#F3461B"/>
<stop offset="1" stop-color="#0DA6F2"/>
</linearGradient>
<linearGradient id="paint100_linear_326_22" x1="0.723916" y1="62.9435" x2="99.4024" y2="62.9435" gradientUnits="userSpaceOnUse">
<stop stop-color="#F3461B"/>
<stop offset="1" stop-color="#0DA6F2"/>
</linearGradient>
<linearGradient id="paint101_linear_326_22" x1="0.723916" y1="62.9435" x2="99.4024" y2="62.9435" gradientUnits="userSpaceOnUse">
<stop stop-color="#F3461B"/>
<stop offset="1" stop-color="#0DA6F2"/>
</linearGradient>
<linearGradient id="paint102_linear_326_22" x1="0.723916" y1="62.9435" x2="99.4024" y2="62.9435" gradientUnits="userSpaceOnUse">
<stop stop-color="#F3461B"/>
<stop offset="1" stop-color="#0DA6F2"/>
</linearGradient>
<linearGradient id="paint103_linear_326_22" x1="0.723916" y1="62.9435" x2="99.4024" y2="62.9435" gradientUnits="userSpaceOnUse">
<stop stop-color="#F3461B"/>
<stop offset="1" stop-color="#0DA6F2"/>
</linearGradient>
<linearGradient id="paint104_linear_326_22" x1="0.723916" y1="62.9435" x2="99.4024" y2="62.9435" gradientUnits="userSpaceOnUse">
<stop stop-color="#F3461B"/>
<stop offset="1" stop-color="#0DA6F2"/>
</linearGradient>
<linearGradient id="paint105_linear_326_22" x1="0.723916" y1="62.9435" x2="99.4024" y2="62.9435" gradientUnits="userSpaceOnUse">
<stop stop-color="#F3461B"/>
<stop offset="1" stop-color="#0DA6F2"/>
</linearGradient>
<linearGradient id="paint106_linear_326_22" x1="0.723916" y1="62.9435" x2="99.4024" y2="62.9435" gradientUnits="userSpaceOnUse">
<stop stop-color="#F3461B"/>
<stop offset="1" stop-color="#0DA6F2"/>
</linearGradient>
<linearGradient id="paint107_linear_326_22" x1="0.723916" y1="62.9435" x2="99.4024" y2="62.9435" gradientUnits="userSpaceOnUse">
<stop stop-color="#F3461B"/>
<stop offset="1" stop-color="#0DA6F2"/>
</linearGradient>
<linearGradient id="paint108_linear_326_22" x1="0.723916" y1="62.9435" x2="99.4024" y2="62.9435" gradientUnits="userSpaceOnUse">
<stop stop-color="#F3461B"/>
<stop offset="1" stop-color="#0DA6F2"/>
</linearGradient>
<linearGradient id="paint109_linear_326_22" x1="0.723916" y1="62.9435" x2="99.4024" y2="62.9435" gradientUnits="userSpaceOnUse">
<stop stop-color="#F3461B"/>
<stop offset="1" stop-color="#0DA6F2"/>
</linearGradient>
<linearGradient id="paint110_linear_326_22" x1="0.723916" y1="62.9435" x2="99.4024" y2="62.9435" gradientUnits="userSpaceOnUse">
<stop stop-color="#F3461B"/>
<stop offset="1" stop-color="#0DA6F2"/>
</linearGradient>
<linearGradient id="paint111_linear_326_22" x1="0.723916" y1="62.9435" x2="99.4024" y2="62.9435" gradientUnits="userSpaceOnUse">
<stop stop-color="#F3461B"/>
<stop offset="1" stop-color="#0DA6F2"/>
</linearGradient>
<linearGradient id="paint112_linear_326_22" x1="0.723916" y1="62.9435" x2="99.4024" y2="62.9435" gradientUnits="userSpaceOnUse">
<stop stop-color="#F3461B"/>
<stop offset="1" stop-color="#0DA6F2"/>
</linearGradient>
<linearGradient id="paint113_linear_326_22" x1="0.723916" y1="62.9435" x2="99.4024" y2="62.9435" gradientUnits="userSpaceOnUse">
<stop stop-color="#F3461B"/>
<stop offset="1" stop-color="#0DA6F2"/>
</linearGradient>
<linearGradient id="paint114_linear_326_22" x1="0.723916" y1="62.9435" x2="99.4024" y2="62.9435" gradientUnits="userSpaceOnUse">
<stop stop-color="#F3461B"/>
<stop offset="1" stop-color="#0DA6F2"/>
</linearGradient>
<linearGradient id="paint115_linear_326_22" x1="0.723916" y1="62.9435" x2="99.4024" y2="62.9435" gradientUnits="userSpaceOnUse">
<stop stop-color="#F3461B"/>
<stop offset="1" stop-color="#0DA6F2"/>
</linearGradient>
<linearGradient id="paint116_linear_326_22" x1="0.723916" y1="62.9435" x2="99.4024" y2="62.9435" gradientUnits="userSpaceOnUse">
<stop stop-color="#F3461B"/>
<stop offset="1" stop-color="#0DA6F2"/>
</linearGradient>
<linearGradient id="paint117_linear_326_22" x1="0.723916" y1="62.9435" x2="99.4024" y2="62.9435" gradientUnits="userSpaceOnUse">
<stop stop-color="#F3461B"/>
<stop offset="1" stop-color="#0DA6F2"/>
</linearGradient>
<linearGradient id="paint118_linear_326_22" x1="0.723916" y1="62.9435" x2="99.4024" y2="62.9435" gradientUnits="userSpaceOnUse">
<stop stop-color="#F3461B"/>
<stop offset="1" stop-color="#0DA6F2"/>
</linearGradient>
<linearGradient id="paint119_linear_326_22" x1="0.723916" y1="62.9435" x2="99.4024" y2="62.9435" gradientUnits="userSpaceOnUse">
<stop stop-color="#F3461B"/>
<stop offset="1" stop-color="#0DA6F2"/>
</linearGradient>
<linearGradient id="paint120_linear_326_22" x1="0.723916" y1="62.9435" x2="99.4024" y2="62.9435" gradientUnits="userSpaceOnUse">
<stop stop-color="#F3461B"/>
<stop offset="1" stop-color="#0DA6F2"/>
</linearGradient>
<linearGradient id="paint121_linear_326_22" x1="0.723916" y1="62.9435" x2="99.4024" y2="62.9435" gradientUnits="userSpaceOnUse">
<stop stop-color="#F3461B"/>
<stop offset="1" stop-color="#0DA6F2"/>
</linearGradient>
<linearGradient id="paint122_linear_326_22" x1="0.723916" y1="62.9435" x2="99.4024" y2="62.9435" gradientUnits="userSpaceOnUse">
<stop stop-color="#F3461B"/>
<stop offset="1" stop-color="#0DA6F2"/>
</linearGradient>
<linearGradient id="paint123_linear_326_22" x1="0.723916" y1="62.9435" x2="99.4024" y2="62.9435" gradientUnits="userSpaceOnUse">
<stop stop-color="#F3461B"/>
<stop offset="1" stop-color="#0DA6F2"/>
</linearGradient>
<linearGradient id="paint124_linear_326_22" x1="0.723916" y1="62.9435" x2="99.4024" y2="62.9435" gradientUnits="userSpaceOnUse">
<stop stop-color="#F3461B"/>
<stop offset="1" stop-color="#0DA6F2"/>
</linearGradient>
<linearGradient id="paint125_linear_326_22" x1="0.723916" y1="62.9435" x2="99.4024" y2="62.9435" gradientUnits="userSpaceOnUse">
<stop stop-color="#F3461B"/>
<stop offset="1" stop-color="#0DA6F2"/>
</linearGradient>
<linearGradient id="paint126_linear_326_22" x1="0.723916" y1="62.9435" x2="99.4024" y2="62.9435" gradientUnits="userSpaceOnUse">
<stop stop-color="#F3461B"/>
<stop offset="1" stop-color="#0DA6F2"/>
</linearGradient>
<linearGradient id="paint127_linear_326_22" x1="0.723916" y1="62.9435" x2="99.4024" y2="62.9435" gradientUnits="userSpaceOnUse">
<stop stop-color="#F3461B"/>
<stop offset="1" stop-color="#0DA6F2"/>
</linearGradient>
<linearGradient id="paint128_linear_326_22" x1="0.723916" y1="62.9435" x2="99.4024" y2="62.9435" gradientUnits="userSpaceOnUse">
<stop stop-color="#F3461B"/>
<stop offset="1" stop-color="#0DA6F2"/>
</linearGradient>
<linearGradient id="paint129_linear_326_22" x1="0.723916" y1="62.9435" x2="99.4024" y2="62.9435" gradientUnits="userSpaceOnUse">
<stop stop-color="#F3461B"/>
<stop offset="1" stop-color="#0DA6F2"/>
</linearGradient>
<linearGradient id="paint130_linear_326_22" x1="0.723916" y1="62.9435" x2="99.4024" y2="62.9435" gradientUnits="userSpaceOnUse">
<stop stop-color="#F3461B"/>
<stop offset="1" stop-color="#0DA6F2"/>
</linearGradient>
<linearGradient id="paint131_linear_326_22" x1="0.723916" y1="62.9435" x2="99.4024" y2="62.9435" gradientUnits="userSpaceOnUse">
<stop stop-color="#F3461B"/>
<stop offset="1" stop-color="#0DA6F2"/>
</linearGradient>
<linearGradient id="paint132_linear_326_22" x1="0.723916" y1="62.9435" x2="99.4024" y2="62.9435" gradientUnits="userSpaceOnUse">
<stop stop-color="#F3461B"/>
<stop offset="1" stop-color="#0DA6F2"/>
</linearGradient>
<linearGradient id="paint133_linear_326_22" x1="0.723916" y1="62.9435" x2="99.4024" y2="62.9435" gradientUnits="userSpaceOnUse">
<stop stop-color="#F3461B"/>
<stop offset="1" stop-color="#0DA6F2"/>
</linearGradient>
<linearGradient id="paint134_linear_326_22" x1="0.723916" y1="62.9435" x2="99.4024" y2="62.9435" gradientUnits="userSpaceOnUse">
<stop stop-color="#F3461B"/>
<stop offset="1" stop-color="#0DA6F2"/>
</linearGradient>
<linearGradient id="paint135_linear_326_22" x1="0.723916" y1="62.9435" x2="99.4024" y2="62.9435" gradientUnits="userSpaceOnUse">
<stop stop-color="#F3461B"/>
<stop offset="1" stop-color="#0DA6F2"/>
</linearGradient>
<linearGradient id="paint136_linear_326_22" x1="0.723916" y1="62.9435" x2="99.4024" y2="62.9435" gradientUnits="userSpaceOnUse">
<stop stop-color="#F3461B"/>
<stop offset="1" stop-color="#0DA6F2"/>
</linearGradient>
<linearGradient id="paint137_linear_326_22" x1="0.723916" y1="62.9435" x2="99.4024" y2="62.9435" gradientUnits="userSpaceOnUse">
<stop stop-color="#F3461B"/>
<stop offset="1" stop-color="#0DA6F2"/>
</linearGradient>
<linearGradient id="paint138_linear_326_22" x1="0.723916" y1="62.9435" x2="99.4024" y2="62.9435" gradientUnits="userSpaceOnUse">
<stop stop-color="#F3461B"/>
<stop offset="1" stop-color="#0DA6F2"/>
</linearGradient>
<linearGradient id="paint139_linear_326_22" x1="0.723916" y1="62.9435" x2="99.4024" y2="62.9435" gradientUnits="userSpaceOnUse">
<stop stop-color="#F3461B"/>
<stop offset="1" stop-color="#0DA6F2"/>
</linearGradient>
<linearGradient id="paint140_linear_326_22" x1="0.723916" y1="62.9435" x2="99.4024" y2="62.9435" gradientUnits="userSpaceOnUse">
<stop stop-color="#F3461B"/>
<stop offset="1" stop-color="#0DA6F2"/>
</linearGradient>
<linearGradient id="paint141_linear_326_22" x1="0.723916" y1="62.9435" x2="99.4024" y2="62.9435" gradientUnits="userSpaceOnUse">
<stop stop-color="#F3461B"/>
<stop offset="1" stop-color="#0DA6F2"/>
</linearGradient>
<linearGradient id="paint142_linear_326_22" x1="0.723916" y1="62.9435" x2="99.4024" y2="62.9435" gradientUnits="userSpaceOnUse">
<stop stop-color="#F3461B"/>
<stop offset="1" stop-color="#0DA6F2"/>
</linearGradient>
<linearGradient id="paint143_linear_326_22" x1="0.723916" y1="62.9435" x2="99.4024" y2="62.9435" gradientUnits="userSpaceOnUse">
<stop stop-color="#F3461B"/>
<stop offset="1" stop-color="#0DA6F2"/>
</linearGradient>
<linearGradient id="paint144_linear_326_22" x1="0.723916" y1="62.9435" x2="99.4024" y2="62.9435" gradientUnits="userSpaceOnUse">
<stop stop-color="#F3461B"/>
<stop offset="1" stop-color="#0DA6F2"/>
</linearGradient>
<linearGradient id="paint145_linear_326_22" x1="0.723916" y1="62.9435" x2="99.4024" y2="62.9435" gradientUnits="userSpaceOnUse">
<stop stop-color="#F3461B"/>
<stop offset="1" stop-color="#0DA6F2"/>
</linearGradient>
<linearGradient id="paint146_linear_326_22" x1="0.723916" y1="62.9435" x2="99.4024" y2="62.9435" gradientUnits="userSpaceOnUse">
<stop stop-color="#F3461B"/>
<stop offset="1" stop-color="#0DA6F2"/>
</linearGradient>
<linearGradient id="paint147_linear_326_22" x1="0.723916" y1="62.9435" x2="99.4024" y2="62.9435" gradientUnits="userSpaceOnUse">
<stop stop-color="#F3461B"/>
<stop offset="1" stop-color="#0DA6F2"/>
</linearGradient>
<linearGradient id="paint148_linear_326_22" x1="0.723916" y1="62.9435" x2="99.4024" y2="62.9435" gradientUnits="userSpaceOnUse">
<stop stop-color="#F3461B"/>
<stop offset="1" stop-color="#0DA6F2"/>
</linearGradient>
<linearGradient id="paint149_linear_326_22" x1="0.723916" y1="62.9435" x2="99.4024" y2="62.9435" gradientUnits="userSpaceOnUse">
<stop stop-color="#F3461B"/>
<stop offset="1" stop-color="#0DA6F2"/>
</linearGradient>
<linearGradient id="paint150_linear_326_22" x1="0.723916" y1="62.9435" x2="99.4024" y2="62.9435" gradientUnits="userSpaceOnUse">
<stop stop-color="#F3461B"/>
<stop offset="1" stop-color="#0DA6F2"/>
</linearGradient>
<linearGradient id="paint151_linear_326_22" x1="0.723916" y1="62.9435" x2="99.4024" y2="62.9435" gradientUnits="userSpaceOnUse">
<stop stop-color="#F3461B"/>
<stop offset="1" stop-color="#0DA6F2"/>
</linearGradient>
<linearGradient id="paint152_linear_326_22" x1="0.723916" y1="62.9435" x2="99.4024" y2="62.9435" gradientUnits="userSpaceOnUse">
<stop stop-color="#F3461B"/>
<stop offset="1" stop-color="#0DA6F2"/>
</linearGradient>
<linearGradient id="paint153_linear_326_22" x1="0.723916" y1="62.9435" x2="99.4024" y2="62.9435" gradientUnits="userSpaceOnUse">
<stop stop-color="#F3461B"/>
<stop offset="1" stop-color="#0DA6F2"/>
</linearGradient>
</defs>
</svg>
