<svg width="
104" height="130" viewBox="0 0 363 452" fill="none" xmlns="http://www.w3.org/2000/svg">
<path d="M263.462 216.073L263.46 216.077C258.878 226.898 252.527 236.362 244.406 244.475C236.285 252.588 226.809 259.038 215.975 263.826C205.151 268.4 193.597 270.688 181.307 270.688H91.6533V91.5628H181.307C193.595 91.5628 205.149 93.9552 215.972 98.7377L215.98 98.7409C226.811 103.319 236.285 109.664 244.406 117.776C252.525 125.887 258.876 135.455 263.459 146.485L263.464 146.495C268.251 157.308 270.646 168.849 270.646 181.126C270.646 193.402 268.251 205.049 263.462 216.073ZM91.1533 451.5H91.6533V451V361.437H181.307C206.082 361.437 229.395 356.718 251.239 347.276C273.284 337.837 292.499 324.936 308.88 308.571C325.26 292.208 338.174 273.117 347.622 251.303L347.623 251.302C357.074 229.271 361.799 205.877 361.799 181.126C361.799 164.555 359.595 148.611 355.184 133.293C350.985 117.981 344.895 103.61 336.915 90.1832C329.145 76.7565 319.694 64.5881 308.565 53.6791C297.646 42.562 285.467 33.1221 272.028 25.3602C258.797 17.3877 244.516 11.304 229.189 7.10861C213.855 2.70242 197.894 0.5 181.307 0.5H1H0.5V1V451V451.5H1H91.1533Z" stroke="url(#paint0_linear_371_609)" stroke-opacity="0.3"/>
<defs>
<linearGradient id="paint0_linear_371_609" x1="1" y1="226" x2="361.54" y2="226" gradientUnits="userSpaceOnUse">
<stop stop-color="#F3461B"/>
<stop offset="1" stop-color="#0DA6F2"/>
</linearGradient>
</defs>
</svg>
