<svg xmlns="http://www.w3.org/2000/svg" fill="none" viewBox="0 0 363 452"><path stroke="url(#a)" stroke-opacity=".3" d="m263.462 216.073-.002.004c-4.582 10.821-10.933 20.285-19.054 28.398-8.121 8.113-17.597 14.563-28.431 19.351-10.824 4.574-22.378 6.862-34.668 6.862H91.653V91.563h89.654c12.288 0 23.842 2.392 34.665 7.175l.008.003c10.831 4.578 20.305 10.923 28.426 19.035 8.119 8.111 14.47 17.679 19.053 28.709l.005.01c4.787 10.813 7.182 22.354 7.182 34.631 0 12.276-2.395 23.923-7.184 34.947ZM91.153 451.5h.5v-90.063h89.654c24.775 0 48.088-4.719 69.932-14.161 22.045-9.439 41.26-22.34 57.641-38.705 16.38-16.363 29.294-35.454 38.742-57.268l.001-.001c9.451-22.031 14.176-45.425 14.176-70.176 0-16.571-2.204-32.515-6.615-47.833-4.199-15.312-10.289-29.683-18.269-43.11-7.77-13.427-17.221-25.595-28.35-36.504-10.919-11.117-23.098-20.557-36.537-28.319-13.231-7.972-27.512-14.056-42.839-18.251C213.855 2.702 197.894.5 181.307.5H.5v451h90.653Z"/><defs><linearGradient id="a" x1="1" x2="361.54" y1="226" y2="226" gradientUnits="userSpaceOnUse"><stop stop-color="#F3461B"/><stop offset="1" stop-color="#0DA6F2"/></linearGradient></defs></svg>