<svg width="278" height="260" viewBox="0 0 278 260" fill="none" xmlns="http://www.w3.org/2000/svg">
<path d="M52.9057 53.1182H62.5502V54.6746H52.9057V53.1182Z" fill="url(#paint0_linear_484_176)"/>
<path d="M52.9057 54.1086H53.6046V66.5604H52.9057V54.1086Z" fill="url(#paint1_linear_484_176)"/>
<path d="M50.0402 65.0747L53.6045 63.0528V67.0966L50.0402 65.0747Z" fill="url(#paint2_linear_484_176)"/>
<path d="M61.8513 54.1086H62.5502V66.5604H61.8513V54.1086Z" fill="url(#paint3_linear_484_176)"/>
<path d="M58.9859 65.0747L62.5502 63.0528V67.0966L58.9859 65.0747Z" fill="url(#paint4_linear_484_176)"/>
<path d="M154.694 106.236H165.41V107.793H154.694V106.236Z" fill="url(#paint5_linear_484_176)"/>
<path d="M154.694 107.227H155.47V119.679H154.694V107.227Z" fill="url(#paint6_linear_484_176)"/>
<path d="M151.51 118.193L155.47 116.171V120.215L151.51 118.193Z" fill="url(#paint7_linear_484_176)"/>
<path d="M164.633 107.227H165.41V119.679H164.633V107.227Z" fill="url(#paint8_linear_484_176)"/>
<path d="M161.45 118.193L165.41 116.171V120.215L161.45 118.193Z" fill="url(#paint9_linear_484_176)"/>
<path d="M7.3532 153.763H18.0694V155.475H7.3532V153.763Z" fill="url(#paint10_linear_484_176)"/>
<path d="M7.3532 154.853H8.12974V168.55H7.3532V154.853Z" fill="url(#paint11_linear_484_176)"/>
<path d="M4.16938 166.915L8.12971 164.691V169.14L4.16938 166.915Z" fill="url(#paint12_linear_484_176)"/>
<path d="M17.2928 154.853H18.0694V168.55H17.2928V154.853Z" fill="url(#paint13_linear_484_176)"/>
<path d="M14.109 166.915L18.0694 164.691V169.14L14.109 166.915Z" fill="url(#paint14_linear_484_176)"/>
<path d="M6.12964 54.9466H8.62451V62.3001H6.12964V54.9466Z" fill="url(#paint15_linear_484_176)"/>
<path d="M9.87195 54.9466H12.3668V62.3001H9.87195V54.9466Z" fill="url(#paint16_linear_484_176)"/>
<path d="M13.6143 54.9466H16.1091V62.3001H13.6143V54.9466Z" fill="url(#paint17_linear_484_176)"/>
<path d="M14.3627 58.0304H15.3607V65.3839H14.3627V58.0304Z" fill="url(#paint18_linear_484_176)"/>
<path d="M10.6204 58.0304H11.6184V65.3839H10.6204V58.0304Z" fill="url(#paint19_linear_484_176)"/>
<path d="M6.8781 58.0304H7.87605V65.3839H6.8781V58.0304Z" fill="url(#paint20_linear_484_176)"/>
<path fill-rule="evenodd" clip-rule="evenodd" d="M17.5348 54.9982H4.704V65.2176H17.5348V54.9982ZM4.16938 54.5165V65.6993H18.0694V54.5165H4.16938Z" fill="url(#paint21_linear_484_176)"/>
<path d="M63.4967 15.3763C64.3192 15.3763 65.0296 14.6291 65.0296 13.764L66.7193 12.1123L65.0296 10.4606C65.0296 9.71343 64.6183 9.16287 63.9827 8.88759V6.60671C63.9827 2.94942 61.1785 0 57.7013 0C54.2615 0 51.4574 2.94942 51.4574 6.60671V8.88759C50.8591 9.16287 50.4105 9.75276 50.4105 10.4606L48.6493 12.1123L50.4105 13.764C50.4105 14.6291 51.1209 15.3763 51.9808 15.3763C52.8408 15.3763 53.5511 14.6291 53.5511 13.764V10.4606C53.5511 9.71343 53.1025 9.16287 52.5042 8.88759V6.60671C52.5042 3.53931 54.8224 1.10112 57.7013 1.10112C60.6177 1.10112 62.9358 3.53931 62.9358 6.60671V8.88759C62.375 9.16287 61.9263 9.75276 61.9263 10.4606V13.764C61.9263 14.6291 62.6367 15.3763 63.4967 15.3763Z" fill="url(#paint22_linear_484_176)"/>
<path d="M166.357 67.0966C167.18 67.0966 167.89 66.4174 167.89 65.6309L169.58 64.1293L167.89 62.6278C167.89 61.9486 167.479 61.448 166.843 61.1978V59.1243C166.843 55.7994 164.039 53.1182 160.562 53.1182C157.122 53.1182 154.318 55.7994 154.318 59.1243V61.1978C153.72 61.448 153.271 61.9843 153.271 62.6278L151.51 64.1293L153.271 65.6309C153.271 66.4174 153.981 67.0966 154.841 67.0966C155.701 67.0966 156.412 66.4174 156.412 65.6309V62.6278C156.412 61.9486 155.963 61.448 155.365 61.1978V59.1243C155.365 56.3357 157.683 54.1192 160.562 54.1192C163.478 54.1192 165.796 56.3357 165.796 59.1243V61.1978C165.236 61.448 164.787 61.9843 164.787 62.6278V65.6309C164.787 66.4174 165.497 67.0966 166.357 67.0966Z" fill="url(#paint23_linear_484_176)"/>
<path d="M166.357 167.742C167.18 167.742 167.89 166.995 167.89 166.13L169.58 164.478L167.89 162.826C167.89 162.079 167.479 161.529 166.843 161.253V158.972C166.843 155.315 164.039 152.366 160.562 152.366C157.122 152.366 154.318 155.315 154.318 158.972V161.253C153.72 161.529 153.271 162.118 153.271 162.826L151.51 164.478L153.271 166.13C153.271 166.995 153.981 167.742 154.841 167.742C155.701 167.742 156.412 166.995 156.412 166.13V162.826C156.412 162.079 155.963 161.529 155.365 161.253V158.972C155.365 155.905 157.683 153.467 160.562 153.467C163.478 153.467 165.796 155.905 165.796 158.972V161.253C165.236 161.529 164.787 162.118 164.787 162.826V166.13C164.787 166.995 165.497 167.742 166.357 167.742Z" fill="url(#paint24_linear_484_176)"/>
<path fill-rule="evenodd" clip-rule="evenodd" d="M14.1665 113.378C14.1665 115.261 12.77 116.837 11.102 116.837C9.43404 116.837 8.03757 115.261 8.03757 113.378V106.899C8.03757 105.016 9.43404 103.44 11.102 103.44C12.8088 103.44 14.1665 105.016 14.1665 106.899V113.378Z" fill="url(#paint25_linear_484_176)"/>
<path fill-rule="evenodd" clip-rule="evenodd" d="M12.8854 121.74H11.6829V118.107C11.9544 118.107 12.2259 118.019 12.3423 117.975C12.6138 117.888 13.506 117.406 13.7388 117.231C13.9327 117.012 14.5922 116.224 14.7473 115.961C14.8637 115.655 15.0576 115.217 15.1352 114.867C15.2128 114.56 15.2128 114.298 15.2128 114.298C15.2516 113.991 15.2904 113.422 15.2904 113.116V110.795C15.2904 110.445 15.2128 109.92 15.0964 109.613L14.7861 108.562C14.7085 108.256 14.6309 108.256 14.6309 108.606V109.569C14.6309 109.876 14.6309 110.445 14.6309 110.795V113.116C14.6309 113.422 14.5534 114.473 14.5146 114.692C14.437 114.954 14.0879 115.742 13.9327 115.961C13.7776 116.136 13.1957 116.706 13.0017 116.881C12.8078 117.012 12.032 117.318 11.7992 117.362C11.5277 117.406 11.3337 117.406 11.3337 117.406C11.2562 117.406 11.2174 117.406 11.2174 117.406C11.1786 117.406 11.1398 117.406 11.1398 117.406C11.101 117.406 11.0622 117.406 11.0622 117.406C11.0234 117.406 10.364 117.318 10.1312 117.275C9.89848 117.187 9.20025 116.793 9.0063 116.662C8.85113 116.487 8.30806 115.83 8.19169 115.611C8.07532 115.348 7.80378 114.517 7.76499 114.254C7.7262 113.991 7.7262 113.51 7.7262 113.159V110.839C7.7262 110.489 7.7262 109.92 7.7262 109.613V108.65C7.7262 108.343 7.60983 108.343 7.53225 108.606L7.22192 109.657C7.02797 109.92 6.95039 110.445 6.95039 110.795V113.116C6.95039 113.422 7.02797 114.604 7.10555 114.911C7.18313 115.217 7.60983 116.224 7.76499 116.487C7.95895 116.706 8.65718 117.406 8.88992 117.581C9.16146 117.712 9.54937 117.931 9.85969 118.063C10.1312 118.194 10.364 118.194 10.364 118.194H10.4803V121.828H9.31662C9.16146 121.828 9.04509 121.959 9.04509 122.134V122.703C9.04509 122.879 9.16146 123.01 9.31662 123.01H11.0622L12.8854 122.936C13.0017 122.936 13.1181 122.879 13.1181 122.703V122.003C13.1569 121.828 13.0017 121.74 12.8854 121.74Z" fill="url(#paint26_linear_484_176)"/>
<path fill-rule="evenodd" clip-rule="evenodd" d="M10.5918 0.113923L11.3702 0L13.985 7.35719H18.07V8.17359H13.4212L11.2754 2.13586L10.4899 15.2669L9.70984 15.3763L7.43725 8.73874L5.73591 11.7153L3.54286 8.17359H0V7.35719H3.98631L5.70842 10.1384L7.62109 6.79203L9.80986 13.1848L10.5918 0.113923Z" fill="url(#paint27_linear_484_176)"/>
<path d="M264.505 153.763H275.221V155.475H264.505V153.763Z" fill="url(#paint28_linear_484_176)"/>
<path d="M264.505 154.853H265.281V168.55H264.505V154.853Z" fill="url(#paint29_linear_484_176)"/>
<path d="M261.321 166.915L265.281 164.691V169.14L261.321 166.915Z" fill="url(#paint30_linear_484_176)"/>
<path d="M274.444 154.853H275.221V168.55H274.444V154.853Z" fill="url(#paint31_linear_484_176)"/>
<path d="M271.261 166.915L275.221 164.691V169.14L271.261 166.915Z" fill="url(#paint32_linear_484_176)"/>
<path d="M263.281 54.9466H265.776V62.3001H263.281V54.9466Z" fill="url(#paint33_linear_484_176)"/>
<path d="M267.024 54.9466H269.518V62.3001H267.024V54.9466Z" fill="url(#paint34_linear_484_176)"/>
<path d="M270.766 54.9466H273.261V62.3001H270.766V54.9466Z" fill="url(#paint35_linear_484_176)"/>
<path d="M271.514 58.0304H272.512V65.3839H271.514V58.0304Z" fill="url(#paint36_linear_484_176)"/>
<path d="M267.772 58.0304H268.77V65.3839H267.772V58.0304Z" fill="url(#paint37_linear_484_176)"/>
<path d="M264.03 58.0304H265.028V65.3839H264.03V58.0304Z" fill="url(#paint38_linear_484_176)"/>
<path fill-rule="evenodd" clip-rule="evenodd" d="M274.686 54.9982H261.856V65.2176H274.686V54.9982ZM261.321 54.5165V65.6993H275.221V54.5165H261.321Z" fill="url(#paint39_linear_484_176)"/>
<path fill-rule="evenodd" clip-rule="evenodd" d="M271.316 113.378C271.316 115.261 269.92 116.837 268.252 116.837C266.584 116.837 265.187 115.261 265.187 113.378V106.899C265.187 105.016 266.584 103.44 268.252 103.44C269.959 103.44 271.316 105.016 271.316 106.899V113.378Z" fill="url(#paint40_linear_484_176)"/>
<path fill-rule="evenodd" clip-rule="evenodd" d="M270.035 121.74H268.833V118.107C269.104 118.107 269.376 118.019 269.492 117.975C269.764 117.888 270.656 117.406 270.889 117.231C271.083 117.012 271.742 116.224 271.897 115.961C272.014 115.655 272.207 115.217 272.285 114.867C272.363 114.56 272.363 114.298 272.363 114.298C272.401 113.991 272.44 113.422 272.44 113.116V110.795C272.44 110.445 272.363 109.92 272.246 109.613L271.936 108.562C271.858 108.256 271.781 108.256 271.781 108.606V109.569C271.781 109.876 271.781 110.445 271.781 110.795V113.116C271.781 113.422 271.703 114.473 271.664 114.692C271.587 114.954 271.238 115.742 271.083 115.961C270.927 116.136 270.346 116.706 270.152 116.881C269.958 117.012 269.182 117.318 268.949 117.362C268.678 117.406 268.484 117.406 268.484 117.406C268.406 117.406 268.367 117.406 268.367 117.406C268.328 117.406 268.29 117.406 268.29 117.406C268.251 117.406 268.212 117.406 268.212 117.406C268.173 117.406 267.514 117.318 267.281 117.275C267.048 117.187 266.35 116.793 266.156 116.662C266.001 116.487 265.458 115.83 265.342 115.611C265.225 115.348 264.954 114.517 264.915 114.254C264.876 113.991 264.876 113.51 264.876 113.159V110.839C264.876 110.489 264.876 109.92 264.876 109.613V108.65C264.876 108.343 264.76 108.343 264.682 108.606L264.372 109.657C264.178 109.92 264.1 110.445 264.1 110.795V113.116C264.1 113.422 264.178 114.604 264.255 114.911C264.333 115.217 264.76 116.224 264.915 116.487C265.109 116.706 265.807 117.406 266.04 117.581C266.311 117.712 266.699 117.931 267.01 118.063C267.281 118.194 267.514 118.194 267.514 118.194H267.63V121.828H266.466C266.311 121.828 266.195 121.959 266.195 122.134V122.703C266.195 122.879 266.311 123.01 266.466 123.01H268.212L270.035 122.936C270.152 122.936 270.268 122.879 270.268 122.703V122.003C270.307 121.828 270.152 121.74 270.035 121.74Z" fill="url(#paint41_linear_484_176)"/>
<path fill-rule="evenodd" clip-rule="evenodd" d="M267.742 0.113923L268.52 0L271.135 7.35719H275.22V8.17359H270.571L268.425 2.13586L267.64 15.2669L266.86 15.3763L264.587 8.73874L262.886 11.7153L260.693 8.17359H257.15V7.35719H261.136L262.858 10.1384L264.771 6.79203L266.96 13.1848L267.742 0.113923Z" fill="url(#paint42_linear_484_176)"/>
<path d="M52.1965 155.645H54.9409V163.917H52.1965V155.645Z" fill="url(#paint43_linear_484_176)"/>
<path d="M56.3131 155.645H59.0574V163.917H56.3131V155.645Z" fill="url(#paint44_linear_484_176)"/>
<path d="M60.4296 155.645H63.174V163.917H60.4296V155.645Z" fill="url(#paint45_linear_484_176)"/>
<path d="M61.2529 159.114H62.3506V167.386H61.2529V159.114Z" fill="url(#paint46_linear_484_176)"/>
<path d="M57.1364 159.114H58.2341V167.386H57.1364V159.114Z" fill="url(#paint47_linear_484_176)"/>
<path d="M53.0198 159.114H54.1176V167.386H53.0198V159.114Z" fill="url(#paint48_linear_484_176)"/>
<path fill-rule="evenodd" clip-rule="evenodd" d="M64.7422 155.703H50.6283V167.199H64.7422V155.703ZM50.0402 155.161V167.741H65.3302V155.161H50.0402Z" fill="url(#paint49_linear_484_176)"/>
<path fill-rule="evenodd" clip-rule="evenodd" d="M107.725 66.5871C110.899 66.5871 113.473 63.9992 113.473 60.8068C113.473 57.6145 110.899 55.0265 107.725 55.0265C104.55 55.0265 101.977 57.6145 101.977 60.8068C101.977 63.9992 104.55 66.5871 107.725 66.5871ZM107.725 67.0971C111.179 67.0971 113.98 64.2809 113.98 60.8068C113.98 57.3328 111.179 54.5165 107.725 54.5165C104.27 54.5165 101.47 57.3328 101.47 60.8068C101.47 64.2809 104.27 67.0971 107.725 67.0971Z" fill="url(#paint50_linear_484_176)"/>
<path d="M109.918 60.8068C109.918 62.0258 108.935 63.014 107.723 63.014C106.511 63.014 105.528 62.0258 105.528 60.8068C105.528 59.5879 106.511 58.5997 107.723 58.5997C108.935 58.5997 109.918 59.5879 109.918 60.8068Z" fill="url(#paint51_linear_484_176)"/>
<path d="M103.898 57.04C103.041 57.8675 103.15 59.3331 103.15 59.3331C103.15 59.3331 103.751 57.7535 104.18 57.3182C104.608 56.8828 106.084 56.3246 106.084 56.3246C106.084 56.3246 104.755 56.2125 103.898 57.04Z" fill="url(#paint52_linear_484_176)"/>
<path fill-rule="evenodd" clip-rule="evenodd" d="M105.608 56.3336C105.892 56.3085 106.084 56.3246 106.084 56.3246C106.084 56.3246 105.903 56.3931 105.649 56.5008C105.179 56.7006 104.458 57.0353 104.18 57.3182C103.895 57.6072 103.535 58.4006 103.325 58.9013C103.218 59.1547 103.15 59.3331 103.15 59.3331C103.15 59.3331 103.136 59.1429 103.158 58.8609C103.197 58.36 103.35 57.5694 103.898 57.04C104.43 56.5265 105.143 56.3748 105.608 56.3336ZM104.956 56.6301C104.633 56.7283 104.295 56.8922 104.015 57.1626C103.7 57.4667 103.524 57.8706 103.427 58.2534C103.51 58.0769 103.599 57.8971 103.691 57.7336C103.808 57.5221 103.935 57.3247 104.06 57.1986C104.184 57.0725 104.373 56.9467 104.574 56.8315C104.696 56.7622 104.826 56.6943 104.956 56.6301Z" fill="url(#paint53_linear_484_176)"/>
<path d="M104.9 57.9257C104.33 58.4709 104.398 59.4417 104.398 59.4417C104.398 59.4417 104.801 58.3977 105.086 58.1108C105.371 57.8238 106.35 57.4588 106.35 57.4588C106.35 57.4588 105.47 57.3805 104.9 57.9257Z" fill="url(#paint54_linear_484_176)"/>
<path fill-rule="evenodd" clip-rule="evenodd" d="M105.828 57.4896C106.124 57.4387 106.35 57.4588 106.35 57.4588C106.35 57.4588 106.135 57.539 105.877 57.6538C105.585 57.7839 105.237 57.9583 105.086 58.1108C104.928 58.2698 104.734 58.6615 104.592 58.979C104.478 59.2343 104.398 59.4417 104.398 59.4417C104.398 59.4417 104.383 59.2208 104.429 58.9305C104.479 58.6123 104.602 58.2108 104.9 57.9257C105.182 57.6564 105.539 57.5392 105.828 57.4896Z" fill="url(#paint55_linear_484_176)"/>
<path d="M105.767 58.7203C105.383 59.0885 105.428 59.7442 105.428 59.7442C105.428 59.7442 105.7 59.0391 105.893 58.8453C106.085 58.6515 106.746 58.405 106.746 58.405C106.746 58.405 106.152 58.3521 105.767 58.7203Z" fill="url(#paint56_linear_484_176)"/>
<path fill-rule="evenodd" clip-rule="evenodd" d="M106.073 58.5201C106.405 58.3746 106.746 58.405 106.746 58.405C106.746 58.405 106.409 58.5308 106.146 58.6733C106.041 58.7303 105.948 58.7899 105.893 58.8453C105.824 58.9145 105.745 59.0489 105.672 59.1931C105.541 59.4527 105.428 59.7442 105.428 59.7442C105.428 59.7442 105.407 59.4378 105.516 59.1264C105.567 58.9822 105.646 58.8368 105.767 58.7203C105.861 58.6311 105.966 58.5666 106.073 58.5201Z" fill="url(#paint57_linear_484_176)"/>
<path d="M111.714 64.3443C112.539 63.4847 112.374 62.0242 112.374 62.0242C112.374 62.0242 111.834 63.6256 111.422 64.077C111.01 64.5284 109.557 65.1425 109.557 65.1425C109.557 65.1425 110.889 65.2038 111.714 64.3443Z" fill="url(#paint58_linear_484_176)"/>
<path fill-rule="evenodd" clip-rule="evenodd" d="M109.984 64.9499C109.735 65.0672 109.557 65.1425 109.557 65.1425C109.557 65.1425 109.749 65.1513 110.032 65.1153C110.495 65.0565 111.202 64.8777 111.714 64.3443C112.242 63.7943 112.365 62.9984 112.385 62.4964C112.396 62.2137 112.374 62.0242 112.374 62.0242C112.374 62.0242 112.313 62.2051 112.217 62.4624C112.025 62.9707 111.695 63.7773 111.422 64.077C111.154 64.3703 110.447 64.7323 109.984 64.9499ZM110.672 64.7942C110.991 64.6837 111.323 64.507 111.592 64.2262C111.895 63.9103 112.056 63.4999 112.139 63.1137C112.063 63.2933 111.98 63.4763 111.895 63.6432C111.785 63.859 111.666 64.0612 111.546 64.192C111.427 64.3227 111.243 64.4556 111.046 64.5784C110.927 64.6523 110.8 64.7251 110.672 64.7942Z" fill="url(#paint59_linear_484_176)"/>
<path d="M110.679 63.4973C111.228 62.9307 111.124 61.9633 111.124 61.9633C111.124 61.9633 110.761 63.0219 110.487 63.3195C110.213 63.6171 109.249 64.0192 109.249 64.0192C109.249 64.0192 110.13 64.0639 110.679 63.4973Z" fill="url(#paint60_linear_484_176)"/>
<path fill-rule="evenodd" clip-rule="evenodd" d="M109.714 63.8063C109.461 63.9308 109.249 64.0192 109.249 64.0192C109.249 64.0192 109.475 64.0307 109.769 63.9685C110.056 63.9079 110.408 63.7772 110.679 63.4973C110.966 63.201 111.075 62.7951 111.113 62.4753C111.148 62.1835 111.124 61.9633 111.124 61.9633C111.124 61.9633 111.052 62.1736 110.948 62.433C110.818 62.7557 110.639 63.1545 110.487 63.3195C110.341 63.4776 110.001 63.6652 109.714 63.8063Z" fill="url(#paint61_linear_484_176)"/>
<path d="M109.783 62.7364C110.154 62.3538 110.083 61.7004 110.083 61.7004C110.083 61.7004 109.838 62.4154 109.653 62.6163C109.468 62.8173 108.817 63.0889 108.817 63.0889C108.817 63.0889 109.412 63.1191 109.783 62.7364Z" fill="url(#paint62_linear_484_176)"/>
<path fill-rule="evenodd" clip-rule="evenodd" d="M109.407 62.7978C109.149 62.9503 108.817 63.0889 108.817 63.0889C108.817 63.0889 109.159 63.1063 109.486 62.9481C109.59 62.8976 109.693 62.8291 109.783 62.7364C109.9 62.6153 109.974 62.4671 110.019 62.3211C110.116 62.0057 110.083 61.7004 110.083 61.7004C110.083 61.7004 109.982 61.9959 109.86 62.2603C109.793 62.4072 109.719 62.5446 109.653 62.6163C109.6 62.6737 109.509 62.7369 109.407 62.7978Z" fill="url(#paint63_linear_484_176)"/>
<path fill-rule="evenodd" clip-rule="evenodd" d="M107.725 167.231C110.899 167.231 113.473 164.643 113.473 161.451C113.473 158.259 110.899 155.671 107.725 155.671C104.55 155.671 101.977 158.259 101.977 161.451C101.977 164.643 104.55 167.231 107.725 167.231ZM107.725 167.741C111.179 167.741 113.98 164.925 113.98 161.451C113.98 157.977 111.179 155.161 107.725 155.161C104.27 155.161 101.47 157.977 101.47 161.451C101.47 164.925 104.27 167.741 107.725 167.741Z" fill="url(#paint64_linear_484_176)"/>
<path d="M109.918 161.451C109.918 162.67 108.935 163.658 107.723 163.658C106.511 163.658 105.528 162.67 105.528 161.451C105.528 160.232 106.511 159.244 107.723 159.244C108.935 159.244 109.918 160.232 109.918 161.451Z" fill="url(#paint65_linear_484_176)"/>
<path d="M103.898 157.684C103.041 158.512 103.15 159.977 103.15 159.977C103.15 159.977 103.751 158.398 104.18 157.962C104.608 157.527 106.084 156.969 106.084 156.969C106.084 156.969 104.755 156.857 103.898 157.684Z" fill="url(#paint66_linear_484_176)"/>
<path fill-rule="evenodd" clip-rule="evenodd" d="M105.608 156.978C105.892 156.953 106.084 156.969 106.084 156.969C106.084 156.969 105.903 157.037 105.649 157.145C105.179 157.345 104.458 157.679 104.18 157.962C103.895 158.251 103.535 159.045 103.325 159.545C103.218 159.799 103.15 159.977 103.15 159.977C103.15 159.977 103.136 159.787 103.158 159.505C103.197 159.004 103.35 158.214 103.898 157.684C104.43 157.171 105.143 157.019 105.608 156.978ZM104.956 157.274C104.633 157.373 104.295 157.536 104.015 157.807C103.7 158.111 103.524 158.515 103.427 158.898C103.51 158.721 103.599 158.541 103.691 158.378C103.808 158.166 103.935 157.969 104.06 157.843C104.184 157.717 104.373 157.591 104.574 157.476C104.696 157.406 104.826 157.338 104.956 157.274Z" fill="url(#paint67_linear_484_176)"/>
<path d="M104.9 158.57C104.33 159.115 104.398 160.086 104.398 160.086C104.398 160.086 104.801 159.042 105.086 158.755C105.371 158.468 106.35 158.103 106.35 158.103C106.35 158.103 105.47 158.025 104.9 158.57Z" fill="url(#paint68_linear_484_176)"/>
<path fill-rule="evenodd" clip-rule="evenodd" d="M105.828 158.134C106.124 158.083 106.35 158.103 106.35 158.103C106.35 158.103 106.135 158.183 105.877 158.298C105.585 158.428 105.237 158.603 105.086 158.755C104.928 158.914 104.734 159.306 104.592 159.623C104.478 159.878 104.398 160.086 104.398 160.086C104.398 160.086 104.383 159.865 104.429 159.575C104.479 159.257 104.602 158.855 104.9 158.57C105.182 158.301 105.539 158.183 105.828 158.134Z" fill="url(#paint69_linear_484_176)"/>
<path d="M105.767 159.364C105.383 159.733 105.428 160.388 105.428 160.388C105.428 160.388 105.7 159.683 105.893 159.489C106.085 159.296 106.746 159.049 106.746 159.049C106.746 159.049 106.152 158.996 105.767 159.364Z" fill="url(#paint70_linear_484_176)"/>
<path fill-rule="evenodd" clip-rule="evenodd" d="M106.073 159.164C106.405 159.019 106.746 159.049 106.746 159.049C106.746 159.049 106.409 159.175 106.146 159.318C106.041 159.374 105.948 159.434 105.893 159.489C105.824 159.559 105.745 159.693 105.672 159.837C105.541 160.097 105.428 160.388 105.428 160.388C105.428 160.388 105.407 160.082 105.516 159.771C105.567 159.626 105.646 159.481 105.767 159.364C105.861 159.275 105.966 159.211 106.073 159.164Z" fill="url(#paint71_linear_484_176)"/>
<path d="M111.714 164.988C112.539 164.129 112.374 162.668 112.374 162.668C112.374 162.668 111.834 164.27 111.422 164.721C111.01 165.173 109.557 165.787 109.557 165.787C109.557 165.787 110.889 165.848 111.714 164.988Z" fill="url(#paint72_linear_484_176)"/>
<path fill-rule="evenodd" clip-rule="evenodd" d="M109.984 165.594C109.735 165.711 109.557 165.787 109.557 165.787C109.557 165.787 109.749 165.796 110.032 165.76C110.495 165.701 111.202 165.522 111.714 164.988C112.242 164.438 112.365 163.643 112.385 163.141C112.396 162.858 112.374 162.668 112.374 162.668C112.374 162.668 112.313 162.849 112.217 163.107C112.025 163.615 111.695 164.422 111.422 164.721C111.154 165.014 110.447 165.376 109.984 165.594ZM110.672 165.438C110.991 165.328 111.323 165.151 111.592 164.87C111.895 164.555 112.056 164.144 112.139 163.758C112.063 163.938 111.98 164.121 111.895 164.287C111.785 164.503 111.666 164.705 111.546 164.836C111.427 164.967 111.243 165.1 111.046 165.223C110.927 165.296 110.8 165.369 110.672 165.438Z" fill="url(#paint73_linear_484_176)"/>
<path d="M110.679 164.142C111.228 163.575 111.124 162.607 111.124 162.607C111.124 162.607 110.761 163.666 110.487 163.964C110.213 164.261 109.249 164.663 109.249 164.663C109.249 164.663 110.13 164.708 110.679 164.142Z" fill="url(#paint74_linear_484_176)"/>
<path fill-rule="evenodd" clip-rule="evenodd" d="M109.714 164.451C109.461 164.575 109.249 164.663 109.249 164.663C109.249 164.663 109.475 164.675 109.769 164.613C110.056 164.552 110.408 164.421 110.679 164.142C110.966 163.845 111.075 163.439 111.113 163.119C111.148 162.828 111.124 162.607 111.124 162.607C111.124 162.607 111.052 162.818 110.948 163.077C110.818 163.4 110.639 163.799 110.487 163.964C110.341 164.122 110.001 164.309 109.714 164.451Z" fill="url(#paint75_linear_484_176)"/>
<path d="M109.783 163.381C110.154 162.998 110.083 162.345 110.083 162.345C110.083 162.345 109.838 163.06 109.653 163.261C109.468 163.462 108.817 163.733 108.817 163.733C108.817 163.733 109.412 163.763 109.783 163.381Z" fill="url(#paint76_linear_484_176)"/>
<path fill-rule="evenodd" clip-rule="evenodd" d="M109.407 163.442C109.149 163.594 108.817 163.733 108.817 163.733C108.817 163.733 109.159 163.75 109.486 163.592C109.59 163.542 109.693 163.473 109.783 163.381C109.9 163.26 109.974 163.111 110.019 162.965C110.116 162.65 110.083 162.345 110.083 162.345C110.083 162.345 109.982 162.64 109.86 162.905C109.793 163.051 109.719 163.189 109.653 163.261C109.6 163.318 109.509 163.381 109.407 163.442Z" fill="url(#paint77_linear_484_176)"/>
<path fill-rule="evenodd" clip-rule="evenodd" d="M110.077 113.378C110.077 115.261 108.68 116.837 107.012 116.837C105.344 116.837 103.948 115.261 103.948 113.378V106.899C103.948 105.016 105.344 103.44 107.012 103.44C108.719 103.44 110.077 105.016 110.077 106.899V113.378Z" fill="url(#paint78_linear_484_176)"/>
<path fill-rule="evenodd" clip-rule="evenodd" d="M108.796 121.74H107.593V118.107C107.865 118.107 108.136 118.019 108.253 117.975C108.524 117.888 109.416 117.406 109.649 117.231C109.843 117.012 110.502 116.224 110.658 115.961C110.774 115.655 110.968 115.217 111.045 114.867C111.123 114.56 111.123 114.298 111.123 114.298C111.162 113.991 111.201 113.422 111.201 113.116V110.795C111.201 110.445 111.123 109.92 111.007 109.613L110.696 108.562C110.619 108.256 110.541 108.256 110.541 108.606V109.569C110.541 109.876 110.541 110.445 110.541 110.795V113.116C110.541 113.422 110.464 114.473 110.425 114.692C110.347 114.954 109.998 115.742 109.843 115.961C109.688 116.136 109.106 116.706 108.912 116.881C108.718 117.012 107.942 117.318 107.709 117.362C107.438 117.406 107.244 117.406 107.244 117.406C107.166 117.406 107.128 117.406 107.128 117.406C107.089 117.406 107.05 117.406 107.05 117.406C107.011 117.406 106.972 117.406 106.972 117.406C106.934 117.406 106.274 117.318 106.041 117.275C105.809 117.187 105.11 116.793 104.917 116.662C104.761 116.487 104.218 115.83 104.102 115.611C103.986 115.348 103.714 114.517 103.675 114.254C103.636 113.991 103.636 113.51 103.636 113.159V110.839C103.636 110.489 103.636 109.92 103.636 109.613V108.65C103.636 108.343 103.52 108.343 103.442 108.606L103.132 109.657C102.938 109.92 102.861 110.445 102.861 110.795V113.116C102.861 113.422 102.938 114.604 103.016 114.911C103.093 115.217 103.52 116.224 103.675 116.487C103.869 116.706 104.567 117.406 104.8 117.581C105.072 117.712 105.46 117.931 105.77 118.063C106.041 118.194 106.274 118.194 106.274 118.194H106.391V121.828H105.227C105.072 121.828 104.955 121.959 104.955 122.134V122.703C104.955 122.879 105.072 123.01 105.227 123.01H106.972L108.796 122.936C108.912 122.936 109.028 122.879 109.028 122.703V122.003C109.067 121.828 108.912 121.74 108.796 121.74Z" fill="url(#paint79_linear_484_176)"/>
<path fill-rule="evenodd" clip-rule="evenodd" d="M58.6674 106.34L59.5058 106.236L62.3217 112.925H66.7209V113.667H61.7145L59.4037 108.178L58.5577 120.115L57.7177 120.215L55.2703 114.181L53.4381 116.887L51.0763 113.667H47.2609V112.925H51.5539L53.4085 115.453L55.4683 112.411L57.8254 118.222L58.6674 106.34Z" fill="url(#paint80_linear_484_176)"/>
<path d="M208.584 53.1182H218.229V54.6746H208.584V53.1182Z" fill="url(#paint81_linear_484_176)"/>
<path d="M208.584 54.1086H209.283V66.5604H208.584V54.1086Z" fill="url(#paint82_linear_484_176)"/>
<path d="M205.719 65.0747L209.283 63.0528V67.0966L205.719 65.0747Z" fill="url(#paint83_linear_484_176)"/>
<path d="M217.53 54.1086H218.229V66.5604H217.53V54.1086Z" fill="url(#paint84_linear_484_176)"/>
<path d="M214.664 65.0747L218.229 63.0528V67.0966L214.664 65.0747Z" fill="url(#paint85_linear_484_176)"/>
<path d="M52.9057 246.022H62.5502V247.578H52.9057V246.022Z" fill="url(#paint86_linear_484_176)"/>
<path d="M52.9057 247.012H53.6046V259.464H52.9057V247.012Z" fill="url(#paint87_linear_484_176)"/>
<path d="M50.0402 257.978L53.6045 255.956V260L50.0402 257.978Z" fill="url(#paint88_linear_484_176)"/>
<path d="M61.8513 247.012H62.5502V259.464H61.8513V247.012Z" fill="url(#paint89_linear_484_176)"/>
<path d="M58.9859 257.978L62.5502 255.956V260L58.9859 257.978Z" fill="url(#paint90_linear_484_176)"/>
<path d="M6.12964 247.849H8.62451V255.203H6.12964V247.849Z" fill="url(#paint91_linear_484_176)"/>
<path d="M9.87195 247.849H12.3668V255.203H9.87195V247.849Z" fill="url(#paint92_linear_484_176)"/>
<path d="M13.6143 247.849H16.1091V255.203H13.6143V247.849Z" fill="url(#paint93_linear_484_176)"/>
<path d="M14.3627 250.933H15.3607V258.286H14.3627V250.933Z" fill="url(#paint94_linear_484_176)"/>
<path d="M10.6204 250.933H11.6184V258.286H10.6204V250.933Z" fill="url(#paint95_linear_484_176)"/>
<path d="M6.8781 250.933H7.87605V258.286H6.8781V250.933Z" fill="url(#paint96_linear_484_176)"/>
<path fill-rule="evenodd" clip-rule="evenodd" d="M17.5348 247.901H4.704V258.12H17.5348V247.901ZM4.16938 247.419V258.602H18.0694V247.419H4.16938Z" fill="url(#paint97_linear_484_176)"/>
<path d="M166.357 260C167.18 260 167.89 259.321 167.89 258.534L169.58 257.033L167.89 255.531C167.89 254.852 167.479 254.351 166.843 254.101V252.028C166.843 248.703 164.039 246.022 160.562 246.022C157.122 246.022 154.318 248.703 154.318 252.028V254.101C153.72 254.351 153.271 254.888 153.271 255.531L151.51 257.033L153.271 258.534C153.271 259.321 153.981 260 154.841 260C155.701 260 156.412 259.321 156.412 258.534V255.531C156.412 254.852 155.963 254.351 155.365 254.101V252.028C155.365 249.239 157.683 247.023 160.562 247.023C163.478 247.023 165.796 249.239 165.796 252.028V254.101C165.236 254.351 164.787 254.888 164.787 255.531V258.534C164.787 259.321 165.497 260 166.357 260Z" fill="url(#paint98_linear_484_176)"/>
<path d="M263.281 247.849H265.776V255.203H263.281V247.849Z" fill="url(#paint99_linear_484_176)"/>
<path d="M267.024 247.849H269.518V255.203H267.024V247.849Z" fill="url(#paint100_linear_484_176)"/>
<path d="M270.766 247.849H273.261V255.203H270.766V247.849Z" fill="url(#paint101_linear_484_176)"/>
<path d="M271.514 250.933H272.512V258.286H271.514V250.933Z" fill="url(#paint102_linear_484_176)"/>
<path d="M267.772 250.933H268.77V258.286H267.772V250.933Z" fill="url(#paint103_linear_484_176)"/>
<path d="M264.03 250.933H265.028V258.286H264.03V250.933Z" fill="url(#paint104_linear_484_176)"/>
<path fill-rule="evenodd" clip-rule="evenodd" d="M274.686 247.901H261.856V258.12H274.686V247.901ZM261.321 247.419V258.602H275.221V247.419H261.321Z" fill="url(#paint105_linear_484_176)"/>
<path fill-rule="evenodd" clip-rule="evenodd" d="M107.725 259.49C110.899 259.49 113.473 256.902 113.473 253.709C113.473 250.517 110.899 247.929 107.725 247.929C104.55 247.929 101.977 250.517 101.977 253.709C101.977 256.902 104.55 259.49 107.725 259.49ZM107.725 260C111.179 260 113.98 257.183 113.98 253.709C113.98 250.235 111.179 247.419 107.725 247.419C104.27 247.419 101.47 250.235 101.47 253.709C101.47 257.183 104.27 260 107.725 260Z" fill="url(#paint106_linear_484_176)"/>
<path d="M109.918 253.709C109.918 254.928 108.935 255.916 107.723 255.916C106.511 255.916 105.528 254.928 105.528 253.709C105.528 252.49 106.511 251.502 107.723 251.502C108.935 251.502 109.918 252.49 109.918 253.709Z" fill="url(#paint107_linear_484_176)"/>
<path d="M103.898 249.943C103.041 250.77 103.15 252.236 103.15 252.236C103.15 252.236 103.751 250.656 104.18 250.221C104.608 249.785 106.084 249.227 106.084 249.227C106.084 249.227 104.755 249.115 103.898 249.943Z" fill="url(#paint108_linear_484_176)"/>
<path fill-rule="evenodd" clip-rule="evenodd" d="M105.608 249.236C105.892 249.211 106.084 249.227 106.084 249.227C106.084 249.227 105.903 249.296 105.649 249.403C105.179 249.603 104.458 249.938 104.18 250.221C103.895 250.51 103.535 251.303 103.325 251.804C103.218 252.057 103.15 252.236 103.15 252.236C103.15 252.236 103.136 252.045 103.158 251.763C103.197 251.263 103.35 250.472 103.898 249.943C104.43 249.429 105.143 249.277 105.608 249.236ZM104.956 249.533C104.633 249.631 104.295 249.795 104.015 250.065C103.7 250.369 103.524 250.773 103.427 251.156C103.51 250.979 103.599 250.8 103.691 250.636C103.808 250.425 103.935 250.227 104.06 250.101C104.184 249.975 104.373 249.849 104.574 249.734C104.696 249.665 104.826 249.597 104.956 249.533Z" fill="url(#paint109_linear_484_176)"/>
<path d="M104.9 250.828C104.33 251.373 104.398 252.344 104.398 252.344C104.398 252.344 104.801 251.3 105.086 251.013C105.371 250.726 106.35 250.361 106.35 250.361C106.35 250.361 105.47 250.283 104.9 250.828Z" fill="url(#paint110_linear_484_176)"/>
<path fill-rule="evenodd" clip-rule="evenodd" d="M105.828 250.392C106.124 250.341 106.35 250.361 106.35 250.361C106.35 250.361 106.135 250.442 105.877 250.556C105.585 250.686 105.237 250.861 105.086 251.013C104.928 251.172 104.734 251.564 104.592 251.882C104.478 252.137 104.398 252.344 104.398 252.344C104.398 252.344 104.383 252.123 104.429 251.833C104.479 251.515 104.602 251.113 104.9 250.828C105.182 250.559 105.539 250.442 105.828 250.392Z" fill="url(#paint111_linear_484_176)"/>
<path d="M105.767 251.623C105.383 251.991 105.428 252.647 105.428 252.647C105.428 252.647 105.7 251.942 105.893 251.748C106.085 251.554 106.746 251.308 106.746 251.308C106.746 251.308 106.152 251.255 105.767 251.623Z" fill="url(#paint112_linear_484_176)"/>
<path fill-rule="evenodd" clip-rule="evenodd" d="M106.073 251.423C106.405 251.277 106.746 251.308 106.746 251.308C106.746 251.308 106.409 251.433 106.146 251.576C106.041 251.633 105.948 251.692 105.893 251.748C105.824 251.817 105.745 251.951 105.672 252.096C105.541 252.355 105.428 252.647 105.428 252.647C105.428 252.647 105.407 252.34 105.516 252.029C105.567 251.885 105.646 251.739 105.767 251.623C105.861 251.534 105.966 251.469 106.073 251.423Z" fill="url(#paint113_linear_484_176)"/>
<path d="M111.714 257.247C112.539 256.387 112.374 254.927 112.374 254.927C112.374 254.927 111.834 256.528 111.422 256.98C111.01 257.431 109.557 258.045 109.557 258.045C109.557 258.045 110.889 258.106 111.714 257.247Z" fill="url(#paint114_linear_484_176)"/>
<path fill-rule="evenodd" clip-rule="evenodd" d="M109.984 257.852C109.735 257.97 109.557 258.045 109.557 258.045C109.557 258.045 109.749 258.054 110.032 258.018C110.495 257.959 111.202 257.78 111.714 257.247C112.242 256.697 112.365 255.901 112.385 255.399C112.396 255.116 112.374 254.927 112.374 254.927C112.374 254.927 112.313 255.108 112.217 255.365C112.025 255.873 111.695 256.68 111.422 256.98C111.154 257.273 110.447 257.635 109.984 257.852ZM110.672 257.697C110.991 257.586 111.323 257.41 111.592 257.129C111.895 256.813 112.056 256.402 112.139 256.016C112.063 256.196 111.98 256.379 111.895 256.546C111.785 256.762 111.666 256.964 111.546 257.094C111.427 257.225 111.243 257.358 111.046 257.481C110.927 257.555 110.8 257.628 110.672 257.697Z" fill="url(#paint115_linear_484_176)"/>
<path d="M110.679 256.4C111.228 255.833 111.124 254.866 111.124 254.866C111.124 254.866 110.761 255.924 110.487 256.222C110.213 256.52 109.249 256.922 109.249 256.922C109.249 256.922 110.13 256.966 110.679 256.4Z" fill="url(#paint116_linear_484_176)"/>
<path fill-rule="evenodd" clip-rule="evenodd" d="M109.714 256.709C109.461 256.833 109.249 256.922 109.249 256.922C109.249 256.922 109.475 256.933 109.769 256.871C110.056 256.81 110.408 256.68 110.679 256.4C110.966 256.104 111.075 255.698 111.113 255.378C111.148 255.086 111.124 254.866 111.124 254.866C111.124 254.866 111.052 255.076 110.948 255.336C110.818 255.658 110.639 256.057 110.487 256.222C110.341 256.38 110.001 256.568 109.714 256.709Z" fill="url(#paint117_linear_484_176)"/>
<path d="M109.783 255.639C110.154 255.256 110.083 254.603 110.083 254.603C110.083 254.603 109.838 255.318 109.653 255.519C109.468 255.72 108.817 255.991 108.817 255.991C108.817 255.991 109.412 256.022 109.783 255.639Z" fill="url(#paint118_linear_484_176)"/>
<path fill-rule="evenodd" clip-rule="evenodd" d="M109.407 255.7C109.149 255.853 108.817 255.991 108.817 255.991C108.817 255.991 109.159 256.009 109.486 255.851C109.59 255.8 109.693 255.732 109.783 255.639C109.9 255.518 109.974 255.37 110.019 255.224C110.116 254.908 110.083 254.603 110.083 254.603C110.083 254.603 109.982 254.898 109.86 255.163C109.793 255.31 109.719 255.447 109.653 255.519C109.6 255.576 109.509 255.639 109.407 255.7Z" fill="url(#paint119_linear_484_176)"/>
<path d="M208.584 246.022H218.229V247.578H208.584V246.022Z" fill="url(#paint120_linear_484_176)"/>
<path d="M208.584 247.012H209.283V259.464H208.584V247.012Z" fill="url(#paint121_linear_484_176)"/>
<path d="M205.719 257.978L209.283 255.956V260L205.719 257.978Z" fill="url(#paint122_linear_484_176)"/>
<path d="M217.53 247.012H218.229V259.464H217.53V247.012Z" fill="url(#paint123_linear_484_176)"/>
<path d="M214.664 257.978L218.229 255.956V260L214.664 257.978Z" fill="url(#paint124_linear_484_176)"/>
<path d="M219.179 15.3763C220.001 15.3763 220.711 14.6291 220.711 13.764L222.401 12.1123L220.711 10.4606C220.711 9.71343 220.3 9.16287 219.665 8.88759V6.60671C219.665 2.94942 216.86 0 213.383 0C209.943 0 207.139 2.94942 207.139 6.60671V8.88759C206.541 9.16287 206.092 9.75276 206.092 10.4606L204.331 12.1123L206.092 13.764C206.092 14.6291 206.803 15.3763 207.663 15.3763C208.523 15.3763 209.233 14.6291 209.233 13.764V10.4606C209.233 9.71343 208.784 9.16287 208.186 8.88759V6.60671C208.186 3.53931 210.504 1.10112 213.383 1.10112C216.3 1.10112 218.618 3.53931 218.618 6.60671V8.88759C218.057 9.16287 217.608 9.75276 217.608 10.4606V13.764C217.608 14.6291 218.319 15.3763 219.179 15.3763Z" fill="url(#paint125_linear_484_176)"/>
<path d="M207.875 155.645H210.619V163.917H207.875V155.645Z" fill="url(#paint126_linear_484_176)"/>
<path d="M211.992 155.645H214.736V163.917H211.992V155.645Z" fill="url(#paint127_linear_484_176)"/>
<path d="M216.108 155.645H218.852V163.917H216.108V155.645Z" fill="url(#paint128_linear_484_176)"/>
<path d="M216.931 159.114H218.029V167.386H216.931V159.114Z" fill="url(#paint129_linear_484_176)"/>
<path d="M212.815 159.114H213.913V167.386H212.815V159.114Z" fill="url(#paint130_linear_484_176)"/>
<path d="M208.698 159.114H209.796V167.386H208.698V159.114Z" fill="url(#paint131_linear_484_176)"/>
<path fill-rule="evenodd" clip-rule="evenodd" d="M220.421 155.703H206.307V167.199H220.421V155.703ZM205.719 155.161V167.741H221.009V155.161H205.719Z" fill="url(#paint132_linear_484_176)"/>
<path fill-rule="evenodd" clip-rule="evenodd" d="M214.347 106.34L215.185 106.236L218.001 112.925H222.4V113.667H217.394L215.083 108.178L214.237 120.115L213.397 120.215L210.95 114.181L209.117 116.887L206.756 113.667H202.94V112.925H207.233L209.088 115.453L211.148 112.411L213.505 118.222L214.347 106.34Z" fill="url(#paint133_linear_484_176)"/>
<path d="M153.666 1.88137H156.411V10.1541H153.666V1.88137Z" fill="url(#paint134_linear_484_176)"/>
<path d="M157.783 1.88137H160.527V10.1541H157.783V1.88137Z" fill="url(#paint135_linear_484_176)"/>
<path d="M161.899 1.88137H164.644V10.1541H161.899V1.88137Z" fill="url(#paint136_linear_484_176)"/>
<path d="M162.723 5.35057H163.82V13.6233H162.723V5.35057Z" fill="url(#paint137_linear_484_176)"/>
<path d="M158.606 5.35057H159.704V13.6233H158.606V5.35057Z" fill="url(#paint138_linear_484_176)"/>
<path d="M154.49 5.35057H155.587V13.6233H154.49V5.35057Z" fill="url(#paint139_linear_484_176)"/>
<path fill-rule="evenodd" clip-rule="evenodd" d="M166.212 1.93943H152.098V13.4362H166.212V1.93943ZM151.51 1.3975V13.9781H166.8V1.3975H151.51Z" fill="url(#paint140_linear_484_176)"/>
<path fill-rule="evenodd" clip-rule="evenodd" d="M110.096 0.113923L110.934 0L113.75 7.35719H118.15V8.17359H113.143L110.832 2.13586L109.986 15.2669L109.146 15.3763L106.699 8.73874L104.867 11.7153L102.505 8.17359H98.6895V7.35719H102.982L104.837 10.1384L106.897 6.79203L109.254 13.1848L110.096 0.113923Z" fill="url(#paint141_linear_484_176)"/>
<path d="M63.4967 215.269C64.3192 215.269 65.0296 214.522 65.0296 213.657L66.7193 212.005L65.0296 210.353C65.0296 209.606 64.6183 209.055 63.9827 208.78V206.499C63.9827 202.842 61.1785 199.893 57.7013 199.893C54.2615 199.893 51.4574 202.842 51.4574 206.499V208.78C50.8591 209.055 50.4105 209.645 50.4105 210.353L48.6493 212.005L50.4105 213.657C50.4105 214.522 51.1209 215.269 51.9808 215.269C52.8408 215.269 53.5511 214.522 53.5511 213.657V210.353C53.5511 209.606 53.1025 209.055 52.5042 208.78V206.499C52.5042 203.432 54.8224 200.994 57.7013 200.994C60.6177 200.994 62.9358 203.432 62.9358 206.499V208.78C62.375 209.055 61.9263 209.645 61.9263 210.353V213.657C61.9263 214.522 62.6367 215.269 63.4967 215.269Z" fill="url(#paint142_linear_484_176)"/>
<path fill-rule="evenodd" clip-rule="evenodd" d="M11.9818 200.007L12.7603 199.893L15.375 207.25H19.4601V208.066H14.8113L12.6655 202.028L11.88 215.16L11.0999 215.269L8.82732 208.631L7.12599 211.608L4.93294 208.066H1.39008V207.25H5.37639L7.0985 210.031L9.01117 206.685L11.1999 213.077L11.9818 200.007Z" fill="url(#paint143_linear_484_176)"/>
<path fill-rule="evenodd" clip-rule="evenodd" d="M270.522 200.007L271.3 199.893L273.915 207.25H278V208.066H273.351L271.205 202.028L270.42 215.16L269.64 215.269L267.367 208.631L265.666 211.608L263.473 208.066H259.93V207.25H263.916L265.638 210.031L267.551 206.685L269.74 213.077L270.522 200.007Z" fill="url(#paint144_linear_484_176)"/>
<path d="M219.179 215.269C220.001 215.269 220.711 214.522 220.711 213.657L222.401 212.005L220.711 210.353C220.711 209.606 220.3 209.055 219.665 208.78V206.499C219.665 202.842 216.86 199.893 213.383 199.893C209.943 199.893 207.139 202.842 207.139 206.499V208.78C206.541 209.055 206.092 209.645 206.092 210.353L204.331 212.005L206.092 213.657C206.092 214.522 206.803 215.269 207.663 215.269C208.523 215.269 209.233 214.522 209.233 213.657V210.353C209.233 209.606 208.784 209.055 208.186 208.78V206.499C208.186 203.432 210.504 200.994 213.383 200.994C216.3 200.994 218.618 203.432 218.618 206.499V208.78C218.057 209.055 217.608 209.645 217.608 210.353V213.657C217.608 214.522 218.319 215.269 219.179 215.269Z" fill="url(#paint145_linear_484_176)"/>
<path d="M153.666 201.774H156.411V210.047H153.666V201.774Z" fill="url(#paint146_linear_484_176)"/>
<path d="M157.783 201.774H160.527V210.047H157.783V201.774Z" fill="url(#paint147_linear_484_176)"/>
<path d="M161.899 201.774H164.644V210.047H161.899V201.774Z" fill="url(#paint148_linear_484_176)"/>
<path d="M162.723 205.243H163.82V213.516H162.723V205.243Z" fill="url(#paint149_linear_484_176)"/>
<path d="M158.606 205.243H159.704V213.516H158.606V205.243Z" fill="url(#paint150_linear_484_176)"/>
<path d="M154.49 205.243H155.587V213.516H154.49V205.243Z" fill="url(#paint151_linear_484_176)"/>
<path fill-rule="evenodd" clip-rule="evenodd" d="M166.212 201.832H152.098V213.329H166.212V201.832ZM151.51 201.29V213.871H166.8V201.29H151.51Z" fill="url(#paint152_linear_484_176)"/>
<path fill-rule="evenodd" clip-rule="evenodd" d="M110.096 200.007L110.934 199.893L113.75 207.25H118.15V208.066H113.143L110.832 202.028L109.986 215.16L109.146 215.269L106.699 208.631L104.867 211.608L102.505 208.066H98.6895V207.25H102.982L104.837 210.031L106.897 206.685L109.254 213.077L110.096 200.007Z" fill="url(#paint153_linear_484_176)"/>
<defs>
<linearGradient id="paint0_linear_484_176" x1="1.36495" y1="119.35" x2="187.424" y2="119.35" gradientUnits="userSpaceOnUse">
<stop stop-color="#F3461B"/>
<stop offset="1" stop-color="#0DA6F2"/>
</linearGradient>
<linearGradient id="paint1_linear_484_176" x1="1.36495" y1="119.35" x2="187.424" y2="119.35" gradientUnits="userSpaceOnUse">
<stop stop-color="#F3461B"/>
<stop offset="1" stop-color="#0DA6F2"/>
</linearGradient>
<linearGradient id="paint2_linear_484_176" x1="1.36495" y1="119.35" x2="187.424" y2="119.35" gradientUnits="userSpaceOnUse">
<stop stop-color="#F3461B"/>
<stop offset="1" stop-color="#0DA6F2"/>
</linearGradient>
<linearGradient id="paint3_linear_484_176" x1="1.36495" y1="119.35" x2="187.424" y2="119.35" gradientUnits="userSpaceOnUse">
<stop stop-color="#F3461B"/>
<stop offset="1" stop-color="#0DA6F2"/>
</linearGradient>
<linearGradient id="paint4_linear_484_176" x1="1.36495" y1="119.35" x2="187.424" y2="119.35" gradientUnits="userSpaceOnUse">
<stop stop-color="#F3461B"/>
<stop offset="1" stop-color="#0DA6F2"/>
</linearGradient>
<linearGradient id="paint5_linear_484_176" x1="1.36495" y1="119.35" x2="187.424" y2="119.35" gradientUnits="userSpaceOnUse">
<stop stop-color="#F3461B"/>
<stop offset="1" stop-color="#0DA6F2"/>
</linearGradient>
<linearGradient id="paint6_linear_484_176" x1="1.36495" y1="119.35" x2="187.424" y2="119.35" gradientUnits="userSpaceOnUse">
<stop stop-color="#F3461B"/>
<stop offset="1" stop-color="#0DA6F2"/>
</linearGradient>
<linearGradient id="paint7_linear_484_176" x1="1.36495" y1="119.35" x2="187.424" y2="119.35" gradientUnits="userSpaceOnUse">
<stop stop-color="#F3461B"/>
<stop offset="1" stop-color="#0DA6F2"/>
</linearGradient>
<linearGradient id="paint8_linear_484_176" x1="1.36495" y1="119.35" x2="187.424" y2="119.35" gradientUnits="userSpaceOnUse">
<stop stop-color="#F3461B"/>
<stop offset="1" stop-color="#0DA6F2"/>
</linearGradient>
<linearGradient id="paint9_linear_484_176" x1="1.36495" y1="119.35" x2="187.424" y2="119.35" gradientUnits="userSpaceOnUse">
<stop stop-color="#F3461B"/>
<stop offset="1" stop-color="#0DA6F2"/>
</linearGradient>
<linearGradient id="paint10_linear_484_176" x1="1.36495" y1="119.35" x2="187.424" y2="119.35" gradientUnits="userSpaceOnUse">
<stop stop-color="#F3461B"/>
<stop offset="1" stop-color="#0DA6F2"/>
</linearGradient>
<linearGradient id="paint11_linear_484_176" x1="1.36495" y1="119.35" x2="187.424" y2="119.35" gradientUnits="userSpaceOnUse">
<stop stop-color="#F3461B"/>
<stop offset="1" stop-color="#0DA6F2"/>
</linearGradient>
<linearGradient id="paint12_linear_484_176" x1="1.36495" y1="119.35" x2="187.424" y2="119.35" gradientUnits="userSpaceOnUse">
<stop stop-color="#F3461B"/>
<stop offset="1" stop-color="#0DA6F2"/>
</linearGradient>
<linearGradient id="paint13_linear_484_176" x1="1.36495" y1="119.35" x2="187.424" y2="119.35" gradientUnits="userSpaceOnUse">
<stop stop-color="#F3461B"/>
<stop offset="1" stop-color="#0DA6F2"/>
</linearGradient>
<linearGradient id="paint14_linear_484_176" x1="1.36495" y1="119.35" x2="187.424" y2="119.35" gradientUnits="userSpaceOnUse">
<stop stop-color="#F3461B"/>
<stop offset="1" stop-color="#0DA6F2"/>
</linearGradient>
<linearGradient id="paint15_linear_484_176" x1="1.36495" y1="119.35" x2="187.424" y2="119.35" gradientUnits="userSpaceOnUse">
<stop stop-color="#F3461B"/>
<stop offset="1" stop-color="#0DA6F2"/>
</linearGradient>
<linearGradient id="paint16_linear_484_176" x1="1.36495" y1="119.35" x2="187.424" y2="119.35" gradientUnits="userSpaceOnUse">
<stop stop-color="#F3461B"/>
<stop offset="1" stop-color="#0DA6F2"/>
</linearGradient>
<linearGradient id="paint17_linear_484_176" x1="1.36495" y1="119.35" x2="187.424" y2="119.35" gradientUnits="userSpaceOnUse">
<stop stop-color="#F3461B"/>
<stop offset="1" stop-color="#0DA6F2"/>
</linearGradient>
<linearGradient id="paint18_linear_484_176" x1="1.36495" y1="119.35" x2="187.424" y2="119.35" gradientUnits="userSpaceOnUse">
<stop stop-color="#F3461B"/>
<stop offset="1" stop-color="#0DA6F2"/>
</linearGradient>
<linearGradient id="paint19_linear_484_176" x1="1.36495" y1="119.35" x2="187.424" y2="119.35" gradientUnits="userSpaceOnUse">
<stop stop-color="#F3461B"/>
<stop offset="1" stop-color="#0DA6F2"/>
</linearGradient>
<linearGradient id="paint20_linear_484_176" x1="1.36495" y1="119.35" x2="187.424" y2="119.35" gradientUnits="userSpaceOnUse">
<stop stop-color="#F3461B"/>
<stop offset="1" stop-color="#0DA6F2"/>
</linearGradient>
<linearGradient id="paint21_linear_484_176" x1="1.36495" y1="119.35" x2="187.424" y2="119.35" gradientUnits="userSpaceOnUse">
<stop stop-color="#F3461B"/>
<stop offset="1" stop-color="#0DA6F2"/>
</linearGradient>
<linearGradient id="paint22_linear_484_176" x1="1.36495" y1="119.35" x2="187.424" y2="119.35" gradientUnits="userSpaceOnUse">
<stop stop-color="#F3461B"/>
<stop offset="1" stop-color="#0DA6F2"/>
</linearGradient>
<linearGradient id="paint23_linear_484_176" x1="1.36495" y1="119.35" x2="187.424" y2="119.35" gradientUnits="userSpaceOnUse">
<stop stop-color="#F3461B"/>
<stop offset="1" stop-color="#0DA6F2"/>
</linearGradient>
<linearGradient id="paint24_linear_484_176" x1="1.36495" y1="119.35" x2="187.424" y2="119.35" gradientUnits="userSpaceOnUse">
<stop stop-color="#F3461B"/>
<stop offset="1" stop-color="#0DA6F2"/>
</linearGradient>
<linearGradient id="paint25_linear_484_176" x1="1.36495" y1="119.35" x2="187.424" y2="119.35" gradientUnits="userSpaceOnUse">
<stop stop-color="#F3461B"/>
<stop offset="1" stop-color="#0DA6F2"/>
</linearGradient>
<linearGradient id="paint26_linear_484_176" x1="1.36495" y1="119.35" x2="187.424" y2="119.35" gradientUnits="userSpaceOnUse">
<stop stop-color="#F3461B"/>
<stop offset="1" stop-color="#0DA6F2"/>
</linearGradient>
<linearGradient id="paint27_linear_484_176" x1="1.36495" y1="119.35" x2="187.424" y2="119.35" gradientUnits="userSpaceOnUse">
<stop stop-color="#F3461B"/>
<stop offset="1" stop-color="#0DA6F2"/>
</linearGradient>
<linearGradient id="paint28_linear_484_176" x1="1.36495" y1="119.35" x2="187.424" y2="119.35" gradientUnits="userSpaceOnUse">
<stop stop-color="#F3461B"/>
<stop offset="1" stop-color="#0DA6F2"/>
</linearGradient>
<linearGradient id="paint29_linear_484_176" x1="1.36495" y1="119.35" x2="187.424" y2="119.35" gradientUnits="userSpaceOnUse">
<stop stop-color="#F3461B"/>
<stop offset="1" stop-color="#0DA6F2"/>
</linearGradient>
<linearGradient id="paint30_linear_484_176" x1="1.36495" y1="119.35" x2="187.424" y2="119.35" gradientUnits="userSpaceOnUse">
<stop stop-color="#F3461B"/>
<stop offset="1" stop-color="#0DA6F2"/>
</linearGradient>
<linearGradient id="paint31_linear_484_176" x1="1.36495" y1="119.35" x2="187.424" y2="119.35" gradientUnits="userSpaceOnUse">
<stop stop-color="#F3461B"/>
<stop offset="1" stop-color="#0DA6F2"/>
</linearGradient>
<linearGradient id="paint32_linear_484_176" x1="1.36495" y1="119.35" x2="187.424" y2="119.35" gradientUnits="userSpaceOnUse">
<stop stop-color="#F3461B"/>
<stop offset="1" stop-color="#0DA6F2"/>
</linearGradient>
<linearGradient id="paint33_linear_484_176" x1="1.36495" y1="119.35" x2="187.424" y2="119.35" gradientUnits="userSpaceOnUse">
<stop stop-color="#F3461B"/>
<stop offset="1" stop-color="#0DA6F2"/>
</linearGradient>
<linearGradient id="paint34_linear_484_176" x1="1.36495" y1="119.35" x2="187.424" y2="119.35" gradientUnits="userSpaceOnUse">
<stop stop-color="#F3461B"/>
<stop offset="1" stop-color="#0DA6F2"/>
</linearGradient>
<linearGradient id="paint35_linear_484_176" x1="1.36495" y1="119.35" x2="187.424" y2="119.35" gradientUnits="userSpaceOnUse">
<stop stop-color="#F3461B"/>
<stop offset="1" stop-color="#0DA6F2"/>
</linearGradient>
<linearGradient id="paint36_linear_484_176" x1="1.36495" y1="119.35" x2="187.424" y2="119.35" gradientUnits="userSpaceOnUse">
<stop stop-color="#F3461B"/>
<stop offset="1" stop-color="#0DA6F2"/>
</linearGradient>
<linearGradient id="paint37_linear_484_176" x1="1.36495" y1="119.35" x2="187.424" y2="119.35" gradientUnits="userSpaceOnUse">
<stop stop-color="#F3461B"/>
<stop offset="1" stop-color="#0DA6F2"/>
</linearGradient>
<linearGradient id="paint38_linear_484_176" x1="1.36495" y1="119.35" x2="187.424" y2="119.35" gradientUnits="userSpaceOnUse">
<stop stop-color="#F3461B"/>
<stop offset="1" stop-color="#0DA6F2"/>
</linearGradient>
<linearGradient id="paint39_linear_484_176" x1="1.36495" y1="119.35" x2="187.424" y2="119.35" gradientUnits="userSpaceOnUse">
<stop stop-color="#F3461B"/>
<stop offset="1" stop-color="#0DA6F2"/>
</linearGradient>
<linearGradient id="paint40_linear_484_176" x1="1.36495" y1="119.35" x2="187.424" y2="119.35" gradientUnits="userSpaceOnUse">
<stop stop-color="#F3461B"/>
<stop offset="1" stop-color="#0DA6F2"/>
</linearGradient>
<linearGradient id="paint41_linear_484_176" x1="1.36495" y1="119.35" x2="187.424" y2="119.35" gradientUnits="userSpaceOnUse">
<stop stop-color="#F3461B"/>
<stop offset="1" stop-color="#0DA6F2"/>
</linearGradient>
<linearGradient id="paint42_linear_484_176" x1="1.36495" y1="119.35" x2="187.424" y2="119.35" gradientUnits="userSpaceOnUse">
<stop stop-color="#F3461B"/>
<stop offset="1" stop-color="#0DA6F2"/>
</linearGradient>
<linearGradient id="paint43_linear_484_176" x1="1.36495" y1="119.35" x2="187.424" y2="119.35" gradientUnits="userSpaceOnUse">
<stop stop-color="#F3461B"/>
<stop offset="1" stop-color="#0DA6F2"/>
</linearGradient>
<linearGradient id="paint44_linear_484_176" x1="1.36495" y1="119.35" x2="187.424" y2="119.35" gradientUnits="userSpaceOnUse">
<stop stop-color="#F3461B"/>
<stop offset="1" stop-color="#0DA6F2"/>
</linearGradient>
<linearGradient id="paint45_linear_484_176" x1="1.36495" y1="119.35" x2="187.424" y2="119.35" gradientUnits="userSpaceOnUse">
<stop stop-color="#F3461B"/>
<stop offset="1" stop-color="#0DA6F2"/>
</linearGradient>
<linearGradient id="paint46_linear_484_176" x1="1.36495" y1="119.35" x2="187.424" y2="119.35" gradientUnits="userSpaceOnUse">
<stop stop-color="#F3461B"/>
<stop offset="1" stop-color="#0DA6F2"/>
</linearGradient>
<linearGradient id="paint47_linear_484_176" x1="1.36495" y1="119.35" x2="187.424" y2="119.35" gradientUnits="userSpaceOnUse">
<stop stop-color="#F3461B"/>
<stop offset="1" stop-color="#0DA6F2"/>
</linearGradient>
<linearGradient id="paint48_linear_484_176" x1="1.36495" y1="119.35" x2="187.424" y2="119.35" gradientUnits="userSpaceOnUse">
<stop stop-color="#F3461B"/>
<stop offset="1" stop-color="#0DA6F2"/>
</linearGradient>
<linearGradient id="paint49_linear_484_176" x1="1.36495" y1="119.35" x2="187.424" y2="119.35" gradientUnits="userSpaceOnUse">
<stop stop-color="#F3461B"/>
<stop offset="1" stop-color="#0DA6F2"/>
</linearGradient>
<linearGradient id="paint50_linear_484_176" x1="1.36495" y1="119.35" x2="187.424" y2="119.35" gradientUnits="userSpaceOnUse">
<stop stop-color="#F3461B"/>
<stop offset="1" stop-color="#0DA6F2"/>
</linearGradient>
<linearGradient id="paint51_linear_484_176" x1="1.36495" y1="119.35" x2="187.424" y2="119.35" gradientUnits="userSpaceOnUse">
<stop stop-color="#F3461B"/>
<stop offset="1" stop-color="#0DA6F2"/>
</linearGradient>
<linearGradient id="paint52_linear_484_176" x1="1.36495" y1="119.35" x2="187.424" y2="119.35" gradientUnits="userSpaceOnUse">
<stop stop-color="#F3461B"/>
<stop offset="1" stop-color="#0DA6F2"/>
</linearGradient>
<linearGradient id="paint53_linear_484_176" x1="1.36495" y1="119.35" x2="187.424" y2="119.35" gradientUnits="userSpaceOnUse">
<stop stop-color="#F3461B"/>
<stop offset="1" stop-color="#0DA6F2"/>
</linearGradient>
<linearGradient id="paint54_linear_484_176" x1="1.36495" y1="119.35" x2="187.424" y2="119.35" gradientUnits="userSpaceOnUse">
<stop stop-color="#F3461B"/>
<stop offset="1" stop-color="#0DA6F2"/>
</linearGradient>
<linearGradient id="paint55_linear_484_176" x1="1.36495" y1="119.35" x2="187.424" y2="119.35" gradientUnits="userSpaceOnUse">
<stop stop-color="#F3461B"/>
<stop offset="1" stop-color="#0DA6F2"/>
</linearGradient>
<linearGradient id="paint56_linear_484_176" x1="1.36495" y1="119.35" x2="187.424" y2="119.35" gradientUnits="userSpaceOnUse">
<stop stop-color="#F3461B"/>
<stop offset="1" stop-color="#0DA6F2"/>
</linearGradient>
<linearGradient id="paint57_linear_484_176" x1="1.36495" y1="119.35" x2="187.424" y2="119.35" gradientUnits="userSpaceOnUse">
<stop stop-color="#F3461B"/>
<stop offset="1" stop-color="#0DA6F2"/>
</linearGradient>
<linearGradient id="paint58_linear_484_176" x1="1.36495" y1="119.35" x2="187.424" y2="119.35" gradientUnits="userSpaceOnUse">
<stop stop-color="#F3461B"/>
<stop offset="1" stop-color="#0DA6F2"/>
</linearGradient>
<linearGradient id="paint59_linear_484_176" x1="1.36495" y1="119.35" x2="187.424" y2="119.35" gradientUnits="userSpaceOnUse">
<stop stop-color="#F3461B"/>
<stop offset="1" stop-color="#0DA6F2"/>
</linearGradient>
<linearGradient id="paint60_linear_484_176" x1="1.36495" y1="119.35" x2="187.424" y2="119.35" gradientUnits="userSpaceOnUse">
<stop stop-color="#F3461B"/>
<stop offset="1" stop-color="#0DA6F2"/>
</linearGradient>
<linearGradient id="paint61_linear_484_176" x1="1.36495" y1="119.35" x2="187.424" y2="119.35" gradientUnits="userSpaceOnUse">
<stop stop-color="#F3461B"/>
<stop offset="1" stop-color="#0DA6F2"/>
</linearGradient>
<linearGradient id="paint62_linear_484_176" x1="1.36495" y1="119.35" x2="187.424" y2="119.35" gradientUnits="userSpaceOnUse">
<stop stop-color="#F3461B"/>
<stop offset="1" stop-color="#0DA6F2"/>
</linearGradient>
<linearGradient id="paint63_linear_484_176" x1="1.36495" y1="119.35" x2="187.424" y2="119.35" gradientUnits="userSpaceOnUse">
<stop stop-color="#F3461B"/>
<stop offset="1" stop-color="#0DA6F2"/>
</linearGradient>
<linearGradient id="paint64_linear_484_176" x1="1.36495" y1="119.35" x2="187.424" y2="119.35" gradientUnits="userSpaceOnUse">
<stop stop-color="#F3461B"/>
<stop offset="1" stop-color="#0DA6F2"/>
</linearGradient>
<linearGradient id="paint65_linear_484_176" x1="1.36495" y1="119.35" x2="187.424" y2="119.35" gradientUnits="userSpaceOnUse">
<stop stop-color="#F3461B"/>
<stop offset="1" stop-color="#0DA6F2"/>
</linearGradient>
<linearGradient id="paint66_linear_484_176" x1="1.36495" y1="119.35" x2="187.424" y2="119.35" gradientUnits="userSpaceOnUse">
<stop stop-color="#F3461B"/>
<stop offset="1" stop-color="#0DA6F2"/>
</linearGradient>
<linearGradient id="paint67_linear_484_176" x1="1.36495" y1="119.35" x2="187.424" y2="119.35" gradientUnits="userSpaceOnUse">
<stop stop-color="#F3461B"/>
<stop offset="1" stop-color="#0DA6F2"/>
</linearGradient>
<linearGradient id="paint68_linear_484_176" x1="1.36495" y1="119.35" x2="187.424" y2="119.35" gradientUnits="userSpaceOnUse">
<stop stop-color="#F3461B"/>
<stop offset="1" stop-color="#0DA6F2"/>
</linearGradient>
<linearGradient id="paint69_linear_484_176" x1="1.36495" y1="119.35" x2="187.424" y2="119.35" gradientUnits="userSpaceOnUse">
<stop stop-color="#F3461B"/>
<stop offset="1" stop-color="#0DA6F2"/>
</linearGradient>
<linearGradient id="paint70_linear_484_176" x1="1.36495" y1="119.35" x2="187.424" y2="119.35" gradientUnits="userSpaceOnUse">
<stop stop-color="#F3461B"/>
<stop offset="1" stop-color="#0DA6F2"/>
</linearGradient>
<linearGradient id="paint71_linear_484_176" x1="1.36495" y1="119.35" x2="187.424" y2="119.35" gradientUnits="userSpaceOnUse">
<stop stop-color="#F3461B"/>
<stop offset="1" stop-color="#0DA6F2"/>
</linearGradient>
<linearGradient id="paint72_linear_484_176" x1="1.36495" y1="119.35" x2="187.424" y2="119.35" gradientUnits="userSpaceOnUse">
<stop stop-color="#F3461B"/>
<stop offset="1" stop-color="#0DA6F2"/>
</linearGradient>
<linearGradient id="paint73_linear_484_176" x1="1.36495" y1="119.35" x2="187.424" y2="119.35" gradientUnits="userSpaceOnUse">
<stop stop-color="#F3461B"/>
<stop offset="1" stop-color="#0DA6F2"/>
</linearGradient>
<linearGradient id="paint74_linear_484_176" x1="1.36495" y1="119.35" x2="187.424" y2="119.35" gradientUnits="userSpaceOnUse">
<stop stop-color="#F3461B"/>
<stop offset="1" stop-color="#0DA6F2"/>
</linearGradient>
<linearGradient id="paint75_linear_484_176" x1="1.36495" y1="119.35" x2="187.424" y2="119.35" gradientUnits="userSpaceOnUse">
<stop stop-color="#F3461B"/>
<stop offset="1" stop-color="#0DA6F2"/>
</linearGradient>
<linearGradient id="paint76_linear_484_176" x1="1.36495" y1="119.35" x2="187.424" y2="119.35" gradientUnits="userSpaceOnUse">
<stop stop-color="#F3461B"/>
<stop offset="1" stop-color="#0DA6F2"/>
</linearGradient>
<linearGradient id="paint77_linear_484_176" x1="1.36495" y1="119.35" x2="187.424" y2="119.35" gradientUnits="userSpaceOnUse">
<stop stop-color="#F3461B"/>
<stop offset="1" stop-color="#0DA6F2"/>
</linearGradient>
<linearGradient id="paint78_linear_484_176" x1="1.36495" y1="119.35" x2="187.424" y2="119.35" gradientUnits="userSpaceOnUse">
<stop stop-color="#F3461B"/>
<stop offset="1" stop-color="#0DA6F2"/>
</linearGradient>
<linearGradient id="paint79_linear_484_176" x1="1.36495" y1="119.35" x2="187.424" y2="119.35" gradientUnits="userSpaceOnUse">
<stop stop-color="#F3461B"/>
<stop offset="1" stop-color="#0DA6F2"/>
</linearGradient>
<linearGradient id="paint80_linear_484_176" x1="1.36495" y1="119.35" x2="187.424" y2="119.35" gradientUnits="userSpaceOnUse">
<stop stop-color="#F3461B"/>
<stop offset="1" stop-color="#0DA6F2"/>
</linearGradient>
<linearGradient id="paint81_linear_484_176" x1="1.36495" y1="119.35" x2="187.424" y2="119.35" gradientUnits="userSpaceOnUse">
<stop stop-color="#F3461B"/>
<stop offset="1" stop-color="#0DA6F2"/>
</linearGradient>
<linearGradient id="paint82_linear_484_176" x1="1.36495" y1="119.35" x2="187.424" y2="119.35" gradientUnits="userSpaceOnUse">
<stop stop-color="#F3461B"/>
<stop offset="1" stop-color="#0DA6F2"/>
</linearGradient>
<linearGradient id="paint83_linear_484_176" x1="1.36495" y1="119.35" x2="187.424" y2="119.35" gradientUnits="userSpaceOnUse">
<stop stop-color="#F3461B"/>
<stop offset="1" stop-color="#0DA6F2"/>
</linearGradient>
<linearGradient id="paint84_linear_484_176" x1="1.36495" y1="119.35" x2="187.424" y2="119.35" gradientUnits="userSpaceOnUse">
<stop stop-color="#F3461B"/>
<stop offset="1" stop-color="#0DA6F2"/>
</linearGradient>
<linearGradient id="paint85_linear_484_176" x1="1.36495" y1="119.35" x2="187.424" y2="119.35" gradientUnits="userSpaceOnUse">
<stop stop-color="#F3461B"/>
<stop offset="1" stop-color="#0DA6F2"/>
</linearGradient>
<linearGradient id="paint86_linear_484_176" x1="1.36495" y1="119.35" x2="187.424" y2="119.35" gradientUnits="userSpaceOnUse">
<stop stop-color="#F3461B"/>
<stop offset="1" stop-color="#0DA6F2"/>
</linearGradient>
<linearGradient id="paint87_linear_484_176" x1="1.36495" y1="119.35" x2="187.424" y2="119.35" gradientUnits="userSpaceOnUse">
<stop stop-color="#F3461B"/>
<stop offset="1" stop-color="#0DA6F2"/>
</linearGradient>
<linearGradient id="paint88_linear_484_176" x1="1.36495" y1="119.35" x2="187.424" y2="119.35" gradientUnits="userSpaceOnUse">
<stop stop-color="#F3461B"/>
<stop offset="1" stop-color="#0DA6F2"/>
</linearGradient>
<linearGradient id="paint89_linear_484_176" x1="1.36495" y1="119.35" x2="187.424" y2="119.35" gradientUnits="userSpaceOnUse">
<stop stop-color="#F3461B"/>
<stop offset="1" stop-color="#0DA6F2"/>
</linearGradient>
<linearGradient id="paint90_linear_484_176" x1="1.36495" y1="119.35" x2="187.424" y2="119.35" gradientUnits="userSpaceOnUse">
<stop stop-color="#F3461B"/>
<stop offset="1" stop-color="#0DA6F2"/>
</linearGradient>
<linearGradient id="paint91_linear_484_176" x1="1.36495" y1="119.35" x2="187.424" y2="119.35" gradientUnits="userSpaceOnUse">
<stop stop-color="#F3461B"/>
<stop offset="1" stop-color="#0DA6F2"/>
</linearGradient>
<linearGradient id="paint92_linear_484_176" x1="1.36495" y1="119.35" x2="187.424" y2="119.35" gradientUnits="userSpaceOnUse">
<stop stop-color="#F3461B"/>
<stop offset="1" stop-color="#0DA6F2"/>
</linearGradient>
<linearGradient id="paint93_linear_484_176" x1="1.36495" y1="119.35" x2="187.424" y2="119.35" gradientUnits="userSpaceOnUse">
<stop stop-color="#F3461B"/>
<stop offset="1" stop-color="#0DA6F2"/>
</linearGradient>
<linearGradient id="paint94_linear_484_176" x1="1.36495" y1="119.35" x2="187.424" y2="119.35" gradientUnits="userSpaceOnUse">
<stop stop-color="#F3461B"/>
<stop offset="1" stop-color="#0DA6F2"/>
</linearGradient>
<linearGradient id="paint95_linear_484_176" x1="1.36495" y1="119.35" x2="187.424" y2="119.35" gradientUnits="userSpaceOnUse">
<stop stop-color="#F3461B"/>
<stop offset="1" stop-color="#0DA6F2"/>
</linearGradient>
<linearGradient id="paint96_linear_484_176" x1="1.36495" y1="119.35" x2="187.424" y2="119.35" gradientUnits="userSpaceOnUse">
<stop stop-color="#F3461B"/>
<stop offset="1" stop-color="#0DA6F2"/>
</linearGradient>
<linearGradient id="paint97_linear_484_176" x1="1.36495" y1="119.35" x2="187.424" y2="119.35" gradientUnits="userSpaceOnUse">
<stop stop-color="#F3461B"/>
<stop offset="1" stop-color="#0DA6F2"/>
</linearGradient>
<linearGradient id="paint98_linear_484_176" x1="1.36495" y1="119.35" x2="187.424" y2="119.35" gradientUnits="userSpaceOnUse">
<stop stop-color="#F3461B"/>
<stop offset="1" stop-color="#0DA6F2"/>
</linearGradient>
<linearGradient id="paint99_linear_484_176" x1="1.36495" y1="119.35" x2="187.424" y2="119.35" gradientUnits="userSpaceOnUse">
<stop stop-color="#F3461B"/>
<stop offset="1" stop-color="#0DA6F2"/>
</linearGradient>
<linearGradient id="paint100_linear_484_176" x1="1.36495" y1="119.35" x2="187.424" y2="119.35" gradientUnits="userSpaceOnUse">
<stop stop-color="#F3461B"/>
<stop offset="1" stop-color="#0DA6F2"/>
</linearGradient>
<linearGradient id="paint101_linear_484_176" x1="1.36495" y1="119.35" x2="187.424" y2="119.35" gradientUnits="userSpaceOnUse">
<stop stop-color="#F3461B"/>
<stop offset="1" stop-color="#0DA6F2"/>
</linearGradient>
<linearGradient id="paint102_linear_484_176" x1="1.36495" y1="119.35" x2="187.424" y2="119.35" gradientUnits="userSpaceOnUse">
<stop stop-color="#F3461B"/>
<stop offset="1" stop-color="#0DA6F2"/>
</linearGradient>
<linearGradient id="paint103_linear_484_176" x1="1.36495" y1="119.35" x2="187.424" y2="119.35" gradientUnits="userSpaceOnUse">
<stop stop-color="#F3461B"/>
<stop offset="1" stop-color="#0DA6F2"/>
</linearGradient>
<linearGradient id="paint104_linear_484_176" x1="1.36495" y1="119.35" x2="187.424" y2="119.35" gradientUnits="userSpaceOnUse">
<stop stop-color="#F3461B"/>
<stop offset="1" stop-color="#0DA6F2"/>
</linearGradient>
<linearGradient id="paint105_linear_484_176" x1="1.36495" y1="119.35" x2="187.424" y2="119.35" gradientUnits="userSpaceOnUse">
<stop stop-color="#F3461B"/>
<stop offset="1" stop-color="#0DA6F2"/>
</linearGradient>
<linearGradient id="paint106_linear_484_176" x1="1.36495" y1="119.35" x2="187.424" y2="119.35" gradientUnits="userSpaceOnUse">
<stop stop-color="#F3461B"/>
<stop offset="1" stop-color="#0DA6F2"/>
</linearGradient>
<linearGradient id="paint107_linear_484_176" x1="1.36495" y1="119.35" x2="187.424" y2="119.35" gradientUnits="userSpaceOnUse">
<stop stop-color="#F3461B"/>
<stop offset="1" stop-color="#0DA6F2"/>
</linearGradient>
<linearGradient id="paint108_linear_484_176" x1="1.36495" y1="119.35" x2="187.424" y2="119.35" gradientUnits="userSpaceOnUse">
<stop stop-color="#F3461B"/>
<stop offset="1" stop-color="#0DA6F2"/>
</linearGradient>
<linearGradient id="paint109_linear_484_176" x1="1.36495" y1="119.35" x2="187.424" y2="119.35" gradientUnits="userSpaceOnUse">
<stop stop-color="#F3461B"/>
<stop offset="1" stop-color="#0DA6F2"/>
</linearGradient>
<linearGradient id="paint110_linear_484_176" x1="1.36495" y1="119.35" x2="187.424" y2="119.35" gradientUnits="userSpaceOnUse">
<stop stop-color="#F3461B"/>
<stop offset="1" stop-color="#0DA6F2"/>
</linearGradient>
<linearGradient id="paint111_linear_484_176" x1="1.36495" y1="119.35" x2="187.424" y2="119.35" gradientUnits="userSpaceOnUse">
<stop stop-color="#F3461B"/>
<stop offset="1" stop-color="#0DA6F2"/>
</linearGradient>
<linearGradient id="paint112_linear_484_176" x1="1.36495" y1="119.35" x2="187.424" y2="119.35" gradientUnits="userSpaceOnUse">
<stop stop-color="#F3461B"/>
<stop offset="1" stop-color="#0DA6F2"/>
</linearGradient>
<linearGradient id="paint113_linear_484_176" x1="1.36495" y1="119.35" x2="187.424" y2="119.35" gradientUnits="userSpaceOnUse">
<stop stop-color="#F3461B"/>
<stop offset="1" stop-color="#0DA6F2"/>
</linearGradient>
<linearGradient id="paint114_linear_484_176" x1="1.36495" y1="119.35" x2="187.424" y2="119.35" gradientUnits="userSpaceOnUse">
<stop stop-color="#F3461B"/>
<stop offset="1" stop-color="#0DA6F2"/>
</linearGradient>
<linearGradient id="paint115_linear_484_176" x1="1.36495" y1="119.35" x2="187.424" y2="119.35" gradientUnits="userSpaceOnUse">
<stop stop-color="#F3461B"/>
<stop offset="1" stop-color="#0DA6F2"/>
</linearGradient>
<linearGradient id="paint116_linear_484_176" x1="1.36495" y1="119.35" x2="187.424" y2="119.35" gradientUnits="userSpaceOnUse">
<stop stop-color="#F3461B"/>
<stop offset="1" stop-color="#0DA6F2"/>
</linearGradient>
<linearGradient id="paint117_linear_484_176" x1="1.36495" y1="119.35" x2="187.424" y2="119.35" gradientUnits="userSpaceOnUse">
<stop stop-color="#F3461B"/>
<stop offset="1" stop-color="#0DA6F2"/>
</linearGradient>
<linearGradient id="paint118_linear_484_176" x1="1.36495" y1="119.35" x2="187.424" y2="119.35" gradientUnits="userSpaceOnUse">
<stop stop-color="#F3461B"/>
<stop offset="1" stop-color="#0DA6F2"/>
</linearGradient>
<linearGradient id="paint119_linear_484_176" x1="1.36495" y1="119.35" x2="187.424" y2="119.35" gradientUnits="userSpaceOnUse">
<stop stop-color="#F3461B"/>
<stop offset="1" stop-color="#0DA6F2"/>
</linearGradient>
<linearGradient id="paint120_linear_484_176" x1="1.36495" y1="119.35" x2="187.424" y2="119.35" gradientUnits="userSpaceOnUse">
<stop stop-color="#F3461B"/>
<stop offset="1" stop-color="#0DA6F2"/>
</linearGradient>
<linearGradient id="paint121_linear_484_176" x1="1.36495" y1="119.35" x2="187.424" y2="119.35" gradientUnits="userSpaceOnUse">
<stop stop-color="#F3461B"/>
<stop offset="1" stop-color="#0DA6F2"/>
</linearGradient>
<linearGradient id="paint122_linear_484_176" x1="1.36495" y1="119.35" x2="187.424" y2="119.35" gradientUnits="userSpaceOnUse">
<stop stop-color="#F3461B"/>
<stop offset="1" stop-color="#0DA6F2"/>
</linearGradient>
<linearGradient id="paint123_linear_484_176" x1="1.36495" y1="119.35" x2="187.424" y2="119.35" gradientUnits="userSpaceOnUse">
<stop stop-color="#F3461B"/>
<stop offset="1" stop-color="#0DA6F2"/>
</linearGradient>
<linearGradient id="paint124_linear_484_176" x1="1.36495" y1="119.35" x2="187.424" y2="119.35" gradientUnits="userSpaceOnUse">
<stop stop-color="#F3461B"/>
<stop offset="1" stop-color="#0DA6F2"/>
</linearGradient>
<linearGradient id="paint125_linear_484_176" x1="1.36495" y1="119.35" x2="187.424" y2="119.35" gradientUnits="userSpaceOnUse">
<stop stop-color="#F3461B"/>
<stop offset="1" stop-color="#0DA6F2"/>
</linearGradient>
<linearGradient id="paint126_linear_484_176" x1="1.36495" y1="119.35" x2="187.424" y2="119.35" gradientUnits="userSpaceOnUse">
<stop stop-color="#F3461B"/>
<stop offset="1" stop-color="#0DA6F2"/>
</linearGradient>
<linearGradient id="paint127_linear_484_176" x1="1.36495" y1="119.35" x2="187.424" y2="119.35" gradientUnits="userSpaceOnUse">
<stop stop-color="#F3461B"/>
<stop offset="1" stop-color="#0DA6F2"/>
</linearGradient>
<linearGradient id="paint128_linear_484_176" x1="1.36495" y1="119.35" x2="187.424" y2="119.35" gradientUnits="userSpaceOnUse">
<stop stop-color="#F3461B"/>
<stop offset="1" stop-color="#0DA6F2"/>
</linearGradient>
<linearGradient id="paint129_linear_484_176" x1="1.36495" y1="119.35" x2="187.424" y2="119.35" gradientUnits="userSpaceOnUse">
<stop stop-color="#F3461B"/>
<stop offset="1" stop-color="#0DA6F2"/>
</linearGradient>
<linearGradient id="paint130_linear_484_176" x1="1.36495" y1="119.35" x2="187.424" y2="119.35" gradientUnits="userSpaceOnUse">
<stop stop-color="#F3461B"/>
<stop offset="1" stop-color="#0DA6F2"/>
</linearGradient>
<linearGradient id="paint131_linear_484_176" x1="1.36495" y1="119.35" x2="187.424" y2="119.35" gradientUnits="userSpaceOnUse">
<stop stop-color="#F3461B"/>
<stop offset="1" stop-color="#0DA6F2"/>
</linearGradient>
<linearGradient id="paint132_linear_484_176" x1="1.36495" y1="119.35" x2="187.424" y2="119.35" gradientUnits="userSpaceOnUse">
<stop stop-color="#F3461B"/>
<stop offset="1" stop-color="#0DA6F2"/>
</linearGradient>
<linearGradient id="paint133_linear_484_176" x1="1.36495" y1="119.35" x2="187.424" y2="119.35" gradientUnits="userSpaceOnUse">
<stop stop-color="#F3461B"/>
<stop offset="1" stop-color="#0DA6F2"/>
</linearGradient>
<linearGradient id="paint134_linear_484_176" x1="1.36495" y1="119.35" x2="187.424" y2="119.35" gradientUnits="userSpaceOnUse">
<stop stop-color="#F3461B"/>
<stop offset="1" stop-color="#0DA6F2"/>
</linearGradient>
<linearGradient id="paint135_linear_484_176" x1="1.36495" y1="119.35" x2="187.424" y2="119.35" gradientUnits="userSpaceOnUse">
<stop stop-color="#F3461B"/>
<stop offset="1" stop-color="#0DA6F2"/>
</linearGradient>
<linearGradient id="paint136_linear_484_176" x1="1.36495" y1="119.35" x2="187.424" y2="119.35" gradientUnits="userSpaceOnUse">
<stop stop-color="#F3461B"/>
<stop offset="1" stop-color="#0DA6F2"/>
</linearGradient>
<linearGradient id="paint137_linear_484_176" x1="1.36495" y1="119.35" x2="187.424" y2="119.35" gradientUnits="userSpaceOnUse">
<stop stop-color="#F3461B"/>
<stop offset="1" stop-color="#0DA6F2"/>
</linearGradient>
<linearGradient id="paint138_linear_484_176" x1="1.36495" y1="119.35" x2="187.424" y2="119.35" gradientUnits="userSpaceOnUse">
<stop stop-color="#F3461B"/>
<stop offset="1" stop-color="#0DA6F2"/>
</linearGradient>
<linearGradient id="paint139_linear_484_176" x1="1.36495" y1="119.35" x2="187.424" y2="119.35" gradientUnits="userSpaceOnUse">
<stop stop-color="#F3461B"/>
<stop offset="1" stop-color="#0DA6F2"/>
</linearGradient>
<linearGradient id="paint140_linear_484_176" x1="1.36495" y1="119.35" x2="187.424" y2="119.35" gradientUnits="userSpaceOnUse">
<stop stop-color="#F3461B"/>
<stop offset="1" stop-color="#0DA6F2"/>
</linearGradient>
<linearGradient id="paint141_linear_484_176" x1="1.36495" y1="119.35" x2="187.424" y2="119.35" gradientUnits="userSpaceOnUse">
<stop stop-color="#F3461B"/>
<stop offset="1" stop-color="#0DA6F2"/>
</linearGradient>
<linearGradient id="paint142_linear_484_176" x1="1.36495" y1="119.35" x2="187.424" y2="119.35" gradientUnits="userSpaceOnUse">
<stop stop-color="#F3461B"/>
<stop offset="1" stop-color="#0DA6F2"/>
</linearGradient>
<linearGradient id="paint143_linear_484_176" x1="1.36495" y1="119.35" x2="187.424" y2="119.35" gradientUnits="userSpaceOnUse">
<stop stop-color="#F3461B"/>
<stop offset="1" stop-color="#0DA6F2"/>
</linearGradient>
<linearGradient id="paint144_linear_484_176" x1="1.36495" y1="119.35" x2="187.424" y2="119.35" gradientUnits="userSpaceOnUse">
<stop stop-color="#F3461B"/>
<stop offset="1" stop-color="#0DA6F2"/>
</linearGradient>
<linearGradient id="paint145_linear_484_176" x1="1.36495" y1="119.35" x2="187.424" y2="119.35" gradientUnits="userSpaceOnUse">
<stop stop-color="#F3461B"/>
<stop offset="1" stop-color="#0DA6F2"/>
</linearGradient>
<linearGradient id="paint146_linear_484_176" x1="1.36495" y1="119.35" x2="187.424" y2="119.35" gradientUnits="userSpaceOnUse">
<stop stop-color="#F3461B"/>
<stop offset="1" stop-color="#0DA6F2"/>
</linearGradient>
<linearGradient id="paint147_linear_484_176" x1="1.36495" y1="119.35" x2="187.424" y2="119.35" gradientUnits="userSpaceOnUse">
<stop stop-color="#F3461B"/>
<stop offset="1" stop-color="#0DA6F2"/>
</linearGradient>
<linearGradient id="paint148_linear_484_176" x1="1.36495" y1="119.35" x2="187.424" y2="119.35" gradientUnits="userSpaceOnUse">
<stop stop-color="#F3461B"/>
<stop offset="1" stop-color="#0DA6F2"/>
</linearGradient>
<linearGradient id="paint149_linear_484_176" x1="1.36495" y1="119.35" x2="187.424" y2="119.35" gradientUnits="userSpaceOnUse">
<stop stop-color="#F3461B"/>
<stop offset="1" stop-color="#0DA6F2"/>
</linearGradient>
<linearGradient id="paint150_linear_484_176" x1="1.36495" y1="119.35" x2="187.424" y2="119.35" gradientUnits="userSpaceOnUse">
<stop stop-color="#F3461B"/>
<stop offset="1" stop-color="#0DA6F2"/>
</linearGradient>
<linearGradient id="paint151_linear_484_176" x1="1.36495" y1="119.35" x2="187.424" y2="119.35" gradientUnits="userSpaceOnUse">
<stop stop-color="#F3461B"/>
<stop offset="1" stop-color="#0DA6F2"/>
</linearGradient>
<linearGradient id="paint152_linear_484_176" x1="1.36495" y1="119.35" x2="187.424" y2="119.35" gradientUnits="userSpaceOnUse">
<stop stop-color="#F3461B"/>
<stop offset="1" stop-color="#0DA6F2"/>
</linearGradient>
<linearGradient id="paint153_linear_484_176" x1="1.36495" y1="119.35" x2="187.424" y2="119.35" gradientUnits="userSpaceOnUse">
<stop stop-color="#F3461B"/>
<stop offset="1" stop-color="#0DA6F2"/>
</linearGradient>
</defs>
</svg>
