<svg xmlns="http://www.w3.org/2000/svg" width="148" height="138" fill="none"><path fill="url(#a)" d="M28.06 28.014h5.114v.82H28.06v-.82Z"/><path fill="url(#b)" d="M28.06 28.536h.37v6.567h-.37v-6.567Z"/><path fill="url(#c)" d="m26.54 34.32 1.89-1.067v2.133l-1.89-1.067Z"/><path fill="url(#d)" d="M32.804 28.536h.37v6.567h-.37v-6.567Z"/><path fill="url(#e)" d="m31.284 34.32 1.89-1.067v2.133l-1.89-1.067Z"/><path fill="url(#f)" d="M82.044 56.027h5.683v.821h-5.683v-.82Z"/><path fill="url(#g)" d="M82.044 56.55h.412v6.567h-.412V56.55Z"/><path fill="url(#h)" d="m80.355 62.333 2.1-1.066v2.132l-2.1-1.066Z"/><path fill="url(#i)" d="M87.315 56.55h.412v6.567h-.412V56.55Z"/><path fill="url(#j)" d="m85.627 62.333 2.1-1.066v2.132l-2.1-1.066Z"/><path fill="url(#k)" d="M3.9 81.092h5.683v.903H3.9v-.903Z"/><path fill="url(#l)" d="M3.9 81.667h.412v7.224H3.9v-7.224Z"/><path fill="url(#m)" d="m2.211 88.029 2.1-1.173v2.346l-2.1-1.173Z"/><path fill="url(#n)" d="M9.171 81.667h.412v7.224h-.412v-7.224Z"/><path fill="url(#o)" d="m7.483 88.029 2.1-1.173v2.346l-2.1-1.173Z"/><path fill="url(#p)" d="M3.25 28.978h1.324v3.878H3.251v-3.878Z"/><path fill="url(#q)" d="M5.236 28.978h1.323v3.878H5.236v-3.878Z"/><path fill="url(#r)" d="M7.22 28.978h1.324v3.878H7.22v-3.878Z"/><path fill="url(#s)" d="M7.617 30.604h.53v3.878h-.53v-3.878Z"/><path fill="url(#t)" d="M5.633 30.604h.529v3.878h-.53v-3.878Z"/><path fill="url(#u)" d="M3.648 30.604h.53v3.878h-.53v-3.878Z"/><path fill="url(#v)" fill-rule="evenodd" d="M9.3 29.005H2.495v5.39H9.3v-5.39Zm-7.089-.254v5.898h7.372V28.75H2.211Z" clip-rule="evenodd"/><path fill="url(#w)" d="M33.676 8.11c.436 0 .813-.395.813-.851l.896-.871-.896-.871a.872.872 0 0 0-.555-.83V3.484C33.934 1.555 32.447 0 30.603 0c-1.825 0-3.312 1.555-3.312 3.484v1.203a.924.924 0 0 0-.555.83l-.934.87.934.872c0 .456.377.85.833.85.456 0 .832-.394.832-.85V5.517c0-.394-.238-.685-.555-.83V3.484c0-1.617 1.23-2.903 2.757-2.903 1.546 0 2.776 1.286 2.776 2.903v1.203a.94.94 0 0 0-.536.83v1.742c0 .456.377.85.833.85Z"/><path fill="url(#x)" d="M88.23 35.386c.436 0 .813-.358.813-.773l.896-.792-.896-.792c0-.358-.219-.622-.556-.754V31.18c0-1.753-1.487-3.167-3.331-3.167-1.824 0-3.312 1.414-3.312 3.167v1.094c-.317.132-.555.415-.555.754l-.934.792.934.792c0 .415.377.773.833.773.456 0 .833-.358.833-.773v-1.584c0-.358-.238-.622-.555-.754V31.18c0-1.47 1.229-2.64 2.756-2.64 1.547 0 2.776 1.17 2.776 2.64v1.094c-.297.132-.535.415-.535.754v1.584c0 .415.376.773.832.773Z"/><path fill="url(#y)" d="M88.23 88.465c.436 0 .813-.395.813-.85l.896-.872-.896-.871c0-.394-.219-.684-.556-.83V83.84c0-1.928-1.487-3.484-3.331-3.484-1.824 0-3.312 1.556-3.312 3.484v1.203a.924.924 0 0 0-.555.83l-.934.871.934.871c0 .456.377.85.833.85.456 0 .833-.394.833-.85v-1.742c0-.394-.238-.684-.555-.83V83.84c0-1.617 1.229-2.903 2.756-2.903 1.547 0 2.776 1.286 2.776 2.903v1.203a.94.94 0 0 0-.535.83v1.742c0 .456.376.85.832.85Z"/><path fill="url(#z)" fill-rule="evenodd" d="M7.513 59.794c0 .993-.74 1.824-1.625 1.824s-1.625-.831-1.625-1.824v-3.417c0-.993.74-1.824 1.625-1.824.905 0 1.625.83 1.625 1.824v3.417Z" clip-rule="evenodd"/><path fill="url(#A)" fill-rule="evenodd" d="M6.834 64.204h-.638v-1.916c.144 0 .288-.047.35-.07.144-.046.617-.3.74-.392.103-.116.453-.531.535-.67.062-.161.165-.392.206-.577.041-.162.041-.3.041-.3.02-.162.041-.462.041-.624v-1.223a2.07 2.07 0 0 0-.102-.624l-.165-.554c-.041-.161-.082-.161-.082.023v2.378c0 .162-.041.716-.062.832a3.86 3.86 0 0 1-.309.67c-.082.092-.39.392-.493.484-.103.07-.515.23-.638.254-.144.023-.247.023-.247.023h-.144c-.02 0-.37-.046-.494-.07a5.117 5.117 0 0 1-.596-.322c-.083-.093-.37-.44-.432-.555a4.795 4.795 0 0 1-.227-.715c-.02-.139-.02-.393-.02-.578V57.3c0-.161-.062-.161-.103-.023l-.165.554c-.103.139-.144.416-.144.6v1.224c0 .162.041.785.083.947.04.162.267.693.35.831.102.116.472.485.596.577.144.07.35.185.514.254.144.07.268.07.268.07h.061v1.916h-.617c-.082 0-.144.07-.144.162v.3c0 .092.062.162.144.162h.926l.967-.04c.062 0 .123-.03.123-.122v-.37c.02-.092-.061-.138-.123-.138Z" clip-rule="evenodd"/><path fill="url(#B)" fill-rule="evenodd" d="M5.617.06 6.03 0l1.387 3.88h2.167v.43H7.118L5.98 1.127l-.417 6.926-.413.057-1.206-3.5-.902 1.57L1.88 4.31H0v-.43h2.114l.914 1.466 1.014-1.765 1.16 3.371L5.618.06Z" clip-rule="evenodd"/><path fill="url(#C)" d="M140.283 81.092h5.684v.903h-5.684v-.903Z"/><path fill="url(#D)" d="M140.283 81.667h.412v7.224h-.412v-7.224Z"/><path fill="url(#E)" d="m138.595 88.029 2.1-1.173v2.346l-2.1-1.173Z"/><path fill="url(#F)" d="M145.555 81.667h.412v7.224h-.412v-7.224Z"/><path fill="url(#G)" d="m143.866 88.029 2.101-1.173v2.346l-2.101-1.173Z"/><path fill="url(#H)" d="M139.634 28.978h1.323v3.878h-1.323v-3.878Z"/><path fill="url(#I)" d="M141.619 28.978h1.323v3.878h-1.323v-3.878Z"/><path fill="url(#J)" d="M143.604 28.978h1.323v3.878h-1.323v-3.878Z"/><path fill="url(#K)" d="M144.001 30.604h.529v3.878h-.529v-3.878Z"/><path fill="url(#L)" d="M142.016 30.604h.529v3.878h-.529v-3.878Z"/><path fill="url(#M)" d="M140.031 30.604h.529v3.878h-.529v-3.878Z"/><path fill="url(#N)" fill-rule="evenodd" d="M145.683 29.005h-6.805v5.39h6.805v-5.39Zm-7.088-.254v5.898h7.372V28.75h-7.372Z" clip-rule="evenodd"/><path fill="url(#O)" fill-rule="evenodd" d="M143.896 59.794c0 .993-.741 1.824-1.626 1.824-.884 0-1.625-.831-1.625-1.824v-3.417c0-.993.741-1.824 1.625-1.824.906 0 1.626.83 1.626 1.824v3.417Z" clip-rule="evenodd"/><path fill="url(#P)" fill-rule="evenodd" d="M143.216 64.204h-.637v-1.916c.144 0 .288-.047.349-.07.144-.046.617-.3.741-.392.103-.116.453-.531.535-.67.062-.161.164-.392.206-.577.041-.162.041-.3.041-.3.02-.162.041-.462.041-.624v-1.223c0-.185-.041-.462-.103-.624l-.165-.554c-.041-.161-.082-.161-.082.023v2.378c0 .162-.041.716-.062.832a3.869 3.869 0 0 1-.308.67 11.39 11.39 0 0 1-.494.484 3.11 3.11 0 0 1-.638.254c-.144.023-.247.023-.247.023h-.144c-.02 0-.37-.046-.493-.07a5.088 5.088 0 0 1-.597-.322c-.082-.093-.37-.44-.432-.555a4.695 4.695 0 0 1-.226-.715c-.021-.139-.021-.393-.021-.578V57.3c0-.161-.062-.161-.103-.023l-.164.554c-.103.139-.144.416-.144.6v1.224c0 .162.041.785.082.947.041.162.267.693.35.831.103.116.473.485.596.577.144.07.35.185.515.254a.68.68 0 0 0 .267.07h.062v1.916h-.617c-.083 0-.144.07-.144.162v.3c0 .092.061.162.144.162h.925l.967-.04c.062 0 .124-.03.124-.122v-.37c.02-.092-.062-.138-.124-.138Z" clip-rule="evenodd"/><path fill="url(#Q)" fill-rule="evenodd" d="m142 .06.413-.06 1.386 3.88h2.167v.43H143.5l-1.138-3.184-.416 6.926-.414.057-1.205-3.5-.902 1.57-1.164-1.868h-1.879v-.43h2.115l.913 1.466 1.014-1.765 1.161 3.371L142 .06Z" clip-rule="evenodd"/><path fill="url(#R)" d="M27.683 82.085h1.456v4.362h-1.456v-4.362Z"/><path fill="url(#S)" d="M29.866 82.085h1.456v4.362h-1.456v-4.362Z"/><path fill="url(#T)" d="M32.05 82.085h1.455v4.362h-1.456v-4.362Z"/><path fill="url(#U)" d="M32.486 83.914h.582v4.363h-.582v-4.363Z"/><path fill="url(#V)" d="M30.303 83.914h.582v4.363h-.582v-4.363Z"/><path fill="url(#W)" d="M28.12 83.914h.582v4.363h-.582v-4.363Z"/><path fill="url(#X)" fill-rule="evenodd" d="M34.337 82.115H26.85v6.063h7.486v-6.063Zm-7.798-.286v6.635h8.11V81.83h-8.11Z" clip-rule="evenodd"/><path fill="url(#Y)" fill-rule="evenodd" d="M57.133 35.117a3.048 3.048 0 1 0 0-6.097 3.048 3.048 0 0 0 0 6.097Zm0 .269a3.317 3.317 0 1 0 0-6.635 3.317 3.317 0 0 0 0 6.635Z" clip-rule="evenodd"/><path fill="url(#Z)" d="M58.296 32.069a1.164 1.164 0 1 1-2.328 0 1.164 1.164 0 0 1 2.328 0Z"/><path fill="url(#aa)" d="M55.103 30.082c-.454.436-.396 1.21-.396 1.21s.319-.834.546-1.063c.227-.23 1.01-.524 1.01-.524s-.705-.06-1.16.377Z"/><path fill="url(#ab)" fill-rule="evenodd" d="M56.01 29.71c.151-.014.253-.005.253-.005s-.096.036-.23.093c-.25.105-.632.282-.78.43-.151.153-.342.572-.454.836a7.912 7.912 0 0 0-.092.227s-.008-.1.004-.249c.02-.264.102-.68.392-.96.282-.27.66-.35.907-.373Zm-.346.156c-.17.052-.35.138-.498.28a1.21 1.21 0 0 0-.313.576c.045-.093.092-.188.14-.274.063-.112.13-.216.196-.282.066-.067.166-.133.273-.194.065-.037.133-.072.202-.106Z" clip-rule="evenodd"/><path fill="url(#ac)" d="M55.635 30.55c-.302.287-.266.799-.266.799s.213-.551.365-.702c.15-.152.67-.344.67-.344s-.467-.041-.769.246Z"/><path fill="url(#ad)" fill-rule="evenodd" d="M56.127 30.32c.157-.028.277-.017.277-.017s-.114.042-.251.103c-.155.068-.34.16-.42.24-.083.085-.186.291-.261.459-.06.134-.103.244-.103.244s-.008-.117.016-.27c.026-.168.092-.38.25-.53a.939.939 0 0 1 .492-.23Z" clip-rule="evenodd"/><path fill="url(#ae)" d="M56.095 30.968c-.204.194-.18.54-.18.54s.144-.372.246-.474c.103-.102.453-.232.453-.232s-.315-.028-.519.166Z"/><path fill="url(#af)" fill-rule="evenodd" d="M56.257 30.863c.176-.077.357-.061.357-.061s-.179.066-.318.141a.614.614 0 0 0-.135.091.81.81 0 0 0-.117.184c-.07.136-.129.29-.129.29s-.011-.161.047-.326a.54.54 0 0 1 .133-.214.55.55 0 0 1 .162-.105Z" clip-rule="evenodd"/><path fill="url(#ag)" d="M59.249 33.934c.437-.453.35-1.223.35-1.223s-.287.844-.505 1.082c-.219.238-.99.562-.99.562s.707.033 1.145-.42Z"/><path fill="url(#ah)" fill-rule="evenodd" d="M58.331 34.254c-.132.061-.226.101-.226.101s.101.005.252-.014c.245-.031.62-.126.892-.407.28-.29.345-.71.355-.974.006-.15-.005-.25-.005-.25s-.032.096-.084.232c-.101.268-.276.693-.421.851-.142.155-.517.346-.763.46Zm.365-.082c.17-.059.345-.152.488-.3.161-.167.247-.383.29-.587-.04.095-.084.191-.13.28a1.38 1.38 0 0 1-.184.289 1.31 1.31 0 0 1-.266.204c-.063.039-.13.077-.198.114Z" clip-rule="evenodd"/><path fill="url(#ai)" d="M58.7 33.487c.291-.298.236-.809.236-.809s-.193.559-.338.716c-.145.157-.657.369-.657.369s.468.023.76-.276Z"/><path fill="url(#aj)" fill-rule="evenodd" d="M58.188 33.65a4.91 4.91 0 0 1-.247.113s.12.006.276-.027c.152-.032.34-.1.483-.248.152-.157.21-.37.23-.54.018-.153.006-.27.006-.27s-.038.111-.094.248c-.068.17-.163.38-.244.468-.077.083-.258.182-.41.256Z" clip-rule="evenodd"/><path fill="url(#ak)" d="M58.225 33.086c.196-.202.159-.546.159-.546s-.13.377-.228.483c-.098.106-.444.25-.444.25s.316.015.513-.187Z"/><path fill="url(#al)" fill-rule="evenodd" d="M58.025 33.119c-.136.08-.313.153-.313.153s.182.01.355-.074a.553.553 0 0 0 .158-.112.54.54 0 0 0 .125-.219c.051-.166.034-.327.034-.327s-.054.156-.118.295a.81.81 0 0 1-.11.188.62.62 0 0 1-.131.096Z" clip-rule="evenodd"/><path fill="url(#am)" fill-rule="evenodd" d="M57.133 88.195a3.049 3.049 0 1 0 0-6.097 3.049 3.049 0 0 0 0 6.097Zm0 .27a3.317 3.317 0 1 0 0-6.636 3.317 3.317 0 0 0 0 6.635Z" clip-rule="evenodd"/><path fill="url(#an)" d="M58.296 85.147a1.164 1.164 0 1 1-2.328 0 1.164 1.164 0 0 1 2.328 0Z"/><path fill="url(#ao)" d="M55.103 83.16c-.454.437-.396 1.21-.396 1.21s.319-.834.546-1.063c.227-.23 1.01-.524 1.01-.524s-.705-.06-1.16.377Z"/><path fill="url(#ap)" fill-rule="evenodd" d="M56.01 82.788c.151-.014.253-.005.253-.005s-.096.036-.23.093c-.25.105-.632.282-.78.43-.151.153-.342.572-.454.836-.056.133-.092.228-.092.228s-.008-.1.004-.25c.02-.264.102-.68.392-.96.282-.27.66-.35.907-.372Zm-.346.156c-.17.052-.35.138-.498.28a1.2 1.2 0 0 0-.313.576c.045-.093.092-.188.14-.274.063-.112.13-.216.196-.282.066-.067.166-.133.273-.194a4.78 4.78 0 0 1 .202-.106Z" clip-rule="evenodd"/><path fill="url(#aq)" d="M55.635 83.627c-.302.288-.266.8-.266.8s.213-.55.365-.702c.15-.151.67-.344.67-.344s-.467-.041-.769.246Z"/><path fill="url(#ar)" fill-rule="evenodd" d="M56.127 83.397c.157-.026.277-.016.277-.016s-.114.042-.251.103c-.155.069-.34.16-.42.24-.083.085-.186.291-.261.459-.06.134-.103.244-.103.244s-.008-.117.016-.27c.026-.168.092-.38.25-.53a.937.937 0 0 1 .492-.23Z" clip-rule="evenodd"/><path fill="url(#as)" d="M56.095 84.046c-.204.194-.18.54-.18.54s.144-.372.246-.474c.103-.102.453-.232.453-.232s-.315-.028-.519.166Z"/><path fill="url(#at)" fill-rule="evenodd" d="M56.257 83.94c.176-.076.357-.06.357-.06s-.179.066-.318.142a.618.618 0 0 0-.135.09.808.808 0 0 0-.117.184c-.07.137-.129.29-.129.29s-.011-.161.047-.326a.541.541 0 0 1 .133-.214.552.552 0 0 1 .162-.105Z" clip-rule="evenodd"/><path fill="url(#au)" d="M59.249 87.012c.437-.453.35-1.223.35-1.223s-.287.844-.505 1.082c-.219.238-.99.562-.99.562s.707.033 1.145-.42Z"/><path fill="url(#av)" fill-rule="evenodd" d="M58.331 87.332c-.132.062-.226.101-.226.101s.101.005.252-.014c.245-.031.62-.125.892-.407.28-.29.345-.71.355-.974.006-.15-.005-.25-.005-.25s-.032.096-.084.232c-.101.268-.276.693-.421.851-.142.155-.517.346-.763.46Zm.365-.082c.17-.059.345-.152.488-.3.161-.166.247-.383.29-.587-.04.095-.084.192-.13.28-.058.113-.12.22-.184.289-.063.069-.161.14-.266.204-.063.039-.13.077-.198.114Z" clip-rule="evenodd"/><path fill="url(#aw)" d="M58.7 86.566c.291-.3.236-.81.236-.81s-.193.559-.338.716c-.145.157-.657.369-.657.369s.468.024.76-.275Z"/><path fill="url(#ax)" fill-rule="evenodd" d="M58.188 86.729c-.134.065-.247.112-.247.112s.12.006.276-.027c.152-.032.34-.1.483-.248.152-.157.21-.37.23-.54.018-.153.006-.27.006-.27s-.038.112-.094.248c-.068.17-.163.38-.244.468-.077.083-.258.182-.41.257Z" clip-rule="evenodd"/><path fill="url(#ay)" d="M58.225 86.164c.196-.201.159-.546.159-.546s-.13.377-.228.483c-.098.106-.444.25-.444.25s.316.015.513-.187Z"/><path fill="url(#az)" fill-rule="evenodd" d="M58.025 86.197c-.136.08-.313.153-.313.153s.182.01.355-.074a.555.555 0 0 0 .158-.112.54.54 0 0 0 .125-.219c.051-.166.034-.327.034-.327s-.054.156-.118.295a.806.806 0 0 1-.11.188.613.613 0 0 1-.131.096Z" clip-rule="evenodd"/><path fill="url(#aA)" fill-rule="evenodd" d="M58.38 59.794c0 .993-.74 1.824-1.625 1.824-.884 0-1.625-.831-1.625-1.824v-3.417c0-.993.74-1.824 1.625-1.824.905 0 1.625.83 1.625 1.824v3.417Z" clip-rule="evenodd"/><path fill="url(#aB)" fill-rule="evenodd" d="M57.701 64.204h-.638v-1.916c.144 0 .288-.047.35-.07.144-.046.617-.3.74-.392.104-.116.453-.531.535-.67.062-.161.165-.392.206-.577.041-.162.041-.3.041-.3.021-.162.041-.462.041-.624v-1.223a2.07 2.07 0 0 0-.102-.624l-.165-.554c-.041-.161-.082-.161-.082.023v2.378c0 .162-.041.716-.062.832a3.863 3.863 0 0 1-.308.67 11.39 11.39 0 0 1-.494.484c-.103.07-.515.23-.638.254-.144.023-.247.023-.247.023h-.144c-.02 0-.37-.046-.494-.07a5.123 5.123 0 0 1-.596-.322c-.083-.093-.37-.44-.432-.555a4.776 4.776 0 0 1-.227-.715c-.02-.139-.02-.393-.02-.578V57.3c0-.161-.062-.161-.103-.023l-.165.554c-.103.139-.144.416-.144.6v1.224c0 .162.041.785.083.947.04.162.267.693.35.831a7.4 7.4 0 0 0 .596.577c.144.07.35.185.514.254.144.07.268.07.268.07h.062v1.916h-.618c-.082 0-.144.07-.144.162v.3c0 .092.062.162.144.162h.926l.967-.04c.062 0 .123-.03.123-.122v-.37c.021-.092-.061-.138-.123-.138Z" clip-rule="evenodd"/><path fill="url(#aC)" fill-rule="evenodd" d="m31.115 56.082.445-.055 1.493 3.528h2.333v.391h-2.655l-1.226-2.895-.448 6.296-.446.052-1.298-3.182-.971 1.427-1.253-1.698h-2.024v-.391h2.277l.984 1.333 1.092-1.604 1.25 3.065.447-6.267Z" clip-rule="evenodd"/><path fill="url(#aD)" d="M110.625 28.014h5.115v.82h-5.115v-.82Z"/><path fill="url(#aE)" d="M110.625 28.536h.371v6.567h-.371v-6.567Z"/><path fill="url(#aF)" d="m109.105 34.32 1.891-1.067v2.133l-1.891-1.067Z"/><path fill="url(#aG)" d="M115.369 28.536h.371v6.567h-.371v-6.567Z"/><path fill="url(#aH)" d="m113.85 34.32 1.89-1.067v2.133l-1.89-1.067Z"/><path fill="url(#aI)" d="M28.06 129.748h5.114v.821H28.06v-.821Z"/><path fill="url(#aJ)" d="M28.06 130.27h.37v6.567h-.37v-6.567Z"/><path fill="url(#aK)" d="m26.54 136.054 1.89-1.067v2.133l-1.89-1.066Z"/><path fill="url(#aL)" d="M32.804 130.27h.37v6.567h-.37v-6.567Z"/><path fill="url(#aM)" d="m31.284 136.054 1.89-1.067v2.133l-1.89-1.066Z"/><path fill="url(#aN)" d="M3.25 130.712h1.324v3.878H3.251v-3.878Z"/><path fill="url(#aO)" d="M5.236 130.712h1.323v3.878H5.236v-3.878Z"/><path fill="url(#aP)" d="M7.22 130.712h1.324v3.878H7.22v-3.878Z"/><path fill="url(#aQ)" d="M7.617 132.338h.53v3.878h-.53v-3.878Z"/><path fill="url(#aR)" d="M5.633 132.338h.529v3.878h-.53v-3.878Z"/><path fill="url(#aS)" d="M3.648 132.338h.53v3.878h-.53v-3.878Z"/><path fill="url(#aT)" fill-rule="evenodd" d="M9.3 130.739H2.495v5.389H9.3v-5.389Zm-7.089-.254v5.898h7.372v-5.898H2.211Z" clip-rule="evenodd"/><path fill="url(#aU)" d="M88.23 137.12c.436 0 .813-.358.813-.773l.896-.792-.896-.792c0-.358-.219-.622-.556-.754v-1.094c0-1.753-1.487-3.167-3.331-3.167-1.824 0-3.312 1.414-3.312 3.167v1.094c-.317.132-.555.415-.555.754l-.934.792.934.792c0 .415.377.773.833.773.456 0 .833-.358.833-.773v-1.584c0-.358-.238-.622-.555-.754v-1.094c0-1.47 1.229-2.639 2.756-2.639 1.547 0 2.776 1.169 2.776 2.639v1.094c-.297.132-.535.415-.535.754v1.584c0 .415.376.773.832.773Z"/><path fill="url(#aV)" d="M139.634 130.712h1.323v3.878h-1.323v-3.878Z"/><path fill="url(#aW)" d="M141.619 130.712h1.323v3.878h-1.323v-3.878Z"/><path fill="url(#aX)" d="M143.604 130.712h1.323v3.878h-1.323v-3.878Z"/><path fill="url(#aY)" d="M144.001 132.338h.529v3.878h-.529v-3.878Z"/><path fill="url(#aZ)" d="M142.016 132.338h.529v3.878h-.529v-3.878Z"/><path fill="url(#ba)" d="M140.031 132.338h.529v3.878h-.529v-3.878Z"/><path fill="url(#bb)" fill-rule="evenodd" d="M145.683 130.739h-6.805v5.389h6.805v-5.389Zm-7.088-.254v5.898h7.372v-5.898h-7.372Z" clip-rule="evenodd"/><path fill="url(#bc)" fill-rule="evenodd" d="M57.133 136.851a3.049 3.049 0 1 0 0-6.097 3.049 3.049 0 0 0 0 6.097Zm0 .269a3.318 3.318 0 1 0-.001-6.636 3.318 3.318 0 0 0 .001 6.636Z" clip-rule="evenodd"/><path fill="url(#bd)" d="M58.296 133.802a1.164 1.164 0 1 1-2.328 0 1.164 1.164 0 0 1 2.328 0Z"/><path fill="url(#be)" d="M55.103 131.816c-.454.436-.396 1.209-.396 1.209s.319-.833.546-1.063c.227-.229 1.01-.524 1.01-.524s-.705-.059-1.16.378Z"/><path fill="url(#bf)" fill-rule="evenodd" d="M56.01 131.443c.151-.013.253-.005.253-.005s-.096.037-.23.093c-.25.106-.632.282-.78.431-.151.153-.342.571-.454.835-.056.134-.092.228-.092.228s-.008-.1.004-.249c.02-.264.102-.681.392-.96.282-.271.66-.351.907-.373Zm-.346.157c-.17.051-.35.138-.498.28a1.21 1.21 0 0 0-.313.576c.045-.093.092-.188.14-.274.063-.112.13-.216.196-.283.066-.066.166-.132.273-.193.065-.037.133-.073.202-.106Z" clip-rule="evenodd"/><path fill="url(#bg)" d="M55.635 132.283c-.302.287-.266.799-.266.799s.213-.55.365-.702c.15-.151.67-.343.67-.343s-.467-.042-.769.246Z"/><path fill="url(#bh)" fill-rule="evenodd" d="M56.127 132.053c.157-.027.277-.016.277-.016s-.114.042-.251.102c-.155.069-.34.161-.42.241-.083.084-.186.291-.261.458-.06.135-.103.244-.103.244s-.008-.116.016-.269c.026-.168.092-.38.25-.53a.937.937 0 0 1 .492-.23Z" clip-rule="evenodd"/><path fill="url(#bi)" d="M56.095 132.702c-.204.194-.18.54-.18.54s.144-.372.246-.474c.103-.102.453-.232.453-.232s-.315-.028-.519.166Z"/><path fill="url(#bj)" fill-rule="evenodd" d="M56.257 132.596c.176-.076.357-.06.357-.06s-.179.066-.318.141a.62.62 0 0 0-.135.091.794.794 0 0 0-.117.183c-.07.137-.129.291-.129.291s-.011-.162.047-.326a.538.538 0 0 1 .133-.214.565.565 0 0 1 .162-.106Z" clip-rule="evenodd"/><path fill="url(#bk)" d="M59.249 135.668c.437-.453.35-1.224.35-1.224s-.287.845-.505 1.083c-.219.238-.99.562-.99.562s.707.032 1.145-.421Z"/><path fill="url(#bl)" fill-rule="evenodd" d="M58.331 135.987a7.287 7.287 0 0 1-.226.102s.101.005.252-.014c.245-.031.62-.126.892-.407.28-.29.345-.71.355-.975.006-.149-.005-.249-.005-.249s-.032.096-.084.231c-.101.269-.276.694-.421.852-.142.155-.517.346-.763.46Zm.365-.082c.17-.058.345-.151.488-.299a1.2 1.2 0 0 0 .29-.587c-.04.095-.084.191-.13.279a1.385 1.385 0 0 1-.184.29 1.285 1.285 0 0 1-.266.203 3.45 3.45 0 0 1-.198.114Z" clip-rule="evenodd"/><path fill="url(#bm)" d="M58.7 135.221c.291-.299.236-.809.236-.809s-.193.559-.338.715c-.145.157-.657.369-.657.369s.468.024.76-.275Z"/><path fill="url(#bn)" fill-rule="evenodd" d="M58.188 135.384c-.134.066-.247.112-.247.112s.12.007.276-.026a.936.936 0 0 0 .483-.249c.152-.156.21-.37.23-.539.018-.154.006-.27.006-.27s-.038.111-.094.248c-.068.17-.163.38-.244.467-.077.084-.258.183-.41.257Z" clip-rule="evenodd"/><path fill="url(#bo)" d="M58.225 134.82c.196-.202.159-.546.159-.546s-.13.377-.228.483c-.098.106-.444.249-.444.249s.316.016.513-.186Z"/><path fill="url(#bp)" fill-rule="evenodd" d="M58.025 134.852c-.136.081-.313.154-.313.154s.182.009.355-.074a.56.56 0 0 0 .158-.112.54.54 0 0 0 .125-.219c.051-.166.034-.327.034-.327s-.054.155-.118.295a.824.824 0 0 1-.11.188.62.62 0 0 1-.131.095Z" clip-rule="evenodd"/><path fill="url(#bq)" d="M110.625 129.748h5.115v.821h-5.115v-.821Z"/><path fill="url(#br)" d="M110.625 130.27h.371v6.567h-.371v-6.567Z"/><path fill="url(#bs)" d="m109.105 136.054 1.891-1.067v2.133l-1.891-1.066Z"/><path fill="url(#bt)" d="M115.369 130.27h.371v6.567h-.371v-6.567Z"/><path fill="url(#bu)" d="m113.85 136.054 1.89-1.067v2.133l-1.89-1.066Z"/><path fill="url(#bv)" d="M116.244 8.11c.436 0 .813-.395.813-.851l.896-.871-.896-.871a.872.872 0 0 0-.555-.83V3.484c0-1.929-1.488-3.484-3.332-3.484-1.824 0-3.311 1.555-3.311 3.484v1.203a.923.923 0 0 0-.556.83l-.934.87.934.872c0 .456.377.85.833.85.456 0 .833-.394.833-.85V5.517c0-.394-.238-.685-.555-.83V3.484c0-1.617 1.229-2.903 2.756-2.903 1.547 0 2.776 1.286 2.776 2.903v1.203a.94.94 0 0 0-.535.83v1.742c0 .456.377.85.833.85Z"/><path fill="url(#bw)" d="M110.249 82.085h1.455v4.362h-1.455v-4.362Z"/><path fill="url(#bx)" d="M112.432 82.085h1.456v4.362h-1.456v-4.362Z"/><path fill="url(#by)" d="M114.615 82.085h1.456v4.362h-1.456v-4.362Z"/><path fill="url(#bz)" d="M115.052 83.914h.582v4.363h-.582v-4.363Z"/><path fill="url(#bA)" d="M112.869 83.914h.582v4.363h-.582v-4.363Z"/><path fill="url(#bB)" d="M110.686 83.914h.582v4.363h-.582v-4.363Z"/><path fill="url(#bC)" fill-rule="evenodd" d="M116.903 82.115h-7.486v6.063h7.486v-6.063Zm-7.798-.286v6.635h8.11V81.83h-8.11Z" clip-rule="evenodd"/><path fill="url(#bD)" fill-rule="evenodd" d="m113.681 56.082.445-.055 1.493 3.528h2.334v.391h-2.656l-1.225-2.895-.449 6.296-.445.052-1.298-3.182-.972 1.427-1.253-1.698h-2.023v-.391h2.277l.983 1.333 1.093-1.604 1.25 3.065.446-6.267Z" clip-rule="evenodd"/><path fill="url(#bE)" d="M81.499.992h1.455v4.363H81.5V.992Z"/><path fill="url(#bF)" d="M83.682.992h1.455v4.363h-1.455V.992Z"/><path fill="url(#bG)" d="M85.865.992h1.456v4.363h-1.456V.992Z"/><path fill="url(#bH)" d="M86.302 2.822h.582v4.363h-.582V2.822Z"/><path fill="url(#bI)" d="M84.119 2.822h.582v4.363h-.582V2.822Z"/><path fill="url(#bJ)" d="M81.935 2.822h.582v4.363h-.582V2.822Z"/><path fill="url(#bK)" fill-rule="evenodd" d="M88.152 1.023h-7.485v6.063h7.485V1.023ZM80.355.737v6.635h8.11V.737h-8.11Z" clip-rule="evenodd"/><path fill="url(#bL)" fill-rule="evenodd" d="m58.39.06.445-.06 1.494 3.88h2.333v.43h-2.655L58.78 1.127l-.448 6.926-.446.057-1.298-3.5-.972 1.57-1.252-1.868H52.34v-.43h2.277l.984 1.466 1.092-1.765 1.25 3.371.447-6.893Z" clip-rule="evenodd"/><path fill="url(#bM)" d="M33.676 113.529c.436 0 .813-.394.813-.85l.896-.871-.896-.871c0-.394-.218-.684-.555-.83v-1.203c0-1.928-1.487-3.484-3.331-3.484-1.825 0-3.312 1.556-3.312 3.484v1.203a.925.925 0 0 0-.555.83l-.934.871.934.871c0 .456.377.85.833.85.456 0 .832-.394.832-.85v-1.742c0-.394-.238-.684-.555-.83v-1.203c0-1.617 1.23-2.903 2.757-2.903 1.546 0 2.776 1.286 2.776 2.903v1.203a.941.941 0 0 0-.536.83v1.742c0 .456.377.85.833.85Z"/><path fill="url(#bN)" fill-rule="evenodd" d="m6.355 105.48.413-.06 1.386 3.88h2.167v.431H7.855l-1.138-3.184-.416 6.925-.414.057-1.205-3.5-.903 1.57-1.163-1.868H.737v-.431h2.114l.914 1.467 1.014-1.765 1.161 3.372.415-6.894Z" clip-rule="evenodd"/><path fill="url(#bO)" fill-rule="evenodd" d="m143.474 105.48.413-.06 1.387 3.88h2.167v.431h-2.466l-1.138-3.184-.417 6.925-.413.057-1.206-3.5-.902 1.57-1.163-1.868h-1.879v-.431h2.114l.913 1.467 1.015-1.765 1.161 3.372.414-6.894Z" clip-rule="evenodd"/><path fill="url(#bP)" d="M116.244 113.529c.436 0 .813-.394.813-.85l.896-.871-.896-.871c0-.394-.218-.684-.555-.83v-1.203c0-1.928-1.488-3.484-3.332-3.484-1.824 0-3.311 1.556-3.311 3.484v1.203a.925.925 0 0 0-.556.83l-.934.871.934.871c0 .456.377.85.833.85.456 0 .833-.394.833-.85v-1.742c0-.394-.238-.684-.555-.83v-1.203c0-1.617 1.229-2.903 2.756-2.903 1.547 0 2.776 1.286 2.776 2.903v1.203a.942.942 0 0 0-.535.83v1.742c0 .456.377.85.833.85Z"/><path fill="url(#bQ)" d="M81.499 106.412h1.455v4.363H81.5v-4.363Z"/><path fill="url(#bR)" d="M83.682 106.412h1.455v4.363h-1.455v-4.363Z"/><path fill="url(#bS)" d="M85.865 106.412h1.456v4.363h-1.456v-4.363Z"/><path fill="url(#bT)" d="M86.302 108.242h.582v4.363h-.582v-4.363Z"/><path fill="url(#bU)" d="M84.119 108.242h.582v4.363h-.582v-4.363Z"/><path fill="url(#bV)" d="M81.935 108.242h.582v4.363h-.582v-4.363Z"/><path fill="url(#bW)" fill-rule="evenodd" d="M88.152 106.443h-7.485v6.063h7.485v-6.063Zm-7.797-.286v6.635h8.11v-6.635h-8.11Z" clip-rule="evenodd"/><path fill="url(#bX)" fill-rule="evenodd" d="m58.39 105.48.445-.06 1.494 3.88h2.333v.431h-2.655l-1.226-3.184-.448 6.925-.446.057-1.298-3.5-.972 1.57-1.252-1.868H52.34v-.431h2.277l.984 1.467 1.092-1.765 1.25 3.372.447-6.894Z" clip-rule="evenodd"/><defs><linearGradient id="a" x1=".724" x2="99.402" y1="62.944" y2="62.944" gradientUnits="userSpaceOnUse"><stop stop-color="#F3461B"/><stop offset="1" stop-color="#0DA6F2"/></linearGradient><linearGradient id="b" x1=".724" x2="99.402" y1="62.944" y2="62.944" gradientUnits="userSpaceOnUse"><stop stop-color="#F3461B"/><stop offset="1" stop-color="#0DA6F2"/></linearGradient><linearGradient id="c" x1=".724" x2="99.402" y1="62.944" y2="62.944" gradientUnits="userSpaceOnUse"><stop stop-color="#F3461B"/><stop offset="1" stop-color="#0DA6F2"/></linearGradient><linearGradient id="d" x1=".724" x2="99.402" y1="62.944" y2="62.944" gradientUnits="userSpaceOnUse"><stop stop-color="#F3461B"/><stop offset="1" stop-color="#0DA6F2"/></linearGradient><linearGradient id="e" x1=".724" x2="99.402" y1="62.944" y2="62.944" gradientUnits="userSpaceOnUse"><stop stop-color="#F3461B"/><stop offset="1" stop-color="#0DA6F2"/></linearGradient><linearGradient id="f" x1=".724" x2="99.402" y1="62.944" y2="62.944" gradientUnits="userSpaceOnUse"><stop stop-color="#F3461B"/><stop offset="1" stop-color="#0DA6F2"/></linearGradient><linearGradient id="g" x1=".724" x2="99.402" y1="62.944" y2="62.944" gradientUnits="userSpaceOnUse"><stop stop-color="#F3461B"/><stop offset="1" stop-color="#0DA6F2"/></linearGradient><linearGradient id="h" x1=".724" x2="99.402" y1="62.944" y2="62.944" gradientUnits="userSpaceOnUse"><stop stop-color="#F3461B"/><stop offset="1" stop-color="#0DA6F2"/></linearGradient><linearGradient id="i" x1=".724" x2="99.402" y1="62.944" y2="62.944" gradientUnits="userSpaceOnUse"><stop stop-color="#F3461B"/><stop offset="1" stop-color="#0DA6F2"/></linearGradient><linearGradient id="j" x1=".724" x2="99.402" y1="62.944" y2="62.944" gradientUnits="userSpaceOnUse"><stop stop-color="#F3461B"/><stop offset="1" stop-color="#0DA6F2"/></linearGradient><linearGradient id="k" x1=".724" x2="99.402" y1="62.944" y2="62.944" gradientUnits="userSpaceOnUse"><stop stop-color="#F3461B"/><stop offset="1" stop-color="#0DA6F2"/></linearGradient><linearGradient id="l" x1=".724" x2="99.402" y1="62.944" y2="62.944" gradientUnits="userSpaceOnUse"><stop stop-color="#F3461B"/><stop offset="1" stop-color="#0DA6F2"/></linearGradient><linearGradient id="m" x1=".724" x2="99.402" y1="62.944" y2="62.944" gradientUnits="userSpaceOnUse"><stop stop-color="#F3461B"/><stop offset="1" stop-color="#0DA6F2"/></linearGradient><linearGradient id="n" x1=".724" x2="99.402" y1="62.944" y2="62.944" gradientUnits="userSpaceOnUse"><stop stop-color="#F3461B"/><stop offset="1" stop-color="#0DA6F2"/></linearGradient><linearGradient id="o" x1=".724" x2="99.402" y1="62.944" y2="62.944" gradientUnits="userSpaceOnUse"><stop stop-color="#F3461B"/><stop offset="1" stop-color="#0DA6F2"/></linearGradient><linearGradient id="p" x1=".724" x2="99.402" y1="62.944" y2="62.944" gradientUnits="userSpaceOnUse"><stop stop-color="#F3461B"/><stop offset="1" stop-color="#0DA6F2"/></linearGradient><linearGradient id="q" x1=".724" x2="99.402" y1="62.944" y2="62.944" gradientUnits="userSpaceOnUse"><stop stop-color="#F3461B"/><stop offset="1" stop-color="#0DA6F2"/></linearGradient><linearGradient id="r" x1=".724" x2="99.402" y1="62.944" y2="62.944" gradientUnits="userSpaceOnUse"><stop stop-color="#F3461B"/><stop offset="1" stop-color="#0DA6F2"/></linearGradient><linearGradient id="s" x1=".724" x2="99.402" y1="62.944" y2="62.944" gradientUnits="userSpaceOnUse"><stop stop-color="#F3461B"/><stop offset="1" stop-color="#0DA6F2"/></linearGradient><linearGradient id="t" x1=".724" x2="99.402" y1="62.944" y2="62.944" gradientUnits="userSpaceOnUse"><stop stop-color="#F3461B"/><stop offset="1" stop-color="#0DA6F2"/></linearGradient><linearGradient id="u" x1=".724" x2="99.402" y1="62.944" y2="62.944" gradientUnits="userSpaceOnUse"><stop stop-color="#F3461B"/><stop offset="1" stop-color="#0DA6F2"/></linearGradient><linearGradient id="v" x1=".724" x2="99.402" y1="62.944" y2="62.944" gradientUnits="userSpaceOnUse"><stop stop-color="#F3461B"/><stop offset="1" stop-color="#0DA6F2"/></linearGradient><linearGradient id="w" x1=".724" x2="99.402" y1="62.944" y2="62.944" gradientUnits="userSpaceOnUse"><stop stop-color="#F3461B"/><stop offset="1" stop-color="#0DA6F2"/></linearGradient><linearGradient id="x" x1=".724" x2="99.402" y1="62.944" y2="62.944" gradientUnits="userSpaceOnUse"><stop stop-color="#F3461B"/><stop offset="1" stop-color="#0DA6F2"/></linearGradient><linearGradient id="y" x1=".724" x2="99.402" y1="62.944" y2="62.944" gradientUnits="userSpaceOnUse"><stop stop-color="#F3461B"/><stop offset="1" stop-color="#0DA6F2"/></linearGradient><linearGradient id="z" x1=".724" x2="99.402" y1="62.944" y2="62.944" gradientUnits="userSpaceOnUse"><stop stop-color="#F3461B"/><stop offset="1" stop-color="#0DA6F2"/></linearGradient><linearGradient id="A" x1=".724" x2="99.402" y1="62.944" y2="62.944" gradientUnits="userSpaceOnUse"><stop stop-color="#F3461B"/><stop offset="1" stop-color="#0DA6F2"/></linearGradient><linearGradient id="B" x1=".724" x2="99.402" y1="62.944" y2="62.944" gradientUnits="userSpaceOnUse"><stop stop-color="#F3461B"/><stop offset="1" stop-color="#0DA6F2"/></linearGradient><linearGradient id="C" x1=".724" x2="99.402" y1="62.944" y2="62.944" gradientUnits="userSpaceOnUse"><stop stop-color="#F3461B"/><stop offset="1" stop-color="#0DA6F2"/></linearGradient><linearGradient id="D" x1=".724" x2="99.402" y1="62.944" y2="62.944" gradientUnits="userSpaceOnUse"><stop stop-color="#F3461B"/><stop offset="1" stop-color="#0DA6F2"/></linearGradient><linearGradient id="E" x1=".724" x2="99.402" y1="62.944" y2="62.944" gradientUnits="userSpaceOnUse"><stop stop-color="#F3461B"/><stop offset="1" stop-color="#0DA6F2"/></linearGradient><linearGradient id="F" x1=".724" x2="99.402" y1="62.944" y2="62.944" gradientUnits="userSpaceOnUse"><stop stop-color="#F3461B"/><stop offset="1" stop-color="#0DA6F2"/></linearGradient><linearGradient id="G" x1=".724" x2="99.402" y1="62.944" y2="62.944" gradientUnits="userSpaceOnUse"><stop stop-color="#F3461B"/><stop offset="1" stop-color="#0DA6F2"/></linearGradient><linearGradient id="H" x1=".724" x2="99.402" y1="62.944" y2="62.944" gradientUnits="userSpaceOnUse"><stop stop-color="#F3461B"/><stop offset="1" stop-color="#0DA6F2"/></linearGradient><linearGradient id="I" x1=".724" x2="99.402" y1="62.944" y2="62.944" gradientUnits="userSpaceOnUse"><stop stop-color="#F3461B"/><stop offset="1" stop-color="#0DA6F2"/></linearGradient><linearGradient id="J" x1=".724" x2="99.402" y1="62.944" y2="62.944" gradientUnits="userSpaceOnUse"><stop stop-color="#F3461B"/><stop offset="1" stop-color="#0DA6F2"/></linearGradient><linearGradient id="K" x1=".724" x2="99.402" y1="62.944" y2="62.944" gradientUnits="userSpaceOnUse"><stop stop-color="#F3461B"/><stop offset="1" stop-color="#0DA6F2"/></linearGradient><linearGradient id="L" x1=".724" x2="99.402" y1="62.944" y2="62.944" gradientUnits="userSpaceOnUse"><stop stop-color="#F3461B"/><stop offset="1" stop-color="#0DA6F2"/></linearGradient><linearGradient id="M" x1=".724" x2="99.402" y1="62.944" y2="62.944" gradientUnits="userSpaceOnUse"><stop stop-color="#F3461B"/><stop offset="1" stop-color="#0DA6F2"/></linearGradient><linearGradient id="N" x1=".724" x2="99.402" y1="62.944" y2="62.944" gradientUnits="userSpaceOnUse"><stop stop-color="#F3461B"/><stop offset="1" stop-color="#0DA6F2"/></linearGradient><linearGradient id="O" x1=".724" x2="99.402" y1="62.944" y2="62.944" gradientUnits="userSpaceOnUse"><stop stop-color="#F3461B"/><stop offset="1" stop-color="#0DA6F2"/></linearGradient><linearGradient id="P" x1=".724" x2="99.402" y1="62.944" y2="62.944" gradientUnits="userSpaceOnUse"><stop stop-color="#F3461B"/><stop offset="1" stop-color="#0DA6F2"/></linearGradient><linearGradient id="Q" x1=".724" x2="99.402" y1="62.944" y2="62.944" gradientUnits="userSpaceOnUse"><stop stop-color="#F3461B"/><stop offset="1" stop-color="#0DA6F2"/></linearGradient><linearGradient id="R" x1=".724" x2="99.402" y1="62.944" y2="62.944" gradientUnits="userSpaceOnUse"><stop stop-color="#F3461B"/><stop offset="1" stop-color="#0DA6F2"/></linearGradient><linearGradient id="S" x1=".724" x2="99.402" y1="62.944" y2="62.944" gradientUnits="userSpaceOnUse"><stop stop-color="#F3461B"/><stop offset="1" stop-color="#0DA6F2"/></linearGradient><linearGradient id="T" x1=".724" x2="99.402" y1="62.944" y2="62.944" gradientUnits="userSpaceOnUse"><stop stop-color="#F3461B"/><stop offset="1" stop-color="#0DA6F2"/></linearGradient><linearGradient id="U" x1=".724" x2="99.402" y1="62.944" y2="62.944" gradientUnits="userSpaceOnUse"><stop stop-color="#F3461B"/><stop offset="1" stop-color="#0DA6F2"/></linearGradient><linearGradient id="V" x1=".724" x2="99.402" y1="62.944" y2="62.944" gradientUnits="userSpaceOnUse"><stop stop-color="#F3461B"/><stop offset="1" stop-color="#0DA6F2"/></linearGradient><linearGradient id="W" x1=".724" x2="99.402" y1="62.944" y2="62.944" gradientUnits="userSpaceOnUse"><stop stop-color="#F3461B"/><stop offset="1" stop-color="#0DA6F2"/></linearGradient><linearGradient id="X" x1=".724" x2="99.402" y1="62.944" y2="62.944" gradientUnits="userSpaceOnUse"><stop stop-color="#F3461B"/><stop offset="1" stop-color="#0DA6F2"/></linearGradient><linearGradient id="Y" x1=".724" x2="99.402" y1="62.944" y2="62.944" gradientUnits="userSpaceOnUse"><stop stop-color="#F3461B"/><stop offset="1" stop-color="#0DA6F2"/></linearGradient><linearGradient id="Z" x1=".724" x2="99.402" y1="62.944" y2="62.944" gradientUnits="userSpaceOnUse"><stop stop-color="#F3461B"/><stop offset="1" stop-color="#0DA6F2"/></linearGradient><linearGradient id="aa" x1=".724" x2="99.402" y1="62.944" y2="62.944" gradientUnits="userSpaceOnUse"><stop stop-color="#F3461B"/><stop offset="1" stop-color="#0DA6F2"/></linearGradient><linearGradient id="ab" x1=".724" x2="99.402" y1="62.944" y2="62.944" gradientUnits="userSpaceOnUse"><stop stop-color="#F3461B"/><stop offset="1" stop-color="#0DA6F2"/></linearGradient><linearGradient id="ac" x1=".724" x2="99.402" y1="62.944" y2="62.944" gradientUnits="userSpaceOnUse"><stop stop-color="#F3461B"/><stop offset="1" stop-color="#0DA6F2"/></linearGradient><linearGradient id="ad" x1=".724" x2="99.402" y1="62.944" y2="62.944" gradientUnits="userSpaceOnUse"><stop stop-color="#F3461B"/><stop offset="1" stop-color="#0DA6F2"/></linearGradient><linearGradient id="ae" x1=".724" x2="99.402" y1="62.944" y2="62.944" gradientUnits="userSpaceOnUse"><stop stop-color="#F3461B"/><stop offset="1" stop-color="#0DA6F2"/></linearGradient><linearGradient id="af" x1=".724" x2="99.402" y1="62.944" y2="62.944" gradientUnits="userSpaceOnUse"><stop stop-color="#F3461B"/><stop offset="1" stop-color="#0DA6F2"/></linearGradient><linearGradient id="ag" x1=".724" x2="99.402" y1="62.944" y2="62.944" gradientUnits="userSpaceOnUse"><stop stop-color="#F3461B"/><stop offset="1" stop-color="#0DA6F2"/></linearGradient><linearGradient id="ah" x1=".724" x2="99.402" y1="62.944" y2="62.944" gradientUnits="userSpaceOnUse"><stop stop-color="#F3461B"/><stop offset="1" stop-color="#0DA6F2"/></linearGradient><linearGradient id="ai" x1=".724" x2="99.402" y1="62.944" y2="62.944" gradientUnits="userSpaceOnUse"><stop stop-color="#F3461B"/><stop offset="1" stop-color="#0DA6F2"/></linearGradient><linearGradient id="aj" x1=".724" x2="99.402" y1="62.944" y2="62.944" gradientUnits="userSpaceOnUse"><stop stop-color="#F3461B"/><stop offset="1" stop-color="#0DA6F2"/></linearGradient><linearGradient id="ak" x1=".724" x2="99.402" y1="62.944" y2="62.944" gradientUnits="userSpaceOnUse"><stop stop-color="#F3461B"/><stop offset="1" stop-color="#0DA6F2"/></linearGradient><linearGradient id="al" x1=".724" x2="99.402" y1="62.944" y2="62.944" gradientUnits="userSpaceOnUse"><stop stop-color="#F3461B"/><stop offset="1" stop-color="#0DA6F2"/></linearGradient><linearGradient id="am" x1=".724" x2="99.402" y1="62.944" y2="62.944" gradientUnits="userSpaceOnUse"><stop stop-color="#F3461B"/><stop offset="1" stop-color="#0DA6F2"/></linearGradient><linearGradient id="an" x1=".724" x2="99.402" y1="62.944" y2="62.944" gradientUnits="userSpaceOnUse"><stop stop-color="#F3461B"/><stop offset="1" stop-color="#0DA6F2"/></linearGradient><linearGradient id="ao" x1=".724" x2="99.402" y1="62.944" y2="62.944" gradientUnits="userSpaceOnUse"><stop stop-color="#F3461B"/><stop offset="1" stop-color="#0DA6F2"/></linearGradient><linearGradient id="ap" x1=".724" x2="99.402" y1="62.944" y2="62.944" gradientUnits="userSpaceOnUse"><stop stop-color="#F3461B"/><stop offset="1" stop-color="#0DA6F2"/></linearGradient><linearGradient id="aq" x1=".724" x2="99.402" y1="62.944" y2="62.944" gradientUnits="userSpaceOnUse"><stop stop-color="#F3461B"/><stop offset="1" stop-color="#0DA6F2"/></linearGradient><linearGradient id="ar" x1=".724" x2="99.402" y1="62.944" y2="62.944" gradientUnits="userSpaceOnUse"><stop stop-color="#F3461B"/><stop offset="1" stop-color="#0DA6F2"/></linearGradient><linearGradient id="as" x1=".724" x2="99.402" y1="62.944" y2="62.944" gradientUnits="userSpaceOnUse"><stop stop-color="#F3461B"/><stop offset="1" stop-color="#0DA6F2"/></linearGradient><linearGradient id="at" x1=".724" x2="99.402" y1="62.944" y2="62.944" gradientUnits="userSpaceOnUse"><stop stop-color="#F3461B"/><stop offset="1" stop-color="#0DA6F2"/></linearGradient><linearGradient id="au" x1=".724" x2="99.402" y1="62.944" y2="62.944" gradientUnits="userSpaceOnUse"><stop stop-color="#F3461B"/><stop offset="1" stop-color="#0DA6F2"/></linearGradient><linearGradient id="av" x1=".724" x2="99.402" y1="62.944" y2="62.944" gradientUnits="userSpaceOnUse"><stop stop-color="#F3461B"/><stop offset="1" stop-color="#0DA6F2"/></linearGradient><linearGradient id="aw" x1=".724" x2="99.402" y1="62.944" y2="62.944" gradientUnits="userSpaceOnUse"><stop stop-color="#F3461B"/><stop offset="1" stop-color="#0DA6F2"/></linearGradient><linearGradient id="ax" x1=".724" x2="99.402" y1="62.944" y2="62.944" gradientUnits="userSpaceOnUse"><stop stop-color="#F3461B"/><stop offset="1" stop-color="#0DA6F2"/></linearGradient><linearGradient id="ay" x1=".724" x2="99.402" y1="62.944" y2="62.944" gradientUnits="userSpaceOnUse"><stop stop-color="#F3461B"/><stop offset="1" stop-color="#0DA6F2"/></linearGradient><linearGradient id="az" x1=".724" x2="99.402" y1="62.944" y2="62.944" gradientUnits="userSpaceOnUse"><stop stop-color="#F3461B"/><stop offset="1" stop-color="#0DA6F2"/></linearGradient><linearGradient id="aA" x1=".724" x2="99.402" y1="62.944" y2="62.944" gradientUnits="userSpaceOnUse"><stop stop-color="#F3461B"/><stop offset="1" stop-color="#0DA6F2"/></linearGradient><linearGradient id="aB" x1=".724" x2="99.402" y1="62.944" y2="62.944" gradientUnits="userSpaceOnUse"><stop stop-color="#F3461B"/><stop offset="1" stop-color="#0DA6F2"/></linearGradient><linearGradient id="aC" x1=".724" x2="99.402" y1="62.944" y2="62.944" gradientUnits="userSpaceOnUse"><stop stop-color="#F3461B"/><stop offset="1" stop-color="#0DA6F2"/></linearGradient><linearGradient id="aD" x1=".724" x2="99.402" y1="62.944" y2="62.944" gradientUnits="userSpaceOnUse"><stop stop-color="#F3461B"/><stop offset="1" stop-color="#0DA6F2"/></linearGradient><linearGradient id="aE" x1=".724" x2="99.402" y1="62.944" y2="62.944" gradientUnits="userSpaceOnUse"><stop stop-color="#F3461B"/><stop offset="1" stop-color="#0DA6F2"/></linearGradient><linearGradient id="aF" x1=".724" x2="99.402" y1="62.944" y2="62.944" gradientUnits="userSpaceOnUse"><stop stop-color="#F3461B"/><stop offset="1" stop-color="#0DA6F2"/></linearGradient><linearGradient id="aG" x1=".724" x2="99.402" y1="62.944" y2="62.944" gradientUnits="userSpaceOnUse"><stop stop-color="#F3461B"/><stop offset="1" stop-color="#0DA6F2"/></linearGradient><linearGradient id="aH" x1=".724" x2="99.402" y1="62.944" y2="62.944" gradientUnits="userSpaceOnUse"><stop stop-color="#F3461B"/><stop offset="1" stop-color="#0DA6F2"/></linearGradient><linearGradient id="aI" x1=".724" x2="99.402" y1="62.944" y2="62.944" gradientUnits="userSpaceOnUse"><stop stop-color="#F3461B"/><stop offset="1" stop-color="#0DA6F2"/></linearGradient><linearGradient id="aJ" x1=".724" x2="99.402" y1="62.944" y2="62.944" gradientUnits="userSpaceOnUse"><stop stop-color="#F3461B"/><stop offset="1" stop-color="#0DA6F2"/></linearGradient><linearGradient id="aK" x1=".724" x2="99.402" y1="62.944" y2="62.944" gradientUnits="userSpaceOnUse"><stop stop-color="#F3461B"/><stop offset="1" stop-color="#0DA6F2"/></linearGradient><linearGradient id="aL" x1=".724" x2="99.402" y1="62.944" y2="62.944" gradientUnits="userSpaceOnUse"><stop stop-color="#F3461B"/><stop offset="1" stop-color="#0DA6F2"/></linearGradient><linearGradient id="aM" x1=".724" x2="99.402" y1="62.944" y2="62.944" gradientUnits="userSpaceOnUse"><stop stop-color="#F3461B"/><stop offset="1" stop-color="#0DA6F2"/></linearGradient><linearGradient id="aN" x1=".724" x2="99.402" y1="62.944" y2="62.944" gradientUnits="userSpaceOnUse"><stop stop-color="#F3461B"/><stop offset="1" stop-color="#0DA6F2"/></linearGradient><linearGradient id="aO" x1=".724" x2="99.402" y1="62.944" y2="62.944" gradientUnits="userSpaceOnUse"><stop stop-color="#F3461B"/><stop offset="1" stop-color="#0DA6F2"/></linearGradient><linearGradient id="aP" x1=".724" x2="99.402" y1="62.944" y2="62.944" gradientUnits="userSpaceOnUse"><stop stop-color="#F3461B"/><stop offset="1" stop-color="#0DA6F2"/></linearGradient><linearGradient id="aQ" x1=".724" x2="99.402" y1="62.944" y2="62.944" gradientUnits="userSpaceOnUse"><stop stop-color="#F3461B"/><stop offset="1" stop-color="#0DA6F2"/></linearGradient><linearGradient id="aR" x1=".724" x2="99.402" y1="62.944" y2="62.944" gradientUnits="userSpaceOnUse"><stop stop-color="#F3461B"/><stop offset="1" stop-color="#0DA6F2"/></linearGradient><linearGradient id="aS" x1=".724" x2="99.402" y1="62.944" y2="62.944" gradientUnits="userSpaceOnUse"><stop stop-color="#F3461B"/><stop offset="1" stop-color="#0DA6F2"/></linearGradient><linearGradient id="aT" x1=".724" x2="99.402" y1="62.944" y2="62.944" gradientUnits="userSpaceOnUse"><stop stop-color="#F3461B"/><stop offset="1" stop-color="#0DA6F2"/></linearGradient><linearGradient id="aU" x1=".724" x2="99.402" y1="62.944" y2="62.944" gradientUnits="userSpaceOnUse"><stop stop-color="#F3461B"/><stop offset="1" stop-color="#0DA6F2"/></linearGradient><linearGradient id="aV" x1=".724" x2="99.402" y1="62.944" y2="62.944" gradientUnits="userSpaceOnUse"><stop stop-color="#F3461B"/><stop offset="1" stop-color="#0DA6F2"/></linearGradient><linearGradient id="aW" x1=".724" x2="99.402" y1="62.944" y2="62.944" gradientUnits="userSpaceOnUse"><stop stop-color="#F3461B"/><stop offset="1" stop-color="#0DA6F2"/></linearGradient><linearGradient id="aX" x1=".724" x2="99.402" y1="62.944" y2="62.944" gradientUnits="userSpaceOnUse"><stop stop-color="#F3461B"/><stop offset="1" stop-color="#0DA6F2"/></linearGradient><linearGradient id="aY" x1=".724" x2="99.402" y1="62.944" y2="62.944" gradientUnits="userSpaceOnUse"><stop stop-color="#F3461B"/><stop offset="1" stop-color="#0DA6F2"/></linearGradient><linearGradient id="aZ" x1=".724" x2="99.402" y1="62.944" y2="62.944" gradientUnits="userSpaceOnUse"><stop stop-color="#F3461B"/><stop offset="1" stop-color="#0DA6F2"/></linearGradient><linearGradient id="ba" x1=".724" x2="99.402" y1="62.944" y2="62.944" gradientUnits="userSpaceOnUse"><stop stop-color="#F3461B"/><stop offset="1" stop-color="#0DA6F2"/></linearGradient><linearGradient id="bb" x1=".724" x2="99.402" y1="62.944" y2="62.944" gradientUnits="userSpaceOnUse"><stop stop-color="#F3461B"/><stop offset="1" stop-color="#0DA6F2"/></linearGradient><linearGradient id="bc" x1=".724" x2="99.402" y1="62.944" y2="62.944" gradientUnits="userSpaceOnUse"><stop stop-color="#F3461B"/><stop offset="1" stop-color="#0DA6F2"/></linearGradient><linearGradient id="bd" x1=".724" x2="99.402" y1="62.944" y2="62.944" gradientUnits="userSpaceOnUse"><stop stop-color="#F3461B"/><stop offset="1" stop-color="#0DA6F2"/></linearGradient><linearGradient id="be" x1=".724" x2="99.402" y1="62.944" y2="62.944" gradientUnits="userSpaceOnUse"><stop stop-color="#F3461B"/><stop offset="1" stop-color="#0DA6F2"/></linearGradient><linearGradient id="bf" x1=".724" x2="99.402" y1="62.944" y2="62.944" gradientUnits="userSpaceOnUse"><stop stop-color="#F3461B"/><stop offset="1" stop-color="#0DA6F2"/></linearGradient><linearGradient id="bg" x1=".724" x2="99.402" y1="62.944" y2="62.944" gradientUnits="userSpaceOnUse"><stop stop-color="#F3461B"/><stop offset="1" stop-color="#0DA6F2"/></linearGradient><linearGradient id="bh" x1=".724" x2="99.402" y1="62.944" y2="62.944" gradientUnits="userSpaceOnUse"><stop stop-color="#F3461B"/><stop offset="1" stop-color="#0DA6F2"/></linearGradient><linearGradient id="bi" x1=".724" x2="99.402" y1="62.944" y2="62.944" gradientUnits="userSpaceOnUse"><stop stop-color="#F3461B"/><stop offset="1" stop-color="#0DA6F2"/></linearGradient><linearGradient id="bj" x1=".724" x2="99.402" y1="62.944" y2="62.944" gradientUnits="userSpaceOnUse"><stop stop-color="#F3461B"/><stop offset="1" stop-color="#0DA6F2"/></linearGradient><linearGradient id="bk" x1=".724" x2="99.402" y1="62.944" y2="62.944" gradientUnits="userSpaceOnUse"><stop stop-color="#F3461B"/><stop offset="1" stop-color="#0DA6F2"/></linearGradient><linearGradient id="bl" x1=".724" x2="99.402" y1="62.944" y2="62.944" gradientUnits="userSpaceOnUse"><stop stop-color="#F3461B"/><stop offset="1" stop-color="#0DA6F2"/></linearGradient><linearGradient id="bm" x1=".724" x2="99.402" y1="62.944" y2="62.944" gradientUnits="userSpaceOnUse"><stop stop-color="#F3461B"/><stop offset="1" stop-color="#0DA6F2"/></linearGradient><linearGradient id="bn" x1=".724" x2="99.402" y1="62.944" y2="62.944" gradientUnits="userSpaceOnUse"><stop stop-color="#F3461B"/><stop offset="1" stop-color="#0DA6F2"/></linearGradient><linearGradient id="bo" x1=".724" x2="99.402" y1="62.944" y2="62.944" gradientUnits="userSpaceOnUse"><stop stop-color="#F3461B"/><stop offset="1" stop-color="#0DA6F2"/></linearGradient><linearGradient id="bp" x1=".724" x2="99.402" y1="62.944" y2="62.944" gradientUnits="userSpaceOnUse"><stop stop-color="#F3461B"/><stop offset="1" stop-color="#0DA6F2"/></linearGradient><linearGradient id="bq" x1=".724" x2="99.402" y1="62.944" y2="62.944" gradientUnits="userSpaceOnUse"><stop stop-color="#F3461B"/><stop offset="1" stop-color="#0DA6F2"/></linearGradient><linearGradient id="br" x1=".724" x2="99.402" y1="62.944" y2="62.944" gradientUnits="userSpaceOnUse"><stop stop-color="#F3461B"/><stop offset="1" stop-color="#0DA6F2"/></linearGradient><linearGradient id="bs" x1=".724" x2="99.402" y1="62.944" y2="62.944" gradientUnits="userSpaceOnUse"><stop stop-color="#F3461B"/><stop offset="1" stop-color="#0DA6F2"/></linearGradient><linearGradient id="bt" x1=".724" x2="99.402" y1="62.944" y2="62.944" gradientUnits="userSpaceOnUse"><stop stop-color="#F3461B"/><stop offset="1" stop-color="#0DA6F2"/></linearGradient><linearGradient id="bu" x1=".724" x2="99.402" y1="62.944" y2="62.944" gradientUnits="userSpaceOnUse"><stop stop-color="#F3461B"/><stop offset="1" stop-color="#0DA6F2"/></linearGradient><linearGradient id="bv" x1=".724" x2="99.402" y1="62.944" y2="62.944" gradientUnits="userSpaceOnUse"><stop stop-color="#F3461B"/><stop offset="1" stop-color="#0DA6F2"/></linearGradient><linearGradient id="bw" x1=".724" x2="99.402" y1="62.944" y2="62.944" gradientUnits="userSpaceOnUse"><stop stop-color="#F3461B"/><stop offset="1" stop-color="#0DA6F2"/></linearGradient><linearGradient id="bx" x1=".724" x2="99.402" y1="62.944" y2="62.944" gradientUnits="userSpaceOnUse"><stop stop-color="#F3461B"/><stop offset="1" stop-color="#0DA6F2"/></linearGradient><linearGradient id="by" x1=".724" x2="99.402" y1="62.944" y2="62.944" gradientUnits="userSpaceOnUse"><stop stop-color="#F3461B"/><stop offset="1" stop-color="#0DA6F2"/></linearGradient><linearGradient id="bz" x1=".724" x2="99.402" y1="62.944" y2="62.944" gradientUnits="userSpaceOnUse"><stop stop-color="#F3461B"/><stop offset="1" stop-color="#0DA6F2"/></linearGradient><linearGradient id="bA" x1=".724" x2="99.402" y1="62.944" y2="62.944" gradientUnits="userSpaceOnUse"><stop stop-color="#F3461B"/><stop offset="1" stop-color="#0DA6F2"/></linearGradient><linearGradient id="bB" x1=".724" x2="99.402" y1="62.944" y2="62.944" gradientUnits="userSpaceOnUse"><stop stop-color="#F3461B"/><stop offset="1" stop-color="#0DA6F2"/></linearGradient><linearGradient id="bC" x1=".724" x2="99.402" y1="62.944" y2="62.944" gradientUnits="userSpaceOnUse"><stop stop-color="#F3461B"/><stop offset="1" stop-color="#0DA6F2"/></linearGradient><linearGradient id="bD" x1=".724" x2="99.402" y1="62.944" y2="62.944" gradientUnits="userSpaceOnUse"><stop stop-color="#F3461B"/><stop offset="1" stop-color="#0DA6F2"/></linearGradient><linearGradient id="bE" x1=".724" x2="99.402" y1="62.944" y2="62.944" gradientUnits="userSpaceOnUse"><stop stop-color="#F3461B"/><stop offset="1" stop-color="#0DA6F2"/></linearGradient><linearGradient id="bF" x1=".724" x2="99.402" y1="62.944" y2="62.944" gradientUnits="userSpaceOnUse"><stop stop-color="#F3461B"/><stop offset="1" stop-color="#0DA6F2"/></linearGradient><linearGradient id="bG" x1=".724" x2="99.402" y1="62.944" y2="62.944" gradientUnits="userSpaceOnUse"><stop stop-color="#F3461B"/><stop offset="1" stop-color="#0DA6F2"/></linearGradient><linearGradient id="bH" x1=".724" x2="99.402" y1="62.944" y2="62.944" gradientUnits="userSpaceOnUse"><stop stop-color="#F3461B"/><stop offset="1" stop-color="#0DA6F2"/></linearGradient><linearGradient id="bI" x1=".724" x2="99.402" y1="62.944" y2="62.944" gradientUnits="userSpaceOnUse"><stop stop-color="#F3461B"/><stop offset="1" stop-color="#0DA6F2"/></linearGradient><linearGradient id="bJ" x1=".724" x2="99.402" y1="62.944" y2="62.944" gradientUnits="userSpaceOnUse"><stop stop-color="#F3461B"/><stop offset="1" stop-color="#0DA6F2"/></linearGradient><linearGradient id="bK" x1=".724" x2="99.402" y1="62.944" y2="62.944" gradientUnits="userSpaceOnUse"><stop stop-color="#F3461B"/><stop offset="1" stop-color="#0DA6F2"/></linearGradient><linearGradient id="bL" x1=".724" x2="99.402" y1="62.944" y2="62.944" gradientUnits="userSpaceOnUse"><stop stop-color="#F3461B"/><stop offset="1" stop-color="#0DA6F2"/></linearGradient><linearGradient id="bM" x1=".724" x2="99.402" y1="62.944" y2="62.944" gradientUnits="userSpaceOnUse"><stop stop-color="#F3461B"/><stop offset="1" stop-color="#0DA6F2"/></linearGradient><linearGradient id="bN" x1=".724" x2="99.402" y1="62.944" y2="62.944" gradientUnits="userSpaceOnUse"><stop stop-color="#F3461B"/><stop offset="1" stop-color="#0DA6F2"/></linearGradient><linearGradient id="bO" x1=".724" x2="99.402" y1="62.944" y2="62.944" gradientUnits="userSpaceOnUse"><stop stop-color="#F3461B"/><stop offset="1" stop-color="#0DA6F2"/></linearGradient><linearGradient id="bP" x1=".724" x2="99.402" y1="62.944" y2="62.944" gradientUnits="userSpaceOnUse"><stop stop-color="#F3461B"/><stop offset="1" stop-color="#0DA6F2"/></linearGradient><linearGradient id="bQ" x1=".724" x2="99.402" y1="62.944" y2="62.944" gradientUnits="userSpaceOnUse"><stop stop-color="#F3461B"/><stop offset="1" stop-color="#0DA6F2"/></linearGradient><linearGradient id="bR" x1=".724" x2="99.402" y1="62.944" y2="62.944" gradientUnits="userSpaceOnUse"><stop stop-color="#F3461B"/><stop offset="1" stop-color="#0DA6F2"/></linearGradient><linearGradient id="bS" x1=".724" x2="99.402" y1="62.944" y2="62.944" gradientUnits="userSpaceOnUse"><stop stop-color="#F3461B"/><stop offset="1" stop-color="#0DA6F2"/></linearGradient><linearGradient id="bT" x1=".724" x2="99.402" y1="62.944" y2="62.944" gradientUnits="userSpaceOnUse"><stop stop-color="#F3461B"/><stop offset="1" stop-color="#0DA6F2"/></linearGradient><linearGradient id="bU" x1=".724" x2="99.402" y1="62.944" y2="62.944" gradientUnits="userSpaceOnUse"><stop stop-color="#F3461B"/><stop offset="1" stop-color="#0DA6F2"/></linearGradient><linearGradient id="bV" x1=".724" x2="99.402" y1="62.944" y2="62.944" gradientUnits="userSpaceOnUse"><stop stop-color="#F3461B"/><stop offset="1" stop-color="#0DA6F2"/></linearGradient><linearGradient id="bW" x1=".724" x2="99.402" y1="62.944" y2="62.944" gradientUnits="userSpaceOnUse"><stop stop-color="#F3461B"/><stop offset="1" stop-color="#0DA6F2"/></linearGradient><linearGradient id="bX" x1=".724" x2="99.402" y1="62.944" y2="62.944" gradientUnits="userSpaceOnUse"><stop stop-color="#F3461B"/><stop offset="1" stop-color="#0DA6F2"/></linearGradient></defs></svg>