<svg width="342" height="343" viewBox="0 0 342 343" fill="none" xmlns="http://www.w3.org/2000/svg">
<path d="M272.96 100.992L263.687 119.849L263.686 119.851L229.615 191.308V191.309L220.675 210.151H191.418H191.321L191.279 210.24L166.741 261.71L166.74 261.713L166.24 262.815L166.238 262.818L156.093 284.115L68.8281 100.892L89.8102 100.942L155.953 239.248L156.093 239.54L156.232 239.248L170.031 210.425V210.424L179.072 191.481H200.45H208.278H208.376L208.418 191.393L242.589 119.936L242.695 119.714L242.451 119.713L234.472 119.662H234.472H213.441L222.326 100.892L243.553 100.942L243.554 100.786L243.553 100.942L272.96 100.992Z" fill="url(#paint0_linear_329_127)" stroke="black"/>
<path d="M65.1263 41.8056L69.8753 47.5948L72.7553 45.2084C73.1499 44.8812 73.4605 44.4996 73.6869 44.0634C73.908 43.6205 74.0412 43.1597 74.087 42.6813C74.1329 42.2028 74.0861 41.7278 73.9464 41.2561C73.808 40.7724 73.576 40.3319 73.2505 39.9353C72.925 39.5384 72.5422 39.229 72.1015 39.007C71.662 38.7726 71.2043 38.6322 70.7283 38.5864C70.2522 38.5404 69.7796 38.5874 69.3104 38.7278C68.8356 38.8613 68.4008 39.0917 68.0062 39.4189L65.1263 41.8056ZM74.616 53.3741L71.7361 55.7608L59.8721 41.2975L65.6317 36.5241C66.1604 36.0864 66.7265 35.7356 67.3308 35.4719C67.9294 35.2017 68.5442 35.0199 69.1754 34.9262C69.8075 34.82 70.4436 34.801 71.0838 34.8692C71.7252 34.9249 72.3462 35.0653 72.9467 35.2907C73.554 35.5105 74.1258 35.8103 74.6622 36.1901C75.2054 36.5646 75.6947 37.0175 76.1305 37.5486C76.7812 38.3421 77.2458 39.2165 77.5239 40.1719C77.7964 41.1207 77.8869 42.0736 77.7955 43.0305C77.7038 43.9875 77.431 44.908 76.9766 45.7927C76.5291 46.6721 75.9106 47.4385 75.1215 48.0929L72.2415 50.4796L74.616 53.3741Z" fill="white"/>
<path d="M4.52178 209.038L3.61523 205.398L21.7063 200.845L22.6131 204.485L15.3715 206.307L17.1814 213.573L24.4231 211.751L25.3296 215.39L7.23826 219.943L6.33172 216.304L13.5606 214.484L11.7507 207.218L4.52178 209.038Z" fill="white"/>
<path d="M25.4202 245.706L28.7895 244.091C29.2513 243.87 29.6428 243.571 29.9639 243.196C30.2969 242.824 30.5431 242.411 30.7029 241.958C30.8624 241.505 30.9296 241.029 30.9042 240.529C30.89 240.034 30.7732 239.554 30.553 239.09C30.3328 238.626 30.0339 238.229 29.6561 237.898C29.29 237.571 28.8815 237.328 28.4309 237.167C27.9799 237.007 27.5045 236.935 27.0037 236.953C26.5147 236.975 26.0393 237.097 25.5775 237.318L22.2082 238.932L25.4202 245.706ZM20.2995 252.315L18.6934 248.929L22.0626 247.314L18.8506 240.541L15.4813 242.155L13.8809 238.78L23.9773 233.943C24.9086 233.497 25.8649 233.256 26.847 233.22C27.8365 233.18 28.7802 233.317 29.6781 233.63C30.5796 233.951 31.4004 234.437 32.1406 235.086C32.8845 235.743 33.4782 236.54 33.9223 237.476C34.3661 238.412 34.6061 239.374 34.6418 240.361C34.6814 241.355 34.5414 242.306 34.2221 243.212C33.9025 244.118 33.4159 244.945 32.7618 245.693C32.1158 246.437 31.327 247.032 30.3957 247.478L20.2995 252.315Z" fill="white"/>
<path d="M2.59566 185.301C1.81284 184.463 1.19869 183.513 0.753269 182.451C0.307815 181.389 0.0598939 180.279 0.00947334 179.121C-0.0291783 178.233 0.0504486 177.37 0.24829 176.533C0.437894 175.705 0.724838 174.92 1.10916 174.179C1.50252 173.446 1.98083 172.771 2.54407 172.153C3.1073 171.535 3.73477 170.997 4.42647 170.54C5.12722 170.09 5.87959 169.73 6.6836 169.459C7.49661 169.196 8.3449 169.046 9.22841 169.007C10.1119 168.968 10.9701 169.044 11.8028 169.234C12.6359 169.433 13.4167 169.725 14.1452 170.112C14.8827 170.507 15.5588 170.988 16.1736 171.554C16.7884 172.12 17.3192 172.751 17.766 173.446C18.2219 174.151 18.5803 174.907 18.8411 175.715C19.111 176.532 19.2653 177.384 19.3039 178.273C19.3544 179.431 19.2038 180.558 18.8524 181.655C18.5096 182.752 17.9803 183.752 17.2647 184.656L13.93 182.814C14.4952 182.239 14.9173 181.571 15.1966 180.808C15.4845 180.046 15.6106 179.255 15.575 178.437C15.539 177.609 15.3493 176.841 15.006 176.133C14.6628 175.423 14.2108 174.811 13.6503 174.295C13.0984 173.778 12.4519 173.379 11.7106 173.098C10.978 172.816 10.2046 172.693 9.39042 172.729C8.57619 172.765 7.81645 172.955 7.11115 173.3C6.41452 173.645 5.80941 174.099 5.29589 174.662C4.78233 175.226 4.38537 175.876 4.10499 176.612C3.82462 177.348 3.70244 178.13 3.73846 178.957C3.77407 179.775 3.96411 180.552 4.3085 181.287C4.6616 182.022 5.14459 182.651 5.75747 183.173L2.59566 185.301Z" fill="white"/>
<path d="M39.4494 280.991L37.0597 277.776L42.5908 264.599L32.7554 271.984L30.5215 268.979L45.4621 257.76L47.8515 260.975L42.3102 274.159L52.1562 266.766L54.3901 269.771L39.4494 280.991Z" fill="white"/>
<path d="M66.1892 304.432C65.0513 304.447 63.9444 304.267 62.8685 303.893C61.7978 303.513 60.8182 302.953 59.9294 302.215C59.2477 301.648 58.6639 301.011 58.1783 300.302C57.6936 299.606 57.3099 298.868 57.0271 298.091C56.7496 297.306 56.569 296.5 56.4845 295.673C56.4058 294.838 56.4325 294.012 56.5647 293.195C56.7022 292.371 56.9432 291.565 57.2876 290.777C57.6385 289.994 58.0959 289.261 58.6593 288.576C59.2226 287.89 59.8507 287.304 60.5438 286.817C61.2435 286.336 61.9803 285.953 62.7539 285.669C63.5331 285.378 64.335 285.196 65.1597 285.123C65.9897 285.044 66.8111 285.071 67.6244 285.204C68.4374 285.336 69.2299 285.577 70.0017 285.924C70.7859 286.27 71.5187 286.726 72.2003 287.292C73.0892 288.031 73.8176 288.896 74.3853 289.888C74.9589 290.873 75.3448 291.929 75.5436 293.055L71.9687 294.325C71.8987 293.521 71.6822 292.758 71.3183 292.038C70.9602 291.31 70.4672 290.686 69.8388 290.164C69.2107 289.642 68.5197 289.272 67.7662 289.053C67.0195 288.839 66.2675 288.769 65.5109 288.841C64.7596 288.906 64.0342 289.118 63.3352 289.476C62.6418 289.826 62.0354 290.318 61.516 290.949C60.9914 291.587 60.62 292.285 60.4023 293.042C60.1843 293.8 60.1112 294.559 60.183 295.32C60.2552 296.08 60.4655 296.809 60.8148 297.506C61.1704 298.209 61.6625 298.821 62.2906 299.343C62.6517 299.643 63.0382 299.891 63.4511 300.086C63.8636 300.282 64.2873 300.431 64.7215 300.532L68.1023 296.421L70.8788 298.728L66.1892 304.432Z" fill="white"/>
<path d="M91.9997 323.798L80.957 317.323L90.3548 301.132L101.398 307.607L99.5166 310.848L91.698 306.262L89.8172 309.503L95.1082 312.606L93.2274 315.847L87.9363 312.743L86.062 315.975L93.8806 320.557L91.9997 323.798Z" fill="white"/>
<path d="M139.157 339.998L135.51 339.26L138.45 324.56L132.954 323.449L133.69 319.773L148.314 322.727L147.579 326.403L142.096 325.298L139.157 339.998Z" fill="white"/>
<path d="M168.629 342.799L164.897 342.834L164.717 324.09L168.449 324.053L168.521 331.555L175.973 331.484L175.901 323.981L179.633 323.944L179.814 342.69L176.081 342.725L176.009 335.235L168.557 335.309L168.629 342.799Z" fill="white"/>
<path d="M212.321 338.074L199.807 340.701L195.993 322.35L208.507 319.723L209.27 323.396L200.41 325.258L201.173 328.928L207.169 327.67L207.933 331.343L201.937 332.601L202.697 336.262L211.558 334.4L212.321 338.074Z" fill="white"/>
<path d="M245.725 308.918L249.401 315.449L252.65 313.599C253.095 313.347 253.467 313.024 253.765 312.634C254.06 312.236 254.271 311.806 254.398 311.343C254.526 310.882 254.562 310.406 254.506 309.917C254.453 309.416 254.301 308.942 254.049 308.494C253.797 308.046 253.474 307.675 253.078 307.38C252.686 307.072 252.259 306.854 251.798 306.726C251.338 306.595 250.864 306.561 250.377 306.617C249.887 306.664 249.419 306.816 248.974 307.068L245.725 308.918ZM253.07 321.967L249.822 323.813L240.639 307.498L247.136 303.803C247.732 303.464 248.35 303.218 248.991 303.065C249.627 302.903 250.264 302.832 250.902 302.85C251.543 302.853 252.173 302.947 252.791 303.127C253.413 303.292 254 303.541 254.553 303.865C255.113 304.189 255.624 304.584 256.087 305.051C256.557 305.515 256.961 306.047 257.298 306.645C257.614 307.209 257.85 307.794 258.005 308.407C258.168 309.014 258.252 309.634 258.257 310.262C258.269 310.885 258.2 311.504 258.049 312.121C257.898 312.737 257.671 313.329 257.37 313.889L261.571 317.133L258.119 319.097L254.853 316.613L251.233 318.702L253.07 321.967Z" fill="white"/>
<path d="M287.922 296.476L278.322 304.961L266.007 290.885L275.607 282.4L278.072 285.217L271.274 291.225L273.739 294.043L278.339 289.977L280.804 292.794L276.204 296.86L278.66 299.667L285.458 293.659L287.922 296.476Z" fill="white"/>
<path d="M309.416 268.979C309.497 270.126 309.379 271.252 309.057 272.359C308.738 273.466 308.233 274.484 307.545 275.415C307.019 276.128 306.415 276.748 305.737 277.272C305.068 277.794 304.352 278.221 303.59 278.553C302.825 278.872 302.029 279.093 301.206 279.215C300.382 279.338 299.555 279.357 298.732 279.274C297.906 279.179 297.096 278.981 296.303 278.682C295.507 278.37 294.754 277.949 294.044 277.419C293.334 276.889 292.716 276.287 292.189 275.611C291.667 274.928 291.245 274.206 290.922 273.444C290.598 272.67 290.374 271.869 290.253 271.04C290.131 270.211 290.115 269.384 290.204 268.561C290.292 267.726 290.489 266.912 290.794 266.119C291.097 265.314 291.512 264.555 292.039 263.841C292.727 262.911 293.551 262.131 294.513 261.503C295.467 260.869 296.505 260.428 297.628 260.18L299.059 263.724C298.26 263.811 297.513 264.063 296.818 264.477C296.116 264.887 295.522 265.42 295.036 266.078C294.545 266.743 294.21 267.459 294.032 268.227C293.853 268.994 293.82 269.756 293.931 270.512C294.035 271.263 294.286 271.982 294.685 272.671C295.077 273.354 295.6 273.94 296.254 274.428C296.908 274.917 297.617 275.25 298.381 275.43C299.137 275.604 299.892 275.635 300.645 275.524C301.398 275.412 302.113 275.159 302.791 274.766C303.473 274.372 304.058 273.843 304.547 273.178C305.034 272.52 305.374 271.797 305.566 271.008C305.755 270.214 305.774 269.42 305.628 268.626L309.416 268.979Z" fill="white"/>
<path d="M321.348 233.045C322.129 233.466 322.825 233.976 323.439 234.576C324.049 235.164 324.572 235.813 325.009 236.524C325.439 237.232 325.774 237.987 326.012 238.789C326.251 239.592 326.39 240.409 326.427 241.241C326.458 242.068 326.375 242.9 326.183 243.737C326 244.577 325.696 245.389 325.278 246.171C324.86 246.954 324.352 247.654 323.755 248.272C323.169 248.885 322.525 249.412 321.816 249.85C321.107 250.277 320.351 250.611 319.552 250.852C318.753 251.093 317.941 251.232 317.114 251.269C316.281 251.295 315.451 251.217 314.624 251.036C313.791 250.843 312.986 250.536 312.209 250.114C311.428 249.693 310.731 249.186 310.112 248.594C309.499 247.995 308.975 247.341 308.548 246.634C308.124 245.92 307.789 245.161 307.551 244.358C307.312 243.556 307.176 242.74 307.148 241.913C307.123 241.078 307.204 240.246 307.389 239.417C307.575 238.576 307.876 237.765 308.297 236.982C308.715 236.2 309.223 235.5 309.821 234.882C310.409 234.261 311.053 233.734 311.759 233.303C312.463 232.872 313.212 232.536 314.011 232.295C314.81 232.054 315.622 231.919 316.445 231.89C317.266 231.86 318.096 231.942 318.926 232.135C319.762 232.32 320.571 232.623 321.348 233.045ZM319.592 236.325C318.873 235.937 318.124 235.709 317.344 235.643C316.554 235.572 315.801 235.648 315.08 235.872C314.355 236.084 313.683 236.438 313.063 236.934C312.447 237.422 311.945 238.027 311.558 238.748C311.168 239.477 310.942 240.234 310.874 241.02C310.809 241.806 310.883 242.565 311.103 243.296C311.314 244.024 311.667 244.7 312.159 245.323C312.645 245.942 313.246 246.445 313.965 246.834C314.683 247.222 315.433 247.45 316.213 247.516C316.987 247.579 317.737 247.5 318.468 247.281C319.196 247.061 319.868 246.707 320.484 246.219C321.097 245.731 321.602 245.122 321.992 244.393C322.379 243.672 322.605 242.918 322.671 242.133C322.742 241.339 322.664 240.581 322.441 239.857C322.225 239.125 321.875 238.451 321.398 237.836C320.911 237.217 320.311 236.713 319.592 236.325Z" fill="white"/>
<path d="M321.661 211.009L328.908 212.815L329.807 209.173C329.93 208.674 329.952 208.182 329.875 207.696C329.791 207.208 329.624 206.758 329.379 206.346C329.131 205.935 328.812 205.581 328.419 205.286C328.023 204.98 327.574 204.766 327.078 204.642C326.583 204.518 326.09 204.499 325.604 204.585C325.115 204.66 324.662 204.821 324.254 205.069C323.845 205.317 323.492 205.638 323.197 206.032C322.897 206.423 322.683 206.869 322.56 207.368L321.661 211.009ZM336.14 214.618L335.242 218.259L317.14 213.748L318.939 206.465C319.103 205.796 319.351 205.176 319.679 204.602C319.998 204.027 320.385 203.512 320.838 203.059C321.28 202.595 321.782 202.199 322.336 201.871C322.885 201.531 323.467 201.272 324.08 201.094C324.7 200.907 325.338 200.805 325.991 200.789C326.651 200.764 327.313 200.835 327.976 201.001C328.599 201.156 329.184 201.387 329.735 201.694C330.287 201.994 330.791 202.357 331.247 202.786C331.708 203.205 332.108 203.682 332.448 204.216C332.792 204.75 333.062 205.321 333.26 205.927L338.491 205.089L337.537 208.959L333.498 209.636L332.517 213.715L336.14 214.618Z" fill="white"/>
<path d="M332.557 168.887C333.415 168.92 334.239 169.065 335.025 169.322C335.806 169.57 336.537 169.912 337.212 170.348C337.881 170.783 338.491 171.295 339.042 171.883C339.584 172.47 340.046 173.12 340.427 173.833C340.807 174.545 341.096 175.306 341.288 176.116C341.476 176.917 341.554 177.748 341.52 178.61L341.306 184.253L322.671 183.539L322.885 177.896C322.916 177.034 323.061 176.211 323.315 175.427C323.563 174.634 323.904 173.897 324.337 173.216C324.771 172.535 325.285 171.922 325.876 171.378C326.462 170.834 327.109 170.37 327.818 169.987C328.518 169.604 329.271 169.319 330.076 169.132C330.872 168.936 331.699 168.854 332.557 168.887ZM332.414 172.636C331.643 172.606 330.915 172.727 330.228 172.997C329.54 173.258 328.936 173.636 328.416 174.131C327.883 174.616 327.459 175.198 327.137 175.874C326.818 176.542 326.641 177.264 326.613 178.039L326.542 179.907L337.72 180.335L337.791 178.467C337.819 177.692 337.704 176.96 337.444 176.269C337.175 175.57 336.8 174.958 336.317 174.434C335.824 173.9 335.245 173.477 334.582 173.164C333.907 172.841 333.186 172.665 332.414 172.636Z" fill="white"/>
<path d="M92.5058 23.3191L95.8912 30.0064L99.2178 28.3052C99.6737 28.072 100.059 27.767 100.375 27.3906C100.686 27.0064 100.916 26.5859 101.064 26.1289C101.212 25.6719 101.269 25.1978 101.234 24.7072C101.203 24.2044 101.072 23.7241 100.84 23.2659C100.608 22.8076 100.301 22.4219 99.919 22.1091C99.5405 21.7844 99.1239 21.5475 98.6693 21.3987C98.2143 21.25 97.7429 21.1929 97.2545 21.2275C96.7624 21.2544 96.2882 21.3844 95.8323 21.6176L92.5058 23.3191ZM99.2707 36.6823L95.9438 38.3835L87.4863 21.6767L94.1398 18.2738C94.7502 17.9616 95.3786 17.7428 96.0253 17.6174C96.6679 17.4843 97.3075 17.4408 97.9439 17.4869C98.5838 17.5214 99.2091 17.6417 99.8192 17.8478C100.433 18.0422 101.009 18.3149 101.546 18.6657C102.092 19.0127 102.585 19.4301 103.027 19.918C103.476 20.402 103.856 20.9508 104.167 21.5644C104.458 22.1393 104.667 22.736 104.796 23.3549C104.932 23.9697 104.989 24.5908 104.966 25.2183C104.951 25.8422 104.854 26.4586 104.676 27.0681C104.498 27.6773 104.247 28.2557 103.921 28.8039L107.975 32.23L104.44 34.0384L101.287 31.4123L97.5779 33.3386L99.2707 36.6823Z" fill="white"/>
<path d="M139.353 14.2344C139.368 15.1232 139.265 15.9835 139.044 16.8152C138.833 17.638 138.524 18.4145 138.12 19.1447C137.716 19.8661 137.224 20.528 136.644 21.1303C136.064 21.7327 135.423 22.2532 134.719 22.6921C134.015 23.122 133.253 23.4573 132.433 23.6976C131.614 23.9466 130.762 24.0783 129.877 24.0933C128.993 24.1079 128.137 24.0045 127.31 23.7829C126.491 23.57 125.719 23.2602 124.992 22.854C124.274 22.439 123.616 21.94 123.016 21.3574C122.417 20.7747 121.899 20.1296 121.463 19.4222C121.035 18.7059 120.697 17.9402 120.449 17.125C120.21 16.3009 120.083 15.4445 120.069 14.5557C120.054 13.667 120.152 12.8068 120.364 11.9753C120.585 11.1436 120.897 10.367 121.301 9.64555C121.714 8.92396 122.211 8.26201 122.791 7.65965C123.37 7.05732 124.012 6.54109 124.716 6.111C125.429 5.68075 126.191 5.34558 127.002 5.10544C127.821 4.85646 128.673 4.7246 129.558 4.70987C130.442 4.69515 131.298 4.79856 132.125 5.02008C132.952 5.23292 133.725 5.54254 134.443 5.94894C135.161 6.35537 135.819 6.8499 136.418 7.43262C137.018 8.01531 137.531 8.66045 137.959 9.36803C138.387 10.0756 138.72 10.8414 138.96 11.6654C139.207 12.4893 139.338 13.3457 139.353 14.2344ZM135.647 14.2962C135.634 13.4771 135.465 12.7086 135.141 11.9905C134.817 11.2638 134.381 10.6392 133.835 10.1166C133.297 9.58516 132.662 9.16867 131.929 8.86712C131.204 8.56541 130.434 8.42134 129.619 8.43491C128.795 8.44864 128.026 8.61833 127.312 8.94401C126.598 9.26969 125.976 9.70713 125.448 10.2563C124.919 10.7968 124.505 11.4356 124.205 12.1727C123.905 12.9012 123.761 13.6749 123.775 14.494C123.788 15.3131 123.957 16.0816 124.281 16.7996C124.605 17.509 125.04 18.1293 125.586 18.6606C126.133 19.1918 126.768 19.6083 127.493 19.91C128.218 20.2117 128.992 20.3557 129.815 20.342C130.63 20.3284 131.395 20.1588 132.109 19.8331C132.832 19.5073 133.454 19.0699 133.974 18.5208C134.502 17.9716 134.917 17.3372 135.217 16.6174C135.517 15.889 135.661 15.1153 135.647 14.2962Z" fill="white"/>
<path d="M170.881 8.57684C170.954 9.43646 170.912 10.2754 170.755 11.0934C170.606 11.9021 170.358 12.6712 170.011 13.4007C169.664 14.1215 169.233 14.7925 168.72 15.4138C168.207 16.0264 167.622 16.5663 166.965 17.0337C166.308 17.5011 165.592 17.8817 164.817 18.1757C164.049 18.4602 163.238 18.6391 162.383 18.7124L156.785 19.1925L155.199 0.514906L160.797 0.0348207C161.652 -0.0385214 162.483 0.00400242 163.288 0.162329C164.101 0.311255 164.87 0.560138 165.596 0.90898C166.322 1.25782 166.99 1.6947 167.6 2.21964C168.21 2.7359 168.747 3.32395 169.212 3.98378C169.676 4.63492 170.05 5.35066 170.334 6.13099C170.625 6.90193 170.808 7.71719 170.881 8.57684ZM167.162 8.89577C167.096 8.12297 166.888 7.4105 166.537 6.75842C166.194 6.10556 165.747 5.54918 165.194 5.08926C164.65 4.61995 164.023 4.2669 163.316 4.03022C162.617 3.79276 161.883 3.70703 161.114 3.77296L159.261 3.93188L160.212 15.1332L162.065 14.9743C162.834 14.9084 163.543 14.7032 164.193 14.3589C164.85 14.0051 165.408 13.555 165.866 13.0084C166.333 12.4523 166.679 11.8235 166.907 11.1217C167.142 10.4105 167.227 9.66857 167.162 8.89577Z" fill="white"/>
<path d="M202.165 14.054C202.018 15.0806 201.688 16.0191 201.173 16.8694C200.659 17.7112 200.02 18.4204 199.255 18.9971C198.491 19.5652 197.63 19.9786 196.674 20.2374C195.726 20.4974 194.742 20.554 193.72 20.4072C192.699 20.2605 191.765 19.9283 190.919 19.4106C190.082 18.8941 189.376 18.2556 188.8 17.4952C188.235 16.7273 187.823 15.867 187.565 14.9143C187.307 13.953 187.252 12.959 187.398 11.9324L188.982 0.790527L192.664 1.31955L191.08 12.4614C191.007 12.9704 191.033 13.4628 191.159 13.9385C191.292 14.4155 191.502 14.8462 191.789 15.2308C192.076 15.6153 192.429 15.9389 192.847 16.2014C193.275 16.4566 193.742 16.6205 194.248 16.6933C194.755 16.766 195.245 16.7396 195.718 16.6139C196.201 16.4809 196.634 16.2701 197.016 15.9817C197.399 15.6934 197.717 15.3385 197.969 14.917C198.23 14.4968 198.397 14.0321 198.47 13.5231L200.054 2.38127L203.749 2.91213L202.165 14.054Z" fill="white"/>
<path d="M231.005 28.5913C229.928 28.977 228.816 29.1623 227.669 29.1473C226.522 29.1327 225.411 28.9166 224.335 28.4995C223.51 28.1795 222.756 27.7608 222.071 27.2431C221.392 26.7369 220.791 26.1585 220.27 25.5079C219.759 24.8523 219.335 24.1416 218.998 23.3752C218.66 22.6091 218.42 21.8159 218.28 20.9954C218.151 20.17 218.124 19.3328 218.199 18.4838C218.285 17.6299 218.487 16.7882 218.805 15.9589C219.123 15.1295 219.536 14.3694 220.043 13.6785C220.558 12.9908 221.137 12.3889 221.781 11.8727C222.437 11.3516 223.145 10.9211 223.908 10.5816C224.67 10.2419 225.458 10.0056 226.271 9.87251C227.095 9.73444 227.928 9.70711 228.77 9.79054C229.622 9.86899 230.461 10.0682 231.286 10.3881C232.362 10.8053 233.33 11.3953 234.189 12.1583C235.052 12.9131 235.752 13.801 236.289 14.822L233.275 17.1559C232.977 16.4054 232.537 15.7489 231.954 15.1865C231.374 14.6159 230.703 14.1832 229.943 13.8884C229.174 13.5904 228.398 13.4576 227.614 13.49C226.831 13.5224 226.091 13.6934 225.396 14.003C224.704 14.3045 224.082 14.7403 223.529 15.3104C222.978 15.8723 222.556 16.5354 222.263 17.2997C221.97 18.064 221.839 18.8401 221.871 19.6278C221.907 20.4075 222.079 21.1466 222.387 21.8452C222.695 22.5437 223.128 23.1694 223.687 23.7226C224.246 24.2755 224.91 24.701 225.679 24.9989C226.439 25.294 227.223 25.4298 228.031 25.4067C228.842 25.3756 229.609 25.1826 230.331 24.8274L231.005 28.5913Z" fill="white"/>
<path d="M251.825 42.0651L248.648 40.1207L256.406 27.3139L251.618 24.3842L253.559 21.1796L266.3 28.9768L264.359 32.1813L259.583 29.2582L251.825 42.0651Z" fill="white"/>
<path d="M271.337 56.5739L268.489 54.1482L280.548 39.8484L283.395 42.274L271.337 56.5739Z" fill="white"/>
<path d="M299.885 77.9559C299.061 78.2818 298.224 78.4869 297.372 78.5716C296.531 78.6613 295.699 78.6441 294.877 78.5202C294.063 78.3929 293.274 78.1622 292.509 77.8282C291.744 77.4942 291.034 77.073 290.378 76.5647C289.73 76.0532 289.151 75.4539 288.639 74.7669C288.119 74.083 287.697 73.3275 287.373 72.5003C287.049 71.6735 286.844 70.8318 286.76 69.9751C286.671 69.1299 286.688 68.2941 286.811 67.4679C286.946 66.6463 287.18 65.8513 287.512 65.0827C287.844 64.3141 288.263 63.6003 288.769 62.941C289.286 62.2866 289.88 61.6998 290.553 61.1806C291.237 60.666 291.99 60.246 292.813 59.9201C293.635 59.5942 294.471 59.3847 295.32 59.2919C296.172 59.2072 297.006 59.2287 297.819 59.3557C298.637 59.4911 299.426 59.7255 300.191 60.0596C300.956 60.3939 301.663 60.8166 302.31 61.3281C302.963 61.8477 303.543 62.4469 304.05 63.1259C304.571 63.8098 304.992 64.5653 305.317 65.3924C305.642 66.2192 305.844 67.061 305.93 67.9177C306.02 68.771 306.005 69.6068 305.878 70.4249C305.751 71.2433 305.522 72.0365 305.19 72.8051C304.859 73.5737 304.438 74.2838 303.927 74.935C303.419 75.5862 302.824 76.169 302.14 76.6833C301.458 77.2056 300.706 77.6299 299.885 77.9559ZM298.525 74.4898C299.284 74.1894 299.941 73.7608 300.495 73.2036C301.059 72.6432 301.486 72.0144 301.783 71.3168C302.09 70.6241 302.254 69.8795 302.276 69.0835C302.304 68.2956 302.167 67.5205 301.867 66.7584C301.567 65.9883 301.139 65.3239 300.585 64.7661C300.03 64.2083 299.405 63.7771 298.707 63.4723C298.017 63.1648 297.277 62.9992 296.485 62.9755C295.701 62.9487 294.93 63.0857 294.172 63.3861C293.413 63.6865 292.757 64.1152 292.202 64.6724C291.655 65.2262 291.23 65.8535 290.927 66.5542C290.624 67.2549 290.459 67.9996 290.432 68.7875C290.406 69.5754 290.543 70.3545 290.845 71.1247C291.144 71.8871 291.571 72.547 292.125 73.1049C292.683 73.6708 293.308 74.1023 294.002 74.3986C294.699 74.7031 295.436 74.8706 296.212 74.9001C296.996 74.9269 297.767 74.7902 298.525 74.4898Z" fill="white"/>
<path d="M309.926 109.1L308.139 105.512L315.891 93.5194L304.915 99.0496L303.242 95.696L319.914 87.2947L321.704 90.8824L313.939 102.881L324.925 97.3446L326.597 100.699L309.926 109.1Z" fill="white"/>
<path d="M33.5611 76.137L39.6738 80.4442L41.8164 77.3723C42.11 76.9514 42.3082 76.5003 42.4107 76.0191C42.5064 75.5328 42.5126 75.0531 42.4299 74.5799C42.3472 74.1064 42.1759 73.6613 41.9164 73.2441C41.6544 72.8149 41.314 72.4525 40.8953 72.1574C40.4762 71.8623 40.025 71.6668 39.5415 71.5706C39.0556 71.4626 38.5774 71.4501 38.1064 71.5332C37.6353 71.6164 37.1924 71.7885 36.7774 72.0494C36.3553 72.3056 35.9976 72.6439 35.7039 73.0651L33.5611 76.137ZM45.7757 84.7441L43.6331 87.816L28.3623 77.0554L32.6474 70.9116C33.0408 70.3478 33.4936 69.8578 34.0058 69.4419C34.5113 69.0211 35.0554 68.6811 35.6389 68.4215C36.2199 68.15 36.8282 67.9611 37.4634 67.8552C38.0961 67.7373 38.732 67.7061 39.3706 67.7625C40.0139 67.8113 40.6447 67.9471 41.2623 68.1696C41.8851 68.3848 42.477 68.6901 43.0378 69.0855C43.8756 69.6757 44.5551 70.3939 45.0767 71.2403C45.5911 72.0817 45.9311 72.9758 46.0965 73.9228C46.2622 74.8694 46.2433 75.8301 46.0402 76.8045C45.8419 77.7717 45.4492 78.6763 44.862 79.5184L42.7195 82.5903L45.7757 84.7441Z" fill="white"/>
<path d="M19.3782 92.4833L33.7167 105.959L32.1455 109.362L12.6611 107.032L14.4458 103.167L27.3011 105.042L17.5826 96.3726L19.3782 92.4833Z" fill="white"/>
<path d="M329.293 142.987C332.045 142.987 334.275 140.745 334.275 137.979C334.275 135.213 332.045 132.971 329.293 132.971C326.541 132.971 324.311 135.213 324.311 137.979C324.311 140.745 326.541 142.987 329.293 142.987Z" fill="white"/>
<path d="M13.0019 143.153C15.7535 143.153 17.9842 140.911 17.9842 138.145C17.9842 135.379 15.7535 133.137 13.0019 133.137C10.2502 133.137 8.01953 135.379 8.01953 138.145C8.01953 140.911 10.2502 143.153 13.0019 143.153Z" fill="white"/>
<defs>
<linearGradient id="paint0_linear_329_127" x1="241.591" y1="192.569" x2="68.4639" y2="192.569" gradientUnits="userSpaceOnUse">
<stop stop-color="#0DA6F2"/>
<stop offset="0.385417" stop-color="#209DDF"/>
<stop offset="0.541667" stop-color="#F3461B"/>
<stop offset="1" stop-color="#F2390B"/>
</linearGradient>
</defs>
</svg>
