<svg xmlns="http://www.w3.org/2000/svg" fill="none" viewBox="0 0 111 112"><path fill="#fff" d="M1.6 3.2a1.6 1.6 0 1 0 0-3.2 1.6 1.6 0 0 0 0 3.2ZM28.3 3.2a1.6 1.6 0 1 0 0-3.2 1.6 1.6 0 0 0 0 3.2ZM55 3.2A1.6 1.6 0 1 0 55 0a1.6 1.6 0 0 0 0 3.2ZM81.8 3.2a1.6 1.6 0 1 0 0-3.2 1.6 1.6 0 0 0 0 3.2ZM110 1.6a1.6 1.6 0 1 1-3.2 0 1.6 1.6 0 0 1 3.3 0ZM1.6 25a1.6 1.6 0 1 0 0-3.3 1.6 1.6 0 0 0 0 3.3ZM28.3 25a1.6 1.6 0 1 0 0-3.3 1.6 1.6 0 0 0 0 3.3ZM55 25a1.6 1.6 0 1 0 0-3.3 1.6 1.6 0 0 0 0 3.3ZM81.8 25a1.6 1.6 0 1 0 0-3.3 1.6 1.6 0 0 0 0 3.3ZM110 23.4a1.6 1.6 0 1 1-3.2 0 1.6 1.6 0 0 1 3.3 0ZM1.6 46.7a1.6 1.6 0 1 0 0-3.2 1.6 1.6 0 0 0 0 3.2ZM28.3 46.7a1.6 1.6 0 1 0 0-3.2 1.6 1.6 0 0 0 0 3.2ZM55 46.7a1.6 1.6 0 1 0 0-3.2 1.6 1.6 0 0 0 0 3.2ZM81.8 46.7a1.6 1.6 0 1 0 0-3.2 1.6 1.6 0 0 0 0 3.2ZM110 45a1.6 1.6 0 1 1-3.2.1 1.6 1.6 0 0 1 3.3 0ZM1.6 68.4a1.6 1.6 0 1 0 0-3.2 1.6 1.6 0 0 0 0 3.2ZM28.3 68.4a1.6 1.6 0 1 0 0-3.2 1.6 1.6 0 0 0 0 3.2ZM55 68.4a1.6 1.6 0 1 0 0-3.2 1.6 1.6 0 0 0 0 3.2ZM81.8 68.4a1.6 1.6 0 1 0 0-3.2 1.6 1.6 0 0 0 0 3.2ZM110 66.8a1.6 1.6 0 1 1-3.2 0 1.6 1.6 0 0 1 3.3 0ZM1.6 90.1a1.6 1.6 0 1 0 0-3.2 1.6 1.6 0 0 0 0 3.2ZM28.3 90.1a1.6 1.6 0 1 0 0-3.2 1.6 1.6 0 0 0 0 3.2ZM55 90.1a1.6 1.6 0 1 0 0-3.2 1.6 1.6 0 0 0 0 3.2ZM81.8 90.1a1.6 1.6 0 1 0 0-3.2 1.6 1.6 0 0 0 0 3.2ZM110 88.5a1.6 1.6 0 1 1-3.2 0 1.6 1.6 0 0 1 3.3 0ZM1.6 111.9a1.6 1.6 0 1 0 0-3.2 1.6 1.6 0 0 0 0 3.2ZM28.3 111.9a1.6 1.6 0 1 0 0-3.2 1.6 1.6 0 0 0 0 3.2ZM55 111.9a1.6 1.6 0 1 0 0-3.2 1.6 1.6 0 0 0 0 3.2ZM81.8 111.9a1.6 1.6 0 1 0 0-3.2 1.6 1.6 0 0 0 0 3.2ZM110 110.3a1.6 1.6 0 1 1-3.2 0 1.6 1.6 0 0 1 3.3 0Z"/></svg>