<svg xmlns="http://www.w3.org/2000/svg" fill="none" viewBox="0 0 84 84">
  <defs/>
  <path fill="url(#paint0_linear)" d="M79.5 56.5l-7-3.3c-.5-.2-.9-.7-.9-1.3v-2c2.4-2 4-5.1 4-8.6v-2.9c.7-.4 1.2-1.3 1.2-2.3v-.3c0-6-4.6-10.9-10.2-10.9H64c-5.7 0-10.3 5-10.3 11v2.5a2.8 2.8 0 001.3 2.3v.6c0 3.5 1.5 6.5 3.9 8.5v2c0 .7-.3 1.2-.8 1.4l-7 3.3a6.8 6.8 0 00-3.8 6.2v17c0 .7.5 1.3 1.2 1.3.6 0 1.2-.6 1.2-1.3v-17-.4l3.2 3.4c.5.5.8 1.2.8 2v12c0 .7.6 1.3 1.2 1.3.7 0 1.2-.6 1.2-1.3v-12c0-1.4-.5-2.8-1.5-3.8l-3.8-4.1a4 4 0 011.2-1l7-3.2 5 5.4v18.7c0 .7.6 1.3 1.3 1.3.6 0 1.2-.6 1.2-1.3V61l5.1-5.4 7 3.3 1.2.9-4 4c-.9 1.1-1.4 2.5-1.4 4v12c0 .6.5 1.2 1.2 1.2s1.2-.6 1.2-1.3v-12c0-.8.3-1.5.8-2l3.2-3.4v17.4c0 .7.6 1.3 1.3 1.3.6 0 1.2-.6 1.2-1.3v-17c0-2.7-1.5-5-3.8-6.2zm-14.2 2.2l-4.5-4.8c.3-.6.5-1.3.5-2v-.5a9.7 9.7 0 008 0v.5c0 .7.1 1.4.5 2l-4.5 4.8zm0-9c-4.4 0-7.9-3.8-7.9-8.4v-.6c.8-.3 1.5-.8 2.2-1.5.5-.5.5-1.3 0-1.8-.4-.5-1.1-.5-1.6 0a4.3 4.3 0 01-1.8 1v-2.6c0-4.6 3.5-8.3 7.8-8.3h2.6c4.3 0 7.8 3.7 7.8 8.3v.3c-7.3 1.6-11-1.3-12.2-2.6-.4-.5-1.2-.5-1.7 0-.4.6-.4 1.4 0 1.9 3.8 4 9.3 4 12.6 3.6v2.3c0 4.6-3.5 8.3-7.8 8.3z"/>
  <path fill="url(#paint1_linear)" d="M27.4 58l-5.3-2.1c-.5-.2-.9-.8-.9-1.4v-1a11 11 0 005.2-9.4v-4.2c0-3.4-1.5-6.5-4-8.5l.1-1c0-3.8-2.8-6.8-6.4-6.8-3.5 0-6.3 3-6.3 6.7v1c-2.4 2-4 5.2-4 8.6v4.2c0 4 2.2 7.5 5.3 9.4v1c0 .6-.4 1.2-1 1.4l-5.2 2a6.8 6.8 0 00-4.2 6.4v15.4c0 .7.6 1.3 1.2 1.3.7 0 1.2-.6 1.2-1.3V64.3v-.6l2 2c.5.5.8 1.2.8 2v12c0 .7.5 1.3 1.2 1.3s1.2-.6 1.2-1.3v-12c0-1.4-.5-2.8-1.5-3.8l-2.4-2.6a4 4 0 011.3-1l4.4-1.7 4.8 5.2v16c0 .6.6 1.2 1.2 1.2.7 0 1.3-.6 1.3-1.3v-16l4.8-5 4.4 1.7c.5.2 1 .5 1.3.9l-2.4 2.6c-1 1-1.5 2.4-1.5 3.8v12c0 .7.5 1.3 1.2 1.3s1.2-.6 1.2-1.3v-12c0-.8.3-1.5.8-2l2-2v16c0 .7.5 1.3 1.2 1.3.6 0 1.2-.6 1.2-1.3V64.3c0-2.8-1.7-5.3-4.2-6.3zM16.1 26a4 4 0 014 3.8 9.7 9.7 0 00-7.9 0 4 4 0 014-3.8zM8.3 40c0-4.5 3.5-8.3 7.8-8.3 4.4 0 7.9 3.8 7.9 8.3v1.5c-5.6-.5-11-3.9-11.1-4-.3-.1-.6-.2-1 0-.3 0-.6.3-.7.6a7 7 0 01-2.9 2.7V40zm0 4.2v-.5c1.1-.5 3-1.6 4.4-3.3 2 1 6.5 3.3 11.3 3.6v.2c0 4.5-3.5 8.3-7.9 8.3-4.3 0-7.8-3.8-7.8-8.3zm7.8 17.3l-3.8-4c.7-.7 1.2-1.8 1.2-2.8a9.7 9.7 0 005.3 0c0 1 .5 2 1.2 2.8l-3.9 4z"/>
  <path fill="url(#paint2_linear)" d="M40.7 11.2h-2.6c-.6 0-1.2.6-1.2 1.3 0 .7.6 1.3 1.2 1.3h2.6c.7 0 1.2-.6 1.2-1.3 0-.7-.5-1.3-1.2-1.3z"/>
  <path fill="url(#paint3_linear)" d="M33 11.2H22.6c-.7 0-1.2.6-1.2 1.3 0 .7.5 1.3 1.2 1.3H33c.6 0 1.2-.6 1.2-1.3 0-.7-.6-1.3-1.2-1.3z"/>
  <path fill="url(#paint4_linear)" d="M40.7 18H30.4c-.7 0-1.2.7-1.2 1.4s.5 1.3 1.2 1.3h10.3c.7 0 1.2-.6 1.2-1.3 0-.7-.5-1.3-1.2-1.3z"/>
  <path fill="url(#paint5_linear)" d="M25.2 18h-2.6c-.7 0-1.2.7-1.2 1.4s.5 1.3 1.2 1.3h2.6c.7 0 1.2-.6 1.2-1.3 0-.7-.5-1.3-1.2-1.3z"/>
  <path fill="url(#paint6_linear)" d="M43.3 3H20c-3.5 0-6.4 3-6.4 6.8v9.6c0 .7.6 1.3 1.3 1.3.6 0 1.2-.6 1.2-1.3V9.8c0-2.3 1.7-4.2 4-4.2h23.2c2.2 0 4 1.9 4 4.2V22c0 2.3-1.8 4.2-4 4.2h-2.6c-.4 0-.8.3-1 .6-2 3.5-5.1 5.5-7.4 6.5h-.1a29 29 0 002-5.5c0-.4 0-.8-.3-1-.2-.4-.6-.6-1-.6h-6.4c-.7 0-1.2.6-1.2 1.3 0 .7.5 1.3 1.2 1.3h4.8c-.3.9-.7 2-1.3 3.2-.5 1-.3 2.2.4 3a2.4 2.4 0 002.9.7c2.4-1.1 5.8-3.2 8-7h2c3.5 0 6.4-3 6.4-6.7V9.8C49.7 6 46.8 3 43.3 3z"/>
  <path fill="url(#paint7_linear)" d="M39.4 41.4c-.7 0-1.2.6-1.2 1.3v6.8c0 .8.5 1.3 1.2 1.3s1.2-.5 1.2-1.3v-6.8c0-.7-.5-1.3-1.2-1.3z"/>
  <path fill="url(#paint8_linear)" d="M39.4 52.4c-.7 0-1.2.5-1.2 1.3 0 .7.5 1.2 1.2 1.2s1.2-.5 1.2-1.2c0-.8-.5-1.3-1.2-1.3z"/>
  <path fill="url(#paint9_linear)" d="M53.8 47.2l-3-1.2c-.5-3-2.1-5.7-4.4-7.6a11 11 0 00-8.6-2.4c-5.3.8-9.3 5.1-9.9 10.8-.3 3.5.7 7 2.9 9.5 2.2 2.6 5.3 4.1 8.6 4.1 4.6 0 8.8-3 10.6-7.4l3.7-1.3c1-.3 1.5-1.1 1.6-2.2 0-1-.6-2-1.5-2.3zm-5 3.5c-.4.1-.7.4-.8.8a9.2 9.2 0 01-8.6 6.4 9 9 0 01-6.8-3.3 10 10 0 01-2.3-7.5 9.3 9.3 0 019.1-8.6c2 0 4 .7 5.6 2 2 1.6 3.2 3.9 3.5 6.5 0 .8.6 1 2 1.6l2 .8-3.7 1.3z"/>
  <defs>
    <linearGradient id="paint0_linear" x1="66.5" x2="12.8" y1="31.6" y2="31.6" gradientUnits="userSpaceOnUse">
      <stop stop-color="#0DA6F2"/>
      <stop offset="1" stop-color="#F2390B"/>
    </linearGradient>
    <linearGradient id="paint1_linear" x1="66.5" x2="12.8" y1="31.6" y2="31.6" gradientUnits="userSpaceOnUse">
      <stop stop-color="#0DA6F2"/>
      <stop offset="1" stop-color="#F2390B"/>
    </linearGradient>
    <linearGradient id="paint2_linear" x1="66.5" x2="12.8" y1="31.6" y2="31.6" gradientUnits="userSpaceOnUse">
      <stop stop-color="#0DA6F2"/>
      <stop offset="1" stop-color="#F2390B"/>
    </linearGradient>
    <linearGradient id="paint3_linear" x1="66.5" x2="12.8" y1="31.6" y2="31.6" gradientUnits="userSpaceOnUse">
      <stop stop-color="#0DA6F2"/>
      <stop offset="1" stop-color="#F2390B"/>
    </linearGradient>
    <linearGradient id="paint4_linear" x1="66.5" x2="12.8" y1="31.6" y2="31.6" gradientUnits="userSpaceOnUse">
      <stop stop-color="#0DA6F2"/>
      <stop offset="1" stop-color="#F2390B"/>
    </linearGradient>
    <linearGradient id="paint5_linear" x1="66.5" x2="12.8" y1="31.6" y2="31.6" gradientUnits="userSpaceOnUse">
      <stop stop-color="#0DA6F2"/>
      <stop offset="1" stop-color="#F2390B"/>
    </linearGradient>
    <linearGradient id="paint6_linear" x1="66.5" x2="12.8" y1="31.6" y2="31.6" gradientUnits="userSpaceOnUse">
      <stop stop-color="#0DA6F2"/>
      <stop offset="1" stop-color="#F2390B"/>
    </linearGradient>
    <linearGradient id="paint7_linear" x1="66.5" x2="12.8" y1="31.6" y2="31.6" gradientUnits="userSpaceOnUse">
      <stop stop-color="#0DA6F2"/>
      <stop offset="1" stop-color="#F2390B"/>
    </linearGradient>
    <linearGradient id="paint8_linear" x1="66.5" x2="12.8" y1="31.6" y2="31.6" gradientUnits="userSpaceOnUse">
      <stop stop-color="#0DA6F2"/>
      <stop offset="1" stop-color="#F2390B"/>
    </linearGradient>
    <linearGradient id="paint9_linear" x1="66.5" x2="12.8" y1="31.6" y2="31.6" gradientUnits="userSpaceOnUse">
      <stop stop-color="#0DA6F2"/>
      <stop offset="1" stop-color="#F2390B"/>
    </linearGradient>
  </defs>
</svg>