<svg xmlns="http://www.w3.org/2000/svg" fill="none" viewBox="0 0 84 84">
  <defs/>
  <path fill="url(#paint0_linear)" d="M57.2 42.8c.7 0 1.4.2 2 .6l8.1 5.6c1 .7 2 1 3.2 1h7.6v-2.4h-7.6c-.6 0-1.3-.2-1.9-.6l-3.3-2.3v-41H21v7.4H6v68.2h44.3V72h15.1V61.8h.2l5.5-1.5c1.2-.3 2.4-.5 3.6-.5h3.5v-2.4h-3.5c-1.4 0-2.8.2-4.2.5L65 59.3c-2.8.8-5.8.7-8.5-.3l-2-.7c-1.8-.6-3.6-1-5.5-1H38.8c0-2 1.6-3.6 3.5-3.6h12.8c2 0 3.5-1.6 3.5-3.6 0-1.9-1.3-3.4-3-3.6l1-3.7h.6zm-1.4 18.5a16.8 16.8 0 007.2.8v7.5H50.2v-4c.4-.5.7-1 .9-1.8l1-3.7 1.7.5 2 .7zm-6.1-1.5l-.9 3.4a2 2 0 01-1.8 1.5h-.4c-1 0-2-1-2-2l.1-.5.6-2.4h4.4zm-6.8 0l-.4 1.7-.2 1.2c0 1.6.9 3 2.2 3.8l-.4 1.6 2.3.5.3-1.5h1.1v9.8H8.2V13.5h15.1V6.2H63V43l-2.5-1.8c-1-.6-2.1-1-3.3-1L62 21.5l.1-1.1c0-2.5-1.9-4.5-4.2-4.5h-.4c-2 0-3.6 1.4-4.1 3.3l-3.2 12.6V11H25.7v2.4h22.1v26.8h-2.4c-1.3 0-2.4.5-3.4 1.2H30.3V44h9.2l-2.3 2.4h-6.9v2.4h4.5l-2 2c-.6.8-1 1.8-1 2.8 0 2 1.7 3.8 3.7 3.8.3 0 .7 0 1-.2v.2c0 1.3 1 2.4 2.3 2.4H43zm9-8.5h-4.4l5-19 4 1.3-4.6 17.7zm-9-7.5c.7-.7 1.6-1 2.5-1h2l-1 3.6c-1.5 0-2.9.7-4 1.8l-6 6.3c-.3.3-.6.4-1 .4-.7 0-1.2-.6-1.2-1.3 0-.4 0-.7.3-1l8.4-8.8zm1.2 6.1c.5-.4 1-.8 1.6-1l-.6 2.4h-2.3l1.3-1.4zm15.6-29l-1.4 5.5-4-1.4 1.4-5.1a2 2 0 011.8-1.5h.4c1 0 2 .9 2 2l-.2.5zm-6 6.5l4 1.4-.6 2.5-4-1.4.6-2.5zm1.4 21.4c.7 0 1.2.6 1.2 1.3 0 .6-.5 1.2-1.2 1.2h-.8l.6-2.5h.2z"/>
  <path fill="url(#paint1_linear)" d="M40.8 16H10.5V28h30.3V16zm-2.3 9.7H12.9v-7.3h25.6v7.3z"/>
  <path fill="url(#paint2_linear)" d="M15.2 20.8h2.3v2.5h-2.3v-2.5z"/>
  <path fill="url(#paint3_linear)" d="M19.8 20.8h2.4v2.5h-2.4v-2.5z"/>
  <path fill="url(#paint4_linear)" d="M24.5 20.8h2.3v2.5h-2.3v-2.5z"/>
  <path fill="url(#paint5_linear)" d="M29.2 20.8h2.3v2.5h-2.3v-2.5z"/>
  <path fill="url(#paint6_linear)" d="M33.8 20.8h2.4v2.5h-2.4v-2.5z"/>
  <path fill="url(#paint7_linear)" d="M24.5 42.8h-2.3v4.8h-9.3V38h7v-2.5h-9.4v14.7h14v-7.3z"/>
  <path fill="url(#paint8_linear)" d="M28.4 31L17.5 42.1 16 40.7l-1.6 1.7 3.1 3.3 12.5-13-1.6-1.8z"/>
  <path fill="url(#paint9_linear)" d="M22.2 68.4h-9.3v-9.8h7v-2.4h-9.4v14.6h14v-7.3h-2.3v4.9z"/>
  <path fill="url(#paint10_linear)" d="M16 61.4L14.4 63l3.1 3.3 12.5-13-1.6-1.8L17.5 63 16 61.4z"/>
  <path fill="url(#paint11_linear)" d="M43.2 70.8h2.3v2.4h-2.3v-2.4z"/>
  <path fill="url(#paint12_linear)" d="M28 70.8h12.8v2.4H28v-2.4z"/>
  <path fill="url(#paint13_linear)" d="M30.3 36.7h15.2V39H30.3v-2.4z"/>
  <defs>
    <linearGradient id="paint0_linear" x1="63.4" x2="16.5" y1="31.4" y2="31.4" gradientUnits="userSpaceOnUse">
      <stop stop-color="#0DA6F2"/>
      <stop offset="1" stop-color="#F2390B"/>
    </linearGradient>
    <linearGradient id="paint1_linear" x1="63.4" x2="16.5" y1="31.4" y2="31.4" gradientUnits="userSpaceOnUse">
      <stop stop-color="#0DA6F2"/>
      <stop offset="1" stop-color="#F2390B"/>
    </linearGradient>
    <linearGradient id="paint2_linear" x1="63.4" x2="16.5" y1="31.4" y2="31.4" gradientUnits="userSpaceOnUse">
      <stop stop-color="#0DA6F2"/>
      <stop offset="1" stop-color="#F2390B"/>
    </linearGradient>
    <linearGradient id="paint3_linear" x1="63.4" x2="16.5" y1="31.4" y2="31.4" gradientUnits="userSpaceOnUse">
      <stop stop-color="#0DA6F2"/>
      <stop offset="1" stop-color="#F2390B"/>
    </linearGradient>
    <linearGradient id="paint4_linear" x1="63.4" x2="16.5" y1="31.4" y2="31.4" gradientUnits="userSpaceOnUse">
      <stop stop-color="#0DA6F2"/>
      <stop offset="1" stop-color="#F2390B"/>
    </linearGradient>
    <linearGradient id="paint5_linear" x1="63.4" x2="16.5" y1="31.4" y2="31.4" gradientUnits="userSpaceOnUse">
      <stop stop-color="#0DA6F2"/>
      <stop offset="1" stop-color="#F2390B"/>
    </linearGradient>
    <linearGradient id="paint6_linear" x1="63.4" x2="16.5" y1="31.4" y2="31.4" gradientUnits="userSpaceOnUse">
      <stop stop-color="#0DA6F2"/>
      <stop offset="1" stop-color="#F2390B"/>
    </linearGradient>
    <linearGradient id="paint7_linear" x1="63.4" x2="16.5" y1="31.4" y2="31.4" gradientUnits="userSpaceOnUse">
      <stop stop-color="#0DA6F2"/>
      <stop offset="1" stop-color="#F2390B"/>
    </linearGradient>
    <linearGradient id="paint8_linear" x1="63.4" x2="16.5" y1="31.4" y2="31.4" gradientUnits="userSpaceOnUse">
      <stop stop-color="#0DA6F2"/>
      <stop offset="1" stop-color="#F2390B"/>
    </linearGradient>
    <linearGradient id="paint9_linear" x1="63.4" x2="16.5" y1="31.4" y2="31.4" gradientUnits="userSpaceOnUse">
      <stop stop-color="#0DA6F2"/>
      <stop offset="1" stop-color="#F2390B"/>
    </linearGradient>
    <linearGradient id="paint10_linear" x1="63.4" x2="16.5" y1="31.4" y2="31.4" gradientUnits="userSpaceOnUse">
      <stop stop-color="#0DA6F2"/>
      <stop offset="1" stop-color="#F2390B"/>
    </linearGradient>
    <linearGradient id="paint11_linear" x1="63.4" x2="16.5" y1="31.4" y2="31.4" gradientUnits="userSpaceOnUse">
      <stop stop-color="#0DA6F2"/>
      <stop offset="1" stop-color="#F2390B"/>
    </linearGradient>
    <linearGradient id="paint12_linear" x1="63.4" x2="16.5" y1="31.4" y2="31.4" gradientUnits="userSpaceOnUse">
      <stop stop-color="#0DA6F2"/>
      <stop offset="1" stop-color="#F2390B"/>
    </linearGradient>
    <linearGradient id="paint13_linear" x1="63.4" x2="16.5" y1="31.4" y2="31.4" gradientUnits="userSpaceOnUse">
      <stop stop-color="#0DA6F2"/>
      <stop offset="1" stop-color="#F2390B"/>
    </linearGradient>
  </defs>
</svg>