<svg xmlns="http://www.w3.org/2000/svg" fill="none" viewBox="0 0 892 892"><path stroke="url(#a)" stroke-miterlimit="10" stroke-width="2" d="M446 688.727c134.054 0 242.727-108.672 242.727-242.727S580.054 203.273 446 203.273c-134.055 0-242.727 108.672-242.727 242.727S311.945 688.727 446 688.727Z"/><path stroke="url(#b)" stroke-miterlimit="10" stroke-width="2" d="M446 174.376c36.261 0 69.111 15.82 100.628 28.896 32.619 13.538 66.854 26.075 91.447 50.663 24.593 24.589 37.133 58.791 50.673 91.43 13.079 31.511 28.875 64.355 28.875 100.584 0 36.228-15.796 69.098-28.875 100.608-13.54 32.614-26.08 66.842-50.673 91.43-24.593 24.589-58.828 37.126-91.447 50.766-31.517 13.076-64.367 28.87-100.628 28.87-36.261 0-69.085-15.794-100.602-28.87-32.645-13.537-66.88-26.075-91.447-50.663-24.568-24.588-37.133-58.817-50.673-91.43-13.079-31.511-28.901-64.355-28.901-100.609 0-36.254 15.822-69.072 28.901-100.583 13.54-32.639 26.08-66.868 50.673-91.43 24.592-24.563 58.802-37.126 91.447-50.663 31.517-13.179 64.367-28.999 100.602-28.999Z" opacity=".9"/><path stroke="url(#c)" stroke-miterlimit="10" stroke-width="2" d="M445.974 145.48c39.572 0 73.861 25.054 108.252 39.338 35.622 14.771 77.399 21.823 104.251 48.723 26.851 26.901 33.904 68.623 48.727 104.242 14.259 34.388 39.315 68.674 39.315 108.217 0 39.543-25.056 73.854-39.315 108.242-14.772 35.62-21.85 77.393-48.727 104.242-26.877 26.849-68.603 33.901-104.225 48.723-34.392 14.258-68.68 39.312-108.252 39.312-39.572 0-73.835-25.054-108.252-39.312-35.596-14.77-77.374-21.848-104.225-48.723-26.851-26.874-33.904-68.597-48.727-104.216-14.259-34.465-39.316-68.751-39.316-108.319 0-39.569 25.057-73.829 39.341-108.243 14.772-35.593 21.825-77.367 48.728-104.216 26.902-26.849 68.628-33.901 104.251-48.723 34.34-14.233 68.628-39.287 108.174-39.287Z" opacity=".8"/><path stroke="url(#d)" stroke-miterlimit="10" stroke-width="2" d="M446 116.584c42.863 0 78.622 34.322 115.893 49.764 38.477 16.032 87.959 17.623 117.047 46.737 29.089 29.115 30.782 78.442 46.712 117.022 15.391 37.297 49.764 73.03 49.764 115.893 0 42.864-34.296 78.622-49.764 115.893-16.007 38.477-17.623 87.959-46.712 117.048-29.088 29.088-78.442 30.781-117.047 46.711-37.271 15.391-73.03 49.764-115.893 49.764-42.864 0-78.596-34.296-115.893-49.764-38.606-16.007-87.933-17.623-117.048-46.711-29.114-29.089-30.781-78.442-46.711-117.048-15.391-37.271-49.764-73.029-49.764-115.893 0-42.863 34.322-78.596 49.764-115.893 16.032-38.605 17.623-87.933 46.737-117.048 29.114-29.114 78.442-30.781 117.022-46.711 37.297-15.442 73.029-49.764 115.893-49.764Z" opacity=".7"/><path stroke="url(#e)" stroke-miterlimit="10" d="M445.961 87.688c46.173 0 83.368 43.608 123.512 60.204 41.581 17.263 98.501 13.39 129.847 44.736 31.346 31.346 27.473 88.241 44.711 129.822 16.673 40.17 60.281 77.339 60.281 123.511 0 46.173-43.608 83.368-60.23 123.512-17.238 41.581-13.364 98.501-44.71 129.847-31.346 31.346-88.267 27.473-129.848 44.711-40.195 16.673-77.39 60.281-123.563 60.281-46.172 0-83.341-43.608-123.511-60.23-41.581-17.238-98.476-13.364-129.822-44.71-31.346-31.346-27.473-88.318-44.736-129.899-16.648-40.144-60.204-77.339-60.204-123.512 0-46.172 43.608-83.341 60.204-123.511 17.263-41.581 13.39-98.476 44.736-129.822 31.346-31.346 88.241-27.473 129.822-44.736 40.17-16.648 77.339-60.204 123.511-60.204Z" opacity=".6"/><path stroke="url(#f)" stroke-miterlimit="10" d="M445.987 58.792c49.49 0 88.127 52.8 131.152 70.656 44.589 18.498 109.062 9.159 142.645 42.742 33.583 33.583 24.27 98.082 42.742 142.646 17.959 43.05 70.682 81.661 70.682 131.151 0 49.49-52.825 88.127-70.682 131.152-18.472 44.589-9.133 109.062-42.742 142.645-33.609 33.583-98.056 24.27-142.645 42.742-43.025 17.959-81.662 70.682-131.152 70.682-49.49 0-87.999-52.825-131.151-70.682-44.564-18.472-109.037-9.133-142.646-42.742-33.609-33.609-24.244-98.056-42.742-142.645-17.959-43.025-70.656-81.662-70.656-131.152 0-49.49 52.902-87.999 70.656-131.151 18.498-44.564 9.159-109.037 42.742-142.646 33.583-33.609 98.082-24.244 142.646-42.742 43.152-17.754 81.636-70.656 131.151-70.656Z" opacity=".5"/><path stroke="url(#g)" stroke-miterlimit="10" d="M445.962 29.896c52.8 0 92.875 62.062 138.774 81.099 47.566 19.73 119.583 4.926 155.501 40.768 35.919 35.841 21.038 107.755 40.768 155.424 19.037 45.925 81.099 86 81.099 138.774 0 52.775-62.062 92.876-81.099 138.774-19.781 47.567-4.849 119.584-40.768 155.502-35.918 35.919-107.884 21.038-155.45 40.768-45.899 19.037-85.974 81.099-138.774 81.099s-92.85-62.062-138.774-81.099c-47.618-19.781-119.635-4.849-155.476-40.768-35.842-35.918-21.038-107.884-40.768-155.45-19.037-45.899-81.099-85.974-81.099-138.774 0-52.801 62.062-92.85 81.099-138.774 19.73-47.567 4.926-119.583 40.768-155.425 35.841-35.842 107.755-21.038 155.425-40.768 45.924-19.088 85.999-81.15 138.774-81.15Z" opacity=".4"/><path stroke="url(#h)" stroke-miterlimit="10" d="M445.987 1c56.117 0 97.506 71.308 146.413 91.553 50.575 20.964 130.145.667 168.25 38.772 38.104 38.104 17.833 117.7 38.797 168.249C819.667 348.327 891 389.895 891 445.987c0 56.092-71.333 97.506-91.553 146.413-20.964 50.575-.693 130.145-38.797 168.25-38.105 38.104-117.675 17.833-168.25 38.797C543.647 819.667 502.104 891 445.987 891c-56.117 0-97.506-71.333-146.413-91.553-50.549-20.964-130.145-.693-168.249-38.797-38.105-38.105-17.808-117.675-38.772-168.25C72.308 543.647 1 502.104 1 445.987c0-56.117 71.308-97.506 91.553-146.413 20.964-50.549.667-130.145 38.772-168.249 38.104-38.105 117.7-17.808 168.249-38.772C348.378 72.308 389.895 1 445.987 1Z" opacity=".3"/><defs><linearGradient id="a" x1="200.709" x2="691.291" y1="446" y2="446" gradientUnits="userSpaceOnUse"><stop stop-color="#F23C0E"/><stop offset="1" stop-color="#0DA6F2"/></linearGradient><linearGradient id="b" x1="172.043" x2="719.983" y1="445.949" y2="445.949" gradientUnits="userSpaceOnUse"><stop stop-color="#F23B0D"/><stop offset="1" stop-color="#0DA6F2"/></linearGradient><linearGradient id="c" x1="143.377" x2="748.597" y1="445.949" y2="445.949" gradientUnits="userSpaceOnUse"><stop stop-color="#F23A0C"/><stop offset="1" stop-color="#0DA6F1"/></linearGradient><linearGradient id="d" x1="114.686" x2="777.314" y1="446" y2="446" gradientUnits="userSpaceOnUse"><stop stop-color="#FF643E"/><stop offset="1" stop-color="#50C5FF"/></linearGradient><linearGradient id="e" x1="86.021" x2="805.928" y1="445.961" y2="445.961" gradientUnits="userSpaceOnUse"><stop stop-color="#B2776D"/><stop offset="1" stop-color="#2D4AFF"/></linearGradient><linearGradient id="f" x1="57.355" x2="834.645" y1="445.987" y2="445.987" gradientUnits="userSpaceOnUse"><stop stop-color="#9F6C81"/><stop offset="1" stop-color="#2D4AFF"/></linearGradient><linearGradient id="g" x1="28.665" x2="863.258" y1="445.961" y2="445.961" gradientUnits="userSpaceOnUse"><stop stop-color="#8C6194"/><stop offset="1" stop-color="#2D4AFF"/></linearGradient><linearGradient id="h" x1="-.001" x2="892.001" y1="445.987" y2="445.987" gradientUnits="userSpaceOnUse"><stop stop-color="#7956A7"/><stop offset="1" stop-color="#2D4AFF"/></linearGradient></defs></svg>