<svg xmlns="http://www.w3.org/2000/svg" fill="none" viewBox="0 0 84 84">
  <defs/>
  <path fill="url(#paint0_linear)" d="M80.9 23.2l-5.2-.7c-.7-.1-1.2-.8-1.1-1.5 0-.3.2-.6.5-.9l4.2-3c.5-.5.7-1.3.2-1.9L74.7 9c-.4-.6-1.2-.7-1.8-.3l-4.2 3.1c-.6.5-1.4.4-1.8-.2-.3-.3-.4-.6-.3-1l.7-5.1c.1-.7-.4-1.4-1-1.5l-8-1c-.7-.2-1.4.3-1.5 1L56.1 9a1.3 1.3 0 01-2.4.6l-3.1-4.1c-.5-.6-1.3-.7-1.9-.3l-4 3A25 25 0 0017 30.6v1h-.4c-.6 0-1.2.5-1.3 1.1l-1 4.3-3.6-2.5c-.5-.3-1.2-.3-1.7.2l-4 4c-.4.4-.5 1-.1 1.6l2.5 3.6L3 45c-.6 0-1 .6-1 1.2v5.3c0 .6.4 1.1 1 1.2l4.4 1L5 57.1c-.4.5-.3 1.2.1 1.6l4 4c.5.4 1.2.5 1.7.1l3.7-2.5 1 4.3c0 .7.6 1 1.2 1H22c.6 0 1.2-.3 1.3-1l1-4.3 3.6 2.5c.5.4 1.2.3 1.7-.1l2-2v3.7c0 1.8 1 3.6 2.7 4.5v7.3c0 2.9 2.4 5.2 5.3 5.2h5.3c3 0 5.3-2.3 5.3-5.2V69c1.7-1 2.7-2.7 2.7-4.5v-5.2c0-2.2 1.2-4.2 3-5.4 1.2-.7 2.2-1.5 3.2-2.3l-1.8-2c-.9.8-1.8 1.5-2.8 2.1a9 9 0 00-4.3 7.6v5.2c0 1.4-1.2 2.6-2.6 2.6H36.9a2.6 2.6 0 01-2.7-2.6v-5.3c0-3-1.6-5.8-4.2-7.4A22.1 22.1 0 0123 21a22.6 22.6 0 0118.9-10.4v.1c-.1.4 0 .7.2 1l3.1 4.1c.3.4.4 1 .1 1.5-.3.4-.8.7-1.3.6l-5.2-.7c-.7-.1-1.4.4-1.5 1.1l-1.1 7.8c-.1.7.4 1.4 1.1 1.5l5.2.7c.7.1 1.2.8 1.1 1.5 0 .3-.2.6-.5.9l-4.2 3c-.6.5-.7 1.3-.3 1.9l4.8 6.3c.5.6 1.3.7 1.9.3l4.2-3.1c.5-.5 1.4-.4 1.8.2.2.3.3.6.3 1l-.8 5.1c0 .7.4 1.4 1.1 1.5l8 1.1h.1c.7 0 1.2-.5 1.3-1.1l.8-5.1c0-.7.7-1.2 1.5-1.1.3 0 .6.2.8.5l3.2 4.1c.4.6 1.3.7 1.8.3l6.4-4.8c.6-.4.7-1.2.3-1.8L72.9 35c-.3-.4-.3-1 0-1.5.2-.4.8-.7 1.3-.6l5.2.7c.7.1 1.4-.4 1.5-1.1l1-7.8c.2-.7-.3-1.4-1-1.5zm-44 46.5h10.6v2.6H36.9v-2.6zm0 5.3h10.6v1.3c0 1.4-1.2 2.6-2.7 2.6h-5.3a2.6 2.6 0 01-2.6-2.6V75zM26.3 52.3a25 25 0 002.3 1.7c1.2.8 2.2 2 2.6 3.3l-2.8 2.8-2.8-1.8a2.7 2.7 0 00-4 1.6l-.8 3.3h-3.1l-.7-3.3a2.7 2.7 0 00-4.1-1.6L10 60l-2.4-2.3L9.6 55A2.6 2.6 0 008 51l-3.3-.7v-3.1l3.3-.7a2.6 2.6 0 001.6-4l-1.9-2.8 2.4-2.4 2.8 1.9a2.7 2.7 0 004-1.6l.3-1.1c.2 1.5.6 3 1 4.4a7.9 7.9 0 00-6.9 8.8 8 8 0 008.9 6.9 8 8 0 006.1-4.3zm-2-1.8c-1 2.7-4 4.1-6.8 3.1a5.2 5.2 0 011.8-10.1c1.2 2.6 2.9 5 5 7zm54.1-19.7l-3.8-.5a4 4 0 00-4.5 3.3c-.2 1 0 2.1.7 3l2.3 3-4.2 3.2-2.3-3.1a4 4 0 00-5.6-.8 4 4 0 00-1.6 2.6l-.5 3.8-5.3-.7.6-3.8a4 4 0 00-3.4-4.5 4 4 0 00-3 .8l-3 2.3-3.2-4.2 3-2.3a4 4 0 00.9-5.6 4 4 0 00-2.7-1.5l-3.8-.5.8-5.2 3.8.5a4 4 0 004.5-3.3c.2-1-.1-2.1-.7-3l-2.4-3L49.3 8l2.3 3.1a4 4 0 005.6.8 4 4 0 001.5-2.6l.6-3.8 5.2.7-.5 3.8a4 4 0 003.4 4.5 4 4 0 003-.8l3-2.3 3.2 4.2-3.1 2.3a4 4 0 00-.8 5.6 4 4 0 002.6 1.5l3.9.5-.8 5.2z"/>
  <path fill="url(#paint1_linear)" d="M59 15c-5.8 0-10.5 4.7-10.5 10.4C48.5 31.2 53.2 36 59 36c5.8 0 10.6-4.7 10.6-10.5 0-5.7-4.8-10.4-10.6-10.4zm0 18.3a8 8 0 01-7.9-7.9 8 8 0 018-7.8 8 8 0 018 7.8 8 8 0 01-8 8z"/>
  <path fill="url(#paint2_linear)" d="M43.5 60.5h-2.7v4h2.7v-4z"/>
  <path fill="url(#paint3_linear)" d="M36.4 47.6a15.7 15.7 0 01-2.7-28l-1.4-2.2a18.3 18.3 0 003.1 32.7 8.4 8.4 0 015.4 7.8h2.7a11 11 0 00-7.1-10.3z"/>
  <path fill="url(#paint4_linear)" d="M76.7 51.4h-9.3V54h9.3v-2.6z"/>
  <path fill="url(#paint5_linear)" d="M67 58.2l-1.8 2 8 6.6 1.7-2-8-6.6z"/>
  <path fill="url(#paint6_linear)" d="M62 61.8h-2.6V71h2.7v-9.2z"/>
  <path fill="url(#paint7_linear)" d="M14 22.5L3.4 25.1l.6 2.6L14.6 25l-.6-2.6z"/>
  <path fill="url(#paint8_linear)" d="M7.1 9.6l-1.5 2.1 9.3 6.6 1.5-2.1L7 9.6z"/>
  <path fill="url(#paint9_linear)" d="M19.5 2.5L17 3l2.7 10.5 2.6-.6-2.7-10.5z"/>
  <defs>
    <linearGradient id="paint0_linear" x1="65.7" x2="13.7" y1="31.4" y2="31.4" gradientUnits="userSpaceOnUse">
      <stop stop-color="#0DA6F2"/>
      <stop offset="1" stop-color="#F2390B"/>
    </linearGradient>
    <linearGradient id="paint1_linear" x1="65.7" x2="13.7" y1="31.4" y2="31.4" gradientUnits="userSpaceOnUse">
      <stop stop-color="#0DA6F2"/>
      <stop offset="1" stop-color="#F2390B"/>
    </linearGradient>
    <linearGradient id="paint2_linear" x1="65.7" x2="13.7" y1="31.4" y2="31.4" gradientUnits="userSpaceOnUse">
      <stop stop-color="#0DA6F2"/>
      <stop offset="1" stop-color="#F2390B"/>
    </linearGradient>
    <linearGradient id="paint3_linear" x1="65.7" x2="13.7" y1="31.4" y2="31.4" gradientUnits="userSpaceOnUse">
      <stop stop-color="#0DA6F2"/>
      <stop offset="1" stop-color="#F2390B"/>
    </linearGradient>
    <linearGradient id="paint4_linear" x1="65.7" x2="13.7" y1="31.4" y2="31.4" gradientUnits="userSpaceOnUse">
      <stop stop-color="#0DA6F2"/>
      <stop offset="1" stop-color="#F2390B"/>
    </linearGradient>
    <linearGradient id="paint5_linear" x1="65.7" x2="13.7" y1="31.4" y2="31.4" gradientUnits="userSpaceOnUse">
      <stop stop-color="#0DA6F2"/>
      <stop offset="1" stop-color="#F2390B"/>
    </linearGradient>
    <linearGradient id="paint6_linear" x1="65.7" x2="13.7" y1="31.4" y2="31.4" gradientUnits="userSpaceOnUse">
      <stop stop-color="#0DA6F2"/>
      <stop offset="1" stop-color="#F2390B"/>
    </linearGradient>
    <linearGradient id="paint7_linear" x1="65.7" x2="13.7" y1="31.4" y2="31.4" gradientUnits="userSpaceOnUse">
      <stop stop-color="#0DA6F2"/>
      <stop offset="1" stop-color="#F2390B"/>
    </linearGradient>
    <linearGradient id="paint8_linear" x1="65.7" x2="13.7" y1="31.4" y2="31.4" gradientUnits="userSpaceOnUse">
      <stop stop-color="#0DA6F2"/>
      <stop offset="1" stop-color="#F2390B"/>
    </linearGradient>
    <linearGradient id="paint9_linear" x1="65.7" x2="13.7" y1="31.4" y2="31.4" gradientUnits="userSpaceOnUse">
      <stop stop-color="#0DA6F2"/>
      <stop offset="1" stop-color="#F2390B"/>
    </linearGradient>
  </defs>
</svg>