<svg xmlns="http://www.w3.org/2000/svg" fill="none" viewBox="0 0 84 84">
  <defs/>
  <path fill="url(#paint0_linear)" d="M74.3 66.1a6 6 0 002.1-4.5v-2.4c0-3.4-2.9-6.2-6.4-6.2-3 0-5.6 2.1-6.2 5h-4.2c-.5-1.5-2-2.5-3.6-2.5s-3 1-3.6 2.4h-4.2a6.3 6.3 0 00-5-4.7v-2.8a5 5 0 003.9-4.7h1.3c.7 0 1.2-.6 1.2-1.2v-3.7h2.6v-2.5h-2.6c0-2.3 1.2-4.6 3.2-6.3a15.5 15.5 0 00.7-23.5 16.8 16.8 0 00-28 11.1c-.2 4.7 2 9.2 5.6 12.3 2 1.7 3.2 4 3.2 6.4h-2.5v2.5h2.6v3.7c0 .6.5 1.2 1.2 1.2H37a5 5 0 003.8 4.7v2.8a6.3 6.3 0 00-5 4.7h-4.1c-.6-1.4-2-2.4-3.6-2.4-1.7 0-3 1-3.6 2.4h-4.2A6.3 6.3 0 0014 53a6.3 6.3 0 00-6.4 6.2v2.4a6 6 0 002 4.5 11 11 0 00-7.1 10.2v2.5c0 .7.6 1.2 1.3 1.2h20.4c.7 0 1.2-.5 1.2-1.2v-2.5c0-4.6-3-8.6-7.1-10.2a6 6 0 002-4.5v-1.2h4.1c.5 1.4 2 2.4 3.6 2.4s3-1 3.6-2.4h4v1.2a6 6 0 002.1 4.5 11 11 0 00-7.2 10.2v2.5c0 .7.6 1.2 1.3 1.2h20.4c.7 0 1.3-.5 1.3-1.2v-2.5c0-4.6-3-8.6-7.2-10.2a6 6 0 002-4.5v-1.2h4.1c.6 1.4 2 2.4 3.6 2.4 1.7 0 3-1 3.6-2.4h4v1.2a6 6 0 002.1 4.5 11 11 0 00-7.1 10.2v2.5c0 .7.5 1.2 1.2 1.2h20.4c.7 0 1.3-.5 1.3-1.2v-2.5c0-4.6-3-8.6-7.2-10.2zM23 76.3v1.2h-2.6v-2.4h-2.5v2.4H10v-2.4H7.6v2.4H5v-1.2c0-4.7 4-8.6 9-8.6 4.9 0 8.9 3.9 8.9 8.6zM10 61.6v-2.4c0-2 1.8-3.7 3.9-3.7 2 0 3.8 1.6 3.8 3.7v2.4c0 2-1.7 3.7-3.8 3.7a3.8 3.8 0 01-3.9-3.7zM28 60.4c-.7 0-1.3-.6-1.3-1.2 0-.7.6-1.3 1.3-1.3.7 0 1.3.6 1.3 1.3 0 .6-.6 1.2-1.3 1.2zM32.8 30A13.2 13.2 0 0128 19.7c.1-7 6.1-13 13.4-13.2 4-.2 7.5 1.1 10.3 3.7a13.1 13.1 0 01-.5 20c-2.6 2-4.1 5-4.1 8.1H36.9c0-3-1.6-6-4.1-8.2zM47 40.8v2.4H36.9v-2.4h10.2zm-7.6 4.9h5c0 1.3-1.1 2.4-2.5 2.4a2.5 2.5 0 01-2.5-2.4zm11.4 30.6v1.2h-2.5v-2.4h-2.6v2.4h-7.6v-2.4h-2.6v2.4h-2.5v-1.2c0-4.7 4-8.6 8.9-8.6 5 0 9 3.9 9 8.6zM38.2 61.6v-2.4c0-2 1.7-3.7 3.8-3.7 2.1 0 3.8 1.6 3.8 3.7v2.4c0 2-1.7 3.7-3.8 3.7a3.8 3.8 0 01-3.8-3.7zM56 60.4c-.7 0-1.3-.6-1.3-1.2 0-.7.6-1.3 1.3-1.3.7 0 1.3.6 1.3 1.3 0 .6-.6 1.2-1.3 1.2zm10.2 1.2v-2.4c0-2 1.7-3.7 3.8-3.7 2.1 0 3.9 1.6 3.9 3.7v2.4c0 2-1.8 3.7-3.9 3.7a3.8 3.8 0 01-3.8-3.7zm12.8 16h-2.6V75h-2.5v2.4h-7.7v-2.4h-2.5v2.4H61v-1.2c0-4.7 4-8.6 9-8.6 4.8 0 8.9 3.9 8.9 8.6v1.2z"/>
  <path fill="url(#paint1_linear)" d="M39.5 33.4h5V36h-5v-2.5z"/>
  <defs>
    <linearGradient id="paint0_linear" x1="65.4" x2="14.1" y1="31.8" y2="31.8" gradientUnits="userSpaceOnUse">
      <stop stop-color="#0DA6F2"/>
      <stop offset="1" stop-color="#F2390B"/>
    </linearGradient>
    <linearGradient id="paint1_linear" x1="65.4" x2="14.1" y1="31.8" y2="31.8" gradientUnits="userSpaceOnUse">
      <stop stop-color="#0DA6F2"/>
      <stop offset="1" stop-color="#F2390B"/>
    </linearGradient>
  </defs>
</svg>
