<svg xmlns="http://www.w3.org/2000/svg" width="100" height="100" fill="none"><path fill="#C2C2C2" fill-rule="evenodd" d="M61.772 50.637c0 6.101-5.255 11.21-11.53 11.21-6.276 0-11.53-5.109-11.53-11.21v-21c0-6.102 5.254-11.21 11.53-11.21 6.421 0 11.53 5.108 11.53 11.21v21Z" clip-rule="evenodd"/><path fill="#C2C2C2" fill-rule="evenodd" d="M56.951 77.738h-4.524V65.961c1.022 0 2.043-.284 2.481-.425 1.022-.284 4.378-1.845 5.254-2.413.73-.71 3.211-3.263 3.795-4.114.438-.994 1.167-2.413 1.46-3.548.291-.993.291-1.844.291-1.844.146-.994.292-2.838.292-3.831v-7.52c0-1.136-.292-2.839-.73-3.832l-1.167-3.405c-.292-.994-.584-.994-.584.141V49.785c0 .994-.292 4.4-.438 5.109-.292.851-1.605 3.405-2.19 4.114-.583.568-2.772 2.413-3.502 2.98-.73.426-3.649 1.42-4.524 1.561-1.022.142-1.752.142-1.752.142h-1.021c-.146 0-2.627-.284-3.503-.426-.875-.284-3.502-1.56-4.232-1.986-.584-.568-2.627-2.696-3.065-3.406-.438-.851-1.46-3.547-1.605-4.398-.146-.852-.146-2.413-.146-3.548V35.312c0-.993-.438-.993-.73-.142l-1.168 3.406c-.73.851-1.021 2.554-1.021 3.69v7.52c0 .993.291 4.824.583 5.817.292.993 1.898 4.257 2.482 5.108.73.71 3.356 2.98 4.232 3.547 1.022.426 2.481 1.136 3.649 1.561 1.021.426 1.897.426 1.897.426h.438v11.777h-4.379c-.584 0-1.021.426-1.021.993v1.845c0 .567.438.993 1.021.993h6.568l6.86-.24c.437 0 .875-.186.875-.753v-2.27c.146-.568-.438-.852-.876-.852Z" clip-rule="evenodd"/><circle cx="50" cy="50" r="49" stroke="#C2C2C2" stroke-width="2"/></svg>